<?xml version="1.0" encoding="utf-8"?>
<!-- Generator: Adobe Illustrator 24.0.2, SVG Export Plug-In . SVG Version: 6.00 Build 0)  -->
<svg version="1.1" id="Capa_1" xmlns="http://www.w3.org/2000/svg" xmlns:xlink="http://www.w3.org/1999/xlink" x="0px" y="0px"
	 viewBox="0 0 233 131" style="enable-background:new 0 0 233 131;" xml:space="preserve">
<style type="text/css">
	.st0{opacity:0.9;}
	.st1{fill:#C4C4C4;filter:url(#Adobe_OpacityMaskFilter);}
	.st2{mask:url(#mask0_1_);}
	.st3{opacity:0.4;}
	.st4{opacity:0.2;}
	.st5{fill-rule:evenodd;clip-rule:evenodd;fill:#9F9F9F;}
</style>
<g class="st0">
	<defs>
		<filter id="Adobe_OpacityMaskFilter" filterUnits="userSpaceOnUse" x="2" y="6.6" width="253" height="124.9">
			<feColorMatrix  type="matrix" values="1 0 0 0 0  0 1 0 0 0  0 0 1 0 0  0 0 0 1 0"/>
		</filter>
	</defs>
	<mask maskUnits="userSpaceOnUse" x="2" y="6.6" width="253" height="124.9" id="mask0_1_">
		<rect y="0" class="st1" width="233" height="131"/>
	</mask>
	<g class="st2">
		<g class="st3">
			<g class="st4">
				<path class="st5" d="M225.4,24.4c0,10.5,0,21,0,31.5c0.8,0,1.5,0.1,2.2,0.1c0-0.8,0.1-1.6,0.1-2.4c0-9.1,0-18.2-0.1-27.3
					c0-1.4,0.4-2.3,1.7-3c7.8-4.5,15.6-9,23.5-13.5c0.7-0.4,1.4-0.8,2.2-1.2c-0.4-0.7-0.7-1.2-1.1-1.9c-9.1,5.3-18.2,10.5-27.3,15.8
					c-9.2-5.3-18.3-10.5-27.4-15.8c-0.4,0.7-0.7,1.2-1.1,2C207.1,13.9,216.2,19.1,225.4,24.4z M227.1,24.6c-0.6-0.2-0.9-0.3-1.3-0.5
					c0.1-0.4,0.2-0.8,0.4-1.1c0.1-0.1,0.8,0,0.9,0.2C227.3,23.5,227.1,24,227.1,24.6z"/>
				<path class="st5" d="M188.5,45.7c0-10.5,0-20.9,0-31.5c-0.8,0-1.5-0.1-2.3-0.1c0,10.5,0,21,0,31.6c-9.1,5.3-18.2,10.5-27.3,15.8
					c0.4,0.7,0.7,1.2,1.1,1.9c0.8-0.4,1.5-0.8,2.2-1.3c7.7-4.4,15.4-8.8,23-13.4c1.6-0.9,2.7-0.9,4.2,0c7.7,4.5,15.5,9,23.2,13.4
					c0.6,0.4,1.3,0.7,2,1.1c0.4-0.6,0.7-1.2,1.1-2C206.7,56.2,197.6,50.9,188.5,45.7z M188.2,45.7c-0.2,0.6-0.3,1-0.5,1.3
					c-0.2,0.2-0.9,0.1-0.9-0.1c-0.1-0.3-0.1-0.9,0.1-1.1C187.1,45.6,187.6,45.7,188.2,45.7z"/>
				<path class="st5" d="M107.8,92.4c0,10.6,0,21,0,31.5c0.8,0,1.4,0.1,2.2,0.1c0-0.3,0.1-0.6,0.1-1c0-9.2,0-18.3,0-27.5
					c0-0.5,0.1-1,0-1.6c-0.2-1.2,0.4-1.9,1.4-2.5c4.4-2.5,8.7-5,13.1-7.5c4.2-2.4,8.5-4.9,12.8-7.4c-0.4-0.6-0.7-1.1-1.1-1.8
					c-0.3,0.1-0.6,0.2-0.9,0.4c-7.7,4.5-15.5,9-23.2,13.4c-0.5,0.3-1.1,0.5-1.5,0.9c-1.1,0.8-2,0.7-3.2,0
					c-5.9-3.5-11.8-6.8-17.7-10.2c-2.7-1.5-5.4-3.1-8.1-4.7c-0.4,0.6-0.7,1.2-1.2,2C89.5,81.8,98.6,87.1,107.8,92.4z M109.5,92.5
					c-0.6-0.2-0.9-0.3-1.3-0.5c0.1-0.4,0.2-0.8,0.4-1.1c0.1-0.1,0.8,0,0.9,0.2C109.7,91.5,109.5,92,109.5,92.5z"/>
				<path class="st5" d="M70.9,82.2c-0.8,0-1.4-0.1-2.3-0.1c0,10.5,0,20.9,0,31.6c-9.1,5.2-18.1,10.5-27.3,15.8
					c0.4,0.7,0.7,1.2,1.1,2c0.7-0.4,1.4-0.8,2.1-1.2c7.7-4.4,15.4-8.8,23-13.4c1.6-1,2.8-0.9,4.4,0c7.6,4.5,15.3,8.9,23,13.3
					c0.7,0.4,1.4,0.8,2.1,1.2c0.4-0.6,0.7-1.2,1.1-1.9C89,124.3,80,119,70.8,113.7C70.9,103.2,70.9,92.7,70.9,82.2z M68.7,114.8
					c0.3-0.5,0.5-1,0.8-1.2c0.2-0.1,0.6,0.1,1,0.2c-0.1,0.4-0.1,0.9-0.4,1.1C69.9,115.1,69.4,114.9,68.7,114.8z"/>
				<path class="st5" d="M215.8,76.5c-0.4-0.8-0.8-1.3-1.2-2c-9.1,5.3-18.2,10.5-27.3,15.8c-9.1-5.3-18.2-10.5-27.3-15.7
					c-0.4,0.6-0.7,1.2-1.2,1.9c9.1,5.3,18.2,10.5,27.4,15.8c0,10.5,0,21,0,31.5c0.8,0,1.4,0,2.2,0.1c0-0.6,0.1-1.3,0.1-1.9
					c0-8.9,0.1-17.9-0.1-26.8c0-2.1,0.7-3.3,2.5-4.3c7.6-4.2,15.1-8.7,22.7-13C214.3,77.3,215,76.9,215.8,76.5z M187.9,92.6
					c-0.6-0.3-1.1-0.4-1.2-0.6c-0.1-0.3,0.1-0.9,0.4-1c0.2-0.1,0.9,0.1,1,0.3C188.2,91.5,188,92,187.9,92.6z"/>
				<path class="st5" d="M149.3,113.6c0-10.6,0-21,0-31.6c-0.8,0-1.5,0-2.3,0c0,4.4,0,8.8,0,13.1c0,5.3-0.1,10.6,0.1,16
					c0,1.9-0.6,2.9-2.3,3.8c-7.7,4.3-15.3,8.8-22.9,13.2c-0.7,0.4-1.4,0.8-2.2,1.3c0.4,0.6,0.7,1.2,1.1,1.8c0.2-0.1,0.5-0.1,0.7-0.2
					c3.1-1.8,6.2-3.5,9.2-5.3c5.1-2.9,10.2-5.8,15.2-8.8c1.6-1,2.8-1,4.4,0c7.7,4.6,15.5,9,23.2,13.4c0.6,0.4,1.3,0.7,2,1.1
					c0.4-0.6,0.7-1.2,1.1-2C167.5,124.1,158.5,118.9,149.3,113.6z M147.2,114.9c0.2-0.6,0.2-1.1,0.5-1.2c0.3-0.1,0.8,0.1,1.1,0.2
					c-0.1,0.4,0,0.9-0.3,1.1C148.4,115.1,147.8,114.9,147.2,114.9z"/>
				<path class="st5" d="M120.8,6.7c-0.4,0.7-0.7,1.3-1.1,2c9.1,5.2,18.1,10.5,27.3,15.8c0,10.5,0,21,0,31.5c0.8,0,1.4,0,2.2,0.1
					c0-0.8,0.1-1.5,0.1-2.3c0-9.1,0-18.2-0.1-27.3c0-1.5,0.5-2.4,1.8-3.1c7.8-4.4,15.5-8.9,23.2-13.4c0.7-0.4,1.4-0.8,2.2-1.3
					c-0.4-0.6-0.7-1.1-1-1.7c-0.1,0-0.2-0.1-0.3,0c-0.7,0.4-1.4,0.7-2.1,1.1c-7.6,4.4-15.3,8.7-22.8,13.2c-1.6,0.9-2.7,0.8-4.2-0.1
					c-7.7-4.5-15.5-9-23.2-13.4C122.2,7.5,121.5,7.1,120.8,6.7z M148.6,24.8c-0.5-0.3-1.1-0.4-1.2-0.6c-0.1-0.3,0.1-0.9,0.4-1
					c0.3-0.1,0.9,0.1,1.1,0.3C149,23.7,148.7,24.2,148.6,24.8z"/>
				<path class="st5" d="M80.5,61.6c0.4,0.7,0.7,1.2,1.1,2c0.7-0.4,1.4-0.8,2.1-1.2c7.8-4.5,15.6-9,23.4-13.6c1.3-0.8,2.3-0.8,3.6,0
					c7.8,4.6,15.6,9,23.4,13.5c0.7,0.4,1.4,0.8,2.2,1.2c0.4-0.7,0.7-1.3,1.1-2c-9.1-5.3-18.2-10.5-27.3-15.8c0-10.6,0-21.1,0-31.5
					c-0.8,0-1.4,0-2.2,0c0,0.7-0.1,1.4-0.1,2.1c0,9.1,0,18.2,0.1,27.3c0,1.6-0.5,2.5-1.9,3.3c-7.8,4.4-15.5,8.9-23.2,13.4
					C82,60.7,81.3,61.1,80.5,61.6z M109.9,45.8c-0.2,0.6-0.3,1.1-0.5,1.2c-0.3,0.1-0.7-0.1-1.1-0.2c0.1-0.4,0-0.9,0.3-1.1
					C108.7,45.6,109.3,45.8,109.9,45.8z"/>
				<path class="st5" d="M59,76.7c-0.5-0.8-0.7-1.3-1.2-2c-0.7,0.4-1.4,0.8-2.1,1.2c-7.8,4.5-15.6,9-23.4,13.6
					c-1.3,0.8-2.3,0.8-3.6,0C20.9,84.9,13,80.4,5.1,75.9c-0.6-0.4-1.3-0.7-2-1.1C2.7,75.4,2.4,76,2,76.7
					c9.1,5.2,18.2,10.5,27.3,15.8c0,10.5,0,20.9,0,31.5c0.7,0,1.4,0.1,2.3,0.1c0-10.5,0-21,0-31.6C40.8,87.2,49.9,82,59,76.7z
					 M29.9,90.8c0.6,0.2,1.1,0.2,1.3,0.5c0.1,0.3,0,0.9-0.2,1.1s-0.9,0-1.1-0.2C29.7,92,29.9,91.5,29.9,90.8z"/>
				<path class="st5" d="M227.7,82c-0.9,0-1.5,0-2.3,0c0,1.3,0,2.5,0,3.8c0,8.6,0,17.1,0.1,25.7c0,1.5-0.5,2.4-1.8,3.1
					c-7.7,4.4-15.4,8.9-23.1,13.3c-0.8,0.4-1.5,0.9-2.4,1.4c0.3,0.7,0.6,1.2,1,1.9c0.4-0.2,0.7-0.3,1.1-0.5
					c8.1-4.7,16.2-9.3,24.2-14c1.6-1,2.8-1,4.4,0c7.6,4.5,15.2,8.8,22.8,13.2c0.8,0.4,1.5,0.9,2.3,1.3c0.3-0.7,0.6-1.2,1-2
					c-9-5.2-18.1-10.5-27.2-15.7C227.7,103,227.7,92.6,227.7,82z M227,115.2c-0.5-0.3-1.1-0.4-1.2-0.6c-0.1-0.3,0.1-0.9,0.4-1
					s0.9,0.1,1,0.3C227.4,114.1,227.1,114.6,227,115.2z"/>
				<path class="st5" d="M68.6,56c0.8,0,1.4,0.1,2.2,0.1c0-0.6,0.1-1.3,0.1-1.9c0-9.2,0-18.3,0-27.5c0-1.6,0.5-2.5,1.9-3.3
					C80.6,19,88.3,14.5,96.1,10c0.7-0.4,1.4-0.8,2.2-1.3c-0.4-0.7-0.7-1.2-1.1-2c-0.8,0.5-1.6,0.9-2.3,1.3
					c-7.6,4.4-15.3,8.8-22.8,13.2c-1.5,0.9-2.7,1-4.2,0c-7.8-4.6-15.7-9.1-23.6-13.7c-0.5-0.3-1-0.6-1.7-0.9c-0.4,0.6-0.7,1.2-1.1,2
					c9,5.2,18.1,10.4,27.2,15.7C68.6,35,68.6,45.4,68.6,56z M68.8,24.4c0.3-0.5,0.4-1.1,0.6-1.2c0.3-0.1,0.7,0.2,1.1,0.3
					c-0.1,0.4-0.2,0.9-0.4,1C69.8,24.7,69.3,24.5,68.8,24.4z"/>
				<path class="st5" d="M57.9,63.6c0.4-0.8,0.7-1.4,1-2.1c-9.1-5.2-18.1-10.4-27.2-15.7c0-10.5,0-21,0-31.4c-0.8,0-1.4,0-2.2-0.1
					c0,0.7-0.1,1.4-0.1,2.2c0,8.9-0.1,17.9,0.1,26.8c0,2-0.7,3-2.3,4C19.6,51.6,12.1,56,4.5,60.4c-0.8,0.4-1.5,0.9-2.3,1.3
					c0.4,0.7,0.7,1.2,1.1,1.8c0.3-0.1,0.6-0.2,0.9-0.4c6.7-3.9,13.4-7.8,20.2-11.7c1.6-0.9,3.2-1.8,4.8-2.8c1.1-0.7,1.9-0.6,3,0
					c7.5,4.4,15.1,8.7,22.7,13.1C55.8,62.4,56.8,63,57.9,63.6z M29.6,47c0.3-0.5,0.4-1.1,0.6-1.2c0.3-0.1,0.7,0.2,1.1,0.3
					c-0.1,0.4-0.2,0.9-0.4,1C30.6,47.3,30.2,47.1,29.6,47z"/>
			</g>
		</g>
	</g>
</g>
</svg>
