<?xml version="1.0" encoding="utf-8"?>
<!-- Generator: Adobe Illustrator 24.0.2, SVG Export Plug-In . SVG Version: 6.00 Build 0)  -->
<svg version="1.1" id="Capa_1" xmlns="http://www.w3.org/2000/svg" xmlns:xlink="http://www.w3.org/1999/xlink" x="0px" y="0px"
	 viewBox="0 0 167 320" style="enable-background:new 0 0 167 320;" xml:space="preserve">
<style type="text/css">
	.st0{opacity:0.5;fill:#C4C4C4;filter:url(#Adobe_OpacityMaskFilter);enable-background:new    ;}
	.st1{mask:url(#mask0_1_);}
	.st2{opacity:0.2;}
	.st3{fill-rule:evenodd;clip-rule:evenodd;fill:#9F9F9F;}
</style>
<defs>
	<filter id="Adobe_OpacityMaskFilter" filterUnits="userSpaceOnUse" x="-22.9" y="9.4" width="184.7" height="328.3">
		<feColorMatrix  type="matrix" values="1 0 0 0 0  0 1 0 0 0  0 0 1 0 0  0 0 0 1 0"/>
	</filter>
</defs>
<mask maskUnits="userSpaceOnUse" x="-22.9" y="9.4" width="184.7" height="328.3" id="mask0_1_">
	<rect x="-4" y="0" class="st0" width="171" height="320"/>
</mask>
<g class="st1">
	<g class="st2">
		<path class="st3" d="M111.5,63.1c-0.5-0.1-1.2-0.1-1.6-0.4c-8.1-4.6-16.1-9.3-24.2-13.9c-0.2-0.1-0.4-0.3-0.6-0.5
			c0-3.1,0-6.3,0-9.4c0-6.1,0-12.2,0-18.4c0-0.8,0.3-1.6,0.4-2.3c-0.3-0.5-0.6-1-0.9-1.5c-0.5,0.1-1.1,0.2-1.8,0.4
			c0,0.7,0,1.6,0,2.4c0,8.7,0,17.4,0,26.1c0,3.4,0.6,2.5-2.4,4.3c-7.5,4.4-15.1,8.7-22.6,13.1c-0.7,0.4-1.4,0.8-2.2,1.3
			c0.4,0.6,0.7,1.1,1.1,1.9c0.7-0.4,1.3-0.8,2-1.2c7.7-4.5,15.5-8.9,23.2-13.5c1.4-0.9,2.5-0.9,4,0c7.7,4.5,15.5,9,23.2,13.4
			c0.7,0.4,1.4,0.8,2.1,1.2c0.4-0.5,0.8-1,1.2-1.4C112.1,64.1,111.8,63.6,111.5,63.1z M84.5,49.9c-0.6-0.2-1-0.2-1.3-0.5
			c-0.1-0.1,0-0.8,0.2-0.9c0.3-0.1,0.9-0.1,1.1,0.1S84.5,49.3,84.5,49.9z"/>
		<path class="st3" d="M150.8,131.1c-0.6-0.2-1.3-0.3-1.8-0.7c-8-4.6-16-9.2-24-13.8c-0.2-0.1-0.3-0.3-0.6-0.5
			c0-0.5-0.1-1.1-0.1-1.7c0-8.7,0-17.4,0-26.1c0-0.7-0.4-1.7,0.5-2.2c-0.3-0.5-0.6-1-0.9-1.5c-0.6,0-1.2,0.1-1.9,0.2
			c0,0.6-0.1,1.2-0.1,1.9c0,9.2,0,18.3,0.1,27.5c0,1.6-0.5,2.5-1.9,3.3c-7.7,4.4-15.4,8.9-23.1,13.3c-0.8,0.4-1.5,0.9-2.3,1.3
			c0.4,0.7,0.7,1.2,1,1.8c0.3-0.1,0.6-0.2,0.9-0.4c5.9-3.4,11.8-6.8,17.7-10.2c2.4-1.4,4.9-2.8,7.3-4.2c1.1-0.7,1.9-0.6,3,0
			c8,4.7,16.1,9.3,24.2,14c0.5,0.3,1,0.6,1.6,0.9c0.4-0.6,0.7-1.1,1-1.7C151.3,131.9,151.1,131.5,150.8,131.1z M122.2,117.4
			c0.3-0.5,0.4-1.1,0.6-1.2c0.3-0.1,0.7,0.2,1.1,0.3c-0.1,0.4-0.2,0.9-0.4,1C123.2,117.7,122.8,117.5,122.2,117.4z"/>
		<path class="st3" d="M112.4,214.9c-0.4-0.6-0.7-1.2-1.1-1.9c-9.1,5.3-18.2,10.5-27.3,15.8c-9.2-5.3-18.3-10.5-27.4-15.8
			c-0.4,0.7-0.7,1.2-1.1,2c9.1,5.2,18.1,10.5,27.3,15.8c0,10.5,0,21,0,31.5c0.8,0,1.4,0.1,2.2,0.1c0-0.8,0.1-1.6,0.1-2.4
			c0-9,0-18-0.1-27.1c0-1.6,0.5-2.5,1.9-3.3c7.8-4.4,15.5-8.9,23.3-13.4C110.9,215.7,111.6,215.3,112.4,214.9z M84.5,230.9
			c-0.6-0.2-0.9-0.3-1.3-0.5c0.1-0.4,0.2-0.8,0.4-1.1c0.1-0.1,0.8,0,0.9,0.2C84.7,229.9,84.6,230.3,84.5,230.9z"/>
		<path class="st3" d="M72.1,134c0.4-0.6,0.7-1.2,1.1-1.9c-9.1-5.2-18.1-10.5-27.3-15.8c0-10.5,0-21,0-31.5c-0.8,0-1.4,0-2.1-0.1
			c0,0.2-0.1,0.5-0.1,0.8c0,8.9,0,17.9,0,26.8c0,0.8-0.1,1.6,0,2.4c0.1,1.1-0.2,1.9-1.3,2.3c-0.5,0.2-0.9,0.5-1.3,0.8
			c-7.5,4.3-15,8.7-22.5,13c-0.7,0.4-1.4,0.8-2.2,1.3c0.4,0.6,0.7,1.2,1.1,1.8c0.2-0.1,0.5-0.1,0.8-0.2c3.3-1.9,6.5-3.8,9.8-5.6
			c4.9-2.9,9.9-5.6,14.8-8.6c1.4-0.9,2.5-0.9,4-0.1c7.8,4.6,15.7,9.1,23.6,13.7C70.9,133.4,71.5,133.7,72.1,134z M43.7,117.5
			c0.3-0.5,0.4-1.1,0.7-1.2c0.3-0.1,0.7,0.2,1.1,0.3c-0.1,0.4-0.1,0.9-0.4,1.1C44.8,117.8,44.3,117.6,43.7,117.5z"/>
		<path class="st3" d="M84,93c-9.2-5.3-18.2-10.5-27.3-15.7c-0.4,0.6-0.7,1.2-1.2,2c9.1,5.3,18.2,10.5,27.4,15.8c0,10.5,0,21,0,31.5
			c0.8,0,1.4,0.1,2.2,0.1c0-0.7,0.1-1.5,0.1-2.2c0-8.9,0.1-17.7-0.1-26.6c0-2,0.5-3.2,2.4-4.2c7.6-4.2,15.1-8.7,22.7-13.1
			c0.7-0.4,1.4-0.8,2.2-1.3c-0.4-0.7-0.7-1.3-1.1-2C102.1,82.5,93.1,87.7,84,93z M84.5,95.3c-0.6-0.3-1.1-0.4-1.2-0.6
			c-0.1-0.3,0.1-0.9,0.4-1c0.2-0.1,0.9,0.1,1,0.3C84.8,94.2,84.6,94.7,84.5,95.3z"/>
		<path class="st3" d="M43.6,252.1c-9.1,5.3-18.2,10.5-27.3,15.8c0.4,0.7,0.7,1.2,1.1,1.9c0.8-0.4,1.5-0.9,2.2-1.3
			c7.7-4.5,15.5-8.9,23.2-13.5c1.4-0.8,2.4-0.8,3.8,0c7.7,4.5,15.5,9,23.2,13.4c0.7,0.4,1.4,0.8,2.2,1.2c0.4-0.6,0.7-1.2,1.1-2
			c-9.1-5.3-18.2-10.5-27.3-15.7c0-10.5,0-20.9,0-31.5c-0.8,0-1.5,0-2.3-0.1C43.6,231,43.6,241.5,43.6,252.1z M43.7,253.2
			c0.3-0.5,0.5-1,0.8-1.2c0.2-0.1,0.6,0.1,0.9,0.2c-0.1,0.4-0.1,0.9-0.4,1.1C44.9,253.5,44.4,253.2,43.7,253.2z"/>
		<path class="st3" d="M-21.8,77.3c-0.4,0.7-0.7,1.3-1.1,2c9.1,5.2,18.1,10.5,27.3,15.8c0,10.5,0,21,0,31.5c0.8,0,1.5,0,2.2,0.1
			c0-0.8,0.1-1.6,0.1-2.4c0-9,0-18-0.1-27.1c0-1.6,0.5-2.5,1.9-3.3C16.3,89.5,24,85,31.8,80.5c0.7-0.4,1.4-0.8,2.1-1.2
			c-0.4-0.7-0.7-1.2-1.1-1.9c-9.1,5.2-18.1,10.5-27.3,15.8C-3.5,87.9-12.6,82.6-21.8,77.3z M5.1,93.4c0.5,0.3,1,0.4,1.1,0.7
			c0.1,0.2-0.1,0.8-0.3,0.9c-0.3,0.1-0.7-0.1-1.1-0.2C4.9,94.4,5,94,5.1,93.4z"/>
		<path class="st3" d="M-22.9,335.7c0.4,0.7,0.7,1.3,1.2,2c0.8-0.5,1.6-0.9,2.3-1.4c7.7-4.4,15.4-8.8,23-13.4c1.4-0.8,2.4-0.8,3.8,0
			c7.8,4.6,15.7,9.1,23.6,13.7c0.6,0.3,1.2,0.6,1.8,1c0.4-0.6,0.7-1.3,1.1-2c-9.1-5.2-18.1-10.4-27.3-15.7c0-10.4,0-20.9,0-31.5
			c-0.8,0-1.4,0-2.3-0.1c0,10.5,0,21,0,31.6C-4.7,325.2-13.7,330.4-22.9,335.7z M4.6,321.1c0.3-0.5,0.4-1.1,0.7-1.2
			c0.3-0.1,0.7,0.2,1.1,0.3c-0.1,0.4-0.1,0.9-0.4,1.1C5.7,321.5,5.2,321.2,4.6,321.1z"/>
		<path class="st3" d="M17.4,280.8c-0.4,0.7-0.7,1.2-1.1,2c9.1,5.2,18.1,10.5,27.3,15.8c0,10.5,0,21,0,31.5c0.7,0,1.4,0.1,2.2,0.1
			c0-0.6,0.1-1.3,0.1-1.9c0-9.2,0-18.3,0-27.5c0-1.6,0.5-2.5,1.9-3.3c7.7-4.4,15.4-8.8,23.1-13.3c0.8-0.4,1.5-0.9,2.3-1.4
			c-0.4-0.7-0.7-1.3-1.2-2c-0.7,0.4-1.4,0.8-2.1,1.2c-7.8,4.5-15.6,9-23.4,13.6c-1.3,0.8-2.3,0.7-3.6,0c-7.7-4.5-15.5-9-23.2-13.4
			C18.9,281.7,18.2,281.3,17.4,280.8z M44.2,297c0.6,0.2,1.1,0.2,1.3,0.5c0.1,0.3-0.1,0.8-0.2,1.1c-0.4-0.1-0.9,0-1.1-0.3
			C43.9,298.1,44.1,297.6,44.2,297z"/>
		<path class="st3" d="M134.4,216.1c-8.8-5.1-17.5-10.1-26.2-15.1c-0.4,0.6-0.7,1.2-1.1,1.9c8.8,5.1,17.5,10.1,26.3,15.2
			c0,10.1,0,20.2,0,30.2c0.8,0,1.4,0,2.2,0.1c0-0.7,0-1.4,0-2.1c0-8.7,0-17.3,0-26c0-1.6,0.4-2.5,1.9-3.4c7.4-4.1,14.6-8.4,22-12.6
			c0.7-0.4,1.5-0.9,2.3-1.3c-0.4-0.7-0.7-1.2-1.1-1.9C151.8,206,143.2,211,134.4,216.1z M133.5,218c0.2-0.6,0.2-1.1,0.5-1.2
			c0.3-0.1,0.7,0.1,1.1,0.2c-0.1,0.4,0,0.9-0.3,1.1C134.6,218.2,134.1,218,133.5,218z"/>
		<path class="st3" d="M6.7,16.9c-0.9,0-1.5,0-2.3,0c0,2.7,0,5.3,0,8c0,7.2,0,14.3,0.1,21.5c0,1.5-0.5,2.4-1.8,3.1
			c-7.8,4.4-15.5,8.9-23.2,13.4c-0.7,0.4-1.4,0.8-2.2,1.3c0.3,0.6,0.6,1.2,1,1.9c9.1-5.3,18.1-10.5,27.3-15.8
			c9.2,5.3,18.3,10.5,27.4,15.8c0.4-0.6,0.7-1.2,1.1-2C25,58.9,16,53.6,6.8,48.3C6.7,38,6.7,27.5,6.7,16.9z M4.9,48.2
			c0.6,0.2,1.1,0.2,1.3,0.5c0.1,0.2,0,0.9-0.2,1.1c-0.2,0.2-0.9,0-1.1-0.2C4.7,49.3,4.9,48.8,4.9,48.2z"/>
		<path class="st3" d="M43.6,27.2c0,10.5,0,21,0,31.5c0.8,0,1.4,0,2.2,0.1c0-0.7,0-1.5,0-2.3c0-9.1,0-18.2-0.1-27.3
			c0-1.5,0.5-2.4,1.8-3.1c7.8-4.4,15.5-8.9,23.2-13.4c0.7-0.4,1.4-0.8,2.2-1.3c-0.4-0.7-0.7-1.2-1.1-2c-0.7,0.4-1.4,0.8-2.1,1.2
			c-7.6,4.5-15.4,9-23.1,13.5c-1.4,0.8-2.4,0.8-3.8,0c-7.8-4.6-15.6-9-23.4-13.5c-0.6-0.4-1.3-0.7-2-1.1c-0.4,0.6-0.7,1.2-1.1,1.9
			C25.3,16.6,34.4,21.9,43.6,27.2z M44.1,25.6c0.6,0.2,1.1,0.2,1.3,0.5c0.1,0.3,0,0.9-0.2,1.1c-0.2,0.2-0.9,0-1.1-0.2
			C43.9,26.7,44.1,26.2,44.1,25.6z"/>
		<path class="st3" d="M122,162.8c0,10.6,0,21.1,0,31.5c0.8,0,1.5,0.1,2.2,0.1c0-0.8,0-1.6,0-2.4c0-8.9,0-17.9-0.1-26.8
			c0-1.7,0.5-2.8,2.1-3.7c7.7-4.3,15.4-8.8,23.1-13.3c0.7-0.4,1.4-0.8,2.2-1.3c-0.4-0.6-0.7-1.2-1.1-1.8c-0.4,0.2-0.8,0.3-1.1,0.5
			c-7.7,4.4-15.3,8.9-23,13.3c-3.8,2.2-2.5,2.2-6.3,0c-7.5-4.3-15-8.6-22.5-12.9c-0.6-0.3-1.2-0.6-1.8-1c-0.4,0.7-0.7,1.3-1.1,1.9
			C103.8,152.3,112.9,157.5,122,162.8z M122.5,161.2c0.6,0.2,1.1,0.2,1.3,0.5c0.1,0.2,0,0.9-0.2,1.1c-0.2,0.2-0.9,0-1.1-0.2
			C122.3,162.3,122.5,161.8,122.5,161.2z"/>
		<path class="st3" d="M-21.8,213c-0.4,0.7-0.7,1.3-1.1,2c9.1,5.2,18.1,10.5,27.3,15.8c0,10.5,0,21,0,31.5c0.8,0,1.5,0,2.3,0
			c0-10.5,0-21,0-31.6c9.1-5.3,18.2-10.5,27.3-15.8c-0.4-0.7-0.7-1.3-1.1-2c-0.8,0.4-1.5,0.8-2.2,1.2c-7.7,4.5-15.5,8.9-23.2,13.5
			c-1.4,0.8-2.4,0.8-3.8,0c-7.8-4.6-15.6-9-23.4-13.5C-20.4,213.8-21,213.5-21.8,213z M6.2,231c-0.6-0.2-1.1-0.2-1.3-0.5
			c-0.1-0.3,0-0.9,0.2-1.1c0.2-0.2,0.9,0,1.1,0.2C6.4,229.9,6.2,230.4,6.2,231z"/>
		<path class="st3" d="M94.7,267.7c0.4,0.7,0.7,1.3,1.2,2c0.8-0.5,1.6-0.9,2.3-1.3c7.7-4.4,15.4-8.8,23-13.4c1.4-0.8,2.4-0.8,3.8,0
			c7.8,4.6,15.7,9.1,23.6,13.7c0.6,0.3,1.2,0.6,1.8,1c0.4-0.7,0.7-1.3,1.1-2c-9-5.2-18.1-10.4-27.3-15.7c0-10.4,0-20.9,0-31.5
			c-0.7,0-1.4,0-2.3-0.1c0,10.5,0,21,0,31.6C112.9,257.2,103.8,262.4,94.7,267.7z M122.2,253.1c0.3-0.5,0.4-1.1,0.7-1.2
			c0.3-0.1,0.7,0.2,1.1,0.3c-0.1,0.4-0.1,0.9-0.4,1.1C123.3,253.5,122.8,253.2,122.2,253.1z"/>
		<path class="st3" d="M83.2,183.7c-0.9,0.6-1.7,1.2-2.6,1.7c-7.6,4.4-15.2,8.8-22.8,13.2c-0.7,0.4-1.4,0.8-2.2,1.3
			c0.4,0.6,0.7,1.2,1.1,1.9c0.2-0.1,0.5-0.2,0.7-0.3c7.5-4.3,15-8.7,22.5-13c1.3-0.8,2.7-2.1,4.1-2c1.4,0,2.9,1.3,4.3,2.1
			c7.2,4.1,14.3,8.3,21.5,12.4c0.5,0.3,1,0.6,1.6,0.9c0.4-0.6,0.7-1.2,1.1-1.9c-9.1-5.3-18.2-10.5-27.3-15.8c0-10.6,0-21,0-31.5
			c-0.8,0-1.4,0-2.2-0.1c0,0.4-0.1,0.8-0.1,1.3c0,9.4,0,18.8,0,28.2C82.8,182.6,83,183.2,83.2,183.7c0.4,0.2,0.8,0.2,1.2,0.4
			c0.2,0.1,0.4,0.6,0.3,0.9c-0.1,0.3-0.5,0.6-0.8,0.6c-0.3,0-0.7-0.3-0.8-0.5C83.1,184.6,83.2,184.2,83.2,183.7z"/>
		<path class="st3" d="M151.6,282.8c-0.4-0.7-0.7-1.3-1.1-2c-0.8,0.5-1.6,0.9-2.4,1.4c-7.7,4.4-15.4,8.8-23,13.3
			c-1.4,0.8-2.4,0.8-3.8,0c-7.8-4.6-15.6-9-23.4-13.5c-0.6-0.4-1.3-0.7-2-1.1c-0.4,0.7-0.7,1.3-1.1,2c9.1,5.2,18.1,10.4,27.2,15.7
			c0,10.5,0,21,0,31.4c0.8,0.1,1.5,0.1,2.2,0.1c0-0.8,0-1.6,0-2.4c0-8.6,0-17.1,0-25.7c0-4.2-0.6-3.1,2.9-5.1
			c7.4-4.3,14.8-8.6,22.3-12.9C150.2,283.6,150.8,283.2,151.6,282.8z M123.6,298.8c-0.5-0.3-1.1-0.4-1.2-0.6c-0.1-0.3,0.1-0.9,0.4-1
			c0.2-0.1,0.9,0.1,1,0.3C124,297.8,123.8,298.2,123.6,298.8z"/>
		<path class="st3" d="M85.1,319.8c0-10.5,0-20.9,0-31.4c-0.8,0-1.4-0.1-2.3-0.1c0,1.3,0,2.6,0,3.8c0,8.6,0,17.1,0.1,25.7
			c0,1.5-0.5,2.4-1.8,3.1c-7.7,4.4-15.4,8.9-23.1,13.3c-0.8,0.4-1.5,0.9-2.4,1.4c0.3,0.7,0.6,1.2,1,1.9c0.4-0.2,0.7-0.3,1.1-0.5
			c8.1-4.7,16.2-9.3,24.2-14c1.6-1,2.8-1,4.4,0c7.4,4.4,14.8,8.6,22.2,12.9c1,0.6,1.9,1.1,2.9,1.7c0.4-0.7,0.6-1.2,1-2
			C103.3,330.3,94.3,325.1,85.1,319.8z M83,321c0.3-0.5,0.4-1.1,0.6-1.2c0.3-0.1,0.7,0.2,1.1,0.3c-0.1,0.4-0.2,0.9-0.4,1
			C84.1,321.3,83.6,321.1,83,321z"/>
		<path class="st3" d="M32.9,201.9c0.3-0.7,0.6-1.3,1-1.9c-0.6-0.4-1.2-0.8-1.8-1.1c-7.7-4.5-15.5-9-23.3-13.4
			c-1.5-0.9-2.2-1.8-2.2-3.6c0.1-8.9,0-17.9,0-26.8c0-0.7,0-1.5,0-2.3c-0.7,0-1.3-0.1-2.1-0.1c-0.1,0.3-0.1,0.6-0.1,1
			c0,8.9,0,17.7,0,26.6c0,0.4-0.1,0.9,0,1.3c0.3,1.9-0.5,3-2.2,4c-7.7,4.3-15.3,8.8-22.9,13.2c-0.7,0.4-1.4,0.8-2.2,1.3
			c0.4,0.7,0.7,1.2,1.1,2c0.7-0.4,1.4-0.8,2.1-1.2c7.7-4.4,15.4-8.8,23-13.4c1.6-1,2.8-0.9,4.4,0c7.6,4.5,15.3,8.9,23,13.3
			C31.5,201.2,32.2,201.5,32.9,201.9z M4.6,185.4c0.3-0.5,0.4-1.1,0.6-1.2c0.3-0.1,0.7,0.2,1.1,0.3c-0.1,0.4-0.2,0.9-0.4,1
			C5.6,185.7,5.2,185.5,4.6,185.4z"/>
		<path class="st3" d="M73.2,147.1c-0.4-0.7-0.7-1.2-1-1.7c-0.2,0-0.4,0-0.6,0.1c-1.6,0.9-3.2,1.8-4.8,2.7
			c-6.4,3.7-12.8,7.4-19.2,11.1c-3.4,1.9-2.3,1.9-5.5,0.1c-7.6-4.3-15.1-8.7-22.7-13.1c-0.6-0.4-1.3-0.7-2-1.1
			c-0.4,0.6-0.7,1.2-1.1,1.9c9.1,5.2,18.1,10.5,27.3,15.7c0,10.5,0,20.9,0,31.4c0.7,0.1,1.4,0.1,2.3,0.2c0-1.2,0-2.4,0-3.6
			c0-8.6,0-17.1-0.1-25.7c0-1.7,0.4-2.6,2-3.5c7.8-4.4,15.5-8.9,23.3-13.4C71.8,147.9,72.4,147.5,73.2,147.1z M43.8,162.8
			c0.2-0.6,0.2-1.1,0.5-1.2c0.3-0.1,0.7,0.1,1.1,0.2c-0.1,0.4,0,0.9-0.3,1.1C44.9,163,44.4,162.8,43.8,162.8z"/>
	</g>
</g>
</svg>
