<?xml version="1.0" encoding="utf-8"?>
<!-- Generator: Adobe Illustrator 24.0.2, SVG Export Plug-In . SVG Version: 6.00 Build 0)  -->
<svg version="1.1" id="Capa_1" xmlns="http://www.w3.org/2000/svg" xmlns:xlink="http://www.w3.org/1999/xlink" x="0px" y="0px"
	 viewBox="0 0 141.7 141.7" style="enable-background:new 0 0 141.7 141.7;" xml:space="preserve">
<style type="text/css">
	.st0{fill:#DE6D0F;stroke:#DE6D0F;stroke-miterlimit:10;}
</style>
<path class="st0" d="M131.7,49.2L58.5,7c-1.6-0.8-3.3-1.1-5.2-0.5C51.7,7,50,8.1,49.2,9.7L30.5,42.1c-0.8,1.4-1.1,3.3-0.5,4.9
	c0.5,1.6,1.4,3,3,3.8l16.2,9.3c-1.9,5.5-0.5,11.5,3.6,15.6v25H33.3V83.5c0-1.4-1.1-2.5-2.5-2.5H8.6c-1.4,0-2.5,1.1-2.5,2.5v49.1
	c0,1.4,1.1,2.5,2.5,2.5h22.2c1.4,0,2.5-1.1,2.5-2.5v-17.3h21.1c1.6,1.4,3.6,1.9,5.8,1.9c5.2,0,9.6-4.4,9.6-9.6
	c0-2.2-0.8-4.1-1.9-5.8V78.3c2.2-0.8,4.4-2.2,6-4.1l17,9.9c1.1,0.5,2.2,0.8,3.3,0.8c1.9,0,4.1-1.1,5.2-2.7l7.4,4.4l7.1,8.2
	c0.5,0.5,1.1,0.8,1.9,0.8h0.3c0.8,0,1.6-0.5,1.9-1.4l14.8-25.5c0.3-0.8,0.5-1.6,0-2.2c-0.3-0.8-1.1-1.4-1.9-1.4l-1.1-0.3
	c1.6-1.6,3-3.6,4.4-5.8C136.1,55.3,135,51.1,131.7,49.2z M28.4,130.1h-17v-45h17V130.1z M33.3,105.2h17.8c-0.3,0.8-0.3,1.6-0.3,2.5
	c0,0.8,0,1.6,0.3,2.5H33.3V105.2z M62.9,98.3C62.1,98,61.2,98,60.4,98s-1.6,0-2.5,0.3v-20c1.6,0.5,3.3,0.8,4.9,0.8c0,0,0,0,0.3,0
	v19.2H62.9z M93.3,79.4L35.5,45.9c-0.3-0.3-0.5-0.5-0.5-0.8s0-0.8,0-1.1l3.6-6c0.3,0.3,0.8,0.8,1.4,1.1l52.6,30.4
	c1.9,1.1,4.1,2.2,6.3,2.7L95,78.8C94.7,79.7,93.9,79.7,93.3,79.4z M107,80.5l-5.2-3l2.2-4.1c1.1,0.3,2.5,0.3,3.6,0.3s2.2,0,3.3-0.3
	L107,80.5z M115.2,88.4l-4.1-4.7l6.6-11.5c2.5-0.8,4.9-2.2,7.4-3.6l1.6,0.3L115.2,88.4z M129.8,56.1C122.6,68.2,107,72.5,95,65.4
	L42.3,35c-0.8-0.5-1.1-1.6-0.5-2.5l11.8-20.6c0.3-0.3,0.5-0.8,1.1-0.8c0.3,0,0.3,0,0.5,0c0.3,0,0.5,0,0.8,0.3l73.2,42.2
	C130,54.2,130.3,55.3,129.8,56.1z"/>
</svg>
