<?xml version="1.0" encoding="utf-8"?>
<!-- Generator: Adobe Illustrator 24.0.2, SVG Export Plug-In . SVG Version: 6.00 Build 0)  -->
<svg version="1.1" id="Capa_1" xmlns="http://www.w3.org/2000/svg" xmlns:xlink="http://www.w3.org/1999/xlink" x="0px" y="0px"
	 viewBox="0 0 141.7 141.7" style="enable-background:new 0 0 141.7 141.7;" xml:space="preserve">
<style type="text/css">
	.st0{fill:#DE6D0F;}
	.st1{fill:none;stroke:#DE6D0F;stroke-width:8;stroke-linecap:round;stroke-miterlimit:10;}
</style>
<path class="st0" d="M116.2,39.3L87.3,10.4c-0.6-0.6-1.5-1.2-2.7-1.2H34.4c-5.9,0-10.9,4.7-10.9,10.9v101.3
	c0,5.9,4.7,10.9,10.9,10.9h72c5.9,0,10.9-4.7,10.9-10.9V41.7C117.4,40.8,116.8,39.9,116.2,39.3z M88.4,21.9L105,38.4H92
	c-2.1,0-3.5-1.5-3.5-3.5V21.9z M106.4,125.3h-72c-2.1,0-3.5-1.5-3.5-3.5V20.4c0-2.1,1.5-3.5,3.5-3.5h46.9v18
	c0,5.9,4.7,10.9,10.9,10.9h18V122C110,123.5,108.5,125.3,106.4,125.3z"/>
<path class="st1" d="M47.1,64.1h49.6"/>
<path class="st1" d="M47.1,85.1h49.6"/>
<path class="st1" d="M47.1,103.4h49.6"/>
</svg>
