<?xml version="1.0" encoding="utf-8"?>
<!-- Generator: Adobe Illustrator 24.0.2, SVG Export Plug-In . SVG Version: 6.00 Build 0)  -->
<svg version="1.1" id="Capa_1" xmlns="http://www.w3.org/2000/svg" xmlns:xlink="http://www.w3.org/1999/xlink" x="0px" y="0px"
	 viewBox="0 0 141.7 141.7" style="enable-background:new 0 0 141.7 141.7;" xml:space="preserve">
<style type="text/css">
	.st0{fill:#DE6D0F;}
</style>
<path class="st0" d="M42.4,94.2V15.5c0-2.6-1.9-4.5-4.5-4.5H15.5c-2.6,0-4.5,1.9-4.5,4.5V126c0,2.6,1.9,4.5,4.5,4.5h110.4
	c2.6,0,4.5-1.9,4.5-4.5v-22.4c0-2.6-1.9-4.5-4.5-4.5H47.2C44.6,98.7,42.4,96.8,42.4,94.2z M35.3,18.8v81.7c0,0.4,0,0.4-0.4,0.7
	L19.2,117c-0.7,0.7-1.9,0-1.9-0.7v-12.7c0-0.4,0.4-1.1,1.1-1.1h5.2c0.4,0,1.1-0.4,1.1-1.1v-4.9c0-0.4-0.4-1.1-1.1-1.1h-4.8
	c-0.4,0-1.1-0.4-1.1-1.1V89c0-0.4,0.4-1.1,1.1-1.1h8.6c0.4,0,1.1-0.4,1.1-1.1v-5.2c0-0.4-0.4-1.1-1.1-1.1h-8.6
	c-0.4,0-1.1-0.4-1.1-1.1v-5.2c0-0.4,0.4-1.1,1.1-1.1h5.2c0.4,0,1.1-0.4,1.1-1.1v-5.2c0-0.4-0.4-1.1-1.1-1.1h-5.2
	c-0.4,0-1.1-0.4-1.1-1.1v-5.2c0-0.4,0.4-1.1,1.1-1.1h8.6c0.4,0,1.1-0.4,1.1-1.1v-5.2c0-0.4-0.4-1.1-1.1-1.1h-8.6
	c-0.4,0-1.1-0.4-1.1-1.1v-5.2c0-0.4,0.4-1.1,1.1-1.1h5.2c0.4,0,1.1-0.4,1.1-1.1v-5.2c0-0.4-0.4-1.1-1.1-1.1h-5.2
	c-0.4,0-1.1-0.4-1.1-1.1V33c0-0.4,0.4-1.1,1.1-1.1h8.6c0.4,0,1.1-0.4,1.1-1.1v-5.2c0-0.4-0.4-1.1-1.1-1.1h-8.6
	c-0.4,0-1.1-0.4-1.1-1.1v-5.2c0-0.4,0.4-1.1,1.1-1.1h15.7C34.9,17.7,35.3,18.1,35.3,18.8z M122.5,123.3h-5.6c-0.4,0-0.7-0.4-0.7-0.7
	v-9c0-0.4-0.4-0.7-0.7-0.7h-5.6c-0.4,0-0.7,0.4-0.7,0.7v9c0,0.4-0.4,0.7-0.7,0.7h-5.6c-0.4,0-0.7-0.4-0.7-0.7V117
	c0-0.4-0.4-0.7-0.7-0.7h-5.6c-0.4,0-0.7,0.4-0.7,0.7v5.6c0,0.4-0.4,0.7-0.7,0.7h-5.6c-0.4,0-0.7-0.4-0.7-0.7v-9
	c0-0.4-0.4-0.7-0.7-0.7h-5.6c-0.4,0-0.7,0.4-0.7,0.7v9c0,0.4-0.4,0.7-0.7,0.7h-5.2c-0.4,0-0.7-0.4-0.7-0.7V117
	c0-0.4-0.4-0.7-0.7-0.7h-5.6c-0.4,0-0.7,0.4-0.7,0.7v5.6c0,0.4-0.4,0.7-0.7,0.7h-5.6c-0.4,0-0.7-0.4-0.7-0.7v-9
	c0-0.4-0.4-0.7-0.7-0.7h-5.6c-0.4,0-0.7,0.4-0.7,0.7v9c0,0.4-0.4,0.7-0.7,0.7h-5.6c-0.4,0-0.7-0.4-0.7-0.7V117
	c0-0.4-0.4-0.7-0.7-0.7h-5.6c-0.4,0-0.7,0.4-0.7,0.7v5.6c0,0.4-0.4,0.7-0.7,0.7H24.5c-0.7,0-1.1-0.7-0.7-1.5l16-16
	c0,0,0.4-0.4,0.7-0.4h82c0.4,0,0.7,0.4,0.7,0.7v16C123.3,123,122.9,123.3,122.5,123.3z"/>
<path class="st0" d="M62.9,91.6c3.4,0,7.1-1.5,9.7-4.1l50.3-50.4l6.3-23.5c0.4-1.1-0.7-2.2-2.2-2.2l-23.5,6.3L53.2,68.1
	c-2.2,2.2-3.7,4.9-4.1,7.8C48.3,84.5,55,91.6,62.9,91.6z M112.8,37.5L88.2,62.1l-9-9l24.6-24.6C105.4,32.3,108.7,35.6,112.8,37.5z
	 M83,67.4L77.4,73l-9-9l5.6-5.6L83,67.4C83.4,67,83.4,67,83,67.4z M117.3,31.5c-3.7-1.1-6.7-3.7-7.5-7.5l10.4-3L117.3,31.5z
	 M58.8,73.7l4.8-4.9l9,9l-4.8,4.9c-2.6,2.6-6.3,3-9,0.4c-1.9-1.5-2.6-3.7-1.9-6.3C56.9,75.6,57.6,74.5,58.8,73.7z"/>
</svg>
