<?xml version="1.0" encoding="utf-8"?>
<!-- Generator: Adobe Illustrator 24.0.2, SVG Export Plug-In . SVG Version: 6.00 Build 0)  -->
<svg version="1.1" id="Capa_1" xmlns="http://www.w3.org/2000/svg" xmlns:xlink="http://www.w3.org/1999/xlink" x="0px" y="0px"
	 viewBox="0 0 141.7 141.7" style="enable-background:new 0 0 141.7 141.7;" xml:space="preserve">
<style type="text/css">
	.st0{fill:#DE6D0F;}
</style>
<path class="st0" d="M71.2,25.8c-2,0-3.4,1.4-3.4,3.4s1.4,3.4,3.4,3.4c11.4,0,20.9,9.4,20.9,20.9c0,2,1.4,3.4,3.4,3.4
	c2,0,3.4-1.4,3.4-3.4C99,38.1,86.4,25.8,71.2,25.8z"/>
<path class="st0" d="M62.4,12.7c-15.7,3.1-28.3,15.7-31.7,31.5c-2.9,13.4,0.6,26.6,9.4,36.6c4.3,4.9,6.9,11.4,6.9,17.7v6.9
	c0,4.6,3.1,8.6,7.1,10c1.4,8,8.3,14.6,17.1,14.6c8.6,0,15.7-6.6,17.1-14.6c4.3-1.4,7.1-5.1,7.1-10v-6.9c0-6.3,2.6-12.9,7.1-18
	C109.2,73,113,63.3,113,53C112.7,27.3,88.7,7.3,62.4,12.7z M71.2,123.1c-4.6,0-8.3-3.1-9.7-7.1h19.7
	C79.5,120.2,75.5,123.1,71.2,123.1z M88.4,105.6c0,2-1.4,3.4-3.4,3.4H57.2c-2,0-3.4-1.4-3.4-3.4v-3.4h34.6V105.6z M97.2,76.2
	c-4.9,5.4-7.7,12.3-8.6,18.9H53.8c-0.9-6.9-3.7-13.4-8.3-18.9c-7.4-8.3-10.3-19.4-8-30.6c2.9-12.9,13.4-23.4,26.3-26.3
	c22.3-4.6,42,12,42,33.7C105.8,61.9,102.7,69.9,97.2,76.2z"/>
<path class="st0" d="M22.4,53.6h-6.9c-2,0-3.4,1.4-3.4,3.4c0,2,1.4,3.4,3.4,3.4h6.9c2,0,3.4-1.4,3.4-3.4
	C25.8,55,24.4,53.6,22.4,53.6z"/>
<path class="st0" d="M23.8,36.1l-4.9-4.9c-1.4-1.4-3.4-1.4-4.9,0c-1.4,1.4-1.4,3.4,0,4.9l4.9,4.9c1.4,1.4,3.4,1.4,4.9,0
	C25.2,39.6,25.2,37.6,23.8,36.1z"/>
<path class="st0" d="M23.8,72.7c-1.4-1.4-3.4-1.4-4.9,0l-4.9,4.9c-1.4,1.4-1.4,3.4,0,4.9c1.4,1.4,3.4,1.4,4.9,0l4.9-4.9
	C25.2,76.5,25.2,74.2,23.8,72.7z"/>
<path class="st0" d="M126.7,53.6h-6.9c-2,0-3.4,1.4-3.4,3.4c0,2,1.4,3.4,3.4,3.4h6.9c2,0,3.4-1.4,3.4-3.4
	C130.1,55,128.7,53.6,126.7,53.6z"/>
<path class="st0" d="M128.1,31.3c-1.4-1.4-3.4-1.4-4.9,0l-4.9,4.9c-1.4,1.4-1.4,3.4,0,4.9c1.4,1.4,3.4,1.4,4.9,0l4.9-4.9
	C129.5,34.7,129.5,32.7,128.1,31.3z"/>
<path class="st0" d="M128.1,77.6l-4.9-4.9c-1.4-1.4-3.4-1.4-4.9,0c-1.4,1.4-1.4,3.4,0,4.9l4.9,4.9c1.4,1.4,3.4,1.4,4.9,0
	C129.5,81,129.5,79,128.1,77.6z"/>
</svg>
