<?xml version="1.0" encoding="utf-8"?>
<!-- Generator: Adobe Illustrator 24.0.2, SVG Export Plug-In . SVG Version: 6.00 Build 0)  -->
<svg version="1.1" id="Capa_1" xmlns="http://www.w3.org/2000/svg" xmlns:xlink="http://www.w3.org/1999/xlink" x="0px" y="0px"
	 viewBox="0 0 141.7 141.7" style="enable-background:new 0 0 141.7 141.7;" xml:space="preserve">
<style type="text/css">
	.st0{fill:#DE6D0F;}
</style>
<path class="st0" d="M85.7,20.7H12.7c-1.9,0-3.4,1.9-3.4,3.7v103.8c0,1.9,1.6,3.7,3.7,3.7h72.9c1.9,0,3.7-1.6,3.7-3.7V24.4
	C89.4,22.5,87.8,20.7,85.7,20.7z M82.2,124.7H16.4V28.1h65.8V124.7z"/>
<path class="st0" d="M35.8,104.8h26.8c1.9,0,3.7-1.6,3.7-3.7V51.2c0-1.9-1.6-3.7-3.7-3.7H35.8c-1.9,0-3.7,1.6-3.7,3.7v49.9
	C32.1,103.2,33.7,104.8,35.8,104.8z M39.2,54.9h19.6v17.8H39.2V54.9z M39.2,79.9h19.6v17.8H39.2V79.9z"/>
<path class="st0" d="M101,22.8c-1.9,0-3.7,1.6-3.7,3.7c0,2.1,1.6,3.7,3.7,3.7c5.3,0,9.8,4.5,9.8,9.8c0,1.9,1.6,3.7,3.7,3.7
	c1.9,0,3.7-1.6,3.7-3.7C118,30.5,110.6,22.8,101,22.8z"/>
<path class="st0" d="M101,9.3c-1.9,0-3.7,1.6-3.7,3.7c0,2.1,1.6,3.7,3.7,3.7c12.7,0,23.3,10.4,23.3,23.4c0,1.9,1.6,3.7,3.7,3.7
	c1.9,0,3.7-1.6,3.7-3.7C131.5,23.1,118,9.3,101,9.3z"/>
<path class="st0" d="M101,43.5c2.1,0,3.7-1.7,3.7-3.7c0-2.1-1.7-3.7-3.7-3.7c-2.1,0-3.7,1.7-3.7,3.7C97.3,41.8,99,43.5,101,43.5z"/>
<path class="st0" d="M49.3,41.6c2.1,0,3.7-1.7,3.7-3.7c0-2.1-1.7-3.7-3.7-3.7c-2.1,0-3.7,1.7-3.7,3.7C45.6,40,47.3,41.6,49.3,41.6z"
	/>
<path class="st0" d="M49.3,118.4c2.1,0,3.7-1.7,3.7-3.7c0-2.1-1.7-3.7-3.7-3.7c-2.1,0-3.7,1.7-3.7,3.7
	C45.6,116.7,47.3,118.4,49.3,118.4z"/>
</svg>
