<?xml version="1.0" encoding="utf-8"?>
<!-- Generator: Adobe Illustrator 24.0.2, SVG Export Plug-In . SVG Version: 6.00 Build 0)  -->
<svg version="1.1" id="Capa_1" xmlns="http://www.w3.org/2000/svg" xmlns:xlink="http://www.w3.org/1999/xlink" x="0px" y="0px"
	 viewBox="0 0 141.7 141.7" style="enable-background:new 0 0 141.7 141.7;" xml:space="preserve">
<style type="text/css">
	.st0{fill:#DE6D0F;stroke:#DE6D0F;stroke-miterlimit:10;}
</style>
<path class="st0" d="M100.8,66.2h19.4c0.9,2.4,3.8,3.5,6.2,2.6c2.4-0.9,3.5-3.8,2.6-6.2c-0.9-2.4-3.8-3.5-6.2-2.6
	c-1.2,0.6-2.1,1.5-2.6,2.6h-19.4v-8.5h12.6c0.9,0,1.8-0.9,1.8-1.8V40.9h5.3c0.9,2.4,3.8,3.5,6.2,2.6c2.4-0.9,3.5-3.8,2.6-6.2
	c-0.9-2.4-3.8-3.5-6.2-2.6c-1.2,0.6-2.1,1.5-2.6,2.6h-7c-0.9,0-1.8,0.9-1.8,1.8v11.5h-10.9v-8.8c0-0.9-0.9-1.8-1.8-1.8h-8.8V29.2
	h11.5c0.9,0,1.8-0.9,1.8-1.8v-7.1c2.3-0.9,3.5-3.8,2.6-6.2s-3.8-3.5-6.2-2.6c-2.3,0.9-3.5,3.8-2.6,6.2c0.6,1.2,1.5,2.1,2.6,2.6v5.3
	H88.5c-0.9,0-1.8,0.9-1.8,1.8V40h-8.5V20.6c2.3-0.9,3.5-3.8,2.6-6.2s-3.8-3.5-6.2-2.6c-2.3,0.9-3.5,3.8-2.6,6.2
	c0.6,1.2,1.5,2.1,2.6,2.6V40h-8.5V20.6c2.3-0.9,3.5-3.8,2.6-6.2s-3.8-3.5-6.2-2.6c-2.3,0.9-3.5,3.8-2.6,6.2c0.6,1.2,1.5,2.1,2.6,2.6
	V40H54V27.4c0-0.9-0.9-1.8-1.8-1.8H40.9v-5.3c2.3-0.9,3.5-3.8,2.6-6.2s-3.8-3.5-6.2-2.6c-2.3,0.9-3.5,3.8-2.6,6.2
	c0.6,1.2,1.5,2.1,2.6,2.6v7.1c0,0.9,0.9,1.8,1.8,1.8h11.5V40h-8.8c-0.9,0-1.8,0.9-1.8,1.8v8.8H29.1V39.1c0-0.9-0.9-1.8-1.8-1.8h-7
	c-0.9-2.4-3.8-3.5-6.2-2.6c-2.3,0.9-3.5,3.8-2.6,6.2c0.9,2.4,3.8,3.5,6.2,2.6c1.2-0.6,2.1-1.5,2.6-2.6h5.3v11.5
	c0,0.9,0.9,1.8,1.8,1.8H40v8.5H20.6c-0.9-2.4-3.8-3.5-6.2-2.6c-2.3,0.9-3.5,3.8-2.6,6.2c0.9,2.4,3.8,3.5,6.2,2.6
	c1.2-0.6,2.1-1.5,2.6-2.6H40v8.5H20.6c-0.9-2.4-3.8-3.5-6.2-2.6c-2.3,0.9-3.5,3.8-2.6,6.2c0.9,2.4,3.8,3.5,6.2,2.6
	c1.2-0.6,2.1-1.5,2.6-2.6H40v8.5H27.4c-0.9,0-1.8,0.9-1.8,1.8V100h-5.3c-0.9-2.4-3.8-3.5-6.2-2.6c-2.3,0.9-3.5,3.8-2.6,6.2
	c0.9,2.4,3.8,3.5,6.2,2.6c1.2-0.6,2.1-1.5,2.6-2.6h7c0.9,0,1.8-0.9,1.8-1.8V90.3H40v8.8c0,0.9,0.9,1.8,1.8,1.8h8.8v10.9H39.1
	c-0.9,0-1.8,0.9-1.8,1.8v7.1c-2.3,0.9-3.5,3.8-2.6,6.2c0.9,2.4,3.8,3.5,6.2,2.6c2.3-0.9,3.5-3.8,2.6-6.2c-0.6-1.2-1.5-2.1-2.6-2.6
	v-5.3h11.5c0.9,0,1.8-0.9,1.8-1.8V101h8.5v19.4c-2.3,0.9-3.5,3.8-2.6,6.2c0.9,2.4,3.8,3.5,6.2,2.6c2.3-0.9,3.5-3.8,2.6-6.2
	c-0.6-1.2-1.5-2.1-2.6-2.6V101h8.5v19.4c-2.3,0.9-3.5,3.8-2.6,6.2c0.9,2.4,3.8,3.5,6.2,2.6c2.3-0.9,3.5-3.8,2.6-6.2
	c-0.6-1.2-1.5-2.1-2.6-2.6V101h8.5v12.6c0,0.9,0.9,1.8,1.8,1.8h11.5v5.3c-2.3,0.9-3.5,3.8-2.6,6.2c0.9,2.4,3.8,3.5,6.2,2.6
	c2.3-0.9,3.5-3.8,2.6-6.2c-0.6-1.2-1.5-2.1-2.6-2.6v-7.1c0-0.9-0.9-1.8-1.8-1.8H90.2v-10.9H99c0.9,0,1.8-0.9,1.8-1.8v-8.8h10.9v11.5
	c0,0.9,0.9,1.8,1.8,1.8h7c0.9,2.4,3.8,3.5,6.2,2.6c2.4-0.9,3.5-3.8,2.6-6.2c-0.9-2.4-3.8-3.5-6.2-2.6c-1.2,0.6-2.1,1.5-2.6,2.6h-5.3
	V88.5c0-0.9-0.9-1.8-1.8-1.8h-12.6v-8.5h19.4c0.9,2.4,3.8,3.5,6.2,2.6c2.4-0.9,3.5-3.8,2.6-6.2s-3.8-3.5-6.2-2.6
	c-1.2,0.6-2.1,1.5-2.6,2.6h-19.4V66.2z M124.9,63.2c0.6,0,1.2,0.6,1.2,1.2s-0.6,1.2-1.2,1.2s-1.2-0.6-1.2-1.2
	C123.7,63.8,124,63.2,124.9,63.2z M124.9,38c0.6,0,1.2,0.6,1.2,1.2c0,0.6-0.6,1.2-1.2,1.2s-1.2-0.6-1.2-1.2
	C123.7,38.6,124,38,124.9,38z M101.7,14.8c0.6,0,1.2,0.6,1.2,1.2s-0.6,1.2-1.2,1.2s-1.2-0.6-1.2-1.2
	C100.5,15.4,101.1,14.8,101.7,14.8z M76.4,14.8c0.6,0,1.2,0.6,1.2,1.2s-0.6,1.2-1.2,1.2s-1.2-0.6-1.2-1.2
	C75.2,15.4,75.8,14.8,76.4,14.8z M64.4,14.8c0.6,0,1.2,0.6,1.2,1.2s-0.6,1.2-1.2,1.2s-1.2-0.6-1.2-1.2
	C63.2,15.4,63.8,14.8,64.4,14.8z M39.1,14.8c0.6,0,1.2,0.6,1.2,1.2s-0.6,1.2-1.2,1.2c-0.6,0-1.2-0.6-1.2-1.2
	C37.9,15.4,38.5,14.8,39.1,14.8z M16.2,40.3c-0.6,0-1.2-0.6-1.2-1.2c0-0.6,0.6-1.2,1.2-1.2c0.6,0,1.2,0.6,1.2,1.2
	C17.4,39.7,16.8,40.3,16.2,40.3z M16.2,65.6c-0.6,0-1.2-0.6-1.2-1.2c0-0.6,0.6-1.2,1.2-1.2c0.6,0,1.2,0.6,1.2,1.2
	C17.4,65,16.8,65.6,16.2,65.6z M16.2,77.7c-0.6,0-1.2-0.6-1.2-1.2s0.6-1.2,1.2-1.2c0.6,0,1.2,0.6,1.2,1.2S16.8,77.7,16.2,77.7z
	 M16.2,102.9c-0.6,0-1.2-0.6-1.2-1.2s0.6-1.2,1.2-1.2c0.6,0,1.2,0.6,1.2,1.2S16.8,102.9,16.2,102.9z M39.1,126.1
	c-0.6,0-1.2-0.6-1.2-1.2s0.6-1.2,1.2-1.2c0.6,0,1.2,0.6,1.2,1.2C40.6,125.6,40,126.1,39.1,126.1z M64.4,126.1
	c-0.6,0-1.2-0.6-1.2-1.2s0.6-1.2,1.2-1.2c0.6,0,1.2,0.6,1.2,1.2C65.9,125.6,65.3,126.1,64.4,126.1z M76.4,126.1
	c-0.6,0-1.2-0.6-1.2-1.2s0.6-1.2,1.2-1.2s1.2,0.6,1.2,1.2C77.9,125.6,77.3,126.1,76.4,126.1z M101.7,126.1c-0.6,0-1.2-0.6-1.2-1.2
	s0.6-1.2,1.2-1.2s1.2,0.6,1.2,1.2C103.2,125.6,102.6,126.1,101.7,126.1z M124.9,100.6c0.6,0,1.2,0.6,1.2,1.2s-0.6,1.2-1.2,1.2
	s-1.2-0.6-1.2-1.2S124,100.6,124.9,100.6z M124.9,75.3c0.6,0,1.2,0.6,1.2,1.2s-0.6,1.2-1.2,1.2s-1.2-0.6-1.2-1.2
	S124,75.3,124.9,75.3z M97.3,97.3H43.5V43.6h53.8V97.3z"/>
<path class="st0" d="M90.2,49.1H50.9c-0.9,0-1.8,0.9-1.8,1.8v39.4c0,0.9,0.9,1.8,1.8,1.8h39.4c0.9,0,1.8-0.9,1.8-1.8V50.9
	C92,49.7,91.1,49.1,90.2,49.1z M88.5,88.5H52.6V52.7h35.8v35.8H88.5z"/>
<path class="st0" d="M84.1,72.9c0.9,0,1.8-0.9,1.8-1.8v-10c0-0.9-0.9-1.8-1.8-1.8s-1.8,0.9-1.8,1.8v10
	C82.6,72.4,83.2,72.9,84.1,72.9z"/>
</svg>
