<?xml version="1.0" encoding="utf-8"?>
<!-- Generator: Adobe Illustrator 24.0.2, SVG Export Plug-In . SVG Version: 6.00 Build 0)  -->
<svg version="1.1" id="Capa_1" xmlns="http://www.w3.org/2000/svg" xmlns:xlink="http://www.w3.org/1999/xlink" x="0px" y="0px"
	 viewBox="0 0 141.7 141.7" style="enable-background:new 0 0 141.7 141.7;" xml:space="preserve">
<style type="text/css">
	.st0{fill:#DE6D0F;}
</style>
<path class="st0" d="M133.4,74.7c-2,0-15.8,0-17.6,0l4.7-10.8c2.3-5.6,0.6-11.7-3.8-15.2l4.7-11.4c0.9-2,0-4.4-2-5.3l-14.6-6.1
	c-2-0.9-4.4,0-5.3,2l-4.7,11.4c-5.6-0.6-11.4,2.3-13.7,7.9l-1.8,4.1c-1.8-3.5-3.8-6.7-6.1-10c2.6-2.6,3.8-6.1,3.8-9.7v-3.5
	c0-3.8-1.5-7.3-4.1-10l-3.5-3.5c-2.6-2.9-6.4-4.4-9.9-4.4H22.8c-2,0-3.8,1.8-3.8,3.8v17c0,2,1.8,3.8,3.8,3.8h7.9l-3.8,5.3
	c-1.2,1.8-0.9,4.1,0.9,5.6c1.8,1.2,4.1,0.9,5.6-0.9l5.3-7.3l2.9,4.1c-7,9.7-11.4,21.1-12,32.8c-2.6,0-19.6,0-22.2,0
	c-2,0-3.8,1.8-3.8,3.8S5.3,82,7.3,82h3.5l9.9,46c0.3,1.8,2,3.2,3.8,3.2h92.1c1.8,0,3.5-1.2,3.8-3.2l9.9-46h3.5c2,0,3.8-1.8,3.8-3.8
	S135.4,74.7,133.4,74.7z M105,34.6l7.3,2.9l-2.9,7.3c-5.6-2.3-4.1-1.8-7.3-2.9L105,34.6z M88.3,50.1c1.2-2.6,4.1-3.8,6.7-2.9
	c0.6,0.3,14.6,6.1,15.2,6.4c2.6,1.2,3.8,4.1,2.9,6.7l-5.9,13.8c-4.1,0-17.8,0-21.9,0c-0.3-4.4-0.9-8.5-2-12.6L88.3,50.1z M90.7,99.9
	H51.5V82.3h39.2V99.9z M26.6,18.2h32.5c1.8,0,3.2,0.6,4.4,1.8l3.5,3.5c1.2,1.2,1.8,2.6,1.8,4.4v3.5c0,3.5-2.6,6.1-6.1,6.1H48
	l-6.7-9.1c-0.9-1.2-2-1.5-3.2-1.5H26.3v-8.8H26.6z M48.3,45.7c15.8,0,15.8,0,18.1-0.3c4.1,5.3,7,11.1,9.1,17.3
	c1.2,3.8,1.8,7.6,2,11.7c-1.8,0-38.3,0-40.4,0C38,64.2,41.8,53.9,48.3,45.7z M113.2,123.6h-86l-8.8-41.3h25.2v28.1
	c0,2,1.8,3.8,3.8,3.8c2,0,3.8-1.8,3.8-3.8v-2.9h7.9v2.9c0,2,1.8,3.8,3.8,3.8c2,0,3.8-1.8,3.8-3.8v-2.9h7.9v2.9c0,2,1.8,3.8,3.8,3.8
	c2,0,3.8-1.8,3.8-3.8v-2.9h7.9v2.9c0,2,1.8,3.8,3.8,3.8c2,0,3.8-1.8,3.8-3.8c0-3.2,0-24.9,0-28.1h23.4L113.2,123.6z"/>
</svg>
