<?xml version="1.0" encoding="utf-8"?>
<!-- Generator: Adobe Illustrator 24.0.2, SVG Export Plug-In . SVG Version: 6.00 Build 0)  -->
<svg version="1.1" id="Capa_1" xmlns="http://www.w3.org/2000/svg" xmlns:xlink="http://www.w3.org/1999/xlink" x="0px" y="0px"
	 viewBox="0 0 141.7 141.7" style="enable-background:new 0 0 141.7 141.7;" xml:space="preserve">
<style type="text/css">
	.st0{fill:#DE6D0F;}
</style>
<path class="st0" d="M80.3,40.5c-4.1-4.4-11.2-4.7-15.7-0.6c-4.4,4.1-4.7,11.2-0.6,15.7l16.9,18c4.1,4.4,11.2,4.7,15.7,0.6
	c4.4-4.1,4.7-11.2,0.6-15.7L80.3,40.5z M91.8,68.9c-1.5,1.5-3.8,1.5-5.3-0.3l-16.9-18c-1.5-1.5-1.2-3.8,0.3-5.3
	c1.5-1.5,3.8-1.5,5.3,0.3l16.9,18C93.3,65,93.3,67.4,91.8,68.9z"/>
<path class="st0" d="M114,55L84.5,23.6c-0.6-0.9-1.8-1.2-2.7-1.2H70.9V11.5c0-2.1-1.8-3.6-3.5-3.6H45.1c-2.1,0-3.5,1.8-3.5,3.6v13.3
	L27.7,40.5c-0.6,0.6-0.9,1.5-0.9,2.4v65.1c0,3,1.2,5.3,3,7.4c-1.8,2.1-3,4.4-3,7.4c0,6.2,5,10.9,10.9,10.9H104
	c6.2,0,10.9-5,10.9-10.9c0-3-1.2-5.3-3-7.4c1.8-2.1,3-4.4,3-7.4V57.6C114.9,56.4,114.6,55.6,114,55z M48.7,15h14.8v7.4H48.7V15z
	 M104,126H37.7c-2.1,0-3.5-1.8-3.5-3.6c0-2.1,1.8-3.5,3.5-3.5c2.1,0,3.5-1.8,3.5-3.6c0-2.1-1.8-3.6-3.5-3.6c-2.1,0-3.5-1.8-3.5-3.6
	c0-2.1,1.8-3.6,3.5-3.6c2.1,0,3.5-1.8,3.5-3.6c0-2.1-1.8-3.6-3.5-3.6c-1.2,0-2.7,0.3-3.5,0.6V44.9l12.7-14.2h33.7l27.5,29v38.5
	c-1.2-0.3-2.4-0.6-3.5-0.6c-2.1,0-3.5,1.8-3.5,3.6c0,2.1,1.8,3.6,3.5,3.6c2.1,0,3.5,1.8,3.5,3.6c0,2.1-1.8,3.6-3.5,3.6
	c-0.6,0-0.9,0-1.5,0.3c-1.2,0.6-2.4,1.8-2.4,3.3s0.9,3,2.4,3.3c0.3,0.3,0.9,0.3,1.5,0.3c2.1,0,3.5,1.8,3.5,3.5
	C107.5,124.5,106,126,104,126z"/>
<path class="st0" d="M73.8,83.4c-0.6-0.9-1.8-1.5-3-1.5c-1.2,0-2.4,0.6-3,1.5c0,0-2.1,3-3.8,6.2c-3.8,6.5-4.1,9.2-4.1,10.7
	c0,6.2,5,10.9,10.9,10.9c5.9,0,10.9-5,10.9-10.9c0-1.5-0.3-4.1-4.1-10.7C75.9,86.3,73.8,83.7,73.8,83.4z M70.9,104.1
	c-2.1,0-3.5-1.8-3.5-3.6c0-1.2,1.5-4.4,3.5-8c2.1,3.6,3.5,6.8,3.5,8C74.4,102.3,72.9,104.1,70.9,104.1z"/>
</svg>
