<?xml version="1.0" encoding="utf-8"?>
<!-- Generator: Adobe Illustrator 24.0.2, SVG Export Plug-In . SVG Version: 6.00 Build 0)  -->
<svg version="1.1" id="Capa_1" xmlns="http://www.w3.org/2000/svg" xmlns:xlink="http://www.w3.org/1999/xlink" x="0px" y="0px"
	 viewBox="0 0 413 603" style="enable-background:new 0 0 413 603;" xml:space="preserve">
<style type="text/css">
	.st0{fill:#FFFFFF;}
	.st1{fill:#F05A28;}
	.st2{fill:#F2B31B;}
	.st3{fill:#F2C365;}
	.st4{fill:#3C2A34;}
	.st5{fill:#C80640;}
	.st6{fill:#E91F5C;}
	.st7{fill:#F5EFDB;}
	.st8{fill:#FFFAEF;}
	.st9{opacity:5.000000e-02;fill:#3C2A34;enable-background:new    ;}
	.st10{fill:#FFFDF2;}
	.st11{fill:#1F7A8C;}
	.st12{fill:#7AC8A9;}
</style>
<path class="st0" d="M258.7,300.4c17.3,28.8,20.1,78.8-4.6,93.6c-24.7,14.9-67.7-11-85-39.8c-17.3-28.8-11.4-64.3,13.3-79.2
	C207.1,260.2,241.4,271.6,258.7,300.4z"/>
<path class="st0" d="M250.5,293.1l-83.9,50.4l146.7,244l83.9-50.4L250.5,293.1z"/>
<path class="st1" d="M246,298c12,19.9,24.8,77.8,4.8,89.8s-65.1-26.5-77-46.4c-12-19.9-5.5-45.8,14.4-57.8
	C208.1,271.6,234,278.1,246,298z"/>
<path class="st2" d="M235.7,305.1c8.4,14,17.4,54.7,3.5,63c-14,8.4-45.6-18.6-54-32.6s-3.8-32.1,10.1-40.5
	C209,286.6,227.2,291.1,235.7,305.1z"/>
<path class="st3" d="M223,305.4c5.3,8.8,10.9,34.4,2.1,39.7c-8.8,5.3-28.7-11.7-34-20.5c-5.3-8.8-2.4-20.3,6.4-25.5
	C206.4,293.7,217.7,296.7,223,305.4z"/>
<path class="st4" d="M240.7,240l-111.8,67.2l8.2,13.7L249,253.7L240.7,240z"/>
<path class="st5" d="M123.5,307.1c0,0-37.1,24.6-10.4,67.6c0,0-50.4-5.2-63.6-63.3c-5.8-26,8.3-62,28.7-79.6L123.5,307.1z"/>
<path class="st6" d="M239.3,237.5c0,0,39.2-21.2,64.6,22.6c0,0,19.1-47-26.1-85.9c-20.2-17.3-58.7-21.8-83.8-12L239.3,237.5z"/>
<path class="st7" d="M27.3,13l157,261.1l-65.6,39.4C118.7,313.6-21.5,178.8,27.3,13z"/>
<path class="st8" d="M27.3,13l157,261.1l65.6-39.4C250,234.6,196.7,47.6,27.3,13z"/>
<path class="st6" d="M17.4,98.6c0,0,52.6,2.6,90.2-54.2c0,0-39.4-26.6-81.4-33.2C26.2,11.1,14.6,47.5,17.4,98.6z"/>
<path class="st8" d="M96.9,45.7c1.4,2.3,0.6,5.2-1.6,6.6c-2.3,1.4-5.2,0.6-6.6-1.6c-1.4-2.3-0.6-5.2,1.6-6.6
	C92.6,42.6,95.6,43.4,96.9,45.7z"/>
<path class="st5" d="M69.2,82.7l-43-71.5c0,0-11.7,38.5-8.8,87.5C17.4,98.6,39.5,100.5,69.2,82.7z"/>
<path class="st9" d="M118.7,313.6c0,0-136.9-125-92.5-302.4c0,0-17.7,164.6,81.3,219.3c64.4,35.7,126.2-37.4,126.2-37.4
	s9.6,22.7,16.2,41.7l-131.2,78.9L118.7,313.6z"/>
<path class="st10" d="M83,45.2c-1.4,0.8-3.1,0.8-4.5-0.2C63.4,33.2,42.2,27.9,42,27.7c-2.2-0.5-3.4-2.6-2.9-4.8
	c0.5-2.2,2.6-3.4,4.8-2.9c0.9,0.2,23.2,5.8,39.5,18.6c1.7,1.3,2,3.8,0.7,5.5C83.8,44.8,83.4,45,83,45.2z"/>
<path class="st10" d="M291.2,210c-0.1,0.1-0.2,0.1-0.3,0.2c-1.9,1-4.3,0.1-5.3-1.8c-20.9-42.8-56.3-37.4-56.5-37.3
	c-2.1,0.3-4.2-1-4.5-3.2c-0.3-2.1,1-4.2,3.2-4.5c0.4-0.1,10.7-1.8,23.9,2.7c12,4,28.9,14.1,41.1,39C293.6,206.7,293,208.9,291.2,210
	z"/>
<path class="st11" d="M139.3,130.9c9.9,16.4,4.6,37.6-11.8,47.4s-37.6,4.6-47.4-11.8c-9.9-16.4-4.6-37.6,11.8-47.4
	C108.3,109.3,129.5,114.6,139.3,130.9z"/>
<path class="st12" d="M138.8,130c8.6,14.4,4,32.9-10.4,41.6c-14.4,8.6-33,4-41.6-10.4c-8.6-14.4-4-33,10.4-41.6
	C111.6,111,130.2,115.7,138.8,130z"/>
<path class="st10" d="M134.4,138.5c-1.8,1.1-4.3,0.6-5.5-1.4c-5.7-9.5-18.1-12.5-27.5-6.9c-1.8,1.1-4.3,0.6-5.5-1.4
	c-1.1-1.8-0.6-4.3,1.4-5.5c13.2-7.9,30.4-3.7,38.3,9.5C136.8,135.1,136.3,137.4,134.4,138.5z"/>
<path class="st8" d="M140.5,145c1.4,2.3,0.6,5.2-1.6,6.6c-2.3,1.4-5.2,0.6-6.6-1.6c-1.4-2.3-0.6-5.2,1.6-6.6
	C136.2,142,139.1,142.7,140.5,145z"/>
<path class="st8" d="M301.4,216.6c1.4,2.3,0.6,5.2-1.6,6.6c-2.3,1.4-5.2,0.6-6.6-1.6c-1.4-2.3-0.6-5.2,1.6-6.6
	C297,213.7,300,214.3,301.4,216.6z"/>
<path class="st6" d="M144.5,196.3c-2.2-0.8-4.8-0.8-7,0.5l-1.4,0.8c-2.2,1.3-3.6,3.6-3.7,6c0,0-6.4,36,38.5,89.4
	c24.9,29.5,42.7,32,42.7,32s6.3-16.9-8.3-52.7C179.2,207.6,144.5,196.3,144.5,196.3z"/>
<path class="st5" d="M135.5,198c-2.2,1.3-3.6,3.6-3.7,6c0,0-6.4,36,38.5,89.4c24.9,29.5,42.7,32,42.7,32l-76.8-127.8L135.5,198z"/>
</svg>
