<svg width="865" height="626" viewBox="0 0 865 626" fill="none" xmlns="http://www.w3.org/2000/svg">
<path d="M512.634 246.611C517.565 253.041 523.278 259.065 529.353 264.438C532.413 267.21 535.548 269.595 538.849 271.933C542.15 274.271 545.526 276.224 549.309 277.695C552.926 279.213 556.618 280.346 560.37 280.368C563.956 280.437 568.07 279.808 571.927 278.889C575.784 277.969 579.505 276.541 582.804 274.869C586.223 272.981 589.341 270.632 591.826 267.917C592.519 267.172 593.046 266.474 593.573 265.777C594.1 265.079 594.582 264.213 595.109 263.515C595.952 261.998 596.539 260.19 596.674 258.693C596.809 257.196 596.612 255.794 595.844 254.92C595.542 254.459 595.075 254.046 594.442 253.68C594.231 253.558 593.809 253.314 593.432 253.239C593.055 253.165 592.844 253.043 592.467 252.968C591.126 252.622 589.921 252.784 588.52 253.549C587.285 254.267 585.974 255.37 584.92 256.765C583.866 258.16 583.023 259.677 582.602 261.438C582.135 263.029 581.88 264.743 581.911 266.192C582.319 269.721 583.527 273.569 585.306 276.889C586.965 280.425 589.076 283.65 591.594 286.394C592.875 287.851 594.277 289.091 595.634 290.162C596.99 291.233 598.679 292.209 600.532 293.137C604.074 295.042 607.782 296.899 611.459 299.312C613.238 300.627 615.182 301.894 616.841 303.425C618.544 305.126 620.127 307.044 621.469 309.395C622.646 311.793 623.37 314.502 623.386 317.232C623.402 317.957 623.372 318.512 623.387 319.237C623.358 319.792 623.207 320.564 623.012 321.167L622.47 323.145C622.274 323.748 621.913 324.398 621.718 325C621.597 325.217 621.522 325.603 621.236 325.867L620.754 326.734C620.393 327.384 620.152 327.818 619.79 328.468C618.977 329.429 618.209 330.56 617.351 331.352C615.679 333.106 613.917 334.521 612.109 335.767C608.539 338.427 604.999 340.532 602.213 342.787C600.737 343.938 599.471 345.211 598.538 346.389C598.176 347.039 597.604 347.567 597.288 348.386C596.806 349.253 596.445 349.903 596.129 350.723C594.865 354.001 594.234 357.645 594.311 361.268C594.388 364.892 595.173 368.496 596.621 371.91C597.285 373.726 598.114 375.494 598.899 377.093C599.291 377.892 599.728 378.861 600.286 379.613L601.839 382.086C602.231 382.885 602.955 383.59 603.513 384.342C604.071 385.094 604.628 385.846 605.186 386.598C606.468 388.055 607.583 389.559 609.031 390.968L610.99 392.961L613.116 394.905L614.262 395.854L615.407 396.803L617.698 398.7C623.969 403.471 630.887 407.328 638 410.582C645.114 413.836 652.589 416.439 660.259 418.44C667.885 420.272 675.705 421.501 683.511 422.005C686.6 422.216 688.907 424.839 688.682 428.002C688.457 431.165 685.882 433.541 682.793 433.33C682.793 433.33 682.793 433.33 682.627 433.377C674.068 432.724 665.66 431.298 657.401 429.101C649.143 426.903 641.201 423.886 633.454 420.266C625.828 416.429 618.443 412.159 611.66 406.806L609.158 404.786L607.967 403.668L606.776 402.55L604.394 400.314L602.133 397.861C600.64 396.282 599.268 394.487 597.776 392.908C597.007 392.034 596.404 391.113 595.801 390.191C595.197 389.27 594.429 388.396 593.991 387.427L592.212 384.107C591.609 383.186 591.126 382.048 590.688 381.079C589.603 379.02 588.848 376.865 587.973 374.928C586.299 370.667 585.408 366 585.345 361.096C585.328 356.361 586.139 351.39 588.006 347.028C588.999 344.739 590.083 342.789 591.785 340.48C593.411 338.557 595.249 336.756 597.056 335.51C600.581 332.68 604.332 330.697 607.45 328.348C608.926 327.197 610.613 326.168 611.712 324.942C612.45 324.367 612.812 323.717 613.339 323.019C613.625 322.755 613.7 322.369 613.986 322.105L614.227 321.672C614.348 321.455 614.302 321.286 614.468 321.239L614.905 320.202C614.98 319.816 615.055 319.43 615.175 319.214C615.251 318.827 615.326 318.441 615.401 318.055C615.476 317.669 615.385 317.331 615.461 316.945C615.43 315.495 615.022 313.971 614.494 312.663C613.227 309.926 610.424 307.446 607.334 305.23C604.078 303.062 600.536 301.157 596.949 299.083C595.05 297.985 593.316 296.84 591.327 295.403C589.503 293.919 587.845 292.387 586.307 290.639C583.443 287.265 580.985 283.41 579.024 279.413C577.229 275.369 575.72 271.06 575.326 266.251C575.144 263.569 575.716 261.035 576.332 258.672C577.16 256.43 578.364 254.263 579.78 252.218C581.241 250.342 583.078 248.541 585.428 247.323C587.778 246.105 590.686 245.639 593.368 246.33C593.956 246.527 594.71 246.676 595.343 247.042C595.976 247.408 596.563 247.605 597.031 248.018C598.131 248.798 599.277 249.746 600.136 250.959C600.649 251.542 600.83 252.219 601.177 252.849C601.358 253.527 601.705 254.157 601.72 254.882C601.917 256.284 601.947 257.733 601.722 258.891C601.362 261.546 600.534 263.788 599.284 265.786C598.682 266.869 598.034 267.783 597.387 268.698C596.739 269.612 596.092 270.526 595.233 271.318C592.221 274.731 588.44 277.269 584.524 279.3C580.607 281.33 576.509 282.684 572.275 283.529C570.241 283.927 568.042 284.374 565.962 284.603C564.923 284.718 563.883 284.833 562.678 284.995C562.135 284.967 561.638 285.11 561.096 285.082L559.468 285C554.963 284.829 550.849 283.453 546.81 281.69C542.771 279.928 539.184 277.853 535.837 275.346C532.325 272.886 529.099 270.162 526.039 267.39C520.416 261.705 514.869 255.634 509.803 248.696C509.245 247.944 509.304 246.834 510.163 246.041C510.946 245.635 512.031 245.69 512.634 246.611Z" fill="#E9C32E"/>
<path d="M511.332 247.263L512.651 248.901L509.904 251.366L508.496 249.387L511.332 247.263Z" fill="#CDA527"/>
<path d="M515.654 252.384L518.62 255.554L515.797 258.406L512.742 254.895L515.654 252.384Z" fill="#CDA527"/>
<path d="M521.761 258.818L524.893 261.94L522.115 264.963L518.938 261.671L521.761 258.818Z" fill="#CDA527"/>
<path d="M528.16 264.995L531.579 267.848L528.889 271.213L525.547 267.969L528.16 264.995Z" fill="#CDA527"/>
<path d="M535.089 270.481L538.75 272.897L536.36 276.726L532.609 273.969L535.089 270.481Z" fill="#CDA527"/>
<path d="M542.548 275.282L546.242 277.137L544.316 281.38L540.368 279.233L542.548 275.282Z" fill="#CDA527"/>
<path d="M550.403 278.894L554.416 279.92L553.332 284.653L548.688 283.261L550.403 278.894Z" fill="#CDA527"/>
<path d="M558.635 280.608C559.928 280.779 561.342 280.73 562.712 280.511L562.964 285.583C561.385 285.68 559.761 285.607 558.137 285.533L558.635 280.608Z" fill="#CDA527"/>
<path d="M566.983 280.127L571.211 279.251L572.17 284.294L567.776 285.22L566.983 280.127Z" fill="#CDA527"/>
<path d="M575.459 278.161L579.344 276.651L581.34 281.572L576.959 283.228L575.459 278.161Z" fill="#CDA527"/>
<path d="M583.227 274.948C584.463 274.217 585.699 273.486 586.725 272.633L589.836 277.044C588.479 277.994 587.123 278.945 585.721 279.724L583.227 274.948Z" fill="#CDA527"/>
<path d="M589.98 270.032C590.961 269.008 591.942 267.985 592.713 266.839L597.017 270.35C595.915 271.593 594.812 272.836 593.71 274.08L589.98 270.032Z" fill="#CDA527"/>
<path d="M594.875 263.646C595.436 262.377 595.832 261.157 596.061 259.986L601.533 261.134C601.106 262.916 600.469 264.575 599.621 266.112L594.875 263.646Z" fill="#CDA527"/>
<path d="M596.23 256.989C596.007 256.134 595.619 255.328 594.899 254.62L598.857 249.959C600.462 251.327 601.539 253.402 601.908 255.502L596.23 256.989Z" fill="#CDA527"/>
<path d="M591.927 253.259C590.965 252.991 590.093 253.064 589.1 253.356L587.378 247.438C589.365 246.853 591.485 246.78 593.407 247.316L591.927 253.259Z" fill="#CDA527"/>
<path d="M586.251 254.924C585.391 255.728 584.575 256.703 583.804 257.849L578.75 254.192C579.808 252.778 580.865 251.365 582.343 250.195L586.251 254.924Z" fill="#CDA527"/>
<path d="M582.197 261.071C581.802 262.292 581.406 263.513 581.343 264.636L574.964 264.12C575.181 262.216 575.608 260.433 576.245 258.773L582.197 261.071Z" fill="#CDA527"/>
<path d="M581.685 268.22C581.877 269.639 582.235 271.01 582.758 272.332L576.502 274.357C576.1 272.815 575.653 271.102 575.417 269.511L581.685 268.22Z" fill="#CDA527"/>
<path d="M584.377 275.947L586.234 279.643L580.381 283.21L578.179 278.878L584.377 275.947Z" fill="#CDA527"/>
<path d="M588.53 283.106L591.169 286.381L586.006 291.216L583.023 287.305L588.53 283.106Z" fill="#CDA527"/>
<path d="M594.175 289.135C594.64 289.55 595.105 289.965 595.735 290.331L597.462 291.479L593.739 297.726L591.593 296.334C590.917 295.797 590.242 295.259 589.567 294.722L594.175 289.135Z" fill="#CDA527"/>
<path d="M601.335 293.485L605.118 295.681L601.651 302.217L597.702 300.069L601.335 293.485Z" fill="#CDA527"/>
<path d="M609.249 297.975L613.332 300.635L608.902 306.905L605.45 304.61L609.249 297.975Z" fill="#CDA527"/>
<path d="M617.347 303.842C618.577 305.138 619.808 306.435 620.796 308.171L614.205 312.323C613.605 311.393 612.961 310.293 612.03 309.461L617.347 303.842Z" fill="#CDA527"/>
<path d="M622.989 313.268C623.481 315.154 623.476 317.186 623.26 319.096L615.579 318.401C615.642 317.275 615.705 316.149 615.437 315.12L622.989 313.268Z" fill="#CDA527"/>
<path d="M621.801 324.841C621.042 326.719 619.863 328.353 618.805 329.767L612.808 324.547C613.623 323.572 614.273 322.645 614.713 321.597L621.801 324.841Z" fill="#CDA527"/>
<path d="M615.069 333.237L611.211 336.205L606.729 329.271L610.014 326.838L615.069 333.237Z" fill="#CDA527"/>
<path d="M607.185 338.668L603.734 341.149L599.088 334.267L602.869 331.688L607.185 338.668Z" fill="#CDA527"/>
<path d="M600.427 343.588C599.401 344.44 598.586 345.415 597.936 346.34L591.235 341.152C592.414 339.52 593.681 338.229 594.994 337.109L600.427 343.588Z" fill="#CDA527"/>
<path d="M596.113 349.44C595.552 350.709 595.157 351.93 594.762 353.151L586.478 350.803C586.95 349.191 587.543 347.36 588.39 345.822L596.113 349.44Z" fill="#CDA527"/>
<path d="M594.2 356.803C594.016 358.149 593.997 359.446 593.979 360.743L585.107 360.954C584.991 359.143 585.252 357.405 585.513 355.668L594.2 356.803Z" fill="#CDA527"/>
<path d="M594.535 364.442C594.729 365.866 595.043 367.071 595.403 368.447L586.817 371.154C586.368 369.434 586.129 367.837 585.846 366.068L594.535 364.442Z" fill="#CDA527"/>
<path d="M596.845 372.084L598.541 375.841L590.241 380.316L588.321 375.7L596.845 372.084Z" fill="#CDA527"/>
<path d="M600.495 379.38L602.85 382.932L595.243 388.677L592.709 384.439L600.495 379.38Z" fill="#CDA527"/>
<path d="M605.604 386.091L608.41 389.321L601.449 396.162L598.343 392.468L605.604 386.091Z" fill="#CDA527"/>
<path d="M611.458 392.239L614.67 394.978L608.309 402.745L604.797 399.541L611.458 392.239Z" fill="#CDA527"/>
<path d="M618.011 397.655L621.509 400.122L615.868 408.591L612.071 405.66L618.011 397.655Z" fill="#CDA527"/>
<path d="M625.141 402.552L628.88 404.578L623.749 413.628L619.921 411.261L625.141 402.552Z" fill="#CDA527"/>
<path d="M632.799 406.755L636.492 408.609L632.036 418.19L627.923 416.093L632.799 406.755Z" fill="#CDA527"/>
<path d="M640.655 410.368L644.513 412.171L640.643 421.942L636.454 420.236L640.655 410.368Z" fill="#CDA527"/>
<path d="M648.756 413.553C650.137 414.065 651.474 414.406 652.855 414.917L649.494 425.268C648.113 424.756 646.566 424.293 645.14 423.611L648.756 413.553Z" fill="#CDA527"/>
<path d="M656.884 416.189L661.103 417.333L658.372 428.042L653.943 426.777L656.884 416.189Z" fill="#CDA527"/>
<path d="M665.421 418.351L669.55 419.153L667.614 430.172L663.065 429.126L665.421 418.351Z" fill="#CDA527"/>
<path d="M673.94 419.796L678.19 420.379L676.84 431.587L672.259 431.101L673.94 419.796Z" fill="#CDA527"/>
<path d="M682.684 420.816L684.68 420.962L683.916 432.334L681.545 432.116L682.684 420.816Z" fill="#CDA527"/>
<path d="M647.448 388.565C647.448 388.565 642.924 376.655 638.98 371.424C635.035 366.193 629.697 374.658 631.223 379.157C631.223 379.157 625.694 372.612 621.187 370.774C604.898 364.375 591.8 390.117 611.351 401.79C626.515 410.204 633.113 413.148 633.113 413.148L647.448 388.565Z" fill="#A7CCED"/>
<path opacity="0.5" d="M643.768 395.512C643.583 390.754 643.439 387.054 643.439 387.054C643.439 387.054 629.954 403.009 627.166 402.108C613.963 398.798 604.571 387.325 601.852 383.771C601.062 389.997 603.74 396.908 611.663 401.579C626.96 410.067 633.613 413.044 633.613 413.044L643.768 395.512Z" fill="#A7CCED"/>
<path d="M808.232 446.029C808.232 446.029 809.395 459.55 811.492 465.773C813.595 472.173 821.218 465.868 821.043 460.936C821.043 460.936 823.354 468.382 827.046 471.504C840.412 482.846 860.506 462.694 845.724 445.086C834.174 432.042 828.874 426.902 828.874 426.902L808.232 446.029Z" fill="#A7CCED"/>
<path opacity="0.5" d="M811.26 465.421C813.184 470.931 819.339 466.896 820.528 462.439C819.391 463.908 817.171 463.858 815.556 461.842C813.934 459.651 815.205 444.305 815.205 444.305C814.83 443.448 811.779 443.971 808.742 444.845L807.755 445.779C807.925 445.769 809.132 459.045 811.26 465.421Z" fill="#A7CCED"/>
<path d="M649.885 326.174C649.885 326.174 637.596 323.766 633.653 331.74C629.711 339.715 636.05 378.339 644.575 379.748C650.362 380.447 657.867 377.174 657.867 377.174L649.885 326.174Z" fill="#A7CCED"/>
<path d="M782.455 303.99C782.455 303.99 793.216 297.18 799.542 303.293C805.698 309.416 811.362 348.077 803.735 352.586C798.416 355.373 790.445 355.159 790.445 355.159L782.455 303.99Z" fill="#A7CCED"/>
<path opacity="0.5" d="M798.673 342.522C799.924 326.837 791.861 308.341 788.515 301.336C784.972 302.237 782.314 303.965 782.314 303.965L790.48 355.088C790.48 355.088 798.5 355.34 803.845 352.583C805.68 351.603 806.752 348.56 807.273 344.495C802.872 345.269 798.614 345.333 798.673 342.522Z" fill="#A7CCED"/>
<path opacity="0.5" d="M646.13 368.393C640.107 354.006 642.014 333.743 643.063 325.972C646.621 325.599 649.704 326.128 649.704 326.128L657.883 377.204C657.883 377.204 650.519 380.243 644.543 379.699C642.485 379.288 640.519 376.944 638.837 373.182C643.059 372.42 647.084 370.969 646.13 368.393Z" fill="#A7CCED"/>
<path d="M718.043 334.39C680.777 341.496 655.314 378.399 661.284 416.857L671.029 479.967C673.451 495.348 687.457 505.589 702.538 502.876L783.339 487.563C798.244 484.685 808.463 469.922 806.205 454.354L796.461 391.244C790.32 352.797 755.308 327.283 718.043 334.39Z" fill="#E4E4E5"/>
<path d="M797.767 393.405C775.212 409.819 763.559 438.345 767.758 466.185L771.482 490.189L784.569 487.75C799.328 484.85 809.445 470.13 807.206 454.639L797.767 393.405Z" fill="#E91F5C"/>
<path d="M661.205 417.429L670.623 478.759C673.019 494.088 686.933 504.254 701.925 501.499L715.062 499.044L711.346 475.001C706.982 446.954 687.386 424.493 661.205 417.429Z" fill="#E91F5C"/>
<path opacity="0.5" d="M768.418 345.327C775.909 354.565 781.263 366.057 783.258 378.995L793.003 442.111C795.426 457.493 785.211 472.434 770.133 475.323L689.313 490.462C683.892 491.509 678.579 490.784 673.903 488.782C679.213 499.041 690.513 505.039 702.369 502.706L783.183 487.39C798.09 484.512 808.312 469.747 806.053 454.178L796.308 391.062C793.401 371.649 782.937 355.536 768.418 345.327Z" fill="#E4E4E5"/>
<path d="M806.608 444.538L827.499 425.538C805.873 399.824 785.083 392.812 770.162 391.977C769.947 390.752 769.757 390.234 769.757 390.234C769.757 390.234 760.241 377.738 728.442 383.622C698.18 389.411 692.003 403.42 691.37 404.875C680.523 403.078 666.336 398.836 650.07 389.064L635.882 413.66C658.973 427.605 679.516 432.51 694.114 433.895C695.193 444.973 696.651 457.089 698.003 466.204C699.316 474.26 701.965 481.348 706.442 486.905C702.087 499.209 696.098 518.514 694.215 537.739L724.936 540.06C726.306 525.644 731.535 509.04 735.586 497.818C738.831 497.614 742.07 497.234 745.815 496.646C749.895 495.86 753.627 494.918 756.834 493.656C764.175 502.749 774.077 516.459 779.685 529.73L807.962 516.282C800.301 498.186 788.242 481.603 780.357 471.659C782.522 465.155 782.777 457.885 781.653 450.348C780.339 442.292 778.432 431.973 776.366 422.019C784.677 424.682 794.992 430.759 806.608 444.538Z" fill="white"/>
<path d="M790.055 315.051C771.807 253.617 708.904 268.174 708.904 268.174C708.904 268.174 645.302 277.47 646.399 342.103C647.502 406.911 704.285 407.766 729.75 402.808C755.064 398.39 808.31 376.662 790.055 315.051Z" fill="white"/>
<path d="M790.52 315.412C785.798 299.981 778.338 289.292 769.809 282.016C776.268 289.057 781.951 298.26 785.693 310.572C804.227 371.965 750.765 393.363 725.173 397.999C708.962 400.864 680.298 401.618 660.935 385.258C679.968 406.4 712.424 405.959 730.171 402.83C755.599 398.38 809.061 376.982 790.52 315.412Z" fill="#E4E4E5"/>
<path d="M743.11 477.198C715.506 482.42 698.4 477.647 697.532 477.524C693.867 476.514 691.818 472.581 692.883 468.81C693.949 465.04 697.838 462.86 701.502 463.87C701.854 464.025 716.851 467.869 740.857 463.397C765.036 458.914 777.298 449.869 777.47 449.858C780.663 447.545 784.832 448.171 787.199 451.379C789.387 454.42 788.693 458.874 785.672 461.177C784.817 461.406 770.714 471.975 743.11 477.198Z" fill="#A7CCED"/>
<path opacity="0.5" d="M784.942 457.392C784.265 457.784 770.156 468.317 742.49 473.377C714.824 478.437 697.654 473.516 696.783 473.386C694.853 472.782 693.24 471.449 692.476 469.716C692.097 473.109 694.136 476.371 697.469 477.432C698.167 477.571 715.51 482.482 743.176 477.422C770.842 472.362 785.132 461.997 785.628 461.437C788.312 459.338 789.195 455.562 787.861 452.617C787.589 454.407 786.626 456.235 784.942 457.392Z" fill="#A7CCED"/>
<path d="M732.038 411.88C708.023 416.343 690.015 410.739 688.967 410.45C686.521 409.718 685.206 406.976 685.974 404.46C686.741 401.944 689.451 400.544 691.726 401.287C692.249 401.431 729.652 412.731 766.851 387.18C769.037 385.636 771.829 386.347 773.288 388.375C774.755 390.578 774.001 393.446 771.987 394.98C758.019 404.651 744.214 409.55 732.038 411.88Z" fill="#A7CCED"/>
<path opacity="0.5" d="M689.551 405.973C690.076 406.123 730.383 417.255 770.532 391.29C771.712 390.516 772.915 390.273 774.14 390.562C773.945 390.04 773.742 389.341 773.547 388.819C772.069 386.591 769.274 386.032 767.086 387.571C730.033 413.013 692.305 401.386 691.779 401.237C689.322 400.482 686.781 401.863 686.02 404.389C685.877 405.107 685.733 405.825 685.763 406.534C686.77 405.769 688.319 405.508 689.551 405.973Z" fill="#A7CCED"/>
<path d="M747.243 411.467L738.088 414.194C734.701 415.302 731.125 415.892 727.713 416.294L717.637 417.138C715.074 417.307 713.273 419.724 713.706 422.347L716.122 437.742C716.543 440.012 718.307 441.486 720.528 441.339L731.117 440.462C734.705 440.224 738.105 439.469 741.498 438.538L751.837 435.379C753.869 434.714 755.334 432.496 754.919 430.402L752.509 415.184C752.07 412.385 749.617 410.78 747.243 411.467Z" fill="#1098F7"/>
<path d="M723.944 423.744C724.181 425.67 723.05 427.51 721.185 427.811C719.32 428.113 717.576 426.994 717.34 425.069C717.104 423.143 718.235 421.303 720.1 421.002C721.965 420.7 723.714 421.995 723.944 423.744Z" fill="#E91F5C"/>
<path d="M725.603 433.07C725.839 434.995 724.709 436.835 722.843 437.137C720.978 437.438 719.235 436.319 718.999 434.394C718.763 432.469 719.894 430.628 721.759 430.327C723.454 430.037 725.197 431.156 725.603 433.07Z" fill="#E91F5C"/>
<path d="M737.272 424.971C732.471 425.805 729.028 426.025 728.856 426.036C727.65 426.113 726.75 425.118 726.883 424.056C726.837 422.83 727.838 421.888 728.877 421.997C729.049 421.986 738.532 421.73 747.188 417.841C748.208 417.424 749.433 417.873 749.816 418.902C750.2 419.931 749.729 421.19 748.709 421.606C744.63 423.272 740.703 424.401 737.272 424.971Z" fill="#A7CCED"/>
<path d="M738.733 433.784C733.932 434.617 730.488 434.838 730.316 434.849C729.111 434.926 728.211 433.93 728.344 432.868C728.298 431.642 729.298 430.7 730.338 430.809C730.51 430.798 739.993 430.543 748.649 426.653C749.669 426.237 750.894 426.685 751.277 427.714C751.661 428.743 751.19 430.002 750.17 430.418C746.263 432.073 742.157 433.038 738.733 433.784Z" fill="#A7CCED"/>
<path d="M763.336 443.442L759.596 439.954C758.884 439.29 757.843 438.997 757 439.397L752.082 440.912C751.061 441.147 750.41 442.065 750.102 442.964L748.93 448.143C748.621 449.042 749.005 450.077 749.717 450.742L753.457 454.23C754.169 454.894 755.21 455.187 756.053 454.787L760.971 453.272C761.992 453.037 762.643 452.119 762.951 451.22L764.123 446.041C764.26 445.152 764.048 444.107 763.336 443.442Z" fill="#A7CCED"/>
<path d="M713.269 452.065L715.662 447.344C716.142 446.434 716.978 445.858 718.006 445.799L723.147 445.505C724.175 445.447 725.052 445.926 725.6 446.776L728.348 451.205C728.897 452.055 728.938 453.111 728.458 454.02L726.065 458.742C725.585 459.651 724.749 460.228 723.72 460.287L718.58 460.58C717.551 460.639 716.674 460.16 716.126 459.309L713.378 454.881C712.83 454.03 712.789 452.975 713.269 452.065Z" fill="#A7CCED"/>
<path d="M779.631 326.173C765.459 281.716 712.881 293.877 712.881 293.877C712.881 293.877 659.658 302.194 659.563 349.369C659.298 396.554 706.627 395.873 727.857 391.808C749.08 387.567 793.973 370.618 779.631 326.173Z" fill="#233B4A"/>
<path opacity="0.5" d="M779.854 326.345C776.008 314.551 769.56 306.635 762.016 301.621C765.775 306.164 768.881 311.634 771.184 318.569C785.449 363.163 740.663 380.125 719.395 384.111C706.463 386.513 683.727 387.759 668.114 377.408C682.814 395.78 712.412 394.813 728.065 391.887C749.327 387.725 794.29 370.929 779.854 326.345Z" fill="#233B4A"/>
<path opacity="0.5" d="M712.353 293.664C712.353 293.664 709.65 294.021 705.452 295.358C702.005 313.552 692.811 347.276 668.752 378.118C673.881 384.116 680.8 387.881 688.178 390.206C717.239 351.81 726.335 310.343 728.936 292.205C719.423 291.96 712.353 293.664 712.353 293.664Z" fill="white"/>
<path opacity="0.5" d="M747.118 294.918C744.19 313.246 734.147 356.344 702.174 392.98C707.28 393.52 712.362 393.358 716.93 393.054C744.873 357.566 754.56 318.893 757.953 299.302C754.327 297.43 750.714 295.911 747.118 294.918Z" fill="white"/>
<path d="M776.744 479.473C770.818 480.551 764.414 477.777 760.347 473.622C753.812 467.151 751.213 456.375 753.747 446.16C754.188 444.191 756.021 443.018 757.91 443.428C759.799 443.839 760.888 445.711 760.447 447.68C758.676 455.378 760.5 463.556 765.273 468.373C768.452 471.525 773.981 473.648 777.665 471.829C779.171 471.029 779.801 469.578 780.103 468.5C780.551 466.708 780.299 464.43 779.223 462.91C778.499 461.72 777.441 460.728 776.037 459.581C773.569 457.266 770.578 454.631 770.069 449.899C769.792 446.917 770.712 444.036 772.501 441.63C774.63 439.203 777.641 437.603 780.701 437.411C782.572 437.293 784.158 438.781 784.227 440.718C784.296 442.654 782.822 444.335 780.952 444.452C779.592 444.538 778.42 445.14 777.601 446.074C777.11 446.634 776.631 447.546 776.681 448.955C776.914 450.704 778.154 452.038 780.44 454.012C782.026 455.5 783.607 456.812 784.702 458.861C786.692 462.088 787.352 466.281 786.293 470.052C785.392 473.461 783.275 476.241 780.435 477.83C779.276 478.785 777.928 479.223 776.744 479.473Z" fill="#233B4A"/>
<path d="M711.785 490.65C710.43 490.912 709.069 490.997 707.695 490.73C704.437 490.229 701.646 488.463 699.838 485.576C697.848 482.347 697.017 478.163 698.077 474.39C698.676 472.057 699.635 470.232 700.757 468.22C702.194 465.482 703.153 463.657 702.75 461.917C702.536 460.695 701.654 459.868 701.131 459.547C700.085 458.907 698.718 458.816 697.539 459.243C695.686 459.889 693.771 458.774 693.362 456.858C692.782 454.953 693.905 452.941 695.764 452.471C698.795 451.398 702.053 451.899 704.838 453.49C707.276 454.925 709.072 457.46 709.688 460.422C710.532 464.958 708.615 468.609 706.85 471.72C706.049 473.183 705.248 474.645 704.958 476.075C704.516 478.045 704.932 480.137 705.839 481.669C706.38 482.517 707.445 483.686 709.159 483.931C713.104 484.566 717.73 480.392 719.798 476.202C722.818 470.011 722.178 461.579 718.191 454.946C717.107 453.249 717.713 451.092 719.213 450.116C720.877 448.952 722.944 449.528 723.851 451.06C729.104 459.732 729.838 470.806 725.708 479.361C722.991 484.474 717.715 489.572 711.785 490.65Z" fill="#233B4A"/>
<path d="M811.967 435.42C811.967 435.42 794.467 413.503 774.114 410.963L777.168 423.305C785.34 426.011 795.711 432.294 807.225 445.915L810.705 442.72L811.967 435.42Z" fill="#E4E4E5"/>
<path d="M808.494 450.678C806.966 450.957 805.415 450.531 804.344 449.189C802.738 447.178 802.983 444.336 804.797 442.449L825.666 423.394C827.656 421.672 830.395 421.842 832.165 423.666C833.77 425.678 833.526 428.52 831.712 430.407L810.843 449.462C810.015 450.223 809.346 450.621 808.494 450.678Z" fill="#E91F5C"/>
<path opacity="0.5" d="M851.206 461.651C834.65 479.225 821.327 460.681 821.327 460.681C821.327 460.681 823.692 468.159 827.438 471.311C836.551 479.295 849.043 472.395 851.206 461.651Z" fill="#A7CCED"/>
<path d="M811.449 410.931C801.858 403.178 792.562 398.586 784.385 396.226C784.035 400.484 784.535 408.932 791.222 412.79C798.431 416.794 806.821 415.786 811.449 410.931Z" fill="#A7CCED"/>
<path d="M650.809 421.977C661.858 427.007 672.143 430.136 680.998 431.932C680.873 428.757 679.607 418.398 671.054 415.524C662.838 412.454 654.177 415.598 650.809 421.977Z" fill="#A7CCED"/>
<path d="M692.812 422.302C692.812 422.302 660.705 416.689 641.984 405.189C641.103 404.708 640.394 404.218 639.52 403.913L634.199 413.236C657.503 427.308 678.211 432.327 692.919 433.794C692.747 433.804 692.085 430.127 692.812 422.302Z" fill="#E4E4E5"/>
<path d="M634.382 417.91C633.37 418.154 632.341 417.871 631.305 417.411C629.222 416.141 628.441 413.198 629.726 410.998L643.84 386.447C645.124 384.247 647.983 383.351 650.066 384.621C652.149 385.891 652.93 388.834 651.646 391.034L637.531 415.586C636.895 416.861 635.732 417.644 634.382 417.91Z" fill="#E91F5C"/>
<path d="M777.898 510.799C775.773 509.328 760.52 489.329 759.756 487.427C758.993 485.525 757.302 486.329 754.627 488.425C751.946 490.345 739 494.086 735.638 491.801C732.275 489.516 731.98 490.771 731.664 491.496C731.348 492.221 721.17 522.68 721.17 522.68C721.17 522.68 724.106 522.867 728.424 523.153C730.629 513.48 733.708 504.111 736.361 497.064C739.626 496.879 742.885 496.518 746.653 495.95C750.758 495.187 754.512 494.267 757.736 493.023C762.804 499.278 768.987 507.591 774.152 516.316C776.805 513.69 778.606 511.289 777.898 510.799Z" fill="#E4E4E5"/>
<path d="M697.172 515.079C696.728 517.055 694.65 530.821 694.65 530.821C694.65 530.821 679.155 519.567 664.661 526.668C650.168 533.77 651.22 553.539 651.22 553.539L721.501 567.047L728.377 519.687L697.172 515.079Z" fill="#A7CCED"/>
<path d="M801.294 497.737C802.213 499.45 808.479 511.633 808.479 511.633C808.479 511.633 819.727 495.348 835.555 496.841C851.378 498.156 856.345 517.149 856.345 517.149L793.936 555.572L773.223 513.477L801.294 497.737Z" fill="#A7CCED"/>
<path d="M794.12 555.743L856.574 517.316C856.574 517.316 855.578 513.48 853.193 509.2L790.415 548.178L794.12 555.743Z" fill="#233B4A"/>
<path d="M650.947 553.231L721.767 566.866L723.148 557.736L652.263 542.331C650.59 548.286 650.947 553.231 650.947 553.231Z" fill="#233B4A"/>
<path d="M773.256 518.19C771.378 518.483 769.463 517.716 768.536 515.825C767.426 513.591 768.18 510.709 770.533 509.323L798.624 493.405C800.812 492.206 803.584 492.92 804.872 495.321C805.982 497.555 805.228 500.436 802.875 501.823L774.785 517.74C774.277 517.949 773.77 518.158 773.256 518.19Z" fill="#E91F5C"/>
<path opacity="0.5" d="M804.738 498.584L776.548 514.336C776.039 514.542 775.701 514.738 775.185 514.767C773.298 515.05 771.37 514.273 770.432 512.379C770.053 511.515 769.846 510.641 769.983 509.748C768.31 511.082 767.72 513.594 768.836 515.656C769.774 517.55 771.703 518.327 773.589 518.044C774.106 518.015 774.615 517.809 774.952 517.613L803.143 501.861C804.664 501.067 805.469 499.605 805.578 498.006C805.241 498.202 804.903 498.398 804.738 498.584Z" fill="#E91F5C"/>
<path d="M729.259 525.195C728.743 525.226 728.227 525.258 727.712 525.289L696.34 520.445C693.913 520.059 692.1 517.685 692.517 514.999C692.94 512.49 695.281 510.575 697.88 510.95L729.417 515.607C731.844 515.992 733.656 518.366 733.24 521.052C732.803 523.207 731.144 524.904 729.259 525.195Z" fill="#E91F5C"/>
<path opacity="0.5" d="M731.1 516.437C731.482 517.304 731.519 518.189 731.383 519.084C731.125 521.229 729.456 522.74 727.563 523.021C727.044 523.049 726.526 523.077 726.008 523.105L694.296 518.266C693.77 518.118 693.245 517.969 692.712 517.643C693.288 519.031 694.549 520.205 696.291 520.465L728.003 525.304C728.529 525.453 729.047 525.425 729.558 525.219C731.451 524.939 733.113 523.25 733.378 521.283C733.643 519.316 732.699 517.415 731.1 516.437Z" fill="#E91F5C"/>
<path d="M807.967 538.201L801.143 531.16C797.732 527.64 792.698 526.687 788.118 528.538L781.847 531.193L782.961 533.252L789.061 530.607C792.616 528.991 796.783 529.815 799.652 532.659L806.475 539.7L810.981 544.75L813.002 543.575L807.967 538.201Z" fill="#233B4A"/>
<path d="M720.262 539.759C715.443 539.505 710.912 542.232 708.854 546.759L704.575 555.998L701.592 563.223L703.841 563.624L706.502 556.946L710.787 547.883C712.536 544.256 716.06 542.115 720.015 542.242L725.52 542.457L725.774 540.149L720.262 539.759Z" fill="#233B4A"/>
<path d="M205.161 402.505C183.485 410.928 124.258 413.701 115.834 392.026C107.411 370.35 152.968 332.401 174.643 323.978C196.318 315.554 220.741 326.307 229.165 347.982C237.589 369.658 226.836 394.081 205.161 402.505Z" fill="#F05A28"/>
<path d="M199.893 391.151C184.658 397.071 143.059 398.981 137.186 383.87C131.266 368.636 163.286 342.077 178.521 336.157C193.755 330.236 210.831 337.857 216.703 352.968C222.7 368.031 215.127 385.23 199.893 391.151Z" fill="#F2B31B"/>
<path d="M201.719 378.608C192.182 382.314 165.988 383.512 162.281 373.975C158.575 364.438 178.704 347.634 188.241 343.927C197.778 340.221 208.614 344.992 212.32 354.529C216.075 364.19 211.256 374.902 201.719 378.608Z" fill="#F2C365"/>
<path d="M263.154 407.197L215.886 285.567L201.023 291.343L248.291 412.973L263.154 407.197Z" fill="#3C2A34"/>
<path d="M216.974 280.296C216.974 280.296 198.991 239.526 152.09 258.608C152.09 258.608 165.772 209.808 225.275 206.643C251.841 205.301 285.007 225.344 298.845 248.48L216.974 280.296Z" fill="#C80640"/>
<path d="M265.927 406.262C265.927 406.262 280.195 448.477 232.716 466.073C232.716 466.073 275.761 492.827 321.785 454.981C342.286 438.033 353.214 400.853 347.798 374.445L265.927 406.262Z" fill="#E91F5C"/>
<path d="M523.163 235.438L239.156 345.81L211.43 274.467C211.43 274.467 368.055 159.139 523.163 235.438Z" fill="#F5EFDB"/>
<path d="M523.163 235.438L239.156 345.81L266.881 417.154C266.929 417.277 460.281 396.454 523.163 235.438Z" fill="#FFFAEF"/>
<path d="M440.438 211.131C440.438 211.131 428.902 262.518 478.561 309.228C478.561 309.228 511.423 274.929 525.145 234.668C525.145 234.668 491.339 217.012 440.438 211.131Z" fill="#E91F5C"/>
<path d="M479.087 298.473C476.61 299.436 473.858 298.225 472.895 295.747C471.932 293.27 473.144 290.518 475.621 289.556C478.098 288.593 480.85 289.804 481.813 292.282C482.899 294.711 481.564 297.511 479.087 298.473Z" fill="#FFFAEF"/>
<path d="M447.362 264.896L525.145 234.668C525.145 234.668 489.171 216.571 440.438 211.131C440.438 211.131 434.799 232.569 447.362 264.896Z" fill="#C80640"/>
<path opacity="0.05" d="M211.43 274.467C211.43 274.467 357.871 160.815 525.145 234.668C525.145 234.668 365.956 189.323 295.178 277.562C249.059 334.976 310.622 408.281 310.622 408.281C310.622 408.281 286.581 413.917 266.758 417.202L211.306 274.516L211.43 274.467Z" fill="#3C2A34"/>
<path d="M481.911 284.83C481.333 283.344 481.671 281.645 482.916 280.448C497.134 267.509 505.918 247.557 506.118 247.337C507.026 245.273 509.256 244.407 511.32 245.316C513.384 246.224 514.25 248.454 513.341 250.518C512.963 251.378 503.724 272.361 488.337 286.325C486.768 287.79 484.277 287.617 482.812 286.048C482.248 285.697 482.055 285.202 481.911 284.83Z" fill="#FFFDF2"/>
<path d="M284.182 462.039C284.134 461.915 284.086 461.791 284.038 461.667C283.392 459.637 284.672 457.429 286.702 456.783C332.411 443.438 333.059 407.688 333.087 407.392C333.108 405.245 334.829 403.436 336.975 403.457C339.122 403.478 340.931 405.199 340.91 407.345C340.931 407.765 340.853 418.203 334.217 430.476C328.284 441.621 315.428 456.597 288.799 464.379C287.016 464.929 284.953 464.021 284.182 462.039Z" fill="#FFFDF2"/>
<path d="M387.908 325.782C370.072 332.713 350.121 323.929 343.19 306.093C336.258 288.257 345.042 268.306 362.878 261.375C380.713 254.443 400.665 263.227 407.596 281.063C414.528 298.899 405.62 318.898 387.908 325.782Z" fill="#1F7A8C"/>
<path d="M388.899 325.396C373.293 331.461 355.749 323.737 349.684 308.131C343.619 292.525 351.343 274.982 366.949 268.917C382.556 262.852 400.099 270.576 406.164 286.182C412.229 301.788 404.505 319.332 388.899 325.396Z" fill="#7AC8A9"/>
<path d="M381.256 319.67C380.486 317.688 381.422 315.329 383.528 314.51C393.808 310.515 398.957 298.82 394.962 288.539C394.192 286.558 395.128 284.198 397.234 283.379C399.215 282.609 401.575 283.546 402.394 285.651C407.977 300.019 400.859 316.186 386.492 321.77C384.262 322.636 382.026 321.652 381.256 319.67Z" fill="#FFFDF2"/>
<path d="M373.879 324.533C371.402 325.496 368.65 324.284 367.687 321.807C366.725 319.33 367.936 316.578 370.413 315.615C372.891 314.652 375.642 315.864 376.605 318.341C377.568 320.818 376.356 323.57 373.879 324.533Z" fill="#FFFAEF"/>
<path d="M275.951 470.94C273.474 471.903 270.722 470.691 269.76 468.214C268.797 465.737 270.008 462.985 272.486 462.022C274.963 461.06 277.715 462.271 278.677 464.748C279.592 467.102 278.429 469.978 275.951 470.94Z" fill="#FFFAEF"/>
<path d="M322.573 319.808C323.777 317.772 324.198 315.185 323.283 312.831L322.706 311.345C321.791 308.992 319.81 307.195 317.471 306.679C317.471 306.679 283.119 294.224 222.832 329.486C189.499 348.998 184.025 366.095 184.025 366.095C184.025 366.095 199.655 375.133 237.369 366.892C305.599 352.066 322.573 319.808 322.573 319.808Z" fill="#E91F5C"/>
<path d="M322.417 310.602C321.502 308.248 319.521 306.452 317.182 305.936C317.182 305.936 282.831 293.481 222.543 328.743C189.21 348.255 183.736 365.352 183.736 365.352L322.706 311.345L322.417 310.602Z" fill="#C80640"/>
</svg>
