<?xml version="1.0" encoding="utf-8"?>
<!-- Generator: Adobe Illustrator 24.0.2, SVG Export Plug-In . SVG Version: 6.00 Build 0)  -->
<svg version="1.1" id="Capa_1" xmlns="http://www.w3.org/2000/svg" xmlns:xlink="http://www.w3.org/1999/xlink" x="0px" y="0px"
	 viewBox="0 0 580 282.6" style="enable-background:new 0 0 580 282.6;" xml:space="preserve">
<style type="text/css">
	.st0{fill:url(#SVGID_1_);}
	.st1{fill:url(#SVGID_2_);}
	.st2{fill:url(#SVGID_3_);}
	.st3{fill:url(#SVGID_4_);}
	.st4{fill:url(#SVGID_5_);}
	.st5{opacity:0.5;fill:url(#SVGID_6_);enable-background:new    ;}
	.st6{fill:url(#SVGID_7_);}
	.st7{opacity:0.25;fill:url(#SVGID_8_);enable-background:new    ;}
	.st8{opacity:0.25;fill:url(#SVGID_9_);enable-background:new    ;}
	.st9{fill:url(#SVGID_10_);}
	.st10{fill:url(#SVGID_11_);}
	.st11{fill:url(#SVGID_12_);}
	.st12{fill:url(#SVGID_13_);}
	.st13{fill:url(#SVGID_14_);}
	.st14{fill:url(#SVGID_15_);}
	.st15{fill:url(#SVGID_16_);}
	.st16{fill:url(#SVGID_17_);}
	.st17{fill:url(#SVGID_18_);}
	.st18{fill:url(#SVGID_19_);}
	.st19{fill:url(#SVGID_20_);}
	.st20{fill:url(#SVGID_21_);}
	.st21{fill:url(#SVGID_22_);}
	.st22{fill:url(#SVGID_23_);}
	.st23{fill:url(#SVGID_24_);}
	.st24{fill:url(#SVGID_25_);}
	.st25{opacity:0.5;}
	.st26{opacity:0.5;fill:url(#SVGID_26_);enable-background:new    ;}
	.st27{opacity:0.5;fill:url(#SVGID_27_);enable-background:new    ;}
	.st28{opacity:0.5;fill:url(#SVGID_28_);enable-background:new    ;}
	.st29{fill:url(#SVGID_29_);}
	.st30{fill:url(#SVGID_30_);}
	.st31{fill:url(#SVGID_31_);}
	.st32{fill:url(#SVGID_32_);}
	.st33{fill:url(#SVGID_33_);}
	.st34{fill:url(#SVGID_34_);}
	.st35{fill:url(#SVGID_35_);}
	.st36{fill:url(#SVGID_36_);}
	.st37{fill:url(#SVGID_37_);}
	.st38{fill:url(#SVGID_38_);}
	.st39{fill:url(#SVGID_39_);}
	.st40{fill:url(#SVGID_40_);}
	.st41{opacity:0.5;fill:url(#SVGID_41_);enable-background:new    ;}
	.st42{opacity:0.5;fill:url(#SVGID_42_);enable-background:new    ;}
	.st43{opacity:0.5;fill:url(#SVGID_43_);enable-background:new    ;}
	.st44{opacity:0.5;fill:url(#SVGID_44_);enable-background:new    ;}
	.st45{opacity:0.5;fill:url(#SVGID_45_);enable-background:new    ;}
	.st46{opacity:0.5;fill:url(#SVGID_46_);enable-background:new    ;}
	.st47{opacity:0.5;fill:url(#SVGID_47_);enable-background:new    ;}
	.st48{opacity:0.5;fill:url(#SVGID_48_);enable-background:new    ;}
	.st49{opacity:0.5;fill:url(#SVGID_49_);enable-background:new    ;}
	.st50{opacity:0.5;fill:url(#SVGID_50_);enable-background:new    ;}
	.st51{opacity:0.5;fill:url(#SVGID_51_);enable-background:new    ;}
	.st52{opacity:0.5;fill:url(#SVGID_52_);enable-background:new    ;}
	.st53{opacity:0.5;fill:url(#SVGID_53_);enable-background:new    ;}
	.st54{opacity:0.5;fill:url(#SVGID_54_);enable-background:new    ;}
	.st55{opacity:0.5;fill:url(#SVGID_55_);enable-background:new    ;}
	.st56{opacity:0.5;fill:url(#SVGID_56_);enable-background:new    ;}
	.st57{opacity:0.5;fill:url(#SVGID_57_);enable-background:new    ;}
	.st58{opacity:0.5;fill:url(#SVGID_58_);enable-background:new    ;}
	.st59{opacity:0.5;fill:url(#SVGID_59_);enable-background:new    ;}
	.st60{opacity:0.5;fill:url(#SVGID_60_);enable-background:new    ;}
	.st61{opacity:0.5;fill:url(#SVGID_61_);enable-background:new    ;}
	.st62{opacity:0.5;fill:url(#SVGID_62_);enable-background:new    ;}
	.st63{opacity:0.5;fill:url(#SVGID_63_);enable-background:new    ;}
	.st64{opacity:0.5;fill:url(#SVGID_64_);enable-background:new    ;}
	.st65{opacity:0.5;fill:url(#SVGID_65_);enable-background:new    ;}
	.st66{opacity:0.5;fill:url(#SVGID_66_);enable-background:new    ;}
	.st67{opacity:0.5;fill:url(#SVGID_67_);enable-background:new    ;}
</style>
<radialGradient id="SVGID_1_" cx="-308.253" cy="738.2272" r="1" gradientTransform="matrix(549.4457 165.0036 131.2472 -437.04 72499.2266 373571)" gradientUnits="userSpaceOnUse">
	<stop  offset="8.148150e-02" style="stop-color:#795FFF"/>
	<stop  offset="0.5259" style="stop-color:#DEC35B;stop-opacity:0.4741"/>
	<stop  offset="1" style="stop-color:#32AFE3;stop-opacity:0"/>
</radialGradient>
<path class="st0" d="M459.9,272.3L77.2,190.8c-56.5-12-89.6-67.2-72.8-122.4C21.1,13.2,78.7-14,132.5,7.8l362.1,148
	c53.7,22.1,91.1,62.2,82.9,89C569.7,272,516.4,284.4,459.9,272.3z"/>
<radialGradient id="SVGID_2_" cx="-308.2546" cy="737.2643" r="1" gradientTransform="matrix(550.6458 165.364 58.4371 -194.5898 126676.7031 194511.5469)" gradientUnits="userSpaceOnUse">
	<stop  offset="8.148150e-02" style="stop-color:#795FFF"/>
	<stop  offset="0.5259" style="stop-color:#DEC35B;stop-opacity:0.4741"/>
	<stop  offset="1" style="stop-color:#32AFE3;stop-opacity:0"/>
</radialGradient>
<path class="st1" d="M526.5,252.9L36.3,124.7C11.4,118.1-3,92.9,4.4,68.4C11.8,43.9,37.8,30.7,62,39.2l478.9,166.7
	c24.1,8.5,41.3,25.3,37.8,37.3C574.8,254.9,551.4,259.5,526.5,252.9z"/>
<radialGradient id="SVGID_3_" cx="-308.2301" cy="738.3652" r="1" gradientTransform="matrix(533.0901 160.0787 159.7784 -532.0902 46369.7344 442266.6875)" gradientUnits="userSpaceOnUse">
	<stop  offset="8.148150e-02" style="stop-color:#795FFF"/>
	<stop  offset="0.5259" style="stop-color:#DEC35B;stop-opacity:0.4741"/>
	<stop  offset="1" style="stop-color:#32AFE3;stop-opacity:0"/>
</radialGradient>
<path class="st2" d="M70.5,14.4c-7.4-2.7-15.2-3.1-22.6-1.9c-15.2,8.9-28,22.1-37,38.8c-2.7,22.1,10.9,43.1,33.5,49L535.1,228
	c16.7,4.3,32.3,3.9,42.4-0.8c-5.1-17.5-22.6-37.3-47.9-53.2L70.5,14.4z"/>
<radialGradient id="SVGID_4_" cx="-308.2337" cy="738.3682" r="1" gradientTransform="matrix(535.5966 160.8313 160.5296 -534.5919 46573.7188 444394.625)" gradientUnits="userSpaceOnUse">
	<stop  offset="8.148150e-02" style="stop-color:#795FFF"/>
	<stop  offset="0.5259" style="stop-color:#DEC35B;stop-opacity:0.4741"/>
	<stop  offset="1" style="stop-color:#32AFE3;stop-opacity:0"/>
</radialGradient>
<path class="st3" d="M532.3,227.3L53.4,60.6C33.9,54,13.3,61,2.4,76.5c-4.7,21-2.3,41.2,5.8,59.1c5.5,5.1,12.1,8.5,19.5,10.9
	l490.6,127.8c1.9,0.4,3.9,0.8,5.8,1.2c20.2-2.7,36.6-8.9,45.9-18.3C567.4,246.7,552.2,233.9,532.3,227.3z"/>
<radialGradient id="SVGID_5_" cx="-305.7803" cy="736.3454" r="1" gradientTransform="matrix(127.4719 38.2778 38.2062 -127.2334 10942.2041 105429.8125)" gradientUnits="userSpaceOnUse">
	<stop  offset="8.148150e-02" style="stop-color:#795FFF"/>
	<stop  offset="0.9963" style="stop-color:#32AFE3"/>
</radialGradient>
<path class="st4" d="M102.9,178.7c46.7,0,84.5-37.7,84.5-84.3c0-46.6-37.8-84.3-84.5-84.3c-46.7,0-84.5,37.7-84.5,84.3
	C18.4,141,56.2,178.7,102.9,178.7z"/>
<radialGradient id="SVGID_6_" cx="-306.1203" cy="736.6257" r="1" gradientTransform="matrix(142.5249 42.798 42.7178 -142.2577 12258.8027 117922.7422)" gradientUnits="userSpaceOnUse">
	<stop  offset="8.148150e-02" style="stop-color:#795FFF"/>
	<stop  offset="0.9963" style="stop-color:#32AFE3"/>
</radialGradient>
<path class="st5" d="M102.9,188.8c52.3,0,94.6-42.3,94.6-94.4c0-52.1-42.4-94.4-94.6-94.4C50.6,0,8.2,42.3,8.2,94.4
	C8.2,146.5,50.6,188.8,102.9,188.8z"/>
<radialGradient id="SVGID_7_" cx="-305.1231" cy="735.8036" r="1" gradientTransform="matrix(105.865 31.7896 31.7301 -105.6668 9052.0137 87478.6094)" gradientUnits="userSpaceOnUse">
	<stop  offset="8.148150e-02" style="stop-color:#795FFF"/>
	<stop  offset="0.9963" style="stop-color:#32AFE3"/>
</radialGradient>
<path class="st6" d="M23.4,80.8C36.7,36.1,84.2,10.9,129,24.1c31.1,9.3,52.6,34.6,58.8,64.1c-2.7-33.8-25.7-64.1-60.4-74.6
	C82.6,0,35.5,25.6,21.9,69.9c-4.3,13.6-4.7,27.6-1.9,40.8C19.1,101,20.3,90.9,23.4,80.8z"/>
<radialGradient id="SVGID_8_" cx="-305.5686" cy="736.1708" r="1" gradientTransform="matrix(119.6088 35.9167 35.8494 -119.3847 10247.2354 98904.7031)" gradientUnits="userSpaceOnUse">
	<stop  offset="8.148150e-02" style="stop-color:#795FFF"/>
	<stop  offset="0.9963" style="stop-color:#32AFE3"/>
</radialGradient>
<path class="st7" d="M119.6,157.3C74.8,143.7,49.5,96.7,62.8,52.1c5.1-16.7,14.8-30.7,27.6-41.2c-31.1,4.7-58.8,26.8-68.5,59.1
	C8.6,114.6,33.9,162,78.7,175.2c28,8.5,56.8,1.6,77.9-15.5C144.5,161.6,132.1,160.8,119.6,157.3z"/>
<radialGradient id="SVGID_9_" cx="-305.293" cy="735.9436" r="1" gradientTransform="matrix(110.7151 33.246 33.1836 -110.5073 9483.6494 91722.3594)" gradientUnits="userSpaceOnUse">
	<stop  offset="8.148150e-02" style="stop-color:#795FFF"/>
	<stop  offset="0.9963" style="stop-color:#32AFE3"/>
</radialGradient>
<path class="st8" d="M177.2,54c0,7.8-1.2,15.5-3.5,23.3c-12.8,42.7-58,67.2-101.2,54c-25.7-7.4-44.8-27.2-53-50.9
	c-7,41.6,17.9,82.4,59.2,94.8c44.8,13.6,91.9-12,105.5-56.7C190.9,96.3,187.7,73,177.2,54z"/>
<radialGradient id="SVGID_10_" cx="-296.1072" cy="734.4205" r="1" gradientTransform="matrix(32.5569 24.1997 24.1841 -32.5359 -8051.9131 31096.5859)" gradientUnits="userSpaceOnUse">
	<stop  offset="8.148150e-02" style="stop-color:#795FFF"/>
	<stop  offset="0.9963" style="stop-color:#32AFE3"/>
</radialGradient>
<path class="st9" d="M59.6,58.7c-5.8,8.2-14.8,11.7-19.5,8.2c-4.7-3.5-3.9-12.8,2.3-21c5.8-8.2,14.8-11.7,19.5-8.2
	C66.7,41.2,65.5,50.5,59.6,58.7z"/>
<radialGradient id="SVGID_11_" cx="-295.6716" cy="734.2658" r="1" gradientTransform="matrix(31.4928 23.4088 23.3936 -31.4725 -7795.8022 30067.5742)" gradientUnits="userSpaceOnUse">
	<stop  offset="8.148150e-02" style="stop-color:#795FFF"/>
	<stop  offset="0.9963" style="stop-color:#32AFE3"/>
</radialGradient>
<path class="st10" d="M63.1,39.2c-5.1-1.2-11.7,2.3-16.7,9.3c-5.1,7-6.6,15.2-3.9,19.4c5.1,1.2,11.7-2.3,16.7-9.3
	C64.7,51.7,66.3,43.5,63.1,39.2z"/>
<radialGradient id="SVGID_12_" cx="-282.5939" cy="726.2544" r="1" gradientTransform="matrix(15.896 11.8155 8.6893 -11.6902 -1723.193 11894.7178)" gradientUnits="userSpaceOnUse">
	<stop  offset="8.148150e-02" style="stop-color:#795FFF"/>
	<stop  offset="0.9963" style="stop-color:#32AFE3"/>
</radialGradient>
<path class="st11" d="M92.7,74.2c-2.3,2.7-5.8,3.9-8.2,1.9c-2.3-1.6-2.3-5.4-0.4-8.2c2.3-2.7,5.8-3.9,8.2-1.9
	C94.7,67.6,94.7,71.5,92.7,74.2z"/>
<radialGradient id="SVGID_13_" cx="-282.5939" cy="726.2544" r="1" gradientTransform="matrix(15.896 11.8155 8.6893 -11.6902 -1723.193 11894.7178)" gradientUnits="userSpaceOnUse">
	<stop  offset="8.148150e-02" style="stop-color:#795FFF"/>
	<stop  offset="0.9963" style="stop-color:#32AFE3"/>
</radialGradient>
<path class="st12" d="M92.7,74.2c-2.3,2.7-5.8,3.9-8.2,1.9c-2.3-1.6-2.3-5.4-0.4-8.2c2.3-2.7,5.8-3.9,8.2-1.9
	C94.7,67.6,94.7,71.5,92.7,74.2z"/>
<radialGradient id="SVGID_14_" cx="-281.7021" cy="725.8239" r="1" gradientTransform="matrix(15.3767 11.4295 8.4054 -11.3083 -1673.4498 11493.7266)" gradientUnits="userSpaceOnUse">
	<stop  offset="8.148150e-02" style="stop-color:#795FFF"/>
	<stop  offset="0.9963" style="stop-color:#32AFE3"/>
</radialGradient>
<path class="st13" d="M93.1,66.8c-2.3-0.8-5.1,0.4-7,2.7c-1.9,2.7-1.9,5.8-0.4,7.8c2.3,0.8,5.1-0.4,7-2.7
	C94.3,71.9,94.7,68.4,93.1,66.8z"/>
<radialGradient id="SVGID_15_" cx="-320.7547" cy="753.1916" r="1" gradientTransform="matrix(-34.1844 -8.9056 -6.541 25.1077 -5921.5596 -21644.8027)" gradientUnits="userSpaceOnUse">
	<stop  offset="8.148150e-02" style="stop-color:#795FFF"/>
	<stop  offset="0.9963" style="stop-color:#32AFE3"/>
</radialGradient>
<path class="st14" d="M115.3,106.4c1.6-6.2,7-10.1,12.1-8.9c5.1,1.2,7.8,7.4,6.2,13.6c-1.6,6.2-7,10.1-12.1,8.9
	C116.5,118.9,113.8,112.7,115.3,106.4z"/>
<radialGradient id="SVGID_16_" cx="-321.1516" cy="753.6707" r="1" gradientTransform="matrix(-33.0679 -8.6148 -6.3274 24.2876 -5735.4834 -20949.5508)" gradientUnits="userSpaceOnUse">
	<stop  offset="8.148150e-02" style="stop-color:#795FFF"/>
	<stop  offset="0.9963" style="stop-color:#32AFE3"/>
</radialGradient>
<path class="st15" d="M120,119.3c4.3-0.4,8.2-3.9,9.3-8.9c1.6-5.4-0.4-10.9-4.3-12.8c-4.3,0.4-8.2,3.9-9.3,8.9
	C114.2,111.9,116.1,117.3,120,119.3z"/>
<radialGradient id="SVGID_17_" cx="-300.2166" cy="723.4203" r="1" gradientTransform="matrix(38.3998 2.4723 1.8153 -28.196 10295.4795 21233.9082)" gradientUnits="userSpaceOnUse">
	<stop  offset="8.148150e-02" style="stop-color:#795FFF"/>
	<stop  offset="0.9963" style="stop-color:#32AFE3"/>
</radialGradient>
<path class="st16" d="M85,111.1c-0.4,7-5.5,12.4-10.9,12c-5.5-0.4-9.7-6.2-9.3-13.2c0.4-7,5.5-12.4,10.9-12
	C81.4,98.3,85.3,104.1,85,111.1z"/>
<radialGradient id="SVGID_18_" cx="-299.9198" cy="722.8939" r="1" gradientTransform="matrix(37.1448 2.3915 1.756 -27.2744 9952.7939 20528.3379)" gradientUnits="userSpaceOnUse">
	<stop  offset="8.148150e-02" style="stop-color:#795FFF"/>
	<stop  offset="0.9963" style="stop-color:#32AFE3"/>
</radialGradient>
<path class="st17" d="M77.6,98.3c-4.3,1.2-7.8,5.8-8.2,11.7c-0.4,6.2,2.7,11.3,7.4,12.8c4.3-1.2,7.8-5.8,8.2-11.7
	C85.3,104.9,82.2,99.8,77.6,98.3z"/>
<radialGradient id="SVGID_19_" cx="-278.1293" cy="734.6088" r="1" gradientTransform="matrix(11.8934 13.2411 13.2443 -11.8963 -6336.4976 12452.9619)" gradientUnits="userSpaceOnUse">
	<stop  offset="8.148150e-02" style="stop-color:#795FFF"/>
	<stop  offset="0.9963" style="stop-color:#32AFE3"/>
</radialGradient>
<path class="st18" d="M78.7,40c-3.1,3.1-7.4,3.9-9,1.9c-1.6-1.9-0.4-5.8,2.7-8.9c3.1-3.1,7.4-3.9,9-1.9C83.4,33,82.2,37.3,78.7,40z"
	/>
<radialGradient id="SVGID_20_" cx="-277.0868" cy="734.4606" r="1" gradientTransform="matrix(11.5049 12.8086 12.8117 -11.5077 -6136.626 12032.75)" gradientUnits="userSpaceOnUse">
	<stop  offset="8.148150e-02" style="stop-color:#795FFF"/>
	<stop  offset="0.9963" style="stop-color:#32AFE3"/>
</radialGradient>
<path class="st19" d="M82.2,31.9c-1.9-0.8-5.5,0-8.2,2.3c-2.7,2.7-4.3,5.8-3.1,8.2c1.9,0.8,5.5,0,8.2-2.3
	C81.8,37.3,83,34.2,82.2,31.9z"/>
<radialGradient id="SVGID_21_" cx="-291.6055" cy="726.9782" r="1" gradientTransform="matrix(24.4232 9.6508 9.635 -24.3831 167.0433 20613.8125)" gradientUnits="userSpaceOnUse">
	<stop  offset="8.148150e-02" style="stop-color:#795FFF"/>
	<stop  offset="0.9963" style="stop-color:#32AFE3"/>
</radialGradient>
<path class="st20" d="M47.6,89.4c-2.3,6.2-7.4,9.7-10.9,8.2c-3.5-1.6-4.7-7.4-1.9-13.6c2.3-6.2,7.4-9.7,10.9-8.2
	C48.7,77.3,49.9,83.5,47.6,89.4z"/>
<radialGradient id="SVGID_22_" cx="-291.6055" cy="726.9782" r="1" gradientTransform="matrix(24.4232 9.6508 9.635 -24.3831 167.0433 20613.8125)" gradientUnits="userSpaceOnUse">
	<stop  offset="8.148150e-02" style="stop-color:#795FFF"/>
	<stop  offset="0.9963" style="stop-color:#32AFE3"/>
</radialGradient>
<path class="st21" d="M47.6,89.4c-2.3,6.2-7.4,9.7-10.9,8.2c-3.5-1.6-4.7-7.4-1.9-13.6c2.3-6.2,7.4-9.7,10.9-8.2
	C48.7,77.3,49.9,83.5,47.6,89.4z"/>
<radialGradient id="SVGID_23_" cx="-291.0183" cy="726.5724" r="1" gradientTransform="matrix(23.6257 9.3357 9.3204 -23.5869 153.808 19928.6953)" gradientUnits="userSpaceOnUse">
	<stop  offset="8.148150e-02" style="stop-color:#795FFF"/>
	<stop  offset="0.9963" style="stop-color:#32AFE3"/>
</radialGradient>
<path class="st22" d="M46.4,76.5c-3.1,0-7,3.5-9,8.5c-1.9,5.4-1.6,10.5,0.8,12.8c3.1,0,7-3.5,9-8.5C49.5,84.3,49.1,78.9,46.4,76.5z"
	/>
<radialGradient id="SVGID_24_" cx="-325.646" cy="752.041" r="1" gradientTransform="matrix(-24.9576 -8.1772 -8.1624 24.9124 -1824.8226 -21287.1094)" gradientUnits="userSpaceOnUse">
	<stop  offset="8.148150e-02" style="stop-color:#795FFF"/>
	<stop  offset="0.9963" style="stop-color:#32AFE3"/>
</radialGradient>
<path class="st23" d="M165.2,95.2c1.9-6.2,6.6-10.1,10.1-8.9c3.5,1.2,5.1,7,3.1,13.2c-1.9,6.2-6.6,10.1-10.1,8.9
	C164.4,107.2,163.2,101,165.2,95.2z"/>
<radialGradient id="SVGID_25_" cx="-326.208" cy="752.4812" r="1" gradientTransform="matrix(-24.1426 -7.9101 -7.8958 24.0989 -1770.6771 -20603.9805)" gradientUnits="userSpaceOnUse">
	<stop  offset="8.148150e-02" style="stop-color:#795FFF"/>
	<stop  offset="0.9963" style="stop-color:#32AFE3"/>
</radialGradient>
<path class="st24" d="M167.1,107.6c3.1-0.4,6.6-3.9,8.6-8.9c1.9-5.4,1.2-10.5-1.6-12.8c-3.1,0.4-6.6,3.9-8.6,8.9
	C163.6,100.2,164.4,105.7,167.1,107.6z"/>
<g class="st25">
	
		<radialGradient id="SVGID_26_" cx="-335.3166" cy="747.4038" r="1" gradientTransform="matrix(-15.7303 -12.4968 -12.4905 15.7224 4190.6821 -15784.6738)" gradientUnits="userSpaceOnUse">
		<stop  offset="8.148150e-02" style="stop-color:#795FFF"/>
		<stop  offset="0.9963" style="stop-color:#32AFE3"/>
	</radialGradient>
	<path class="st26" d="M134.8,145.7c3.1-3.9,7.4-5.4,9.7-3.9c2.3,1.9,1.6,6.6-1.6,10.5c-3.1,3.9-7.4,5.4-9.7,3.9
		C131.3,154.2,131.7,149.6,134.8,145.7z"/>
	
		<radialGradient id="SVGID_27_" cx="-335.3166" cy="747.4038" r="1" gradientTransform="matrix(-15.7303 -12.4968 -12.4905 15.7224 4190.6821 -15784.6738)" gradientUnits="userSpaceOnUse">
		<stop  offset="8.148150e-02" style="stop-color:#795FFF"/>
		<stop  offset="0.9963" style="stop-color:#32AFE3"/>
	</radialGradient>
	<path class="st27" d="M134.8,145.7c3.1-3.9,7.4-5.4,9.7-3.9c2.3,1.9,1.6,6.6-1.6,10.5c-3.1,3.9-7.4,5.4-9.7,3.9
		C131.3,154.2,131.7,149.6,134.8,145.7z"/>
	
		<radialGradient id="SVGID_28_" cx="-336.2057" cy="747.6878" r="1" gradientTransform="matrix(-15.2162 -12.0883 -12.0822 15.2085 4047.4414 -15279.2822)" gradientUnits="userSpaceOnUse">
		<stop  offset="8.148150e-02" style="stop-color:#795FFF"/>
		<stop  offset="0.9963" style="stop-color:#32AFE3"/>
	</radialGradient>
	<path class="st28" d="M132.8,155c2.3,0.8,5.8-1.2,8.6-4.3c2.7-3.5,3.5-7.4,2.3-9.7c-2.3-0.8-5.8,1.2-8.6,4.3
		C132.1,149.2,131.3,153.1,132.8,155z"/>
</g>
<radialGradient id="SVGID_29_" cx="-342.2617" cy="749.6217" r="1" gradientTransform="matrix(-12.4458 -9.8874 -9.8824 12.4394 3291.4055 -12591.2461)" gradientUnits="userSpaceOnUse">
	<stop  offset="8.148150e-02" style="stop-color:#795FFF"/>
	<stop  offset="0.9963" style="stop-color:#32AFE3"/>
</radialGradient>
<path class="st29" d="M147.3,108.8c2.3-3.1,5.8-4.3,7.8-3.1c1.9,1.6,1.2,5.1-1.2,8.2s-5.8,4.3-7.8,3.1
	C144.1,115.8,144.5,111.9,147.3,108.8z"/>
<radialGradient id="SVGID_30_" cx="-343.3853" cy="749.9805" r="1" gradientTransform="matrix(-12.0391 -9.5643 -9.5595 12.033 3178.1609 -12191.542)" gradientUnits="userSpaceOnUse">
	<stop  offset="8.148150e-02" style="stop-color:#795FFF"/>
	<stop  offset="0.9963" style="stop-color:#32AFE3"/>
</radialGradient>
<path class="st30" d="M145.3,116.6c1.9,0.4,4.7-0.8,6.6-3.5c2.3-2.7,2.7-5.8,1.6-7.4c-1.6-0.8-4.3,0.8-6.2,3.1
	C144.9,111.5,144.1,114.6,145.3,116.6z"/>
<radialGradient id="SVGID_31_" cx="-306.4723" cy="753.7507" r="1" gradientTransform="matrix(-26.8764 25.5565 25.5537 26.8734 -27342.3105 -12364.3965)" gradientUnits="userSpaceOnUse">
	<stop  offset="8.148150e-02" style="stop-color:#795FFF"/>
	<stop  offset="0.9963" style="stop-color:#32AFE3"/>
</radialGradient>
<path class="st31" d="M136.7,47c-6.2-6.6-8.2-15.2-4.3-18.6c3.9-3.9,12.1-1.6,18.7,5.1c6.2,6.6,8.2,15.2,4.3,18.6
	C151.1,55.9,143,53.6,136.7,47z"/>
<radialGradient id="SVGID_32_" cx="-306.4723" cy="753.7507" r="1" gradientTransform="matrix(-26.8764 25.5565 25.5537 26.8734 -27342.3105 -12364.3965)" gradientUnits="userSpaceOnUse">
	<stop  offset="8.148150e-02" style="stop-color:#795FFF"/>
	<stop  offset="0.9963" style="stop-color:#32AFE3"/>
</radialGradient>
<path class="st32" d="M136.7,47c-6.2-6.6-8.2-15.2-4.3-18.6c3.9-3.9,12.1-1.6,18.7,5.1c6.2,6.6,8.2,15.2,4.3,18.6
	C151.1,55.9,143,53.6,136.7,47z"/>
<radialGradient id="SVGID_33_" cx="-306.387" cy="754.2488" r="1" gradientTransform="matrix(-25.9984 24.7216 24.7189 25.9955 -26455.3516 -11973.127)" gradientUnits="userSpaceOnUse">
	<stop  offset="8.148150e-02" style="stop-color:#795FFF"/>
	<stop  offset="0.9963" style="stop-color:#32AFE3"/>
</radialGradient>
<path class="st33" d="M153.5,53.2c1.6-4.3-0.4-10.9-5.8-16.7c-5.5-5.8-12.5-8.2-16.7-6.2c-1.6,4.3,0.4,10.9,5.8,16.7
	C142.2,52.8,149.2,55.2,153.5,53.2z"/>
<radialGradient id="SVGID_34_" cx="-290.236" cy="768.4406" r="1" gradientTransform="matrix(-6.3814 14.5406 14.5629 6.3911 -12915.3623 -660.6)" gradientUnits="userSpaceOnUse">
	<stop  offset="8.148150e-02" style="stop-color:#795FFF"/>
	<stop  offset="0.9963" style="stop-color:#32AFE3"/>
</radialGradient>
<path class="st34" d="M118.1,28.7c-3.9-1.6-5.8-4.7-5.1-6.6c0.8-1.9,4.7-2.7,8.2-1.2c3.5,1.6,5.8,4.7,4.7,6.6S121.6,30.3,118.1,28.7
	z"/>
<radialGradient id="SVGID_35_" cx="-289.6022" cy="769.435" r="1" gradientTransform="matrix(-6.1729 14.0656 14.0871 6.1823 -12499.7305 -652.6807)" gradientUnits="userSpaceOnUse">
	<stop  offset="8.148150e-02" style="stop-color:#795FFF"/>
	<stop  offset="0.9963" style="stop-color:#32AFE3"/>
</radialGradient>
<path class="st35" d="M125.8,28.4c0-1.9-1.9-4.3-5.1-5.4c-3.1-1.6-6.2-1.2-7.8,0.4c0,1.9,1.9,4.3,5.1,5.4
	C121.2,30.3,124.3,29.9,125.8,28.4z"/>
<radialGradient id="SVGID_36_" cx="-313.4393" cy="704.3542" r="1" gradientTransform="matrix(11.97 -10.4557 -10.4526 -11.9664 11154.71 5278.0371)" gradientUnits="userSpaceOnUse">
	<stop  offset="8.148150e-02" style="stop-color:#795FFF"/>
	<stop  offset="0.9963" style="stop-color:#32AFE3"/>
</radialGradient>
<path class="st36" d="M48.4,132.1c2.7,3.1,3.1,6.6,1.6,8.2s-5.5,0.4-7.8-2.7c-2.3-3.1-3.1-6.6-1.6-8.2
	C42.5,128.2,46,129.4,48.4,132.1z"/>
<radialGradient id="SVGID_37_" cx="-313.4393" cy="704.3542" r="1" gradientTransform="matrix(11.97 -10.4557 -10.4526 -11.9664 11154.71 5278.0371)" gradientUnits="userSpaceOnUse">
	<stop  offset="8.148150e-02" style="stop-color:#795FFF"/>
	<stop  offset="0.9963" style="stop-color:#32AFE3"/>
</radialGradient>
<path class="st37" d="M48.4,132.1c2.7,3.1,3.1,6.6,1.6,8.2s-5.5,0.4-7.8-2.7c-2.3-3.1-3.1-6.6-1.6-8.2
	C42.5,128.2,46,129.4,48.4,132.1z"/>
<radialGradient id="SVGID_38_" cx="-313.5893" cy="703.1832" r="1" gradientTransform="matrix(11.5786 -10.1139 -10.1108 -11.5751 10781.7441 5094.3506)" gradientUnits="userSpaceOnUse">
	<stop  offset="8.148150e-02" style="stop-color:#795FFF"/>
	<stop  offset="0.9963" style="stop-color:#32AFE3"/>
</radialGradient>
<path class="st38" d="M41.3,129.4c-0.8,1.9,0,4.7,2.3,7.4c2.3,2.7,5.1,3.9,7,3.1c0.8-1.9,0-4.7-2.3-7.4
	C46,129.8,43.3,128.6,41.3,129.4z"/>
<radialGradient id="SVGID_39_" cx="-324.0558" cy="743.7545" r="1" gradientTransform="matrix(-27.4533 -21.9542 -21.9434 27.4398 7571.187 -27378.3867)" gradientUnits="userSpaceOnUse">
	<stop  offset="8.148150e-02" style="stop-color:#795FFF"/>
	<stop  offset="0.9963" style="stop-color:#32AFE3"/>
</radialGradient>
<path class="st39" d="M156.2,125.1c5.5-6.6,13.2-9.7,17.1-6.6c3.9,3.1,2.7,11.3-2.7,17.9c-5.5,6.6-13.2,9.7-17.1,6.6
	S150.8,131.7,156.2,125.1z"/>
<radialGradient id="SVGID_40_" cx="-324.5642" cy="743.9151" r="1" gradientTransform="matrix(-26.5564 -21.2369 -21.2264 26.5433 7317.8926 -26495.3496)" gradientUnits="userSpaceOnUse">
	<stop  offset="8.148150e-02" style="stop-color:#795FFF"/>
	<stop  offset="0.9963" style="stop-color:#32AFE3"/>
</radialGradient>
<path class="st40" d="M152.3,141.8c4.3,1.2,10.1-1.9,14.8-7.4c4.7-5.8,6.2-12.8,3.9-16.7c-4.3-1.2-10.1,1.9-14.8,7.4
	C151.1,130.9,150,137.9,152.3,141.8z"/>
<radialGradient id="SVGID_41_" cx="-239.4741" cy="681.6769" r="1" gradientTransform="matrix(5.9032 1.7726 1.7693 -5.8921 373.834 4507.7168)" gradientUnits="userSpaceOnUse">
	<stop  offset="8.148150e-02" style="stop-color:#795FFF"/>
	<stop  offset="0.9963" style="stop-color:#32AFE3"/>
</radialGradient>
<path class="st41" d="M166.7,70.7c-0.4,1.6-1.9,2.3-3.5,1.9c-1.6-0.4-2.3-1.9-1.9-3.5c0.4-1.6,1.9-2.3,3.5-1.9
	C166.3,67.6,167.1,69.2,166.7,70.7z"/>
<radialGradient id="SVGID_42_" cx="-200.8627" cy="649.8416" r="1" gradientTransform="matrix(3.7954 1.1397 1.1376 -3.7883 183.3984 2772.4419)" gradientUnits="userSpaceOnUse">
	<stop  offset="8.148150e-02" style="stop-color:#795FFF"/>
	<stop  offset="0.9963" style="stop-color:#32AFE3"/>
</radialGradient>
<path class="st42" d="M160.5,84.3c-0.4,0.8-1.2,1.6-2.3,1.2c-0.8-0.4-1.6-1.2-1.2-2.3c0.4-0.8,1.2-1.6,2.3-1.2
	C160.1,82.4,160.9,83.1,160.5,84.3z"/>
<radialGradient id="SVGID_43_" cx="-248.1729" cy="688.8484" r="1" gradientTransform="matrix(6.7474 2.0261 2.0223 -6.7347 326.0557 5250.7197)" gradientUnits="userSpaceOnUse">
	<stop  offset="8.148150e-02" style="stop-color:#795FFF"/>
	<stop  offset="0.9963" style="stop-color:#32AFE3"/>
</radialGradient>
<path class="st43" d="M45.2,113.1c-0.4,1.6-2.3,2.7-3.9,1.9c-1.6-0.4-2.7-2.3-1.9-3.9c0.4-1.6,2.3-2.7,3.9-1.9
	C44.5,109.6,45.6,111.5,45.2,113.1z"/>
<radialGradient id="SVGID_44_" cx="-227.8912" cy="672.1262" r="1" gradientTransform="matrix(5.0602 1.5195 1.5166 -5.0507 190.0121 3828.7742)" gradientUnits="userSpaceOnUse">
	<stop  offset="8.148150e-02" style="stop-color:#795FFF"/>
	<stop  offset="0.9963" style="stop-color:#32AFE3"/>
</radialGradient>
<path class="st44" d="M56.5,91.3c-0.4,1.2-1.6,1.9-2.7,1.6c-1.2-0.4-1.9-1.6-1.6-2.7c0.4-1.2,1.6-1.9,2.7-1.6
	C56.1,88.6,56.9,89.7,56.5,91.3z"/>
<radialGradient id="SVGID_45_" cx="-287.8419" cy="721.5553" r="1" gradientTransform="matrix(19.3979 5.8249 5.814 -19.3615 1465.3212 15778.4336)" gradientUnits="userSpaceOnUse">
	<stop  offset="8.148150e-02" style="stop-color:#795FFF"/>
	<stop  offset="0.9963" style="stop-color:#32AFE3"/>
</radialGradient>
<path class="st45" d="M78.3,144.1c-1.6,4.7-6.2,7.4-10.9,5.8s-7.4-6.2-5.8-10.9c1.6-4.7,6.2-7.4,10.9-5.8
	C76.8,134.4,79.5,139.5,78.3,144.1z"/>
<radialGradient id="SVGID_46_" cx="-251.751" cy="691.7986" r="1" gradientTransform="matrix(7.1691 2.1528 2.1487 -7.1556 410.6967 5619.2256)" gradientUnits="userSpaceOnUse">
	<stop  offset="8.148150e-02" style="stop-color:#795FFF"/>
	<stop  offset="0.9963" style="stop-color:#32AFE3"/>
</radialGradient>
<path class="st46" d="M92.7,131.7c-0.4,1.6-2.3,2.7-4.3,2.3c-1.6-0.4-2.7-2.3-2.3-4.3c0.4-1.6,2.3-2.7,4.3-2.3
	C92.4,128.2,93.5,129.8,92.7,131.7z"/>
<radialGradient id="SVGID_47_" cx="-234.131" cy="677.2706" r="1" gradientTransform="matrix(5.4819 1.6461 1.643 -5.4716 260.2425 4231.6719)" gradientUnits="userSpaceOnUse">
	<stop  offset="8.148150e-02" style="stop-color:#795FFF"/>
	<stop  offset="0.9963" style="stop-color:#32AFE3"/>
</radialGradient>
<path class="st47" d="M90,144.1c-0.4,1.2-1.9,1.9-3.1,1.6c-1.2-0.4-1.9-1.9-1.6-3.1c0.4-1.2,1.9-1.9,3.1-1.6
	C89.6,141.4,90.4,142.6,90,144.1z"/>
<radialGradient id="SVGID_48_" cx="-234.1307" cy="677.2709" r="1" gradientTransform="matrix(5.4819 1.6461 1.643 -5.4716 199.5153 4195.6938)" gradientUnits="userSpaceOnUse">
	<stop  offset="8.148150e-02" style="stop-color:#795FFF"/>
	<stop  offset="0.9963" style="stop-color:#32AFE3"/>
</radialGradient>
<path class="st48" d="M29.3,108c-0.4,1.2-1.9,1.9-3.1,1.6c-1.2-0.4-1.9-1.9-1.6-3.1c0-1.2,1.6-1.9,2.7-1.6
	C28.9,105.3,29.7,106.8,29.3,108z"/>
<radialGradient id="SVGID_49_" cx="-211.6766" cy="658.7576" r="1" gradientTransform="matrix(4.2171 1.2663 1.264 -4.2092 123.133 3111.9541)" gradientUnits="userSpaceOnUse">
	<stop  offset="8.148150e-02" style="stop-color:#795FFF"/>
	<stop  offset="0.9963" style="stop-color:#32AFE3"/>
</radialGradient>
<path class="st49" d="M63.5,73.8C63.1,75,62,75.4,61.2,75c-1.2-0.4-1.6-1.6-1.2-2.3c0.4-1.2,1.6-1.6,2.3-1.2
	C63.1,71.9,63.5,72.6,63.5,73.8z"/>
<radialGradient id="SVGID_50_" cx="-274.2406" cy="710.3409" r="1" gradientTransform="matrix(11.8075 3.5456 3.5389 -11.7853 826.2977 9373.0977)" gradientUnits="userSpaceOnUse">
	<stop  offset="8.148150e-02" style="stop-color:#795FFF"/>
	<stop  offset="0.9963" style="stop-color:#32AFE3"/>
</radialGradient>
<path class="st50" d="M102.9,36.9c-0.8,2.7-3.9,4.7-6.6,3.5c-2.7-0.8-4.7-3.9-3.5-6.6c0.8-2.7,3.9-4.7,6.6-3.5
	C102.1,31.1,103.6,33.8,102.9,36.9z"/>
<radialGradient id="SVGID_51_" cx="-227.8912" cy="672.1262" r="1" gradientTransform="matrix(5.0602 1.5195 1.5166 -5.0507 216.1533 3793.0532)" gradientUnits="userSpaceOnUse">
	<stop  offset="8.148150e-02" style="stop-color:#795FFF"/>
	<stop  offset="0.9963" style="stop-color:#32AFE3"/>
</radialGradient>
<path class="st51" d="M82.6,55.6c-0.4,1.2-1.6,1.9-2.7,1.6c-1.2-0.4-1.9-1.6-1.6-2.7c0.4-1.2,1.6-1.9,2.7-1.6
	C82.2,52.8,83,54,82.6,55.6z"/>
<radialGradient id="SVGID_52_" cx="-239.4832" cy="681.6839" r="1" gradientTransform="matrix(5.9039 1.7729 1.7695 -5.8929 303.1983 4461.2749)" gradientUnits="userSpaceOnUse">
	<stop  offset="8.148150e-02" style="stop-color:#795FFF"/>
	<stop  offset="0.9963" style="stop-color:#32AFE3"/>
</radialGradient>
<path class="st52" d="M95.9,23.3c-0.4,1.6-1.9,2.3-3.5,1.9c-1.6-0.4-2.3-1.9-1.9-3.5c0.4-1.6,1.9-2.3,3.5-1.9
	C95.5,20.6,96.2,22.1,95.9,23.3z"/>
<radialGradient id="SVGID_53_" cx="-211.6766" cy="658.7574" r="1" gradientTransform="matrix(4.2171 1.2663 1.264 -4.2092 133.6003 3063.8533)" gradientUnits="userSpaceOnUse">
	<stop  offset="8.148150e-02" style="stop-color:#795FFF"/>
	<stop  offset="0.9963" style="stop-color:#32AFE3"/>
</radialGradient>
<path class="st53" d="M74.1,25.6c-0.4,1.2-1.6,1.6-2.7,1.6c-1.2-0.4-1.6-1.6-1.2-2.3c0.4-1.2,1.6-1.6,2.3-1.2
	C73.7,23.7,74.1,24.9,74.1,25.6z"/>
<radialGradient id="SVGID_54_" cx="-285.2616" cy="719.4278" r="1" gradientTransform="matrix(17.2894 5.1917 5.182 -17.257 1333.9912 13934.8799)" gradientUnits="userSpaceOnUse">
	<stop  offset="8.148150e-02" style="stop-color:#795FFF"/>
	<stop  offset="0.9963" style="stop-color:#32AFE3"/>
</radialGradient>
<path class="st54" d="M131.3,50.1c-1.2,4.3-5.8,6.6-9.7,5.4c-4.3-1.2-6.6-5.8-5.5-9.7c1.2-4.3,5.8-6.6,9.7-5.4
	C130.1,41.6,132.5,45.8,131.3,50.1z"/>
<radialGradient id="SVGID_55_" cx="-248.1694" cy="688.8457" r="1" gradientTransform="matrix(6.747 2.026 2.0222 -6.7343 388.5536 5202.6206)" gradientUnits="userSpaceOnUse">
	<stop  offset="8.148150e-02" style="stop-color:#795FFF"/>
	<stop  offset="0.9963" style="stop-color:#32AFE3"/>
</radialGradient>
<path class="st55" d="M107.5,65.3c-0.4,1.6-2.3,2.7-3.9,1.9c-1.6-0.4-2.7-2.3-1.9-3.9c0.4-1.6,2.3-2.7,3.9-1.9
	C107.1,61.8,107.9,63.7,107.5,65.3z"/>
<radialGradient id="SVGID_56_" cx="-234.136" cy="677.2751" r="1" gradientTransform="matrix(5.4822 1.6462 1.6431 -5.472 337.303 4140.1445)" gradientUnits="userSpaceOnUse">
	<stop  offset="8.148150e-02" style="stop-color:#795FFF"/>
	<stop  offset="0.9963" style="stop-color:#32AFE3"/>
</radialGradient>
<path class="st56" d="M167.1,52.1c-0.4,1.2-1.9,1.9-3.1,1.6s-1.9-1.9-1.6-3.1c0.4-1.2,1.9-1.9,3.1-1.6S167.5,50.9,167.1,52.1z"/>
<radialGradient id="SVGID_57_" cx="-254.9314" cy="694.4208" r="1" gradientTransform="matrix(7.5908 2.2794 2.2751 -7.5765 505.1548 5921.6602)" gradientUnits="userSpaceOnUse">
	<stop  offset="8.148150e-02" style="stop-color:#795FFF"/>
	<stop  offset="0.9963" style="stop-color:#32AFE3"/>
</radialGradient>
<path class="st57" d="M150.4,84.3c-0.4,1.9-2.3,2.7-4.3,2.3c-1.9-0.4-2.7-2.3-2.3-4.3c0.4-1.9,2.3-2.7,4.3-2.3
	C150,80.4,151.1,82.4,150.4,84.3z"/>
<radialGradient id="SVGID_58_" cx="-248.173" cy="688.8484" r="1" gradientTransform="matrix(6.7474 2.0261 2.0223 -6.7347 426.2042 5236.417)" gradientUnits="userSpaceOnUse">
	<stop  offset="8.148150e-02" style="stop-color:#795FFF"/>
	<stop  offset="0.9963" style="stop-color:#32AFE3"/>
</radialGradient>
<path class="st58" d="M145.3,98.7c-0.4,1.6-2.3,2.7-3.9,1.9c-1.6-0.4-2.7-2.3-1.9-3.9c0.4-1.6,2.3-2.7,3.9-1.9
	C144.9,95.6,145.7,97.1,145.3,98.7z"/>
<radialGradient id="SVGID_59_" cx="-239.4832" cy="681.684" r="1" gradientTransform="matrix(5.9039 1.7729 1.7695 -5.8929 312.9388 4554.9814)" gradientUnits="userSpaceOnUse">
	<stop  offset="8.148150e-02" style="stop-color:#795FFF"/>
	<stop  offset="0.9963" style="stop-color:#32AFE3"/>
</radialGradient>
<path class="st59" d="M105.6,117.3c-0.4,1.6-1.9,2.3-3.5,1.9c-1.6-0.4-2.3-1.9-1.9-3.5c0.4-1.6,1.9-2.3,3.5-1.9
	C105.2,114.2,106,115.8,105.6,117.3z"/>
<radialGradient id="SVGID_60_" cx="-244.114" cy="685.5018" r="1" gradientTransform="matrix(6.3253 1.8994 1.8958 -6.3134 383.3219 4914.0483)" gradientUnits="userSpaceOnUse">
	<stop  offset="8.148150e-02" style="stop-color:#795FFF"/>
	<stop  offset="0.9963" style="stop-color:#32AFE3"/>
</radialGradient>
<path class="st60" d="M139.1,126.7c-0.4,1.6-1.9,2.3-3.5,1.9c-1.6-0.4-2.3-1.9-1.9-3.5c0.4-1.6,1.9-2.3,3.5-1.9
	C138.7,123.5,139.9,125.1,139.1,126.7z"/>
<radialGradient id="SVGID_61_" cx="-234.1357" cy="677.275" r="1" gradientTransform="matrix(5.4822 1.6462 1.6431 -5.4719 306.1072 4224.7695)" gradientUnits="userSpaceOnUse">
	<stop  offset="8.148150e-02" style="stop-color:#795FFF"/>
	<stop  offset="0.9963" style="stop-color:#32AFE3"/>
</radialGradient>
<path class="st61" d="M135.6,136.8c-0.4,1.2-1.9,1.9-3.1,1.6c-1.2-0.4-1.9-1.9-1.6-3.1c0.4-1.2,1.9-1.9,3.1-1.6
	C135.6,134,136,135.6,135.6,136.8z"/>
<radialGradient id="SVGID_62_" cx="-271.5665" cy="708.1365" r="1" gradientTransform="matrix(10.964 3.2923 3.2862 -10.9436 778.2842 8799.666)" gradientUnits="userSpaceOnUse">
	<stop  offset="8.148150e-02" style="stop-color:#795FFF"/>
	<stop  offset="0.9963" style="stop-color:#32AFE3"/>
</radialGradient>
<path class="st62" d="M128.6,163.2c-0.8,2.7-3.5,4.3-6.2,3.5c-2.7-0.8-4.3-3.5-3.5-6.2c0.8-2.7,3.5-4.3,6.2-3.5
	C127.8,157.7,129.3,160.4,128.6,163.2z"/>
<radialGradient id="SVGID_63_" cx="-187.3324" cy="638.6861" r="1" gradientTransform="matrix(3.3733 1.013 1.0111 -3.367 123.4799 2503.8743)" gradientUnits="userSpaceOnUse">
	<stop  offset="8.148150e-02" style="stop-color:#795FFF"/>
	<stop  offset="0.9963" style="stop-color:#32AFE3"/>
</radialGradient>
<path class="st63" d="M137.5,165.9c-0.4,0.8-1.2,1.2-1.9,1.2c-0.8-0.4-1.2-1.2-1.2-1.9c0.4-0.8,1.2-1.2,1.9-1.2
	C137.1,164.3,137.9,165.1,137.5,165.9z"/>
<radialGradient id="SVGID_64_" cx="-169.966" cy="624.3674" r="1" gradientTransform="matrix(2.952 0.8864 0.8848 -2.9464 103.765 2143.0564)" gradientUnits="userSpaceOnUse">
	<stop  offset="8.148150e-02" style="stop-color:#795FFF"/>
	<stop  offset="0.9963" style="stop-color:#32AFE3"/>
</radialGradient>
<path class="st64" d="M154.7,154.6c-0.4,0.8-0.8,1.2-1.6,0.8c-0.8,0-1.2-0.8-1.2-1.6c0.4-0.8,0.8-1.2,1.6-0.8
	C154.7,153.1,155,153.8,154.7,154.6z"/>
<radialGradient id="SVGID_65_" cx="-211.6766" cy="658.7574" r="1" gradientTransform="matrix(4.2171 1.2663 1.264 -4.2092 240.6271 3150.0554)" gradientUnits="userSpaceOnUse">
	<stop  offset="8.148150e-02" style="stop-color:#795FFF"/>
	<stop  offset="0.9963" style="stop-color:#32AFE3"/>
</radialGradient>
<path class="st65" d="M180.7,111.9c-0.4,1.2-1.6,1.6-2.3,1.2c-1.2-0.4-1.6-1.6-1.2-2.3c0.4-1.2,1.6-1.6,2.3-1.2
	C180.7,109.9,181.1,110.7,180.7,111.9z"/>
<radialGradient id="SVGID_66_" cx="-169.9852" cy="624.3821" r="1" gradientTransform="matrix(2.9524 0.8865 0.8849 -2.9468 130.9906 2063.9932)" gradientUnits="userSpaceOnUse">
	<stop  offset="8.148150e-02" style="stop-color:#795FFF"/>
	<stop  offset="0.9963" style="stop-color:#32AFE3"/>
</radialGradient>
<path class="st66" d="M181.9,75.4c-0.4,0.8-0.8,1.2-1.6,0.8c-0.8-0.4-1.2-0.8-0.8-1.6c0.4-0.8,0.8-1.2,1.6-0.8
	C181.5,73.8,181.9,74.6,181.9,75.4z"/>
<radialGradient id="SVGID_67_" cx="-303.4736" cy="734.4435" r="1" gradientTransform="matrix(74.2665 22.3011 22.2593 -74.1273 6287.2666 61253.0391)" gradientUnits="userSpaceOnUse">
	<stop  offset="8.148150e-02" style="stop-color:#795FFF"/>
	<stop  offset="0.9963" style="stop-color:#32AFE3"/>
</radialGradient>
<path class="st67" d="M101.3,125.5c27.3,0,49.5-22.1,49.5-49.3c0-27.2-22.1-49.3-49.5-49.3c-27.3,0-49.5,22.1-49.5,49.3
	C51.9,103.4,74,125.5,101.3,125.5z"/>
</svg>
