<?xml version="1.0" encoding="utf-8"?>
<!-- Generator: Adobe Illustrator 24.0.2, SVG Export Plug-In . SVG Version: 6.00 Build 0)  -->
<svg version="1.1" id="Capa_1" xmlns="http://www.w3.org/2000/svg" xmlns:xlink="http://www.w3.org/1999/xlink" x="0px" y="0px"
	 viewBox="0 0 215 215" style="enable-background:new 0 0 215 215;" xml:space="preserve">
<style type="text/css">
	.st0{clip-path:url(#SVGID_2_);}
	.st1{fill:#FFDE75;}
	.st2{fill:#DE912F;}
	.st3{fill:#E6AC4A;}
</style>
<g>
	<defs>
		<rect id="SVGID_1_" x="2.5" y="2.5" width="210" height="210"/>
	</defs>
	<clipPath id="SVGID_2_">
		<use xlink:href="#SVGID_1_"  style="overflow:visible;"/>
	</clipPath>
	<g class="st0">
		<path class="st1" d="M207.2,140.4C225.4,85.4,195.5,26,140.4,7.8C85.3-10.3,25.9,19.6,7.8,74.7c-18.2,55.1,11.8,114.4,66.8,132.6
			C129.7,225.4,189.1,195.5,207.2,140.4z"/>
		<path class="st2" d="M126.7,170.9c7.5-3.1,15.2-6.2,23.3-7.3c4-0.4,8.8,0,10.6,3.5c1.3,2.9,0.2,6.2-2.2,8.4
			c-2.2,2.2-5.3,3.3-8.1,4.2c-11.9,4.2-23.8,8.4-35.7,12.3c-7.3,2.6-21.4,4.4-13.2-6.6C107.3,178.2,118.5,174.4,126.7,170.9z"/>
		<path class="st3" d="M35.7,171.6c31.7-22.9,64.1-48,102.4-55.7c24.7-4.8,52.4-3.3,74.2-13.2c-0.4-8.6-2-17.4-4.6-26.2
			c-1.1-3.3-2.2-6.4-3.5-9.5c-9,3.5-18,7-27.1,10.6c-6.6,2.6-13.6,5.3-20.9,4.4c-7-0.9-14.3-6.2-14.5-13.4c0-3.5,1.5-6.8,3.1-9.9
			c6.8-12.8,16.3-24.2,27.5-33.2c-7.5-5.9-15.8-10.8-24.7-14.5c-4.8,3.5-9.5,7.5-13.4,12.1c-18.3,21.1-24.9,52.2-46.9,70.2
			c-16.7,13.9-39.6,17.6-58.1,29.1c-7.9,4.8-15.2,11.2-20.9,18.5c4.6,13.6,11.7,25.8,20.5,35.9C30.9,175.1,33.3,173.3,35.7,171.6z"
			/>
		<path class="st2" d="M34.9,107.9c5.7-2.6,11.7-4.8,17.4-7.5c18.3-8.1,34.3-20.9,46.7-36.5c1.5-1.8,2.9-3.7,3.3-6.2
			c1.1-5.5-4-10.8-9.5-11.7c-5.5-1.1-11,0.9-16.3,3.1C52.2,59.3,25.6,74.5,3.4,92.1c-1.5,11.7-1.3,23.8,1.1,36.1
			C15.3,121.8,26.5,111.9,34.9,107.9z"/>
		<path class="st2" d="M98.9,24.3c0.2,2,1.8,3.5,3.5,4.4c4,2,8.8,0.9,12.3-1.8s5.9-6.4,8.1-10.3c1.5-2.6,6.2-7,9.7-11
			c-5.9-1.5-12.1-2.4-18.3-2.9c-5.7,5.1-10.8,11.4-13.6,16.1C99.6,20.3,98.7,22.3,98.9,24.3z"/>
		<g>
			<path class="st3" d="M177.1,123.6c-26.2,3.5-53.7,4.6-77.3,16.9C85.7,148,74,159,62.4,170c-5.9,5.7-12.1,11.4-18.1,17.2
				c-0.7,0.4-1.5,1.3-2.9,2.4c7.7,6.2,16.1,11,24.9,15c11.7-7.3,19.2-20.5,29.7-29.5c9.2-7.9,20.7-12.8,32.1-17.2
				c16.3-6.2,32.8-11.9,49.5-16.7c10.6-3.1,21.8-6.2,31.9-10.6c0.9-4.2,1.5-8.6,2-13C200.6,119.8,188.9,121.8,177.1,123.6z"/>
		</g>
		<path class="st2" d="M11.1,66.1c6.6-0.2,14.1-6.4,18.7-8.8C49.2,47,67.2,34,83.9,19c4.6-4.2,9.5-9,10.8-15.8
			c-6.2,0.7-12.1,2-18.3,4C45.9,16.6,22.8,38.8,11.1,66.1z"/>
	</g>
</g>
</svg>
