<?xml version="1.0" encoding="utf-8"?>
<!-- Generator: Adobe Illustrator 24.0.2, SVG Export Plug-In . SVG Version: 6.00 Build 0)  -->
<svg version="1.1" id="Capa_1" xmlns="http://www.w3.org/2000/svg" xmlns:xlink="http://www.w3.org/1999/xlink" x="0px" y="0px"
	 viewBox="0 0 203 148" style="enable-background:new 0 0 203 148;" xml:space="preserve">
<style type="text/css">
	.st0{fill:url(#SVGID_1_);}
	.st1{opacity:0.5;fill:url(#SVGID_2_);enable-background:new    ;}
	.st2{opacity:0.5;fill:url(#SVGID_3_);enable-background:new    ;}
	.st3{opacity:0.5;fill:url(#SVGID_4_);enable-background:new    ;}
	.st4{opacity:0.5;fill:url(#SVGID_5_);enable-background:new    ;}
	.st5{opacity:0.5;}
	.st6{opacity:0.5;fill:url(#SVGID_6_);enable-background:new    ;}
	.st7{opacity:0.5;fill:url(#SVGID_7_);enable-background:new    ;}
</style>
<radialGradient id="SVGID_1_" cx="-494.1402" cy="670.3612" r="1" gradientTransform="matrix(129.023 0 0 -129.023 63836.1328 86534.8125)" gradientUnits="userSpaceOnUse">
	<stop  offset="0" style="stop-color:#D1E1EE"/>
	<stop  offset="0.337" style="stop-color:#8EE1EE"/>
	<stop  offset="0.937" style="stop-color:#5E8DEC"/>
</radialGradient>
<path class="st0" d="M102.5,139.2c35.7,0,64.6-28.9,64.6-64.6c0-35.7-28.9-64.6-64.6-64.6c-35.7,0-64.6,28.9-64.6,64.6
	C37.9,110.3,66.8,139.2,102.5,139.2z"/>
<radialGradient id="SVGID_2_" cx="-492.9033" cy="669.0349" r="1" gradientTransform="matrix(97.7097 0 0 -97.7097 48250.4727 65401.3633)" gradientUnits="userSpaceOnUse">
	<stop  offset="3.703740e-03" style="stop-color:#8EE1EE"/>
	<stop  offset="0.937" style="stop-color:#5E8DEC"/>
</radialGradient>
<path class="st1" d="M44.5,81.2c0-35.7,28.9-64.6,64.6-64.6c16.3,0,31.1,6,42.5,16C139.8,19,122.4,10.4,103,10.4
	c-35.7,0-64.6,28.9-64.6,64.6c0,19.4,8.6,36.8,22.1,48.6C50.5,112.3,44.5,97.4,44.5,81.2z"/>
<radialGradient id="SVGID_3_" cx="-495.949" cy="667.3141" r="1" gradientTransform="matrix(87.0043 -44.4695 -44.4695 -87.0043 72894.9453 36045.4609)" gradientUnits="userSpaceOnUse">
	<stop  offset="3.703740e-03" style="stop-color:#8EE1EE"/>
	<stop  offset="0.937" style="stop-color:#5E8DEC"/>
</radialGradient>
<path class="st2" d="M53.7,106.5C37.5,74.8,50,35.9,81.8,19.6c14.5-7.4,30.5-8.8,45.1-5.1C110.2,7.8,90.8,8.1,73.6,17
	c-31.8,16.2-44.4,55.1-28.1,86.9c8.8,17.3,24.4,28.9,41.8,33.2C73.2,131.5,61.1,121,53.7,106.5z"/>
<radialGradient id="SVGID_4_" cx="-495.9825" cy="672.3366" r="1" gradientTransform="matrix(246.834 0 0 -246.834 122566.3594 166030.9688)" gradientUnits="userSpaceOnUse">
	<stop  offset="3.703740e-03" style="stop-color:#8EE1EE"/>
	<stop  offset="0.937" style="stop-color:#5E8DEC"/>
</radialGradient>
<path class="st3" d="M131.2,16.7c11.5,9.9,18.9,24.5,18.9,40.9c0,29.7-24.1,53.7-53.7,53.7c-29.6,0-53.7-24.1-53.7-53.7
	c0-3.1,0.3-6.2,0.8-9.2c-3.6,8-5.6,16.9-5.6,26.2c0,35.7,28.9,64.6,64.6,64.6c35.7,0,64.6-28.9,64.6-64.6
	C167.1,49.2,152.5,27.3,131.2,16.7z"/>
<radialGradient id="SVGID_5_" cx="-498.027" cy="671.5419" r="1" gradientTransform="matrix(178.973 -169.9887 -169.9887 -178.973 203418.5781 35577.1055)" gradientUnits="userSpaceOnUse">
	<stop  offset="3.703740e-03" style="stop-color:#8EE1EE"/>
	<stop  offset="0.937" style="stop-color:#5E8DEC"/>
</radialGradient>
<path class="st4" d="M83.1,12.3c15.1-0.8,30.5,4.8,41.8,16.6c20.4,21.5,19.6,55.5-2,75.9c-21.5,20.4-55.5,19.6-75.9-2
	c-2.2-2.3-4.1-4.7-5.8-7.2c2.9,8.3,7.6,16.1,14,22.8c24.6,25.9,65.5,26.9,91.3,2.4c25.9-24.6,26.9-65.5,2.4-91.3
	C131.4,11.2,105.8,5.4,83.1,12.3z"/>
<g class="st5">
	
		<radialGradient id="SVGID_6_" cx="-491.8785" cy="667.9355" r="1.0002" gradientTransform="matrix(81.352 0 0 -81.352 40117.0703 54410.75)" gradientUnits="userSpaceOnUse">
		<stop  offset="3.703740e-03" style="stop-color:#8EE1EE"/>
		<stop  offset="0.937" style="stop-color:#5E8DEC"/>
	</radialGradient>
	<path class="st6" d="M201.5,24.5c-4-8.2-17.3-9.4-40.8-3.5c-5.3,1.3-10.9,3-16.8,4.9c1.5,1.1,2.8,2.3,4.1,3.6c1.8,1.5,3.4,3.2,5,5
		c2.7-0.8,5.3-1.6,7.9-2.2c23.6-6.2,29.8-3.5,30.7-2.9c-0.1,1.1-1.8,7.7-21.3,22.3c-15.7,11.8-37.4,24.7-61.3,36.2
		c-23.8,11.5-47.4,20.6-66.4,25.6c-23.6,6.2-29.8,3.5-30.7,2.9c0.1-1.1,1.8-7.7,21.3-22.3c2.1-1.6,4.4-3.2,6.7-4.9
		c-1.2-3.9-1.9-7.8-1.8-11.9c-4.9,3.3-9.4,6.5-13.5,9.7C5.4,101.8-1.9,113,2,121.2c2.3,4.8,7.8,7.2,16.6,7.2
		c6.3,0,14.4-1.2,24.2-3.7c20.1-5,45.3-14.6,70.9-27.1c25.7-12.4,48.8-26.3,65.2-38.9C198.1,43.9,205.5,32.7,201.5,24.5z"/>
</g>
<radialGradient id="SVGID_7_" cx="-491.5172" cy="667.5491" r="1.0006" gradientTransform="matrix(76.8206 0 0 -76.8206 37860.1172 51353.7422)" gradientUnits="userSpaceOnUse">
	<stop  offset="3.703740e-03" style="stop-color:#8EE1EE"/>
	<stop  offset="0.937" style="stop-color:#5E8DEC"/>
</radialGradient>
<path class="st7" d="M115.6,89.8c76.7-36.6,88-60.1,79.9-65.9c-7.7-5.5-30.6,0.3-46.6,6.3c1.5,1.3,2.9,2.7,4.2,4.2
	c2.7-0.8,5.3-1.6,7.9-2.2c23.6-6.2,29.8-3.5,30.7-2.9c-0.1,1.1-1.8,7.7-21.3,22.3c-15.7,11.8-37.4,24.7-61.3,36.2
	c-23.9,11.6-47.5,20.7-66.5,25.7c-23.6,6.2-29.8,3.5-30.7,2.9c0.1-1.1,1.8-7.7,21.3-22.3c2.1-1.6,4.4-3.2,6.7-4.9
	c-0.8-2.4-1.3-4.9-1.6-7.5C29.6,87.9-0.6,110.4,6.2,118C14.2,126.8,38.9,126.4,115.6,89.8z"/>
</svg>
