<svg width="204" height="204" viewBox="0 0 204 204" fill="none" xmlns="http://www.w3.org/2000/svg">
<g clip-path="url(#clip0)">
<path d="M201.848 124.023C214.012 68.9524 179.23 14.4479 124.16 2.28337C69.0897 -9.88116 14.5851 24.9008 2.42059 79.9711C-9.74393 135.041 25.038 189.546 80.1083 201.71C135.179 213.875 189.683 179.093 201.848 124.023Z" fill="#00B6BE"/>
<path d="M151.245 12.6792C150.566 13.5849 150.113 14.717 150.34 15.8491C147.17 14.0377 142.415 15.6226 140.83 19.0189C139.925 20.8302 140.151 23.0943 139.925 25.1321C139.698 27.1698 138.566 29.434 136.528 29.8868C132 31.2453 128.83 24.4528 123.623 25.1321C119.547 25.5849 115.472 28.0755 113.208 31.4717C111.396 34.1887 110.717 40.5283 115.698 40.3019C118.415 40.3019 120.453 37.3585 122.943 38.0377C126.792 38.9434 125.887 41.8868 123.623 44.1509C120 47.5472 115.925 46.8679 111.849 48.2264C108.453 49.1321 106.868 52.9811 103.472 53.8868C102.34 54.1132 100.981 54.566 100.981 55.4717C100.981 56.151 101.66 56.6038 102.113 57.0566C103.019 58.4151 102.34 60.4528 100.981 61.5849C99.6227 62.717 98.0377 62.9434 96.2264 63.3962C94.6415 63.8491 92.8302 64.5283 92.151 66.1132C91.2453 67.6981 91.6981 69.9623 93.283 71.0943C96 72.9057 101.208 69.7359 103.245 67.6981C105.057 65.8868 107.094 64.0755 108.906 62.4906C110.491 60.9057 112.755 59.3208 114.792 60C115.698 60.2264 116.377 61.1321 117.057 61.8113C120 64.9811 122.943 68.151 125.66 71.0943C127.245 68.8302 125.434 65.6604 123.623 63.3962C124.755 62.0377 127.019 62.4906 128.151 63.8491C129.283 65.2076 129.509 67.0189 130.189 68.6038C130.642 70.1887 131.547 72 133.132 72.6793C134.717 73.3585 136.981 72.2264 136.755 70.4151C136.528 69.0566 134.717 68.3774 134.491 66.7925C134.264 64.9811 136.755 64.0755 138.34 64.7547C139.925 65.434 140.83 67.2453 141.736 68.8302C142.642 70.4151 144.226 71.7736 146.038 71.5472C147.849 71.3208 149.434 69.283 151.245 70.1887C151.698 70.4151 152.151 70.8679 152.377 71.3208C153.509 73.3585 153.283 76.0755 151.698 77.6604C149.887 79.4717 148.755 80.6038 148.302 81.5094C147.849 81.283 147.623 81.0566 147.17 81.0566C143.094 79.4717 138.566 80.6038 134.264 81.283C129.962 81.9623 124.981 81.7359 122.264 78.3396C120.679 76.5283 120.226 74.0377 118.189 72.6793C115.925 71.0943 112.755 72 110.038 73.1321C104.604 75.1698 99.1698 77.434 94.6415 81.0566C84.4528 88.9811 79.4717 103.245 82.8679 115.698C84.9057 123.623 91.4717 131.321 99.6227 131.321C103.245 131.321 106.868 129.736 110.491 129.283C114.113 128.83 118.642 129.962 119.774 133.359C120.679 135.849 119.774 138.792 120.906 141.283C122.038 143.547 124.528 144.679 125.434 147.17C127.472 152.151 120.226 157.359 121.811 162.792C122.264 164.604 123.623 165.962 124.302 167.774C126.113 171.849 123.623 177.283 125.887 181.132C128.604 185.66 136.075 184.302 139.925 180.679C143.774 176.83 145.811 171.623 149.887 168C152.83 165.283 156.679 163.698 158.943 160.755C162.792 156 162.113 149.208 164.604 143.547C168.453 134.717 179.094 129.962 182.491 120.906C183.849 117.509 183.17 112.528 179.547 111.849C178.868 111.623 177.962 111.849 177.283 111.849C175.472 112.755 173.208 112.755 171.396 112.075C168.679 111.17 166.642 108.906 164.83 106.868C161.887 103.245 159.17 99.1698 157.132 94.8679C155.774 92.151 154.642 89.2076 152.83 86.717C156.679 89.2076 159.17 92.8302 161.66 96.6793C164.151 100.302 167.094 103.472 170.264 106.415C171.17 107.321 172.302 108.226 173.66 108.226C176.151 108.453 177.962 105.736 179.094 103.472C180 101.434 181.132 99.3962 182.038 97.3585C183.17 95.0944 184.075 92.151 182.264 90.3396C181.585 89.6604 180.679 89.434 180 88.7547C178.642 87.3962 179.547 84.6793 181.358 83.7736C183.17 82.8679 185.434 83.3208 187.245 84.2264C192 86.4906 195.17 91.4717 195.396 96.6793C195.396 99.1698 194.717 101.66 195.17 104.151C195.623 106.642 197.434 109.132 200.151 108.906C201.057 108.906 201.962 108.453 202.642 107.774C203.547 107.094 204.226 106.415 204.679 105.736C204.679 104.604 204.679 103.472 204.679 102.34C204 63.6227 182.717 30.1132 151.245 12.6792Z" fill="#FFEF38"/>
<path d="M64.7547 151.925C61.5849 148.528 58.1887 145.358 55.0189 141.962C54.1132 141.057 52.9811 140.151 51.8491 139.698C49.8113 139.245 47.3208 140.377 45.7359 139.019C45.283 138.566 44.8302 137.887 44.6038 137.208C43.2453 134.943 41.2076 133.358 39.8491 131.094C38.4906 129.057 38.2642 126.113 37.5849 123.849C36 117.736 29.8868 112.981 23.5472 113.208C22.4151 113.208 21.0566 113.434 19.9245 114.113C17.434 115.925 18.1132 120 19.9245 122.491C22.1887 125.66 24.6793 127.698 19.4717 129.509C16.7547 130.415 13.8113 129.509 11.7736 127.472C10.8679 126.566 9.96227 125.887 9.05661 125.208C7.01888 123.849 4.75473 122.717 2.26416 122.717C7.69812 148.755 22.8679 171.17 43.9245 185.887C44.3774 185.887 45.0566 185.66 45.5094 185.66C51.8491 184.755 58.1887 186.34 64.5283 186.34C76.5283 186.34 85.5849 177.057 78.3396 165.509C74.717 159.849 69.283 156.453 64.7547 151.925Z" fill="#FFEF38"/>
<path d="M1.8114 82.6415C5.66046 87.6226 15.8491 73.1321 18.3397 70.4151C19.9246 68.6038 21.2831 67.0188 23.3208 65.6604C27.8491 62.9434 34.6416 62.9434 36.9057 58.1887C37.585 56.6038 37.8114 54.566 38.7171 53.2075C39.6227 51.6226 42.3397 51.1698 43.0189 52.7547C43.6982 54.1132 42.1133 55.9245 42.5661 57.283C43.0189 58.8679 45.0567 59.0943 46.4152 58.4151C47.7737 57.7358 48.4529 56.1509 49.1322 54.7924C47.3208 53.6604 47.5472 50.717 48.6793 48.9056C49.8114 47.0943 51.6227 45.5094 52.0756 43.4717C52.5284 42.1132 52.302 40.5283 52.5284 39.1698C52.7548 37.5849 53.6605 36.2264 53.8869 34.6415C54.1133 33.0566 53.6605 31.2453 52.0756 30.7924C51.1699 30.566 50.2642 30.7924 49.3586 31.2453C45.5095 32.8302 41.6605 34.4151 37.8114 35.7736C39.1699 30.3396 44.8303 26.4905 50.2642 26.9434C52.5284 27.1698 54.5661 27.849 56.8303 27.6226C61.585 26.9434 64.302 21.7358 68.8303 19.6981C70.1888 19.0189 72.4529 19.0189 72.9057 20.6038C73.1322 21.0566 72.9057 21.5094 72.9057 21.9622C72.4529 24.4528 70.4152 26.2641 68.3774 27.849C66.3397 29.4339 64.302 31.0189 63.6227 33.5094C62.7171 35.7736 64.0756 39.1698 66.5661 39.3962C69.0567 39.849 70.868 37.3585 72.6793 35.5472C75.1699 33.0566 78.5661 31.2453 82.1888 30.7924C83.7737 30.566 85.585 30.566 87.1699 30.1132C92.151 28.7547 94.4152 23.0943 96.2265 18.3396C96.4529 17.6604 96.6793 16.7547 96.6793 16.0755C96.4529 14.0377 93.7359 13.3585 91.6982 13.1321C82.6416 12.2264 72.9057 11.3207 64.7548 15.3962C61.1322 17.2075 57.2831 19.9245 53.8869 18.1132C52.9812 17.6604 52.302 16.9811 51.3963 16.5283C49.585 15.849 47.5472 16.3019 45.9623 16.7547C23.3208 31.6981 7.01895 55.2453 1.8114 82.6415Z" fill="#FFEF38"/>
<path opacity="0.5" d="M180.226 36.4528C182.038 43.9245 182.943 51.6226 182.943 59.5472C182.943 115.925 137.207 161.66 80.8301 161.66C49.5848 161.66 21.5094 147.623 2.71692 125.208C13.132 170.491 53.6603 204.226 102.113 204.226C158.49 204 204 158.491 204 102.113C204 76.9811 195.17 54.1132 180.226 36.4528Z" fill="#52909E"/>
</g>
<defs>
<clipPath id="clip0">
<rect width="204" height="204" fill="white"/>
</clipPath>
</defs>
</svg>
