<?xml version="1.0" encoding="utf-8"?>
<!-- Generator: Adobe Illustrator 24.0.2, SVG Export Plug-In . SVG Version: 6.00 Build 0)  -->
<svg version="1.1" id="Capa_1" xmlns="http://www.w3.org/2000/svg" xmlns:xlink="http://www.w3.org/1999/xlink" x="0px" y="0px"
	 viewBox="0 0 178 83" style="enable-background:new 0 0 178 83;" xml:space="preserve">
<style type="text/css">
	.st0{fill:#E91F5C;}
	.st1{fill:#FFFFFF;}
	.st2{fill-rule:evenodd;clip-rule:evenodd;fill:#FFFFFF;}
</style>
<path class="st0" d="M0,5.5C0,2.5,2.5,0,5.5,0h64.4c3,0,5.5,2.5,5.5,5.5V53c0,3-2.5,5.5-5.5,5.5H5.5c-3,0-5.5-2.5-5.5-5.5V5.5z"/>
<path class="st1" d="M88.2,51.6h0.3v-2.3h-0.3c-2.3,0-4.1-0.7-5.6-2.1c-1.4-1.4-2.2-3.4-2.2-5.9V26.4h8.1v-2.3h-8.1V13.4h-2.6v27.9
	c0,3.2,1,5.7,2.9,7.6l0,0C82.8,50.7,85.3,51.6,88.2,51.6z"/>
<path class="st1" d="M95.9,48.8L95.9,48.8c2.1,2.1,5.1,3.2,8.9,3.2c2.4,0,4.5-0.5,6.3-1.6l0,0l0,0c1.5-0.9,2.6-1.9,3.5-3.2v4.1h2.6
	V24.1h-2.6v15.8c0,1.9-0.4,3.6-1.3,5.1c-0.9,1.5-2.1,2.6-3.6,3.5c-1.5,0.8-3.2,1.2-5,1.2c-3,0-5.3-0.8-7-2.5
	c-1.6-1.7-2.4-4.1-2.4-7.2V24.1h-2.6v15.8C92.8,43.7,93.9,46.6,95.9,48.8z"/>
<path class="st1" d="M141.2,24.1l-15.1,24.9h14.7v2.3h-19.2l15.1-24.9h-13.2v-2.3H141.2z"/>
<path class="st1" d="M146.1,53.8v4.3l0.1,0.1c2.6,3.2,6.2,4.8,10.7,4.8c2.6,0,4.9-0.6,6.8-1.7c1.9-1.1,3.3-2.7,4.3-4.7
	c1-1.9,1.5-4.1,1.5-6.5v-26h-2.6v15.8c0,1.7-0.5,3.3-1.4,4.8l0,0c-0.9,1.5-2.1,2.7-3.6,3.6c-1.6,0.9-3.2,1.3-5.1,1.3
	c-1.7,0-3.2-0.4-4.6-1.1c-1.4-0.8-2.5-1.8-3.4-3.3c-0.8-1.5-1.2-3.2-1.2-5.3V24.1h-2.6v15.8c0,2.4,0.5,4.5,1.5,6.3l0,0l0,0
	c1,1.8,2.4,3.2,4.2,4.3c1.8,1,3.8,1.5,6.1,1.5c2.3,0,4.4-0.5,6.3-1.5l0,0c1.6-0.8,2.8-2,3.8-3.3v3.2c0,2-0.4,3.7-1.2,5.3l0,0
	c-0.8,1.6-2,2.8-3.5,3.7l0,0c-1.5,0.9-3.3,1.4-5.5,1.4c-2.1,0-4-0.5-5.6-1.5l0,0l0,0c-1.6-0.9-3-2.4-4.3-4.4L146.1,53.8z"/>
<path class="st2" d="M61,47.2v-4.3l-0.6,1c-1.2,1.8-2.7,3.2-4.5,4.2c-1.8,1-3.7,1.5-5.7,1.5c-1.5,0-2.8-0.2-4-0.7
	c-1.1-0.5-2.2-1.1-3.4-2.1l18.4-18.2l-0.2-0.2c-2.9-3.3-6.5-4.9-10.7-4.9c-2.7,0-5.2,0.6-7.5,1.8l0,0c-2.2,1.2-4,2.9-5.2,5.1
	c-1.3,2.1-1.9,4.6-1.9,7.2c0,2.5,0.6,4.9,1.9,7.1l0,0c1.3,2.2,3.1,4,5.2,5.3l0,0c2.2,1.3,4.6,2,7.1,2c2.2,0,4.2-0.4,6-1.1l0,0l0,0
	C57.8,50.1,59.5,48.9,61,47.2L61,47.2z M54.6,26.6L54.6,26.6L54.6,26.6c1.1,0.4,2.2,1.1,3.4,2.1L41.3,45.3c-1.9-2.2-2.9-4.8-2.9-7.9
	c0-2.2,0.5-4.2,1.5-6c1-1.8,2.4-3.1,4.2-4.1l0,0c1.8-1,3.9-1.5,6.2-1.5C52,25.8,53.4,26.1,54.6,26.6z"/>
<path class="st1" d="M67.3,18L67.3,18L67.3,18c0.5,0.5,1.1,0.7,1.7,0.7c0.6,0,1.2-0.2,1.6-0.7c0.5-0.5,0.8-1,0.8-1.7
	c0-0.7-0.3-1.2-0.8-1.7c-0.5-0.5-1-0.7-1.6-0.7c-0.6,0-1.2,0.2-1.7,0.7l0,0l0,0c-0.5,0.5-0.7,1-0.7,1.7C66.6,17,66.9,17.6,67.3,18z"
	/>
<path class="st1" d="M70.3,51.3V24.1h-2.6v27.2H70.3z"/>
<path class="st1" d="M6.5,4.8h3c5,0,8.7,0.8,11,2.4c2.3,1.6,3.5,3.9,3.5,7c0,1.8-0.8,3.5-2.3,5.1c-1.5,1.6-3.4,2.7-5.5,3.3
	c5.4,0.6,9.6,2.2,12.6,4.7c3,2.5,4.5,5.8,4.5,9.9c0,3.3-1,6.1-3.1,8.7c-2.1,2.5-5,4.4-8.6,5.8c-3.6,1.3-7.6,2-12.1,2h-3V4.8z
	 M10.3,22c3,0,5.6-0.8,7.7-2.3c2.1-1.5,3.1-3.4,3.1-5.6c0-2.5-0.9-4.3-2.7-5.6c-1.7-1.3-4.4-1.9-8.2-1.9H9.6V22H10.3z M10.3,51.9
	c3.7,0,7.1-0.6,10.2-1.8c3-1.3,5.4-3,7.2-5.2c1.8-2.2,2.7-4.7,2.7-7.5c0-4.5-1.7-7.8-5.2-10.1c-3.4-2.3-8.4-3.5-14.8-3.5H9.6v28.1
	H10.3z"/>
<path class="st1" d="M174.7,25.1c-0.6,0-1.2-0.1-1.7-0.4c-0.5-0.3-0.9-0.7-1.2-1.1c-0.3-0.5-0.4-1.1-0.4-1.7c0-0.7,0.1-1.2,0.4-1.7
	c0.3-0.5,0.7-0.9,1.2-1.1c0.5-0.3,1.1-0.4,1.7-0.4c0.6,0,1.2,0.1,1.7,0.4c0.5,0.3,0.9,0.6,1.2,1.1c0.3,0.5,0.4,1.1,0.4,1.7
	c0,0.7-0.1,1.2-0.4,1.7c-0.3,0.5-0.7,0.9-1.2,1.1C175.9,25,175.4,25.1,174.7,25.1z M174.7,24.6c0.6,0,1-0.1,1.4-0.3
	c0.4-0.2,0.7-0.6,1-1c0.2-0.4,0.3-0.9,0.3-1.5c0-0.6-0.1-1.1-0.3-1.5c-0.2-0.4-0.6-0.7-1-1c-0.4-0.2-0.9-0.3-1.4-0.3
	c-0.5,0-1,0.1-1.4,0.3c-0.4,0.2-0.7,0.5-1,1c-0.2,0.4-0.3,0.9-0.3,1.5c0,0.6,0.1,1.1,0.4,1.5c0.2,0.4,0.6,0.7,1,1
	C173.7,24.5,174.2,24.6,174.7,24.6z M173,23.8v-0.3h0.1c0.1,0,0.2,0,0.3-0.1c0.1,0,0.1-0.1,0.1-0.3v-2.6c0-0.1,0-0.2-0.1-0.3
	c-0.1,0-0.2-0.1-0.3-0.1H173v-0.3h1.6c1,0,1.5,0.3,1.5,1c0,0.3-0.1,0.5-0.2,0.7c-0.2,0.1-0.3,0.3-0.6,0.3l0.8,1.3
	c0.1,0.1,0.1,0.2,0.2,0.2c0.1,0,0.2,0,0.3,0v0.3h-1l-1-1.7h-0.4v1c0,0.1,0,0.2,0.1,0.3c0.1,0,0.2,0.1,0.3,0.1h0.1v0.3H173z
	 M174.6,21.8c0.3,0,0.5-0.1,0.6-0.2c0.1-0.1,0.2-0.3,0.2-0.6c0-0.3-0.1-0.5-0.2-0.6c-0.1-0.1-0.4-0.2-0.7-0.2h-0.3v1.5H174.6z"/>
<path class="st1" d="M1,70.4c0.1,0,0.2,0,0.3,0.1c0.1,0.1,0.1,0.2,0.1,0.3c0,0.1,0,0.2-0.1,0.3c-0.1,0.1-0.2,0.1-0.3,0.1
	c-0.1,0-0.2,0-0.3-0.1c-0.1-0.1-0.1-0.2-0.1-0.3c0-0.1,0-0.2,0.1-0.3C0.8,70.5,0.9,70.4,1,70.4z M1.2,79.3l-0.4,0l0-7.6l0.4,0
	L1.2,79.3z"/>
<path class="st1" d="M9.4,71.7l0.4,0l0,8.8l-0.4,0L9.4,71.7z"/>
<path class="st1" d="M18,75.1l0.4,0l0,1.2c0.2-0.4,0.5-0.7,0.9-0.9c0.4-0.2,0.9-0.4,1.4-0.4c0.6,0,1.2,0.2,1.5,0.6
	c0.4,0.4,0.6,1,0.6,1.7l0,3.1l-0.4,0l0-3.1c0-0.6-0.2-1.1-0.5-1.5c-0.3-0.3-0.7-0.5-1.3-0.5c-0.4,0-0.8,0.1-1.1,0.3
	c-0.3,0.2-0.6,0.4-0.8,0.8c-0.2,0.3-0.3,0.7-0.3,1.1l0,2.9l-0.4,0L18,75.1z"/>
<path class="st1" d="M31.9,80.4c-0.4,0-0.7-0.1-1-0.2c-0.3-0.1-0.5-0.3-0.6-0.5l0-0.6c0.2,0.3,0.4,0.6,0.6,0.7
	c0.3,0.2,0.6,0.2,1,0.2c0.4,0,0.7-0.1,0.9-0.4c0.2-0.2,0.3-0.6,0.3-0.9c0-0.3-0.1-0.6-0.2-0.7c-0.1-0.2-0.3-0.4-0.6-0.5l-0.4-0.3
	c-0.3-0.2-0.6-0.3-0.7-0.5c-0.2-0.1-0.3-0.2-0.4-0.4c-0.1-0.1-0.1-0.3-0.1-0.5c0-0.3,0.1-0.6,0.3-0.8c0.2-0.2,0.5-0.3,0.9-0.3
	c0.4,0,0.8,0.1,1.1,0.3l0,0.5c-0.2-0.3-0.6-0.5-1-0.5c-0.2,0-0.5,0.1-0.6,0.2c-0.2,0.1-0.2,0.3-0.2,0.5c0,0.2,0,0.3,0.1,0.5
	c0.1,0.1,0.2,0.2,0.4,0.3c0.2,0.1,0.5,0.3,0.8,0.5c0.4,0.2,0.7,0.5,0.9,0.7c0.2,0.2,0.3,0.5,0.3,0.9c0,0.5-0.2,0.9-0.5,1.2
	C32.8,80.3,32.4,80.4,31.9,80.4z"/>
<path class="st1" d="M41.1,75l0.4,0l0,1.3c0.2-0.4,0.5-0.8,1-1c0.4-0.3,0.9-0.4,1.4-0.4c0.5,0,1,0.1,1.4,0.4c0.4,0.2,0.8,0.6,1,1
	c0.3,0.4,0.4,0.9,0.4,1.4c0,0.5-0.1,1-0.4,1.4c-0.2,0.4-0.6,0.8-1,1c-0.4,0.3-0.9,0.4-1.4,0.4c-0.5,0-0.9-0.1-1.4-0.4
	c-0.4-0.3-0.8-0.6-1-1l0,3.6l-0.4,0L41.1,75z M44,80c0.4,0,0.8-0.1,1.2-0.3c0.4-0.2,0.7-0.5,0.9-0.9c0.2-0.4,0.3-0.8,0.3-1.2
	c0-0.4-0.1-0.8-0.3-1.2c-0.2-0.4-0.5-0.7-0.9-0.9c-0.4-0.2-0.8-0.3-1.2-0.3c-0.4,0-0.8,0.1-1.2,0.3c-0.4,0.2-0.7,0.5-0.9,0.9
	c-0.2,0.4-0.3,0.8-0.3,1.2c0,0.4,0.1,0.8,0.3,1.2c0.2,0.4,0.5,0.7,0.9,0.9C43.1,79.9,43.5,80,44,80z"/>
<path class="st1" d="M54.8,73.7c-0.1,0-0.2,0-0.3-0.1c-0.1-0.1-0.1-0.2-0.1-0.3c0-0.1,0-0.2,0.1-0.3c0.1-0.1,0.2-0.1,0.3-0.1
	c0.1,0,0.2,0,0.3,0.1c0.1,0.1,0.1,0.2,0.1,0.3c0,0.1,0,0.2-0.1,0.3C55,73.7,54.9,73.7,54.8,73.7z M54.6,74.9l0.4,0l0,5.3l-0.4,0
	L54.6,74.9z"/>
<path class="st1" d="M63.1,74.9l0.4,0l0,1.2c0.2-0.4,0.4-0.7,0.7-0.9c0.3-0.2,0.6-0.3,1-0.3c0.2,0,0.5,0,0.7,0.1l0,0.4
	c-0.2-0.2-0.5-0.3-0.8-0.3c-0.3,0-0.6,0.1-0.8,0.3c-0.3,0.2-0.5,0.4-0.6,0.7c-0.2,0.3-0.2,0.6-0.2,0.9l0,3.1l-0.4,0L63.1,74.9z"/>
<path class="st1" d="M75.8,80.2c-0.5,0-1-0.1-1.4-0.4c-0.4-0.2-0.8-0.6-1-1c-0.3-0.4-0.4-0.9-0.4-1.4c0-0.5,0.1-0.9,0.4-1.4
	c0.2-0.4,0.6-0.8,1-1c0.4-0.3,0.9-0.4,1.4-0.4c0.5,0,1,0.1,1.4,0.4c0.5,0.3,0.8,0.6,1,1l0-1.3l0.4,0l0,5.3l-0.4,0l0-1.3
	c-0.2,0.4-0.5,0.8-1,1.1C76.8,80.1,76.3,80.2,75.8,80.2z M75.9,79.9c0.4,0,0.8-0.1,1.2-0.3c0.4-0.2,0.7-0.5,0.9-0.9
	c0.2-0.4,0.3-0.8,0.3-1.2c0-0.4-0.1-0.8-0.3-1.2c-0.2-0.4-0.5-0.7-0.9-0.9c-0.4-0.2-0.8-0.3-1.2-0.3c-0.4,0-0.8,0.1-1.2,0.3
	c-0.4,0.2-0.7,0.5-0.9,0.9c-0.2,0.4-0.3,0.8-0.3,1.2c0,0.4,0.1,0.8,0.3,1.2c0.2,0.4,0.5,0.7,0.9,0.9C75,79.8,75.4,79.9,75.9,79.9z"
	/>
<path class="st1" d="M89,80.1c-0.5,0-1-0.1-1.4-0.4c-0.4-0.2-0.8-0.6-1-1c-0.3-0.4-0.4-0.9-0.4-1.4c0-0.5,0.1-1,0.4-1.4
	c0.2-0.4,0.6-0.8,1-1c0.4-0.3,0.9-0.4,1.4-0.4c0.5,0,1,0.1,1.4,0.4c0.4,0.3,0.8,0.6,1,1l0-4.8l0.4,0l0,8.8l-0.4,0l0-1.3
	c-0.2,0.4-0.6,0.8-1,1C89.9,80,89.5,80.1,89,80.1z M89,79.8c0.4,0,0.8-0.1,1.2-0.3c0.4-0.2,0.7-0.5,0.9-0.9c0.2-0.4,0.3-0.8,0.3-1.2
	c0-0.4-0.1-0.8-0.3-1.2c-0.2-0.4-0.5-0.7-0.9-0.9c-0.4-0.2-0.8-0.3-1.2-0.3c-0.4,0-0.8,0.1-1.2,0.3c-0.4,0.2-0.7,0.5-0.9,0.9
	c-0.2,0.4-0.3,0.8-0.3,1.2c0,0.4,0.1,0.8,0.3,1.2c0.2,0.4,0.5,0.7,0.9,0.9C88.1,79.7,88.6,79.8,89,79.8z"/>
<path class="st1" d="M102.2,80.1c-0.5,0-1-0.1-1.4-0.4c-0.4-0.3-0.8-0.6-1-1c-0.2-0.4-0.4-0.9-0.4-1.4c0-0.5,0.1-1,0.4-1.4
	c0.2-0.4,0.6-0.8,1-1c0.4-0.3,0.9-0.4,1.4-0.4c0.5,0,1,0.1,1.4,0.4c0.4,0.2,0.8,0.6,1,1c0.2,0.4,0.4,0.9,0.4,1.4
	c0,0.5-0.1,1-0.3,1.4c-0.2,0.4-0.6,0.8-1,1C103.2,80,102.7,80.1,102.2,80.1z M102.2,79.8c0.4,0,0.8-0.1,1.2-0.3
	c0.4-0.2,0.6-0.5,0.8-0.9c0.2-0.4,0.3-0.8,0.3-1.3c0-0.4-0.1-0.9-0.3-1.2c-0.2-0.4-0.5-0.7-0.9-0.9c-0.4-0.2-0.8-0.3-1.2-0.3
	c-0.4,0-0.9,0.1-1.2,0.4c-0.4,0.2-0.7,0.5-0.9,0.9c-0.2,0.4-0.3,0.8-0.3,1.2c0,0.4,0.1,0.9,0.3,1.2c0.2,0.4,0.5,0.7,0.9,0.9
	C101.3,79.7,101.7,79.8,102.2,79.8z"/>
<path class="st1" d="M124.1,79.6c0.4,0,0.8-0.1,1.2-0.3c0.4-0.2,0.7-0.5,0.9-0.9l0,0.6c-0.3,0.3-0.6,0.6-0.9,0.7
	c-0.3,0.1-0.7,0.2-1.2,0.2c-0.5,0-0.9-0.1-1.4-0.4c-0.4-0.3-0.8-0.6-1-1c-0.3-0.4-0.4-0.9-0.4-1.4c0-0.5,0.1-1,0.4-1.4
	c0.2-0.4,0.6-0.8,1-1c0.4-0.2,0.9-0.4,1.4-0.4c0.8,0,1.5,0.3,2.1,0.9l-3.7,3.6c0.3,0.2,0.5,0.4,0.8,0.5
	C123.5,79.6,123.8,79.6,124.1,79.6z M121.7,77.1c0,0.6,0.2,1.2,0.7,1.7l3.4-3.4c-0.3-0.2-0.5-0.4-0.8-0.5c-0.2-0.1-0.5-0.1-0.9-0.1
	c-0.5,0-0.9,0.1-1.3,0.3c-0.4,0.2-0.7,0.5-0.9,0.8C121.8,76.3,121.7,76.7,121.7,77.1z"/>
<path class="st1" d="M133.8,74.5l0.4,0l0,1.2c0.2-0.4,0.5-0.7,0.9-0.9c0.4-0.2,0.9-0.4,1.4-0.4c0.6,0,1.2,0.2,1.5,0.6
	c0.4,0.4,0.6,1,0.6,1.7l0,3.1l-0.4,0l0-3.1c0-0.6-0.2-1.1-0.5-1.5c-0.3-0.3-0.7-0.5-1.3-0.5c-0.4,0-0.8,0.1-1.1,0.3
	c-0.3,0.2-0.6,0.4-0.8,0.8c-0.2,0.3-0.3,0.7-0.3,1.1l0,2.9l-0.4,0L133.8,74.5z"/>
<path class="st1" d="M157.4,79.7c-0.6,0-1.1-0.2-1.4-0.5c-0.4-0.3-0.6-0.8-0.6-1.4l0-5.5l0.4,0l0,2.1l1.6,0l0,0.3l-1.6,0l0,3
	c0,0.5,0.2,0.9,0.5,1.2c0.3,0.3,0.7,0.4,1.2,0.4L157.4,79.7z"/>
<path class="st1" d="M165.2,73.1c-0.1,0-0.2,0-0.3-0.1c-0.1-0.1-0.1-0.2-0.1-0.3c0-0.1,0-0.2,0.1-0.3c0.1-0.1,0.2-0.1,0.3-0.1
	c0.1,0,0.2,0,0.3,0.1c0.1,0.1,0.1,0.2,0.1,0.3c0,0.1,0,0.2-0.1,0.3C165.4,73.1,165.3,73.1,165.2,73.1z M165,74.3l0.4,0l0,5.3l-0.4,0
	L165,74.3z"/>
<path class="st1" d="M173.6,70.8l0.4,0l0,7.6l-0.4,0L173.6,70.8z M173.9,79.6c-0.1,0-0.2,0-0.3-0.1c-0.1-0.1-0.1-0.2-0.1-0.3
	c0-0.1,0-0.2,0.1-0.3c0.1-0.1,0.2-0.1,0.3-0.1c0.1,0,0.2,0,0.3,0.1c0.1,0.1,0.1,0.2,0.1,0.3c0,0.1,0,0.2-0.1,0.3
	C174.1,79.6,174,79.6,173.9,79.6z"/>
</svg>
