<?xml version="1.0" encoding="utf-8"?>
<!-- Generator: Adobe Illustrator 24.0.2, SVG Export Plug-In . SVG Version: 6.00 Build 0)  -->
<svg version="1.1" id="Capa_1" xmlns="http://www.w3.org/2000/svg" xmlns:xlink="http://www.w3.org/1999/xlink" x="0px" y="0px"
	 viewBox="0 0 34 34" style="enable-background:new 0 0 34 34;" xml:space="preserve">
<style type="text/css">
	.st0{fill:#FFFFFF;}
</style>
<path class="st0" d="M10.7,30.5c12.8,0,19.8-10.6,19.8-19.8c0-0.3,0-0.6,0-0.9c1.4-1,2.5-2.2,3.5-3.6c-1.3,0.6-2.6,0.9-4,1.1
	c1.5-0.9,2.5-2.2,3.1-3.9c-1.4,0.8-2.9,1.4-4.4,1.7c-1.1-1.1-2.4-1.9-4-2.1c-1.5-0.2-3.1,0-4.4,0.7c-1.4,0.7-2.4,1.9-3.1,3.3
	s-0.8,3-0.4,4.5c-2.8-0.1-5.5-0.9-8-2.1C6.3,8,4.1,6.3,2.4,4.1C1.5,5.6,1.2,7.5,1.6,9.2c0.4,1.7,1.4,3.2,2.9,4.2
	c-1.1,0-2.2-0.3-3.2-0.9v0.1c0,1.6,0.6,3.2,1.6,4.4s2.4,2.1,4,2.4c-1,0.3-2.1,0.3-3.1,0.1c0.4,1.4,1.3,2.6,2.5,3.5
	c1.2,0.9,2.6,1.4,4,1.4c-2.5,1.9-5.5,3-8.7,3c-0.6,0-1.1,0-1.7-0.1C3.2,29.4,6.9,30.5,10.7,30.5z"/>
</svg>
