<?xml version="1.0" encoding="utf-8"?>
<!-- Generator: Adobe Illustrator 24.0.2, SVG Export Plug-In . SVG Version: 6.00 Build 0)  -->
<svg version="1.1" id="Capa_1" xmlns="http://www.w3.org/2000/svg" xmlns:xlink="http://www.w3.org/1999/xlink" x="0px" y="0px"
	 viewBox="0 0 141.7 141.7" style="enable-background:new 0 0 141.7 141.7;" xml:space="preserve">
<style type="text/css">
	.st0{fill-rule:evenodd;clip-rule:evenodd;fill:#FFFFFF;}
</style>
<path class="st0" d="M44.7,21.6l52.4,0c3.1,0,6.1,0.9,8.7,2.5c2.6,1.6,4.7,3.9,6.1,6.6c0,0,0,0,0,0l19,37.7c0.4,0.8,0.6,1.6,0.6,2.4
	v32.8c0,4.4-1.7,8.5-4.8,11.6c-3.1,3.1-7.3,4.8-11.7,4.8h-88c-4.4,0-8.6-1.7-11.7-4.8c-3.1-3.1-4.8-7.3-4.8-11.6V70.9
	c0-0.9,0.2-1.7,0.6-2.4l19-37.7c0,0,0,0,0,0c1.4-2.7,3.5-5,6.1-6.6C38.6,22.5,41.6,21.6,44.7,21.6z M44.7,32.6c-1,0-2,0.3-2.9,0.8
	c-0.9,0.5-1.6,1.3-2,2.2l0,0l-15,29.8H117l-15-29.8l0,0c-0.5-0.9-1.2-1.7-2-2.2c-0.9-0.5-1.9-0.8-2.9-0.8H44.7z M120.4,76.3h-99
	v27.3c0,1.5,0.6,2.8,1.6,3.9c1,1,2.4,1.6,3.9,1.6h88c1.5,0,2.9-0.6,3.9-1.6c1-1,1.6-2.4,1.6-3.9V76.3z M32.4,92.7
	c0-3,2.5-5.5,5.5-5.5h0.1c3,0,5.5,2.4,5.5,5.5c0,3-2.5,5.5-5.5,5.5h-0.1C34.8,98.2,32.4,95.8,32.4,92.7z M54.4,92.7
	c0-3,2.5-5.5,5.5-5.5h0.1c3,0,5.5,2.4,5.5,5.5c0,3-2.5,5.5-5.5,5.5h-0.1C56.8,98.2,54.4,95.8,54.4,92.7z"/>
</svg>
