<?xml version="1.0" encoding="utf-8"?>
<!-- Generator: Adobe Illustrator 24.0.2, SVG Export Plug-In . SVG Version: 6.00 Build 0)  -->
<svg version="1.1" id="Capa_1" xmlns="http://www.w3.org/2000/svg" xmlns:xlink="http://www.w3.org/1999/xlink" x="0px" y="0px"
	 viewBox="0 0 141.7 141.7" style="enable-background:new 0 0 141.7 141.7;" xml:space="preserve">
<style type="text/css">
	.st0{fill-rule:evenodd;clip-rule:evenodd;fill:#FFFFFF;}
</style>
<path class="st0" d="M136.5,5.2c1.7,1.7,2.2,4.1,1.5,6.4L95,134.2c-0.8,2.4-3,4-5.5,4.1c-2.5,0.1-4.8-1.3-5.9-3.6l-23.6-53l-53-23.6
	c-2.3-1-3.7-3.3-3.6-5.9c0.1-2.5,1.7-4.7,4.1-5.5L130.1,3.8C132.4,3,134.8,3.6,136.5,5.2z M72,78.4l16.5,37.2l28.9-82.6L72,78.4z
	 M108.8,24.2L26.2,53.2l37.2,16.5L108.8,24.2z"/>
</svg>
