<?xml version="1.0" encoding="utf-8"?>
<!-- Generator: Adobe Illustrator 24.0.2, SVG Export Plug-In . SVG Version: 6.00 Build 0)  -->
<svg version="1.1" id="Capa_1" xmlns="http://www.w3.org/2000/svg" xmlns:xlink="http://www.w3.org/1999/xlink" x="0px" y="0px"
	 viewBox="0 0 141.7 141.7" style="enable-background:new 0 0 141.7 141.7;" xml:space="preserve">
<style type="text/css">
	.st0{fill:#E56C01;}
</style>
<g>
	<path class="st0" d="M113,135.9c-0.5,0-1,0-1.6-0.1c-18.3-2-36.1-8.3-51.5-18.3c-14.3-9-26.6-21.4-35.7-35.7
		C14.2,66.5,7.9,48.6,5.9,30.4c-0.2-2.5,0.1-4.9,0.8-7.1c0.8-2.3,2-4.3,3.6-6.1c1.6-1.8,3.6-3.2,5.8-4.1c2.2-1,4.5-1.5,6.9-1.5h17
		c4.2,0,8.2,1.4,11.3,4.2c3.2,2.7,5.2,6.5,5.8,10.6c0.7,5,1.9,9.9,3.6,14.6c1.2,3.1,1.4,6.4,0.7,9.6c-0.7,3.2-2.3,6.2-4.6,8.5
		L53.1,63c6.6,10.2,15.3,19,25.6,25.5l3.9-3.9c2.4-2.3,5.3-3.9,8.5-4.6c3.2-0.7,6.6-0.4,9.6,0.7c4.7,1.8,9.6,3,14.6,3.6
		c4.2,0.6,8.1,2.7,10.8,5.9c2.7,3.2,4.2,7.3,4.1,11.5v16.9c0,2.4-0.5,4.7-1.4,6.9c-1,2.2-2.4,4.2-4.1,5.8c-1.8,1.6-3.8,2.8-6.1,3.6
		C116.7,135.6,114.9,135.9,113,135.9z M40.2,23.3C40.1,23.3,40.1,23.3,40.2,23.3l-17.1,0c-0.8,0-1.5,0.2-2.2,0.5
		c-0.7,0.3-1.3,0.7-1.8,1.3c-0.5,0.6-0.9,1.2-1.1,1.9c-0.2,0.7-0.3,1.4-0.3,2.2c1.7,16.4,7.4,32.4,16.4,46.3
		c8.2,12.9,19.3,24,32.2,32.1c13.9,9,29.9,14.7,46.3,16.5c0.7,0.1,1.4,0,2.1-0.3c0.7-0.2,1.4-0.6,1.9-1.1c0.5-0.5,1-1.1,1.3-1.8
		c0.3-0.7,0.5-1.4,0.5-2.2v-17c0,0,0-0.1,0-0.1c0-1.3-0.4-2.6-1.3-3.6c-0.9-1-2.1-1.7-3.4-1.9c-5.8-0.8-11.6-2.2-17.1-4.3
		c-1-0.4-2-0.4-3.1-0.2c-1,0.2-1.9,0.7-2.7,1.4l-7.2,7.1c-1.9,1.9-4.8,2.3-7.1,1C61.5,92.6,49,80.1,40.5,65c-1.3-2.3-0.9-5.2,1-7.1
		l7.2-7.2c0.7-0.7,1.2-1.6,1.4-2.6c0.2-1,0.1-2-0.2-3c-2.1-5.6-3.5-11.3-4.3-17.2c-0.2-1.2-0.8-2.4-1.8-3.3
		C42.7,23.8,41.5,23.3,40.2,23.3z M107.3,62.6c-2.1,0-4.2-1.2-5.2-3.2c-5.2-10-9.3-14.1-19.9-19.8c-2.9-1.5-3.9-5.1-2.4-8
		c1.5-2.9,5.1-3.9,8-2.4c12.7,6.8,18.4,12.6,24.8,24.8c1.5,2.9,0.4,6.5-2.5,8C109.2,62.4,108.2,62.6,107.3,62.6z M130,62.5
		c-1.9,0-3.8-0.9-4.9-2.6c-7.3-10.8-13.2-18.2-19.1-24.2c-6.8-6.9-14.4-12.4-24.3-19c-2.7-1.8-3.4-5.5-1.6-8.2
		c1.8-2.7,5.5-3.4,8.2-1.6c10.5,7,18.5,12.9,26.1,20.5c6.5,6.5,12.8,14.5,20.5,25.9c1.8,2.7,1.1,6.4-1.6,8.2
		C132.2,62.2,131.1,62.5,130,62.5z"/>
</g>
</svg>
