<?xml version="1.0" encoding="utf-8"?>
<!-- Generator: Adobe Illustrator 24.0.2, SVG Export Plug-In . SVG Version: 6.00 Build 0)  -->
<svg version="1.1" id="Capa_1" xmlns="http://www.w3.org/2000/svg" xmlns:xlink="http://www.w3.org/1999/xlink" x="0px" y="0px"
	 viewBox="0 0 141.7 141.7" style="enable-background:new 0 0 141.7 141.7;" xml:space="preserve">
<style type="text/css">
	.st0{fill-rule:evenodd;clip-rule:evenodd;fill:#E56C01;}
</style>
<path class="st0" d="M70.9,14.4c-12.1,0-23.7,4.8-32.2,13.2c-8.6,8.5-13.4,20-13.4,32c0,17.5,11.5,34.5,24.1,47.7
	c6.2,6.5,12.4,11.8,17,15.4c1.7,1.4,3.3,2.5,4.5,3.4c1.2-0.9,2.7-2,4.5-3.4c4.7-3.7,10.9-9,17-15.4c12.6-13.2,24.1-30.2,24.1-47.7
	c0-12-4.8-23.5-13.4-32C94.6,19.1,83,14.4,70.9,14.4z M70.9,133c-3.2,4.7-3.2,4.7-3.2,4.7l0,0l0,0l-0.1-0.1
	c-0.1-0.1-0.3-0.2-0.5-0.3c-0.4-0.3-1-0.7-1.7-1.2c-1.5-1-3.5-2.6-6-4.5c-5-3.9-11.6-9.6-18.2-16.5C28,101.4,13.9,81.6,13.9,59.6
	c0-15,6-29.4,16.7-40C41.3,9,55.7,3.1,70.9,3.1s29.6,6,40.3,16.6c10.7,10.6,16.7,25,16.7,40c0,22-14.2,41.8-27.2,55.5
	c-6.6,7-13.3,12.6-18.2,16.5c-2.5,2-4.6,3.5-6,4.5c-0.7,0.5-1.3,0.9-1.7,1.2c-0.2,0.1-0.4,0.2-0.5,0.3l-0.1,0.1l0,0l0,0
	C74,137.7,74,137.7,70.9,133z M70.9,133l3.2,4.7c-1.9,1.3-4.4,1.3-6.3,0L70.9,133z M70.9,48.3c-6.3,0-11.4,5.1-11.4,11.3
	c0,6.2,5.1,11.3,11.4,11.3s11.4-5.1,11.4-11.3C82.3,53.3,77.2,48.3,70.9,48.3z M48.1,59.6C48.1,47.1,58.3,37,70.9,37
	s22.8,10.1,22.8,22.6S83.5,82.2,70.9,82.2S48.1,72,48.1,59.6z"/>
</svg>
