<?xml version="1.0" encoding="utf-8"?>
<!-- Generator: Adobe Illustrator 24.0.2, SVG Export Plug-In . SVG Version: 6.00 Build 0)  -->
<svg version="1.1" id="Capa_1" xmlns="http://www.w3.org/2000/svg" xmlns:xlink="http://www.w3.org/1999/xlink" x="0px" y="0px"
	 viewBox="0 0 311 436" style="enable-background:new 0 0 311 436;" xml:space="preserve">
<style type="text/css">
	.st0{fill:#F05A28;}
	.st1{fill:#F2B31B;}
	.st2{fill:#F2C365;}
	.st3{fill:#3C2A34;}
	.st4{fill:#C80640;}
	.st5{fill:#E91F5C;}
	.st6{fill:#F5EFDB;}
	.st7{fill:#FFFAEF;}
	.st8{opacity:5.000000e-02;fill:#3C2A34;enable-background:new    ;}
	.st9{fill:#FFFDF2;}
	.st10{fill:#1F7A8C;}
	.st11{fill:#7AC8A9;}
</style>
<path class="st0" d="M169.8,362.4c-8,21.8-45.1,68.1-66.9,60.1c-21.8-8-20.2-67.3-12.2-89.1c8-21.8,32.2-33.1,54-25.1
	C166.6,316.3,177.8,340.5,169.8,362.4z"/>
<path class="st1" d="M157.8,358.8c-5.6,15.3-31.7,47.8-46.9,42.3c-15.3-5.6-14.1-47.2-8.5-62.6c5.6-15.3,22.6-23.1,37.8-17.5
	C155.5,326.4,163.4,343.5,157.8,358.8z"/>
<path class="st2" d="M149.6,349.1c-3.5,9.6-19.9,30.1-29.5,26.5c-9.6-3.5-8.9-29.7-5.4-39.3c3.5-9.6,14.3-14.6,23.9-11.1
	C148.3,328.8,153.1,339.5,149.6,349.1z"/>
<path class="st3" d="M211.6,321.9L89.1,277l-5.5,15l122.5,44.9L211.6,321.9z"/>
<path class="st4" d="M85.9,272.7c0,0-42.5-13.4-59.2,34.4c0,0-27.6-42.5,9.4-89.3c16.5-20.8,53.5-32.5,80-27.6L85.9,272.7z"/>
<path class="st5" d="M212.8,319.2c0,0,41.1,17.2,22.9,64.5c0,0,48.5-14.6,50.5-74.2c0.8-26.6-19.9-59.4-43.3-72.7L212.8,319.2z"/>
<path class="st6" d="M254.6,13.3L149.7,299.4L77.8,273C77.8,273,94.8,79.3,254.6,13.3z"/>
<path class="st7" d="M254.6,13.3L149.7,299.4l71.9,26.3C221.7,325.8,333.9,166.9,254.6,13.3z"/>
<path class="st5" d="M181.6,59.3c0,0,30.9,42.6,98.8,36.2c0,0-4-47.3-25.2-84.2C255.3,11.3,219.7,25,181.6,59.3z"/>
<path class="st7" d="M272.7,88c-0.9,2.5-3.6,3.8-6.1,2.8c-2.5-0.9-3.8-3.6-2.8-6.1c0.9-2.5,3.6-3.8,6.1-2.8
	C272.4,82.7,273.7,85.5,272.7,88z"/>
<path class="st4" d="M226.6,89.6l28.7-78.4c0,0-37.4,15-73.6,48C181.6,59.3,194,77.7,226.6,89.6z"/>
<path class="st8" d="M77.8,273c0,0,11.5-185,177.4-261.8c0,0-139.2,89.5-119.8,200.9c12.6,72.6,108.3,74.8,108.3,74.8
	s-11.7,21.8-22.3,38.8L77.8,273.2L77.8,273z"/>
<path class="st9" d="M264.4,76.9c-1.5-0.5-2.5-1.9-2.6-3.7c-0.3-19.2-9.5-39-9.5-39.3c-0.9-2-0.1-4.3,1.9-5.2c2-0.9,4.3-0.1,5.2,1.9
	c0.4,0.9,10,21.7,10.4,42.4c0.1,2.1-1.7,3.9-3.9,4C265.2,77.2,264.7,77,264.4,76.9z"/>
<path class="st9" d="M266.7,342.4c-0.1,0-0.2-0.1-0.4-0.1c-1.9-0.9-2.8-3.3-1.9-5.2c20.2-43.1-6.2-67.2-6.4-67.5
	c-1.6-1.4-1.8-3.9-0.4-5.5c1.4-1.6,3.9-1.8,5.5-0.4c0.3,0.3,8.1,7.2,12.9,20.3c4.4,11.8,7.2,31.4-4.6,56.5
	C270.7,342.2,268.7,343.1,266.7,342.4z"/>
<path class="st10" d="M233,174.5c-6.6,18-26.4,27.1-44.3,20.6c-18-6.6-27.1-26.4-20.6-44.3s26.4-27.1,44.3-20.6
	S239.5,156.7,233,174.5z"/>
<path class="st11" d="M233.3,173.5c-5.8,15.7-23.2,23.8-38.9,18s-23.8-23.2-18-38.9c5.8-15.7,23.2-23.8,38.9-18
	S239.1,157.8,233.3,173.5z"/>
<path class="st9" d="M224,175.5c-2-0.7-3.1-3-2.4-5.1c3.8-10.4-1.6-21.9-11.9-25.7c-2-0.7-3.1-3-2.4-5.1c0.7-2,3-3.1,5.1-2.4
	c14.5,5.3,21.9,21.3,16.6,35.8C228.2,175.2,226,176.2,224,175.5z"/>
<path class="st7" d="M222.8,184.2c-0.9,2.5-3.6,3.8-6.1,2.8c-2.5-0.9-3.8-3.6-2.8-6.1c0.9-2.5,3.6-3.8,6.1-2.8
	C222.4,179,223.7,181.7,222.8,184.2z"/>
<path class="st7" d="M267.9,354.4c-0.9,2.5-3.6,3.8-6.1,2.8c-2.5-0.9-3.8-3.6-2.8-6.1c0.9-2.5,3.6-3.8,6.1-2.8
	C267.5,349.2,268.9,352,267.9,354.4z"/>
<path class="st5" d="M185.3,219.6c-0.7-2.2-2.4-4.3-4.8-5.1l-1.5-0.5c-2.4-0.9-5-0.6-7,0.8c0,0-32,17.6-45.4,86.1
	c-7.4,37.9,1.8,53.3,1.8,53.3s17.1-5.8,35.8-39.5C198.3,253.6,185.3,219.6,185.3,219.6z"/>
<path class="st4" d="M178.3,213.6c-2.4-0.9-5-0.6-7,0.8c0,0-32,17.6-45.4,86.1c-7.4,37.9,1.8,53.3,1.8,53.3l51.3-140L178.3,213.6z"
	/>
</svg>
