<?xml version="1.0" encoding="utf-8"?>
<!-- Generator: Adobe Illustrator 24.0.2, SVG Export Plug-In . SVG Version: 6.00 Build 0)  -->
<svg version="1.1" id="Capa_1" xmlns="http://www.w3.org/2000/svg" xmlns:xlink="http://www.w3.org/1999/xlink" x="0px" y="0px"
	 viewBox="0 0 32 32" style="enable-background:new 0 0 32 32;" xml:space="preserve">
<style type="text/css">
	.st0{fill-rule:evenodd;clip-rule:evenodd;fill:#FFFFFF;}
</style>
<path class="st0" d="M5.5,8.1L16,15.7l10.5-7.6c-0.2-0.4-0.6-0.7-1.1-0.7H6.5C6.1,7.4,5.7,7.7,5.5,8.1z M26.6,11l-10,7.2
	c-0.4,0.3-0.9,0.3-1.4,0L5.4,11v12.3c0,0.7,0.5,1.2,1.2,1.2h18.9c0.6,0,1.2-0.6,1.2-1.2V11z M3,8.7C3,6.6,4.6,5,6.5,5h18.9
	c2,0,3.5,1.6,3.5,3.7v14.7c0,2-1.6,3.7-3.5,3.7H6.5c-2,0-3.5-1.6-3.5-3.7V8.7z"/>
</svg>
