<?xml version="1.0" encoding="utf-8"?>
<!-- Generator: Adobe Illustrator 24.0.2, SVG Export Plug-In . SVG Version: 6.00 Build 0)  -->
<svg version="1.1" id="Capa_1" xmlns="http://www.w3.org/2000/svg" xmlns:xlink="http://www.w3.org/1999/xlink" x="0px" y="0px"
	 viewBox="0 0 1814 643" style="enable-background:new 0 0 1814 643;" xml:space="preserve">
<style type="text/css">
	.st0{fill:#BDD0FF;}
</style>
<path class="st0" d="M74.8,589.6c0.8,1.7,0.1,3.8-1.6,4.7c-1.7,0.8-3.9,0.1-4.7-1.6c-0.8-1.7-0.1-3.8,1.6-4.7
	C72,587.3,74,587.9,74.8,589.6z"/>
<path class="st0" d="M90.9,383.1c0.8,1.7,0.1,3.8-1.6,4.7s-3.9,0.1-4.7-1.6c-0.8-1.7-0.1-3.8,1.6-4.7
	C87.9,380.6,90,381.4,90.9,383.1z"/>
<path class="st0" d="M363.7,334.8c-1.9,0.4-3.8-0.8-4.2-2.6c-0.4-1.9,0.8-3.8,2.6-4.2c1.9-0.4,3.8,0.8,4.2,2.6
	C366.8,332.4,365.6,334.3,363.7,334.8z"/>
<path class="st0" d="M76.5,435.4c0.8,1.7,0.1,3.8-1.6,4.7c-1.7,0.8-3.9,0.1-4.7-1.6c-0.8-1.7-0.1-3.8,1.6-4.7S75.7,433.7,76.5,435.4
	z"/>
<path class="st0" d="M315.9,309.2c-1.9,0.4-3.8-0.8-4.2-2.6c-0.4-1.9,0.8-3.8,2.6-4.2c1.9-0.4,3.8,0.8,4.2,2.6
	C318.9,306.8,317.7,308.7,315.9,309.2z"/>
<path class="st0" d="M49.8,297.9c0.8,1.7,0.1,3.8-1.6,4.7c-1.7,0.8-3.9,0.1-4.7-1.6c-0.8-1.7-0.1-3.8,1.6-4.7
	C46.9,295.6,48.9,296.2,49.8,297.9z"/>
<path class="st0" d="M108.7,165.4c0.8,1.7,0.1,3.8-1.6,4.7c-1.7,0.8-3.9,0.1-4.7-1.6s-0.1-3.8,1.6-4.7
	C105.8,162.9,107.9,163.6,108.7,165.4z"/>
<path class="st0" d="M324,143.7c0.8,1.7,0.1,3.8-1.6,4.7c-1.7,0.8-3.9,0.1-4.7-1.6c-0.8-1.7-0.1-3.8,1.6-4.7
	C321.1,141.2,323.2,141.9,324,143.7z"/>
<path class="st0" d="M522,223.2c1.7-0.8,2.5-2.9,1.6-4.7c-0.8-1.7-2.9-2.5-4.7-1.6s-2.5,2.9-1.6,4.7
	C518.1,223.3,520.2,224,522,223.2z"/>
<path class="st0" d="M134.9,534.9c-0.6,0.3-1.5,0.1-1.9-0.7l-4.2-8.7c-0.3-0.6-0.1-1.5,0.7-1.9c0.8-0.4,1.5-0.1,1.9,0.7l4.2,8.7
	C135.7,533.7,135.5,534.6,134.9,534.9z"/>
<path class="st0" d="M137,528.4l-8.7,4.2c-0.6,0.3-1.5,0.1-1.9-0.7c-0.4-0.8-0.1-1.5,0.7-1.9l8.7-4.2c0.6-0.3,1.5-0.1,1.9,0.7
	C138,527.3,137.6,528.1,137,528.4z"/>
<path class="st0" d="M205.9,344c-0.2-0.7,0.2-1.5,1.1-1.7l9.4-2.2c0.7-0.2,1.5,0.2,1.7,1.1c0.2,0.9-0.2,1.5-1.1,1.7l-9.4,2.2
	C206.9,345,206.1,344.7,205.9,344z"/>
<path class="st0" d="M211.8,347.5l-2.2-9.4c-0.2-0.7,0.2-1.5,1.1-1.7c0.9-0.2,1.5,0.2,1.7,1.1l2.2,9.4c0.2,0.7-0.2,1.5-1.1,1.7
	C212.6,348.8,211.9,348.2,211.8,347.5z"/>
<path class="st0" d="M249.6,45c-0.6,0.3-1.5,0.1-1.9-0.7l-4.1-8.5c-0.3-0.6-0.1-1.5,0.7-1.9c0.8-0.4,1.5-0.1,1.9,0.7l4.2,8.7
	C250.6,43.9,250.2,44.7,249.6,45z"/>
<path class="st0" d="M251.8,38.6l-8.7,4.2c-0.6,0.3-1.5,0.1-1.9-0.7c-0.4-0.8-0.1-1.5,0.7-1.9l8.7-4.2c0.6-0.3,1.5-0.1,1.9,0.7
	C252.9,37.5,252.5,38.3,251.8,38.6z"/>
<path class="st0" d="M561.5,311.5c-0.6,0.3-1.5,0.1-1.9-0.7l-4.2-8.7c-0.3-0.6-0.1-1.5,0.7-1.9c0.8-0.4,1.5-0.1,1.9,0.7l4.2,8.7
	C562.4,310.3,562.1,311.2,561.5,311.5z"/>
<path class="st0" d="M563.6,305l-8.7,4.2c-0.6,0.3-1.5,0.1-1.9-0.7c-0.4-0.8-0.1-1.5,0.7-1.9l8.7-4.2c0.6-0.3,1.5-0.1,1.9,0.7
	C564.6,303.9,564.2,304.7,563.6,305z"/>
<path class="st0" d="M1658.3,607.6c0.8,1.7,0.1,3.8-1.6,4.7c-1.7,0.8-3.9,0.1-4.7-1.6c-0.8-1.7-0.1-3.8,1.6-4.7
	C1655.5,605.3,1657.5,605.9,1658.3,607.6z"/>
<path class="st0" d="M1674.4,401.1c0.8,1.7,0.1,3.8-1.6,4.7s-3.8,0.1-4.7-1.6c-0.8-1.7-0.1-3.8,1.6-4.7S1673.5,399.4,1674.4,401.1z"
	/>
<path class="st0" d="M1660,453.4c0.8,1.7,0.1,3.8-1.6,4.7s-3.8,0.1-4.7-1.6c-0.8-1.7-0.1-3.8,1.6-4.7S1659.2,451.7,1660,453.4z"/>
<path class="st0" d="M1633.3,315.9c0.8,1.7,0.1,3.8-1.6,4.7c-1.7,0.8-3.8,0.1-4.7-1.6c-0.8-1.7-0.1-3.8,1.6-4.7
	C1630.4,313.6,1632.4,314.2,1633.3,315.9z"/>
<path class="st0" d="M1463.3,550.6c0.8,1.7,0.1,3.8-1.6,4.7c-1.7,0.8-3.8,0.1-4.7-1.6c-0.8-1.7-0.1-3.8,1.6-4.7
	C1460.5,548.3,1462.5,548.9,1463.3,550.6z"/>
<path class="st0" d="M1692.2,183.4c0.8,1.7,0.1,3.8-1.6,4.7c-1.7,0.8-3.8,0.1-4.7-1.6s-0.1-3.8,1.6-4.7S1691.4,181.6,1692.2,183.4z"
	/>
<path class="st0" d="M1785.9,552.9c-0.6,0.3-1.5,0.1-1.9-0.7l-4.2-8.7c-0.3-0.6-0.1-1.5,0.7-1.9c0.8-0.4,1.5-0.1,1.9,0.7l4.2,8.7
	C1786.7,551.7,1786.5,552.6,1785.9,552.9z"/>
<path class="st0" d="M1788,546.4l-8.7,4.2c-0.6,0.3-1.5,0.1-1.9-0.7c-0.4-0.8-0.1-1.5,0.7-1.9l8.7-4.2c0.6-0.3,1.5-0.1,1.9,0.7
	S1788.6,546.1,1788,546.4z"/>
<path class="st0" d="M1335.1,335.3c-0.6,0.3-1.5,0.1-1.9-0.7l-4.2-8.7c-0.3-0.6-0.1-1.5,0.7-1.9c0.8-0.4,1.5-0.1,1.9,0.7l4.2,8.7
	C1335.9,334.2,1335.7,335,1335.1,335.3z"/>
<path class="st0" d="M1337.2,328.8l-8.7,4.2c-0.6,0.3-1.5,0.1-1.9-0.7c-0.4-0.8-0.1-1.5,0.7-1.9l8.7-4.2c0.6-0.3,1.5-0.1,1.9,0.7
	C1338.3,327.8,1337.9,328.5,1337.2,328.8z"/>
</svg>
