<?xml version="1.0" encoding="utf-8"?>
<!-- Generator: Adobe Illustrator 24.0.2, SVG Export Plug-In . SVG Version: 6.00 Build 0)  -->
<svg version="1.1" id="Capa_1" xmlns="http://www.w3.org/2000/svg" xmlns:xlink="http://www.w3.org/1999/xlink" x="0px" y="0px"
	 viewBox="0 0 32 32" style="enable-background:new 0 0 32 32;" xml:space="preserve">
<style type="text/css">
	.st0{fill-rule:evenodd;clip-rule:evenodd;fill:#FFFFFF;}
</style>
<path class="st0" d="M16,4.5C9.7,4.5,4.5,9.7,4.5,16c0,6.3,5.1,11.5,11.5,11.5c6.3,0,11.5-5.1,11.5-11.5C27.5,9.7,22.3,4.5,16,4.5z
	 M2,16C2,8.3,8.3,2,16,2c7.7,0,14,6.3,14,14c0,7.7-6.3,14-14,14C8.3,30,2,23.7,2,16z M16,7.1c0.7,0,1.3,0.6,1.3,1.3v6.8l4.4,2.2
	c0.6,0.3,0.9,1.1,0.6,1.7c-0.3,0.6-1.1,0.9-1.7,0.6l-5.1-2.5c-0.4-0.2-0.7-0.7-0.7-1.1V8.4C14.7,7.7,15.3,7.1,16,7.1z"/>
</svg>
