<?xml version="1.0" encoding="utf-8"?>
<!-- Generator: Adobe Illustrator 24.0.2, SVG Export Plug-In . SVG Version: 6.00 Build 0)  -->
<svg version="1.1" id="Capa_1" xmlns="http://www.w3.org/2000/svg" xmlns:xlink="http://www.w3.org/1999/xlink" x="0px" y="0px"
	 viewBox="0 0 1920 159.9" style="enable-background:new 0 0 1920 159.9;" xml:space="preserve">
<style type="text/css">
	.st0{fill:#C4C4C4;filter:url(#Adobe_OpacityMaskFilter);}
	.st1{mask:url(#mask0_1_);}
	.st2{opacity:0.5;}
	.st3{clip-path:url(#SVGID_2_);}
	.st4{fill:url(#SVGID_3_);}
	.st5{clip-path:url(#SVGID_5_);}
	.st6{fill:url(#SVGID_6_);}
</style>
<defs>
	<filter id="Adobe_OpacityMaskFilter" filterUnits="userSpaceOnUse" x="-46" y="17.9" width="2203.7" height="332.6">
		<feColorMatrix  type="matrix" values="1 0 0 0 0  0 1 0 0 0  0 0 1 0 0  0 0 0 1 0"/>
	</filter>
</defs>
<mask maskUnits="userSpaceOnUse" x="-46" y="17.9" width="2203.7" height="332.6" id="mask0_1_">
	<rect y="-3.1" class="st0" width="1920" height="163"/>
</mask>
<g class="st1">
	<g class="st2">
		<g>
			<defs>
				<rect id="SVGID_1_" x="-46" y="17.9" width="1107" height="332.4"/>
			</defs>
			<clipPath id="SVGID_2_">
				<use xlink:href="#SVGID_1_"  style="overflow:visible;"/>
			</clipPath>
			<g class="st3">
				
					<linearGradient id="SVGID_3_" gradientUnits="userSpaceOnUse" x1="507.7535" y1="-192.6526" x2="507.7535" y2="139.9104" gradientTransform="matrix(1 0 0 -1 0 157.8207)">
					<stop  offset="0" style="stop-color:#000000"/>
					<stop  offset="0.1221" style="stop-color:#001315"/>
					<stop  offset="0.3738" style="stop-color:#00444A"/>
					<stop  offset="0.7295" style="stop-color:#00929E"/>
					<stop  offset="1" style="stop-color:#00D1E3"/>
				</linearGradient>
				<path class="st4" d="M375,154.5l-0.2-103.6c2.6-0.3,4.7-2.6,4.7-5.4c0-2.9-2.5-5.4-5.4-5.4c-2.9,0-5.4,2.5-5.4,5.4
					c0,2.8,2.1,5.1,4.7,5.4l0.2,103l-31,30.7V183c2.6-0.3,4.7-2.6,4.7-5.4c0-2.9-2.5-5.4-5.4-5.4c-2.9,0-5.4,2.5-5.4,5.4
					c0,2.8,2.1,5.1,4.7,5.4v3.1l-32.8,32.7l-0.2,0.2V263l5.6,5.4l-3.1,3.1h-31.4v77.8c0,0.3,0.3,0.8,0.8,0.8c0.3,0,0.8-0.3,0.8-0.8
					V273h30.6l3.6-3.6l15.2,15v64.9c0,0.3,0.3,0.8,0.8,0.8c0.3,0,0.7-0.3,0.7-0.8v-65.2v-0.3l-15.7-15.5l27-26.6v-55.1l32.2-32H375z
					 M341.1,241.3l-26.5,26.3l-5.1-5.1v-42.8l31.5-31.5V241.3z M579.1,216.1c2.6-0.3,4.7-2.6,4.7-5.4c0-2.9-2.5-5.4-5.4-5.4
					c-2.9,0-5.4,2.5-5.4,5.4c0,2.8,2.1,5.1,4.7,5.4v41.2l31,30.9v61.4c0,0.3,0.3,0.8,0.8,0.8c0.5,0,0.8-0.3,0.8-0.8v-62.1
					l-31.1-30.9L579.1,216.1z M497.7,211.1l31.1-30.7v-58c2.6-0.5,4.6-2.6,4.6-5.4c0-2.9-2.5-5.4-5.4-5.4c-2.9,0-5.4,2.5-5.4,5.4
					c0,2.8,2.1,5.1,4.9,5.4v57.4l-31.1,30.7v62.3l62.1,61.8v15c0,0.3,0.3,0.8,0.8,0.8c0.3,0,0.8-0.3,0.8-0.8v-15.7L498,272v-61
					H497.7z M441.8,138.2c2.6-0.3,4.6-2.6,4.6-5.4c0-2.9-2.5-5.4-5.4-5.4c-2.9,0-5.4,2.5-5.4,5.4c0,2.8,2.1,5.1,4.7,5.4l-0.2,72.4
					v0.3l46.6,46.2v30.4l-15.5,15.4v46.6c0,0.3,0.3,0.8,0.7,0.8s0.7-0.3,0.8-0.8v-46.1l15.5-15.4v-31.5l-46.6-46.2L441.8,138.2z
					 M373.7,216.1c2.6-0.3,4.7-2.6,4.7-5.4c0-2.9-2.5-5.4-5.4-5.4c-2.9,0-5.4,2.5-5.4,5.4c0,2.8,2.1,5.1,4.7,5.4v41.2l15.5,15.4
					v76.8c0,0.3,0.3,0.8,0.8,0.8c0.3,0,0.8-0.3,0.8-0.8V272L374,256.7v-40.5H373.7z M590.9,210.4V123c2.6-0.3,4.7-2.6,4.7-5.4
					c0-2.9-2.5-5.4-5.4-5.4c-2.9,0-5.4,2.5-5.4,5.4c0,2.8,2.1,5.1,4.7,5.4v87.9l46.6,46.2v92.2c0,0.3,0.3,0.8,0.8,0.8
					c0.3,0,0.8-0.3,0.8-0.8v-92.8L590.9,210.4z M689.4,172.3c2.6-0.3,4.6-2.6,4.6-5.4c0-2.9-2.5-5.4-5.4-5.4c-2.9,0-5.4,2.5-5.4,5.4
					c0,2.8,2.1,5.1,4.7,5.4l0.2,59.3l-30.9,30.7v87.1c0,0.3,0.3,0.8,0.8,0.8c0.3,0,0.8-0.3,0.8-0.8V263l30.9-30.7L689.4,172.3z
					 M833.4,93.9c2.6-0.3,4.7-2.6,4.7-5.4c0-2.9-2.5-5.4-5.4-5.4c-2.9,0-5.4,2.5-5.4,5.4c0,2.8,2.1,5.1,4.7,5.4v81.9l-43.6,43.3
					v64.6h-86.6H701v65.7c0,0.3,0.3,0.8,0.8,0.8c0.5,0,0.8-0.3,0.8-0.8v-64.2h86.6h0.8v-65.5l43.6-43.3V93.9H833.4z M898.9,220.1
					L898.7,116c2.8-0.3,4.7-2.6,4.7-5.4c0-2.9-2.5-5.4-5.4-5.4s-5.4,2.5-5.4,5.4c0,2.8,2,5.1,4.7,5.4l0.2,102.6h-65.5V263l21.7,21.6
					v64.9c0,0.3,0.3,0.8,0.8,0.8c0.3,0,0.8-0.3,0.8-0.8V284l-21.7-21.6v-42.5h65.2V220.1z M942.4,28.7c2.6-0.3,4.7-2.6,4.7-5.4
					c0-2.9-2.5-5.4-5.4-5.4c-2.9,0-5.6,2.5-5.6,5.4c0,2.8,2.1,5.1,4.7,5.4v60.8l43.8,43.3v64.4l-43.8,43.5v108.8
					c0,0.3,0.3,0.8,0.8,0.8c0.5,0,0.8-0.3,0.8-0.8V241.3l43.8-43.5v-65.5L942.5,89V28.7H942.4z M559,211.9l0.2-0.2v-81.4
					c2.6-0.3,4.7-2.6,4.7-5.4c0-2.9-2.5-5.4-5.4-5.4c-2.9,0-5.4,2.5-5.4,5.4c0,2.8,2.1,5.1,4.7,5.4v80.6l-32.5,30.9h44.6v107.7
					c0,0.3,0.3,0.8,0.8,0.8c0.3,0,0.8-0.3,0.8-0.8V240.3h-42.5L559,211.9z M749.4,207.8V82.3c2.6-0.3,4.7-2.6,4.7-5.4
					c0-2.9-2.5-5.4-5.4-5.4c-2.9,0-5.4,2.5-5.4,5.4c0,2.8,2.1,5.1,4.7,5.4v124.9L682.9,272l-0.2,0.2v77.3c0,0.3,0.3,0.8,0.8,0.8
					c0.3,0,0.8-0.3,0.8-0.8v-76.6l65.2-64.9L749.4,207.8z M222.3,30.3c2.6-0.3,4.7-2.6,4.7-5.4c0-2.9-2.5-5.4-5.4-5.4
					s-5.4,2.5-5.4,5.4c0,2.8,2.1,5.1,4.7,5.4v81.1l43.5,43.1v86.1l-7.7,7.7l-38.2-38.1V123c2.6-0.3,4.7-2.6,4.7-5.4
					c0-2.9-2.5-5.4-5.4-5.4c-2.9,0-5.4,2.5-5.4,5.4c0,2.8,2.1,5.1,4.7,5.4v87.9l38.6,38.4l-37.8,37.4l-30.6-30.2v-41
					c2.6-0.3,4.7-2.6,4.7-5.4c0-2.9-2.5-5.4-5.4-5.4c-2.9,0-5.4,2.5-5.4,5.4c0,2.8,2.1,5.1,4.7,5.4v41.7l31.1,30.7l-29.6,29.4v-14.9
					h-52.6V263l43.8-43.3l-0.2-60c2.8-0.3,4.9-2.6,4.9-5.4c0-2.9-2.5-5.4-5.4-5.4c-2.9,0-5.4,2.5-5.4,5.4c0,2.8,2,4.9,4.6,5.4
					l0.2,59.3l-43.8,43.3v40.2h-8v-45.8l-31-30.9v-30.9l40.4-40.2l0.2-0.2V28.9c2.6-0.3,4.7-2.6,4.7-5.4c0-2.9-2.5-5.4-5.4-5.4
					c-2.9,0-5.4,2.5-5.4,5.4c0,2.8,2.1,5.1,4.7,5.4V154l-39.1,38.9v-23c2.6-0.3,4.7-2.6,4.7-5.4c0-2.9-2.5-5.4-5.4-5.4
					c-2.9,0-5.4,2.5-5.4,5.4c0,2.8,2.1,5.1,4.7,5.4v24.5l-24.8,24.8v130.4c0,0.3,0.3,0.8,0.8,0.8c0.3,0,0.7-0.3,0.8-0.8V219.9
					l22.6-23.5v30.1l31.1,30.9v46.6h9.5v45.6c0,0.3,0.3,0.8,0.8,0.8c0.3,0,0.8-0.3,0.8-0.8v-45.6h51.2v14.9l-8.5,8.5l-0.2,0.2v21.9
					c0,0.3,0.3,0.8,0.8,0.8c0.3,0,0.8-0.3,0.8-0.8v-21.2l7.4-7.2v28.6c0,0.3,0.3,0.8,0.8,0.8c0.3,0,0.8-0.3,0.8-0.8v-30.1l29.6-29.6
					v59.5c0,0.3,0.3,0.8,0.8,0.8c0.3,0,0.8-0.3,0.8-0.8v-61l38.2-37.9l6.9,6.9v92.2c0,0.3,0.3,0.8,0.8,0.8c0.3,0,0.8-0.3,0.8-0.8
					V257v-0.3l-7.4-7.2l8-7.8l0.2-0.2V154l-43.6-43.3V30.3H222.3z M3.5,197h-17.8v-1.3L16.8,165v-41.3c2.6-0.3,4.7-2.6,4.7-5.4
					c0-2.9-2.5-5.4-5.4-5.4c-2.9,0-5.4,2.5-5.4,5.4c0,2.8,2.1,5.1,4.7,5.4v40.5l-31.1,30.7v2h-23.9V116c2.6-0.3,4.6-2.6,4.6-5.4
					c0-2.9-2.5-5.4-5.4-5.4s-5.4,2.5-5.4,5.4c0,2.8,2.1,5.1,4.9,5.4v82.4h25.3v43.5l31.1,30.9v76.8c0,0.3,0.3,0.8,0.8,0.8
					c0.3,0,0.8-0.3,0.8-0.8V272l-31.1-30.9v-42.8H3.5l43.3,43v108.2c0,0.3,0.3,0.8,0.8,0.8c0.3,0,0.8-0.3,0.8-0.8V240.8l-44-43.6
					L3.5,197z M428.6,148.2c-2.9,0-5.4,2.5-5.4,5.4c0,2.8,2.1,5.1,4.7,5.4v60L406,240.7v108.8c0,0.3,0.3,0.8,0.8,0.8
					c0.3,0,0.8-0.3,0.8-0.8V241.3l21.9-21.7v-60.6c2.6-0.3,4.7-2.6,4.7-5.4C434,150.6,431.5,148.2,428.6,148.2z M1055.5,173.5
					c-2.9,0-5.4,2.5-5.4,5.4c0,2.8,2.1,5.1,4.7,5.4v56.4h-30.6l-31.5,31.2v77.5c0,0.3,0.3,0.8,0.8,0.8s0.8-0.3,0.8-0.8v-76.8
					l30.6-30.4h31.5v-57.9c2.6-0.3,4.7-2.6,4.7-5.4C1061,175.9,1058.6,173.5,1055.5,173.5z M930.9,158.9c-2.9,0-5.4,2.5-5.4,5.4
					c0,2.8,2.1,5.1,4.7,5.4l-0.2,71.9l-14.9,14.9v31l-15.5,15.4v46.6c0,0.3,0.3,0.8,0.8,0.8c0.3,0,0.8-0.3,0.8-0.8v-46.1l15.5-15.4
					v-30.9l14.9-14.9l0.2-72.6c2.6-0.3,4.6-2.6,4.6-5.4C936.3,161.4,933.9,158.9,930.9,158.9z"/>
			</g>
		</g>
		<g>
			<defs>
				<rect id="SVGID_4_" x="1050.6" y="17.9" width="1107" height="332.4"/>
			</defs>
			<clipPath id="SVGID_5_">
				<use xlink:href="#SVGID_4_"  style="overflow:visible;"/>
			</clipPath>
			<g class="st5">
				
					<linearGradient id="SVGID_6_" gradientUnits="userSpaceOnUse" x1="1604.3149" y1="-192.6526" x2="1604.3149" y2="139.9104" gradientTransform="matrix(1 0 0 -1 0 157.8207)">
					<stop  offset="0" style="stop-color:#000000"/>
					<stop  offset="0.1221" style="stop-color:#001315"/>
					<stop  offset="0.3738" style="stop-color:#00444A"/>
					<stop  offset="0.7295" style="stop-color:#00929E"/>
					<stop  offset="1" style="stop-color:#00D1E3"/>
				</linearGradient>
				<path class="st6" d="M1471.5,154.5l-0.2-103.6c2.6-0.3,4.7-2.6,4.7-5.4c0-2.9-2.4-5.4-5.4-5.4c-2.9,0-5.4,2.5-5.4,5.4
					c0,2.8,2.1,5.1,4.7,5.4l0.2,103l-31,30.7V183c2.6-0.3,4.7-2.6,4.7-5.4c0-2.9-2.5-5.4-5.4-5.4c-2.9,0-5.4,2.5-5.4,5.4
					c0,2.8,2.1,5.1,4.7,5.4v3.1l-32.8,32.7l-0.2,0.2V263l5.6,5.4l-3.1,3.1h-31.4v77.8c0,0.3,0.3,0.8,0.8,0.8c0.3,0,0.8-0.3,0.8-0.8
					V273h30.6l3.6-3.6l15.2,15v64.9c0,0.3,0.3,0.8,0.8,0.8c0.3,0,0.7-0.3,0.7-0.8v-65.2v-0.3l-15.7-15.5l27-26.6v-55.1l32.2-32
					H1471.5z M1437.7,241.3l-26.5,26.3l-5.1-5.1v-42.8l31.5-31.5V241.3z M1675.7,216.1c2.6-0.3,4.7-2.6,4.7-5.4
					c0-2.9-2.5-5.4-5.4-5.4c-2.9,0-5.4,2.5-5.4,5.4c0,2.8,2.1,5.1,4.7,5.4v41.2l31.1,30.9v61.4c0,0.3,0.3,0.8,0.8,0.8
					s0.8-0.3,0.8-0.8v-62.1l-31.1-30.9L1675.7,216.1z M1594.3,211.1l31.1-30.7v-58c2.6-0.5,4.6-2.6,4.6-5.4c0-2.9-2.5-5.4-5.4-5.4
					s-5.4,2.5-5.4,5.4c0,2.8,2.1,5.1,4.9,5.4v57.4l-31.1,30.7v62.3l62.1,61.8v15c0,0.3,0.3,0.8,0.8,0.8c0.3,0,0.8-0.3,0.8-0.8v-15.7
					l-62.1-61.8v-61H1594.3z M1538.4,138.2c2.6-0.3,4.6-2.6,4.6-5.4c0-2.9-2.4-5.4-5.4-5.4c-2.9,0-5.4,2.5-5.4,5.4
					c0,2.8,2.1,5.1,4.7,5.4l-0.2,72.4v0.3l46.6,46.2v30.4l-15.5,15.4v46.6c0,0.3,0.3,0.8,0.6,0.8c0.3,0,0.7-0.3,0.8-0.8v-46.1
					l15.5-15.4v-31.5l-46.6-46.2L1538.4,138.2z M1470.2,216.1c2.6-0.3,4.7-2.6,4.7-5.4c0-2.9-2.4-5.4-5.4-5.4
					c-2.9,0-5.4,2.5-5.4,5.4c0,2.8,2.1,5.1,4.7,5.4v41.2l15.5,15.4v76.8c0,0.3,0.3,0.8,0.8,0.8c0.3,0,0.8-0.3,0.8-0.8V272
					l-15.5-15.4v-40.5H1470.2z M1687.4,210.4V123c2.6-0.3,4.7-2.6,4.7-5.4c0-2.9-2.5-5.4-5.4-5.4c-2.9,0-5.4,2.5-5.4,5.4
					c0,2.8,2.1,5.1,4.7,5.4v87.9l46.6,46.2v92.2c0,0.3,0.3,0.8,0.8,0.8c0.3,0,0.8-0.3,0.8-0.8v-92.8L1687.4,210.4z M1786,172.3
					c2.6-0.3,4.6-2.6,4.6-5.4c0-2.9-2.5-5.4-5.4-5.4c-2.9,0-5.4,2.5-5.4,5.4c0,2.8,2.1,5.1,4.7,5.4l0.2,59.3l-30.9,30.7v87.1
					c0,0.3,0.3,0.8,0.8,0.8c0.3,0,0.8-0.3,0.8-0.8V263l30.9-30.7L1786,172.3z M1929.9,93.9c2.6-0.3,4.7-2.6,4.7-5.4
					c0-2.9-2.5-5.4-5.4-5.4c-2.9,0-5.4,2.5-5.4,5.4c0,2.8,2.1,5.1,4.7,5.4v81.9l-43.6,43.3v64.6h-86.6h-0.8v65.7
					c0,0.3,0.3,0.8,0.8,0.8s0.8-0.3,0.8-0.8v-64.2h86.6h0.8v-65.5l43.6-43.3V93.9H1929.9z M1995.5,220.1l-0.2-104.1
					c2.8-0.3,4.7-2.6,4.7-5.4c0-2.9-2.5-5.4-5.4-5.4c-2.9,0-5.4,2.5-5.4,5.4c0,2.8,2,5.1,4.7,5.4l0.2,102.6h-65.5V263l21.7,21.6
					v64.9c0,0.3,0.3,0.8,0.8,0.8c0.3,0,0.8-0.3,0.8-0.8V284l-21.7-21.6v-42.5h65.2V220.1z M2038.9,28.7c2.6-0.3,4.7-2.6,4.7-5.4
					c0-2.9-2.5-5.4-5.4-5.4c-2.9,0-5.6,2.5-5.6,5.4c0,2.8,2.1,5.1,4.7,5.4v60.8l43.8,43.3v64.4l-43.8,43.5v108.8
					c0,0.3,0.3,0.8,0.8,0.8s0.8-0.3,0.8-0.8V241.3l43.8-43.5v-65.5L2039.1,89V28.7H2038.9z M1655.6,211.9l0.2-0.2v-81.4
					c2.6-0.3,4.7-2.6,4.7-5.4c0-2.9-2.4-5.4-5.4-5.4c-2.9,0-5.4,2.5-5.4,5.4c0,2.8,2.1,5.1,4.7,5.4v80.6l-32.5,30.9h44.6v107.7
					c0,0.3,0.3,0.8,0.8,0.8c0.3,0,0.8-0.3,0.8-0.8V240.3h-42.5L1655.6,211.9z M1845.9,207.8V82.3c2.6-0.3,4.7-2.6,4.7-5.4
					c0-2.9-2.5-5.4-5.4-5.4c-2.9,0-5.4,2.5-5.4,5.4c0,2.8,2.1,5.1,4.7,5.4v124.9l-65.2,64.9l-0.2,0.2v77.3c0,0.3,0.3,0.8,0.8,0.8
					c0.3,0,0.8-0.3,0.8-0.8v-76.6l65.2-64.9L1845.9,207.8z M1318.9,30.3c2.6-0.3,4.7-2.6,4.7-5.4c0-2.9-2.5-5.4-5.4-5.4
					c-2.9,0-5.4,2.5-5.4,5.4c0,2.8,2.1,5.1,4.7,5.4v81.1l43.5,43.1v86.1l-7.7,7.7l-38.2-38.1V123c2.6-0.3,4.7-2.6,4.7-5.4
					c0-2.9-2.4-5.4-5.4-5.4c-2.9,0-5.4,2.5-5.4,5.4c0,2.8,2.1,5.1,4.7,5.4v87.9l38.6,38.4l-37.8,37.4l-30.6-30.2v-41
					c2.6-0.3,4.7-2.6,4.7-5.4c0-2.9-2.4-5.4-5.4-5.4c-2.9,0-5.4,2.5-5.4,5.4c0,2.8,2.1,5.1,4.7,5.4v41.7l31,30.7l-29.6,29.4v-14.9
					h-52.6V263l43.8-43.3l-0.2-60c2.8-0.3,4.9-2.6,4.9-5.4c0-2.9-2.5-5.4-5.4-5.4c-3,0-5.4,2.5-5.4,5.4c0,2.8,2,4.9,4.6,5.4
					l0.2,59.3l-43.8,43.3v40.2h-8v-45.8l-31-30.9v-30.9l40.4-40.2l0.2-0.2V28.9c2.6-0.3,4.7-2.6,4.7-5.4c0-2.9-2.5-5.4-5.4-5.4
					c-2.9,0-5.4,2.5-5.4,5.4c0,2.8,2.1,5.1,4.7,5.4V154l-39.1,38.9v-23c2.6-0.3,4.7-2.6,4.7-5.4c0-2.9-2.5-5.4-5.4-5.4
					c-3,0-5.4,2.5-5.4,5.4c0,2.8,2.1,5.1,4.7,5.4v24.5l-24.8,24.8v130.4c0,0.3,0.3,0.8,0.8,0.8c0.3,0,0.7-0.3,0.8-0.8V219.9
					l22.5-23.5v30.1l31.1,30.9v46.6h9.5v45.6c0,0.3,0.3,0.8,0.8,0.8c0.3,0,0.8-0.3,0.8-0.8v-45.6h51.2v14.9l-8.5,8.5l-0.2,0.2v21.9
					c0,0.3,0.3,0.8,0.8,0.8c0.3,0,0.8-0.3,0.8-0.8v-21.2l7.3-7.2v28.6c0,0.3,0.3,0.8,0.8,0.8c0.3,0,0.8-0.3,0.8-0.8v-30.1l29.6-29.6
					v59.5c0,0.3,0.3,0.8,0.8,0.8c0.3,0,0.8-0.3,0.8-0.8v-61l38.2-37.9l6.9,6.9v92.2c0,0.3,0.3,0.8,0.8,0.8c0.3,0,0.8-0.3,0.8-0.8
					V257v-0.3l-7.4-7.2l8-7.8l0.2-0.2V154l-43.6-43.3V30.3H1318.9z M1100.1,197h-17.8v-1.3l31.1-30.7v-41.3c2.6-0.3,4.7-2.6,4.7-5.4
					c0-2.9-2.5-5.4-5.4-5.4c-2.9,0-5.4,2.5-5.4,5.4c0,2.8,2.1,5.1,4.7,5.4v40.5l-31.1,30.7v2h-23.9V116c2.6-0.3,4.6-2.6,4.6-5.4
					c0-2.9-2.5-5.4-5.4-5.4c-2.9,0-5.4,2.5-5.4,5.4c0,2.8,2.1,5.1,4.9,5.4v82.4h25.3v43.5l31.1,30.9v76.8c0,0.3,0.3,0.8,0.8,0.8
					c0.3,0,0.8-0.3,0.8-0.8V272l-31.1-30.9v-42.8h17.3l43.3,43v108.2c0,0.3,0.3,0.8,0.8,0.8c0.3,0,0.8-0.3,0.8-0.8V240.8l-44-43.6
					L1100.1,197z M1525.1,148.2c-2.9,0-5.4,2.5-5.4,5.4c0,2.8,2.1,5.1,4.7,5.4v60l-21.9,21.7v108.8c0,0.3,0.3,0.8,0.8,0.8
					c0.3,0,0.8-0.3,0.8-0.8V241.3l21.9-21.7v-60.6c2.6-0.3,4.7-2.6,4.7-5.4C1530.5,150.6,1528.1,148.2,1525.1,148.2z M2152,173.5
					c-2.9,0-5.4,2.5-5.4,5.4c0,2.8,2.1,5.1,4.7,5.4v56.4h-30.6l-31.5,31.2v77.5c0,0.3,0.3,0.8,0.8,0.8s0.8-0.3,0.8-0.8v-76.8
					l30.6-30.4h31.5v-57.9c2.6-0.3,4.7-2.6,4.7-5.4C2157.6,175.9,2155.1,173.5,2152,173.5z M2027.5,158.9c-2.9,0-5.4,2.5-5.4,5.4
					c0,2.8,2.1,5.1,4.7,5.4l-0.2,71.9l-14.9,14.9v31l-15.5,15.4v46.6c0,0.3,0.3,0.8,0.8,0.8c0.3,0,0.8-0.3,0.8-0.8v-46.1l15.5-15.4
					v-30.9l14.9-14.9l0.2-72.6c2.6-0.3,4.6-2.6,4.6-5.4C2032.9,161.4,2030.4,158.9,2027.5,158.9z"/>
			</g>
		</g>
	</g>
</g>
</svg>
