<?xml version="1.0" encoding="utf-8"?>
<!-- Generator: Adobe Illustrator 24.0.2, SVG Export Plug-In . SVG Version: 6.00 Build 0)  -->
<svg version="1.1" id="Capa_1" xmlns="http://www.w3.org/2000/svg" xmlns:xlink="http://www.w3.org/1999/xlink" x="0px" y="0px"
	 viewBox="0 0 300 240" style="enable-background:new 0 0 300 240;" xml:space="preserve">
<style type="text/css">
	.st0{fill:#F3F2ED;}
	.st1{opacity:0.1;fill:#231052;enable-background:new    ;}
	.st2{fill:#DCDCDC;}
	.st3{fill:#E91F5C;}
	.st4{opacity:0.1;}
	.st5{fill:none;stroke:#9C9C9C;stroke-width:1.0121;stroke-miterlimit:10;}
	.st6{fill:none;stroke:#71717B;stroke-width:1.0121;stroke-miterlimit:10;}
	.st7{fill:#71717B;}
</style>
<path class="st0" d="M141.7,74.3L91.6,176c-4.2,9-0.8,19.6,8.2,23.8l28.7,13.9c9,4.2,19.6,0.8,23.8-8.2l49.8-101.3L141.7,74.3z"/>
<path class="st1" d="M109.4,203.9c-9-4.2-12.5-15.2-8.2-23.8L151,78.8l-9.3-4.5L91.6,176c-4.2,9-0.8,19.6,8.2,23.8l28.7,13.9
	c1.1,0.6,2.1,0.8,3.2,1.1L109.4,203.9z"/>
<path class="st2" d="M172.6,89.6l29.5,14.5l3.1-34.5l-18.4-9.1l-18-9.1l-27.1,22.9L172.6,89.6z"/>
<path class="st3" d="M168.9,51.8l36.4,17.8l4.7-9.5l-36.4-17.8L168.9,51.8z"/>
<path class="st2" d="M175.7,17.6l-2.3,24.8l17.3,8.5l1.1,0.2l18,9.1l18.1-17.2L202,30.3l-0.3,0.4l0.3-0.4L175.7,17.6z"/>
<g class="st4">
	<g class="st4">
		<path class="st1" d="M182,94.2L151,78.8l26.8-22.5l4.9-9.4l2.7-24.9l-9.7-4.5l-2.3,24.8l-4.9,9.4l-26.8,22.5l30.9,15.4l29.5,14.5
			L182,94.2z"/>
		<path class="st1" d="M211,35.6l0.3-0.7L211,35.6z"/>
	</g>
</g>
<path class="st3" d="M92.1,160.2c1.2-2.2,3.8-3.1,6-2l64.4,31.5c2.2,1.2,3.1,3.8,2,6c-1.2,2.2-3.8,3.1-6,2l-64.3-31.2
	C91.9,165.4,90.9,162.4,92.1,160.2z"/>
<path class="st1" d="M92.1,160.2c-0.9,1.5-0.4,3.1,0.5,4.7c0-0.3,0.3-0.7,0.2-1.4c1.2-2.2,3.8-3.1,6-2l64.7,31.5
	c0.7,0.3,1.1,0.9,1.5,1.6c0.5-2.1-0.4-4.1-2.5-4.9l-64.4-31.5C95.9,157.1,93.2,158,92.1,160.2z"/>
<path class="st5" d="M209.8,122.9c0.3-0.7,1.3-1.2,2-0.9l81.2,39.4c0.7,0.3,0.8,1.3,0.5,2l-31.3,63.3c-0.3,0.7-1.3,1.1-2,0.9
	l-80.9-39.8c-0.7-0.3-0.8-1.3-0.5-2L209.8,122.9z"/>
<path class="st5" d="M267.4,216.6l-83.4-40.9"/>
<path class="st5" d="M273.9,203.3l-83.4-40.9"/>
<path class="st5" d="M280.5,190L197,149.1"/>
<path class="st5" d="M286.7,177.1l-83.4-40.9"/>
<path class="st5" d="M247.3,221.3l32.8-66.2"/>
<path class="st5" d="M233.6,214.5l32.4-66.1"/>
<path class="st5" d="M219.6,207.7l32.4-66.1"/>
<path class="st5" d="M205.6,200.9l32.7-66.1"/>
<path class="st5" d="M191.9,194l32.4-66.1"/>
<path class="st5" d="M193.1,157.3l-13.7-6.8"/>
<path class="st5" d="M122,79.6c0.3-0.7,0.2-1.7-0.5-2L40.6,37.9c-0.7-0.3-1.7,0.2-2,0.9L7.6,102c-0.3,0.7-0.2,1.7,0.5,2l80.9,39.8
	c0.7,0.3,1.7-0.2,2-0.9L122,79.6z"/>
<path class="st5" d="M12.7,91.5l83.4,40.9"/>
<path class="st5" d="M19.3,78.3l83.4,40.9"/>
<path class="st5" d="M25.5,65.3l83.4,40.9"/>
<path class="st5" d="M32.1,52l83.4,40.9"/>
<path class="st5" d="M21.1,110.2l32.4-66.1"/>
<path class="st5" d="M34.8,117l32.7-66.1"/>
<path class="st5" d="M48.8,123.8l32.4-66.1"/>
<path class="st5" d="M62.8,130.7l32.4-66.1"/>
<path class="st5" d="M76.5,137.5l32.7-66.2"/>
<path class="st5" d="M105,114.2l13.6,6.5"/>
<path class="st6" d="M202,30.3l9.7-19.8"/>
<path class="st3" d="M205.4,9.8c1.4-2.9,4.7-3.9,7.6-2.5c2.9,1.4,3.9,4.7,2.5,7.6c-1.4,2.9-4.7,3.9-7.6,2.5
	C205.3,16,204,12.7,205.4,9.8z"/>
<path class="st1" d="M205.4,9.8c-0.9,1.5-0.7,3.1-0.2,4.5c0-0.3,0.3-0.7,0.2-1c1.4-2.9,4.7-3.9,7.6-2.5c1.4,0.5,2.2,1.8,2.7,3.1
	c0.8-2.5-0.5-5.4-3-6.5C210.1,5.9,206.8,6.9,205.4,9.8z"/>
<path class="st7" d="M172.4,139.2c0.6-1.1,1.6-1.5,2.6-0.9c1.1,0.6,1.2,1.6,0.9,2.6l-17.1,34.5c-0.6,1.1-1.6,1.2-2.6,0.9
	c-1.1-0.6-1.2-1.6-0.9-2.6L172.4,139.2z"/>
</svg>
