<?xml version="1.0" encoding="utf-8"?>
<!-- Generator: Adobe Illustrator 24.0.2, SVG Export Plug-In . SVG Version: 6.00 Build 0)  -->
<svg version="1.1" id="Capa_1" xmlns="http://www.w3.org/2000/svg" xmlns:xlink="http://www.w3.org/1999/xlink" x="0px" y="0px"
	 viewBox="0 0 32 32" style="enable-background:new 0 0 32 32;" xml:space="preserve">
<style type="text/css">
	.st0{fill-rule:evenodd;clip-rule:evenodd;fill:#FFFFFF;}
</style>
<path class="st0" d="M16,2.7c-2.8,0-5.4,1.1-7.4,3.1c-2,2-3,4.7-3,7.5c0,4.1,2.6,8.1,5.5,11.2c1.4,1.5,2.8,2.8,3.9,3.6
	c0.4,0.3,0.7,0.6,1,0.8c0.3-0.2,0.6-0.5,1-0.8c1.1-0.9,2.5-2.1,3.9-3.6c2.9-3.1,5.5-7.1,5.5-11.2c0-2.8-1.1-5.5-3-7.5
	C21.4,3.8,18.8,2.7,16,2.7z M16,30.7c-0.7,1.1-0.7,1.1-0.7,1.1l0,0l0,0l0,0c0,0-0.1,0-0.1-0.1c-0.1-0.1-0.2-0.2-0.4-0.3
	c-0.3-0.2-0.8-0.6-1.4-1.1c-1.1-0.9-2.6-2.3-4.2-3.9C6.2,23.2,3,18.5,3,13.3c0-3.5,1.4-6.9,3.8-9.4C9.2,1.4,12.6,0,16,0
	c3.4,0,6.8,1.4,9.2,3.9c2.4,2.5,3.8,5.9,3.8,9.4c0,5.2-3.2,9.9-6.2,13.1c-1.5,1.6-3,3-4.2,3.9c-0.6,0.5-1,0.8-1.4,1.1
	c-0.2,0.1-0.3,0.2-0.4,0.3c0,0-0.1,0.1-0.1,0.1l0,0l0,0l0,0C16.7,31.8,16.7,31.8,16,30.7z M16,30.7l0.7,1.1c-0.4,0.3-1,0.3-1.4,0
	L16,30.7z M16,10.7c-1.4,0-2.6,1.2-2.6,2.7c0,1.5,1.2,2.7,2.6,2.7s2.6-1.2,2.6-2.7C18.6,11.9,17.4,10.7,16,10.7z M10.8,13.3
	c0-2.9,2.3-5.3,5.2-5.3s5.2,2.4,5.2,5.3c0,2.9-2.3,5.3-5.2,5.3S10.8,16.3,10.8,13.3z"/>
</svg>
