<?xml version="1.0" encoding="utf-8"?>
<!-- Generator: Adobe Illustrator 24.0.2, SVG Export Plug-In . SVG Version: 6.00 Build 0)  -->
<svg version="1.1" id="Capa_1" xmlns="http://www.w3.org/2000/svg" xmlns:xlink="http://www.w3.org/1999/xlink" x="0px" y="0px"
	 viewBox="0 0 32 32" style="enable-background:new 0 0 32 32;" xml:space="preserve">
<style type="text/css">
	.st0{fill:#FFFFFF;}
</style>
<g>
	<path class="st0" d="M25.6,30.5c-0.1,0-0.2,0-0.3,0c-4.1-0.4-8.1-1.9-11.6-4.1c-3.2-2-6-4.8-8.1-8C3.4,14.9,2,10.8,1.5,6.7
		c0-0.5,0-1,0.2-1.5C1.8,4.8,2.1,4.3,2.4,4c0.3-0.4,0.7-0.7,1.2-0.9c0.5-0.2,0.9-0.3,1.4-0.3H9c0.8,0,1.7,0.3,2.4,0.9
		C12,4.2,12.4,5,12.5,5.9C12.7,7,13,8.2,13.4,9.3c0.2,0.6,0.3,1.3,0.1,2c-0.1,0.7-0.5,1.3-1,1.8l-1.1,1.1c1.6,2.6,3.8,4.7,6.3,6.3
		l1.1-1.1c0.5-0.5,1.1-0.8,1.8-1c0.7-0.1,1.4-0.1,2,0.2c1.1,0.4,2.2,0.7,3.4,0.8c0.9,0.1,1.7,0.6,2.2,1.2c0.6,0.7,0.9,1.5,0.8,2.4
		v3.9c0,0.5-0.1,1-0.3,1.4c-0.2,0.5-0.5,0.9-0.9,1.2c-0.4,0.3-0.8,0.6-1.3,0.8C26.4,30.4,26,30.5,25.6,30.5z M9,4.8
		C9,4.8,9,4.8,9,4.8H5.1c-0.2,0-0.4,0-0.6,0.1C4.2,5,4.1,5.1,3.9,5.3C3.8,5.5,3.7,5.7,3.6,5.9C3.5,6.1,3.5,6.3,3.5,6.5
		c0.4,3.8,1.7,7.5,3.8,10.7c1.9,3,4.5,5.6,7.5,7.4c3.2,2.1,6.9,3.4,10.7,3.8c0.2,0,0.4,0,0.6-0.1c0.2-0.1,0.4-0.2,0.6-0.3
		c0.2-0.1,0.3-0.3,0.4-0.5c0.1-0.2,0.1-0.4,0.1-0.6V23c0,0,0,0,0,0c0-0.4-0.1-0.8-0.4-1.1c-0.3-0.3-0.6-0.5-1-0.5
		c-1.3-0.2-2.6-0.5-3.8-1c-0.3-0.1-0.6-0.1-0.9-0.1c-0.3,0.1-0.6,0.2-0.8,0.4l-1.6,1.6c-0.3,0.3-0.8,0.4-1.2,0.2
		c-3.4-1.9-6.2-4.7-8.1-8.1c-0.2-0.4-0.2-0.9,0.2-1.2l1.6-1.6c0.2-0.2,0.4-0.5,0.4-0.8c0.1-0.3,0-0.6-0.1-0.9
		c-0.5-1.2-0.8-2.5-1-3.8c-0.1-0.4-0.2-0.7-0.5-1C9.7,4.9,9.4,4.8,9,4.8z M24.3,13.8c-0.3,0-0.5-0.1-0.7-0.3l-5.1-5.1
		c-0.3-0.3-0.4-0.8-0.2-1.2c0.2-0.4,0.6-0.6,1.1-0.5c1.5,0.3,2.8,1,3.8,2c1.1,1.1,1.8,2.4,2,3.8c0.1,0.4-0.1,0.9-0.5,1.1
		C24.7,13.7,24.5,13.8,24.3,13.8z M29.5,13.7c-0.3,0-0.5-0.1-0.7-0.3L18.5,3.2c-0.3-0.3-0.4-0.8-0.2-1.1c0.2-0.4,0.6-0.6,1-0.6
		c2.8,0.3,5.5,1.6,7.5,3.6c2,2,3.3,4.7,3.6,7.5c0,0.4-0.2,0.8-0.6,1C29.8,13.7,29.6,13.7,29.5,13.7z M22.7,4.6l4.7,4.7
		c-0.5-1-1.2-1.9-2-2.7C24.6,5.7,23.7,5.1,22.7,4.6z"/>
</g>
</svg>
