<?xml version="1.0" encoding="utf-8"?>
<!-- Generator: Adobe Illustrator 24.0.2, SVG Export Plug-In . SVG Version: 6.00 Build 0)  -->
<svg version="1.1" id="Capa_1" xmlns="http://www.w3.org/2000/svg" xmlns:xlink="http://www.w3.org/1999/xlink" x="0px" y="0px"
	 viewBox="0 0 433 92" style="enable-background:new 0 0 433 92;" xml:space="preserve">
<style type="text/css">
	.st0{fill:#FFFFFF;}
</style>
<path class="st0" d="M428.1,21.5c-0.2,0-0.5,0-0.7-0.1c-1-0.2-2-0.8-2.6-1.7s-0.9-1.9-0.7-3.1c0.2-1,0.8-2,1.7-2.6
	c0.9-0.6,1.9-0.9,3.1-0.7c1,0.2,2,0.8,2.6,1.7c0.6,0.9,0.9,1.9,0.7,3.1c-0.2,1-0.8,2-1.7,2.6C429.8,21.3,428.9,21.5,428.1,21.5z
	 M428.1,14.2c-0.7,0-1.3,0.2-1.9,0.6c-0.7,0.5-1.2,1.2-1.3,2.1c-0.1,0.8,0.1,1.7,0.6,2.4c0.5,0.7,1.2,1.2,2.1,1.3
	c0.8,0.1,1.7-0.1,2.4-0.6c0.7-0.5,1.2-1.3,1.3-2.1c0.1-0.8-0.1-1.7-0.6-2.4c-0.5-0.7-1.2-1.2-2.1-1.3
	C428.4,14.2,428.2,14.2,428.1,14.2z"/>
<path class="st0" d="M427,15.7c0.2-0.1,0.6-0.1,0.9-0.1c0.5,0,0.8,0.1,1,0.3c0.2,0.1,0.3,0.4,0.3,0.7c0,0.5-0.3,0.8-0.7,0.9
	c0.3,0.1,0.4,0.3,0.6,0.7c0.1,0.5,0.2,0.8,0.3,1h-0.5c-0.1-0.1-0.1-0.4-0.2-0.8c-0.1-0.5-0.3-0.7-0.7-0.7h-0.4v1.5h-0.5L427,15.7
	L427,15.7z M427.5,17.4h0.5c0.5,0,0.8-0.3,0.8-0.7c0-0.5-0.3-0.7-0.8-0.7c-0.2,0-0.4,0-0.5,0.1V17.4z"/>
<path class="st0" d="M13.4,49.1V25L0.5,15.8l-0.2-0.1v33.5H13.4z"/>
<path class="st0" d="M0.5,0H0.3v10.3l13.1,9.4V9.7L0.5,0z"/>
<path class="st0" d="M155.4,19.7c2.2,1.4,4,3.3,5.1,5.8c1.2,2.5,1.8,5.5,1.8,8.8c0,3.3-0.6,6.2-1.7,8.6c-1.2,2.4-2.8,4.4-5,5.7
	s-4.7,2-7.6,2c-1.7,0-3.3-0.3-4.7-1c-1.5-0.6-2.7-1.6-3.8-2.8v14.7h-13.2V18.1h13.2v3.2c2.1-2.4,4.8-3.7,8.1-3.7
	C150.5,17.6,153.1,18.3,155.4,19.7z M147.7,38.5c0.9-1.1,1.3-2.6,1.3-4.5c0-1.9-0.4-3.4-1.3-4.5c-0.9-1.1-2-1.7-3.5-1.7
	c-1.5,0-2.6,0.6-3.5,1.7c-0.8,1.1-1.3,2.6-1.3,4.5c0,1.9,0.4,3.4,1.3,4.5c0.8,1.1,2,1.7,3.5,1.7C145.6,40.2,146.8,39.7,147.7,38.5z"
	/>
<path class="st0" d="M182.9,18.9c1.7-0.9,3.5-1.4,5.6-1.4v11.9c-0.8-0.1-1.7-0.2-2.5-0.2c-2.3,0-4,0.5-5.3,1.5
	c-1.3,1-1.9,2.4-1.9,4.1V50h-13.2V18.1h13.2v4.7C179.8,21.1,181.2,19.8,182.9,18.9z"/>
<path class="st0" d="M216.6,19.7c2.7,1.3,4.9,3.3,6.3,5.8c1.5,2.5,2.2,5.3,2.2,8.7c0,3.3-0.8,6.3-2.2,8.7c-1.5,2.5-3.6,4.4-6.3,5.8
	c-2.7,1.4-5.9,2.1-9.5,2.1c-3.6,0-6.8-0.7-9.5-2.1c-2.7-1.4-4.9-3.3-6.3-5.8c-1.5-2.5-2.2-5.3-2.2-8.7c0-3.3,0.8-6.3,2.2-8.7
	c1.5-2.5,3.6-4.4,6.3-5.8c2.7-1.3,5.9-2,9.5-2C210.7,17.6,213.9,18.3,216.6,19.7z M203.6,29.8c-0.9,1.1-1.3,2.6-1.3,4.5
	c0,1.9,0.4,3.4,1.3,4.5c0.9,1.1,2,1.7,3.5,1.7c1.5,0,2.6-0.6,3.5-1.7c0.9-1.1,1.3-2.6,1.3-4.5c0-1.9-0.4-3.4-1.3-4.5
	c-0.9-1.1-2-1.7-3.5-1.7C205.7,28.1,204.5,28.6,203.6,29.8z"/>
<path class="st0" d="M242.7,59.7c-2.3,1.6-5.2,2.4-8.6,2.4c-2.1,0-4-0.3-5.8-0.9c-1.8-0.6-3.5-1.5-5.3-2.8l5.5-8.7
	c1.4,1.3,2.8,1.9,4.3,1.9c1.5,0,2.6-0.6,3.2-1.7l0.5-0.8l-13.3-31h13.5l6.3,18.3l5.2-18.3h13.1l-13.2,34.2
	C246.8,55.7,245,58.1,242.7,59.7z"/>
<path class="st0" d="M286.1,19.8c2.6,1.5,4.6,3.5,5.9,6.2c1.4,2.7,2.1,5.8,2.1,9.4c0,0.8,0,1.3-0.1,1.7h-20.8c0.4,1.3,1.1,2.2,2,2.8
	c0.9,0.6,2,1,3.3,1c2.3,0,4.4-1,6.5-2.8l6.9,6.7c-1.7,1.9-3.8,3.4-6.2,4.4c-2.4,1-5.2,1.5-8.3,1.5c-3.6,0-6.7-0.7-9.4-2
	s-4.7-3.3-6-5.7c-1.4-2.4-2.1-5.3-2.1-8.6c0-3.3,0.7-6.3,2.1-8.8c1.4-2.5,3.4-4.4,6-5.8c2.6-1.4,5.6-2.1,9-2.1
	C280.4,17.6,283.5,18.4,286.1,19.8z M279.8,27.7c-0.7-0.8-1.7-1.3-2.8-1.3c-1.1,0-2,0.4-2.7,1.3c-0.7,0.8-1.2,1.9-1.5,3.3h8
	C280.9,29.7,280.6,28.6,279.8,27.7z"/>
<path class="st0" d="M312.4,28.3c-1.3,0-2.3,0.6-3.1,1.6c-0.8,1-1.1,2.5-1.1,4.3c0,1.8,0.3,3.3,1.1,4.4c0.8,1,1.8,1.6,3.1,1.6
	c1.9,0,3.3-1.2,4-3.5l10.7,4.9c-1.2,2.8-3.1,5.1-5.8,6.6c-2.7,1.5-5.8,2.4-9.5,2.4c-3.3,0-6.3-0.7-8.8-2c-2.6-1.3-4.5-3.3-5.9-5.7
	c-1.4-2.4-2.1-5.3-2.1-8.6c0-3.3,0.7-6.3,2.1-8.8c1.4-2.5,3.3-4.4,5.9-5.8c2.6-1.4,5.6-2.1,9-2.1c3.5,0,6.5,0.8,9.2,2.4
	c2.6,1.6,4.7,3.9,6,6.8l-10.5,4.4C315.7,29.3,314.3,28.3,312.4,28.3z"/>
<path class="st0" d="M352,48.8c-1,0.6-2.4,1.1-4.1,1.5c-1.7,0.3-3.4,0.6-5.2,0.6c-3.6,0-6.5-1-8.6-3c-2.2-1.9-3.3-4.6-3.3-7.9V28.2
	h-4.4v-8.3h4.4v-9h13.1v9h7.5v8.3h-7.5v9.7c0,0.8,0.2,1.5,0.7,2c0.5,0.5,1.1,0.7,1.9,0.7c0.8,0,1.8-0.3,3.3-0.8L352,48.8z"/>
<path class="st0" d="M380.4,19.7c2.7,1.3,4.9,3.3,6.3,5.8s2.2,5.3,2.2,8.7c0,3.3-0.8,6.3-2.2,8.7c-1.5,2.5-3.6,4.4-6.3,5.8
	c-2.7,1.4-5.9,2.1-9.5,2.1c-3.6,0-6.8-0.7-9.5-2.1c-2.7-1.4-4.9-3.3-6.3-5.8c-1.5-2.5-2.2-5.3-2.2-8.7c0-3.3,0.8-6.3,2.2-8.7
	c1.5-2.5,3.6-4.4,6.3-5.8c2.7-1.3,5.9-2,9.5-2C374.5,17.6,377.7,18.3,380.4,19.7z M367.4,29.8c-0.9,1.1-1.3,2.6-1.3,4.5
	c0,1.9,0.4,3.4,1.3,4.5c0.9,1.1,2,1.7,3.5,1.7c1.5,0,2.6-0.6,3.5-1.7c0.9-1.1,1.3-2.6,1.3-4.5c0-1.9-0.4-3.4-1.3-4.5
	c-0.9-1.1-2-1.7-3.5-1.7C369.5,28.1,368.3,28.6,367.4,29.8z"/>
<path class="st0" d="M405,26.2c-0.6,0-1,0.1-1.3,0.3c-0.3,0.2-0.5,0.4-0.5,0.8c0,0.5,0.3,0.8,1,1.2c0.7,0.3,1.9,0.7,3.5,1.1
	c2.3,0.6,4.3,1.3,5.9,1.9c1.7,0.7,3.1,1.7,4.3,3.1c1.2,1.4,1.9,3.1,1.9,5.3c0,2.2-0.6,4.1-1.8,5.8c-1.2,1.7-2.8,2.9-5.1,3.8
	c-2.2,0.9-4.7,1.3-7.6,1.3c-6,0-11.2-1.5-15.6-4.6l4-8.2c4.3,2.6,8.3,4,11.8,4c0.6,0,1.1-0.1,1.5-0.3c0.3-0.2,0.6-0.4,0.6-0.7
	c0-0.4-0.3-0.8-1-1.1c-0.7-0.3-1.8-0.6-3.3-1c-2.3-0.6-4.2-1.2-5.8-1.9c-1.6-0.7-3-1.7-4.2-3.1c-1.2-1.4-1.9-3.2-1.9-5.4
	s0.6-4.2,1.7-5.8c1.2-1.7,2.8-2.9,4.9-3.9c2.2-0.9,4.6-1.4,7.4-1.4c5.1,0,10.1,1.3,14.9,4l-4.3,8.1C411.1,27.4,407.5,26.2,405,26.2z
	"/>
<path class="st0" d="M86.8,17.4v29.4c0,2.9-0.8,5.5-2.2,7.7c-1.5,2.2-3.6,3.9-6.3,5.1c-2.7,1.2-5.8,1.8-9.4,1.8
	c-2.9,0-5.8-0.4-8.4-1.2c-2.7-0.8-4.9-1.8-6.7-3l4.2-8.8c1.4,0.8,2.9,1.5,4.7,2.1c1.8,0.5,3.5,0.8,5.1,0.8c1.9,0,3.4-0.3,4.4-1.1
	c1-0.7,1.5-1.7,1.5-3v-3.1c-2,2.3-4.7,3.4-8.1,3.4c-2.5,0-4.7-0.6-6.7-1.9c-2-1.3-3.6-3.1-4.7-5.4c-1.1-2.4-1.7-5.1-1.7-8.1
	c0-3,0.6-5.6,1.7-7.9c1.1-2.3,2.6-4,4.6-5.3c1.9-1.3,4.2-1.9,6.7-1.9c3.4,0,6.2,1.2,8.3,3.5v-3L86.8,17.4L86.8,17.4z M72.4,36.6
	c0.8-1,1.2-2.4,1.2-4.2c0-1.7-0.4-3.2-1.2-4.2c-0.8-1-1.9-1.6-3.3-1.6c-1.4,0-2.4,0.6-3.3,1.6c-0.8,1-1.2,2.4-1.2,4.2
	c0,1.7,0.4,3.1,1.3,4.2c0.8,1,1.9,1.6,3.2,1.6C70.5,38.2,71.5,37.7,72.4,36.6z"/>
<path class="st0" d="M115.6,19.2c2.6,1.5,4.6,3.5,5.9,6.2c1.4,2.7,2.1,5.8,2.1,9.4c0,0.8,0,1.3-0.1,1.7h-20.8c0.4,1.2,1.1,2.2,2,2.8
	s2,1,3.3,1c2.3,0,4.4-1,6.5-2.8l6.9,6.7c-1.7,1.9-3.8,3.4-6.3,4.4c-2.4,1-5.2,1.5-8.3,1.5c-3.6,0-6.7-0.7-9.4-2
	c-2.6-1.3-4.7-3.3-6-5.7c-1.4-2.4-2.1-5.3-2.1-8.6c0-3.3,0.7-6.3,2.1-8.8c1.4-2.5,3.4-4.4,6-5.8c2.6-1.4,5.6-2.1,9-2.1
	C110,17,113,17.7,115.6,19.2z M109.4,27.1c-0.7-0.8-1.7-1.3-2.8-1.3s-2,0.4-2.7,1.2c-0.7,0.8-1.2,1.9-1.5,3.3h8
	C110.4,29,110.1,27.9,109.4,27.1z"/>
<path class="st0" d="M29.9,31.5c0.7-2.7,2.6-3.8,4.7-3.8c2.4,0,3.9,1.5,3.9,5.5v4.4l13.1,9.4V31c0-10-5.7-14.2-13-14.2
	c-3.7,0-7.1,1.2-9.6,3.7v-3.1H16.5v4.5L29.9,31.5z"/>
<path class="st0" d="M16.5,27.2v21.9h13.1V36.7L16.5,27.2z"/>
<path class="st0" d="M38.4,43v6.1h8.5L38.4,43z"/>
<path class="st0" d="M54.3,68h2.6v18.6h-2.6V68z"/>
<path class="st0" d="M73.6,73.9c1,1,1.4,2.3,1.4,4v8.7h-2.5v-8c0-1.2-0.3-2.1-1-2.8c-0.7-0.7-1.6-1-2.8-1c-1.2,0-2.3,0.4-3.1,1.2
	c-0.8,0.8-1.3,1.8-1.3,3.1v7.5h-2.5v-14h2.5v3c1-2,2.7-3,5.3-3.1C71.3,72.4,72.6,72.9,73.6,73.9z"/>
<path class="st0" d="M91.8,72.5v12.6c0,1.3-0.3,2.5-0.9,3.5c-0.6,1-1.5,1.8-2.5,2.3c-1.1,0.6-2.4,0.8-3.8,0.8c-2.1,0-4-0.6-5.8-1.9
	l1.1-1.8c0.7,0.6,1.4,1,2.2,1.2c0.8,0.3,1.5,0.4,2.4,0.4c1.5,0,2.6-0.4,3.5-1.3c0.8-0.8,1.3-1.9,1.3-3.3v-1.9
	c-0.5,0.8-1.2,1.5-2,1.9c-0.8,0.5-1.8,0.7-2.9,0.7c-1.2,0-2.4-0.3-3.3-0.8c-1-0.6-1.7-1.4-2.2-2.4c-0.6-1-0.8-2.2-0.8-3.5
	c0-1.3,0.3-2.5,0.8-3.5c0.6-1,1.2-1.8,2.2-2.4c1-0.6,2.1-0.8,3.3-0.8c1.1,0,2.1,0.2,2.9,0.7c0.8,0.5,1.5,1.1,2,1.9v-2.6H91.8z
	 M87.1,83.3c0.7-0.4,1.2-1,1.6-1.7c0.3-0.7,0.6-1.5,0.6-2.4c0-0.9-0.2-1.7-0.6-2.4c-0.3-0.7-0.9-1.3-1.6-1.7
	c-0.7-0.4-1.5-0.6-2.3-0.6c-0.8,0-1.7,0.2-2.3,0.6c-0.7,0.4-1.3,1-1.6,1.7c-0.4,0.7-0.6,1.5-0.6,2.4c0,1.4,0.4,2.5,1.3,3.4
	c0.8,0.9,1.9,1.3,3.3,1.3C85.7,84,86.5,83.8,87.1,83.3z"/>
<path class="st0" d="M106.8,74.4c1.1,1.3,1.7,3.1,1.7,5.3c0,0.3,0,0.6,0,0.8H97.4c0.2,1.3,0.7,2.2,1.6,3c0.8,0.8,1.9,1.1,3.2,1.1
	c0.8,0,1.6-0.1,2.3-0.5c0.7-0.3,1.3-0.7,1.9-1.3l1.3,1.4c-0.7,0.8-1.5,1.3-2.5,1.7c-1,0.4-2.1,0.6-3.3,0.6c-1.4,0-2.6-0.3-3.7-0.9
	c-1-0.6-1.9-1.5-2.5-2.5c-0.6-1.1-0.9-2.3-0.9-3.7c0-1.4,0.3-2.6,0.9-3.7c0.6-1,1.4-1.9,2.5-2.5c1-0.6,2.3-0.9,3.6-0.9
	C104.1,72.4,105.7,73.1,106.8,74.4z M106.3,78.6c-0.1-1.3-0.5-2.3-1.2-3c-0.8-0.8-1.8-1.1-3.1-1.1c-1.3,0-2.3,0.3-3.1,1.1
	c-0.8,0.8-1.3,1.7-1.5,3H106.3z"/>
<path class="st0" d="M123.6,73.9c1,1,1.4,2.3,1.4,4v8.7h-2.4v-8c0-1.2-0.3-2.1-1-2.8c-0.7-0.7-1.6-1-2.8-1c-1.2,0-2.3,0.4-3.1,1.2
	c-0.8,0.8-1.2,1.8-1.3,3.1v7.5h-2.5v-14h2.5v3c1-2,2.7-3,5.3-3.1C121.3,72.4,122.7,72.9,123.6,73.9z"/>
<path class="st0" d="M131.7,67.4c0.3,0.3,0.4,0.7,0.4,1.1c0,0.5-0.1,0.8-0.4,1.1s-0.7,0.5-1.1,0.5c-0.4,0-0.8-0.1-1.1-0.5
	c-0.3-0.3-0.4-0.7-0.4-1.1c0-0.5,0.1-0.8,0.4-1.1c0.3-0.3,0.6-0.5,1.1-0.5C131.1,66.9,131.4,67.1,131.7,67.4z M129.4,72.5h2.5v14
	h-2.5V72.5z"/>
<path class="st0" d="M147.2,74.4c1.1,1.3,1.7,3.1,1.7,5.3c0,0.3,0,0.6,0,0.8h-11.1c0.2,1.3,0.7,2.2,1.6,3c0.8,0.8,1.9,1.1,3.2,1.1
	c0.8,0,1.6-0.1,2.3-0.5c0.7-0.3,1.3-0.7,1.9-1.3l1.3,1.4c-0.7,0.8-1.5,1.3-2.5,1.7c-1,0.4-2.1,0.6-3.3,0.6c-1.4,0-2.6-0.3-3.7-0.9
	c-1-0.6-1.9-1.5-2.5-2.5c-0.6-1.1-0.9-2.3-0.9-3.7c0-1.4,0.3-2.6,0.9-3.7c0.6-1,1.4-1.9,2.5-2.5c1-0.6,2.3-0.9,3.6-0.9
	C144.5,72.4,146.1,73.1,147.2,74.4z M146.7,78.6c-0.1-1.3-0.5-2.3-1.2-3c-0.8-0.8-1.8-1.1-3.1-1.1c-1.2,0-2.3,0.3-3.1,1.1
	c-0.8,0.8-1.3,1.7-1.5,3H146.7z"/>
<path class="st0" d="M156.7,73.3c0.8-0.6,1.9-0.8,3.1-0.8v2.4c-1.5-0.1-2.6,0.3-3.5,1.1c-0.9,0.8-1.4,1.9-1.5,3.2v7.4h-2.5v-14h2.5
	v3.1C155.2,74.5,155.9,73.8,156.7,73.3z"/>
<path class="st0" d="M165.1,66.6l2.6,1.1l-3.3,2.6l-2.1-0.3L165.1,66.6z M162.5,72.5h2.5v14h-2.5V72.5z"/>
<path class="st0" d="M178.3,86.6v-1.9c-1,1.4-2.7,2.1-4.9,2.1c-1,0-1.8-0.2-2.6-0.6c-0.8-0.3-1.3-0.9-1.7-1.5
	c-0.4-0.6-0.6-1.4-0.6-2.2c0-1.2,0.5-2.2,1.4-3s2.2-1.1,3.9-1.1h4.4v-0.7c0-1-0.3-1.7-0.9-2.3c-0.6-0.6-1.5-0.8-2.6-0.8
	c-1.4,0-2.8,0.5-4.3,1.5l-1-1.7c1-0.6,1.9-1.1,2.8-1.4c0.8-0.3,1.9-0.4,3.1-0.4c1.7,0,3.1,0.4,4,1.3c1,0.8,1.5,2.1,1.5,3.6v9.2h-2.4
	V86.6z M176.8,83.8c0.8-0.6,1.3-1.3,1.5-2.2v-1.4h-4.1c-1.1,0-1.9,0.1-2.5,0.5c-0.6,0.3-0.8,0.8-0.8,1.6c0,0.7,0.3,1.3,0.8,1.7
	c0.6,0.4,1.2,0.6,2.2,0.6C175,84.7,176,84.4,176.8,83.8z"/>
<path class="st0" d="M205.6,86.9l-3.1-3c-0.8,0.8-1.7,1.5-2.7,2c-1,0.5-1.9,0.7-3,0.7c-1,0-2-0.2-2.8-0.7c-0.8-0.4-1.5-1-2.1-1.9
	c-0.6-0.8-0.8-1.7-0.8-2.6c0-1.2,0.3-2.2,1.1-3c0.8-0.8,1.7-1.5,3.1-2.2c-0.6-0.8-1.1-1.6-1.4-2.3c-0.3-0.7-0.5-1.4-0.5-2.1
	c0-1.2,0.4-2.2,1.3-2.9c0.8-0.8,2-1.1,3.4-1.1c1.3,0,2.4,0.3,3.3,1c0.8,0.7,1.2,1.6,1.2,2.7c0,0.8-0.2,1.5-0.6,2.1
	c-0.4,0.6-1,1.1-1.6,1.6c-0.6,0.4-1.4,0.9-2.4,1.4c0.9,1,2.3,2.5,4.3,4.4c0.7-1.1,1.3-2.2,1.8-3.5l1.7,1.2c-0.6,1.3-1.3,2.5-2,3.7
	l3.1,3.1L205.6,86.9z M201.2,82.6c-2.1-2.1-3.7-3.8-4.8-5c-1,0.6-1.7,1.1-2.3,1.7c-0.6,0.6-0.8,1.3-0.8,2c0,1,0.3,1.8,1,2.4
	c0.7,0.6,1.6,1,2.6,1C198.4,84.8,199.8,84,201.2,82.6z M197,75.5c1.2-0.6,2.1-1.2,2.7-1.7c0.6-0.6,0.9-1.2,0.9-2
	c0-0.7-0.2-1.2-0.7-1.6c-0.4-0.4-1-0.6-1.8-0.6c-0.8,0-1.5,0.2-1.9,0.7c-0.5,0.5-0.8,1-0.8,1.7C195.5,72.9,196,74.1,197,75.5z"/>
<path class="st0" d="M230.4,86.6l-1.9-4.5h-9.8l-1.9,4.5h-2.7l8.3-18.6h2.6l8.3,18.6H230.4z M219.7,79.7h7.8l-4-9L219.7,79.7z"/>
<path class="st0" d="M240.2,73.3c0.8-0.6,1.9-0.8,3.1-0.8v2.4c-1.5-0.1-2.6,0.3-3.5,1.1c-0.9,0.8-1.4,1.9-1.5,3.2v7.4h-2.5v-14h2.5
	v3.1C238.6,74.5,239.3,73.8,240.2,73.3z"/>
<path class="st0" d="M258.9,72.5v19.2h-2.5v-7.9c-0.6,1-1.2,1.7-2.2,2.2c-0.9,0.5-1.9,0.8-3.1,0.8c-1.3,0-2.5-0.3-3.5-0.9
	c-1-0.6-1.8-1.5-2.4-2.6c-0.6-1.1-0.8-2.4-0.8-3.8c0-1.4,0.3-2.6,0.8-3.7c0.6-1,1.4-1.9,2.4-2.5s2.2-0.9,3.5-0.9
	c1.2,0,2.2,0.3,3.1,0.8c0.9,0.5,1.6,1.2,2.2,2.2v-2.8H258.9z M254.2,84c0.7-0.4,1.2-1,1.7-1.8s0.6-1.6,0.6-2.6c0-1-0.2-1.9-0.6-2.6
	c-0.4-0.8-1-1.3-1.7-1.8c-0.7-0.4-1.5-0.6-2.4-0.6s-1.7,0.2-2.4,0.6c-0.7,0.4-1.2,1-1.7,1.8c-0.4,0.8-0.6,1.6-0.6,2.6
	c0,1,0.2,1.8,0.6,2.6c0.4,0.8,1,1.4,1.7,1.8c0.7,0.4,1.5,0.6,2.4,0.6C252.6,84.6,253.4,84.4,254.2,84z"/>
<path class="st0" d="M276.3,72.5v14h-2.5v-3c-0.9,2-2.6,3-5.2,3.1c-1.6,0-2.9-0.5-3.8-1.5c-0.9-1-1.4-2.3-1.4-4v-8.7h2.5v8.1
	c0,1.2,0.3,2.1,1,2.8c0.6,0.7,1.5,1,2.6,1c1.3,0,2.4-0.5,3.1-1.4c0.8-0.9,1.2-2.1,1.2-3.5v-6.9L276.3,72.5L276.3,72.5z"/>
<path class="st0" d="M283.4,67.4c0.3,0.3,0.4,0.7,0.4,1.1c0,0.5-0.1,0.8-0.4,1.1c-0.3,0.3-0.7,0.5-1.1,0.5s-0.8-0.1-1.1-0.5
	c-0.3-0.3-0.4-0.7-0.4-1.1c0-0.5,0.1-0.8,0.4-1.1c0.3-0.3,0.6-0.5,1.1-0.5C282.8,66.9,283.2,67.1,283.4,67.4z M281.1,72.5h2.5v14
	h-2.5V72.5z"/>
<path class="st0" d="M295.9,85.6c-1.1,0.7-2.2,1-3.3,1c-1.1,0-2-0.3-2.7-1c-0.7-0.7-1-1.7-1-3v-7.8h-2v-1.9h2v-3.8h2.5v3.8h4.3v1.9
	h-4.3v7.4c0,0.8,0.1,1.3,0.4,1.7c0.3,0.3,0.7,0.5,1.2,0.5c0.7,0,1.4-0.2,2.2-0.7L295.9,85.6z"/>
<path class="st0" d="M309.3,74.4c1.1,1.3,1.7,3.1,1.7,5.3c0,0.3,0,0.6,0,0.8h-11.1c0.2,1.3,0.7,2.2,1.6,3c0.8,0.8,1.9,1.1,3.2,1.1
	c0.8,0,1.6-0.1,2.3-0.5c0.7-0.3,1.3-0.7,1.9-1.3l1.3,1.4c-0.7,0.8-1.5,1.3-2.5,1.7c-1,0.4-2.1,0.6-3.3,0.6c-1.4,0-2.6-0.3-3.7-0.9
	c-1-0.6-1.9-1.5-2.5-2.5c-0.6-1.1-0.9-2.3-0.9-3.7c0-1.4,0.3-2.6,0.9-3.7c0.6-1,1.4-1.9,2.5-2.5c1-0.6,2.3-0.9,3.6-0.9
	C306.6,72.4,308.2,73.1,309.3,74.4z M308.8,78.6c-0.1-1.3-0.5-2.3-1.2-3c-0.8-0.8-1.8-1.1-3.1-1.1s-2.3,0.3-3.1,1.1
	c-0.8,0.8-1.3,1.7-1.5,3H308.8z"/>
<path class="st0" d="M320.2,74.7c-0.9,0-1.7,0.2-2.4,0.6c-0.7,0.4-1.2,1-1.7,1.7c-0.4,0.8-0.6,1.6-0.6,2.6c0,1,0.2,1.8,0.6,2.6
	c0.4,0.8,1,1.3,1.7,1.7c0.7,0.4,1.5,0.6,2.4,0.6c0.9,0,1.7-0.1,2.4-0.5c0.7-0.3,1.3-0.8,1.8-1.3l1.4,1.5c-0.6,0.8-1.5,1.4-2.4,1.8
	c-1,0.4-2.1,0.6-3.3,0.6c-1.4,0-2.6-0.3-3.6-0.9c-1-0.6-1.9-1.5-2.5-2.5s-0.9-2.3-0.9-3.7c0-1.4,0.3-2.6,0.9-3.7
	c0.6-1.1,1.4-1.9,2.5-2.5c1-0.6,2.3-0.9,3.6-0.9c1.2,0,2.2,0.2,3.2,0.6c1,0.3,1.7,0.9,2.4,1.6l-1.3,1.7
	C323.1,75.2,321.8,74.7,320.2,74.7z"/>
<path class="st0" d="M336.8,85.6c-1.1,0.7-2.2,1-3.3,1c-1.1,0-2-0.3-2.7-1c-0.7-0.7-1-1.7-1-3v-7.8h-2v-1.9h2v-3.8h2.5v3.8h4.3v1.9
	h-4.4v7.4c0,0.8,0.1,1.3,0.4,1.7c0.3,0.3,0.7,0.5,1.2,0.5c0.7,0,1.4-0.2,2.2-0.7L336.8,85.6z"/>
<path class="st0" d="M352.3,72.5v14h-2.5v-3c-0.9,2-2.6,3-5.2,3.1c-1.6,0-2.9-0.5-3.8-1.5c-0.9-1-1.4-2.3-1.4-4v-8.7h2.5v8.1
	c0,1.2,0.3,2.1,1,2.8c0.6,0.7,1.5,1,2.6,1c1.3,0,2.4-0.5,3.1-1.4c0.8-0.9,1.2-2.1,1.2-3.5v-6.9L352.3,72.5L352.3,72.5z"/>
<path class="st0" d="M361.5,73.3c0.8-0.6,1.9-0.8,3.1-0.8v2.4c-1.5-0.1-2.6,0.3-3.5,1.1c-0.9,0.8-1.4,1.9-1.5,3.2v7.4H357v-14h2.5
	v3.1C360,74.5,360.7,73.8,361.5,73.3z"/>
<path class="st0" d="M375.2,86.6v-1.9c-1,1.4-2.7,2.1-4.9,2.1c-1,0-1.8-0.2-2.6-0.6c-0.8-0.3-1.3-0.9-1.7-1.5
	c-0.4-0.6-0.6-1.4-0.6-2.2c0-1.2,0.5-2.2,1.4-3c0.9-0.8,2.2-1.1,3.9-1.1h4.4v-0.7c0-1-0.3-1.7-0.9-2.3c-0.6-0.6-1.5-0.8-2.6-0.8
	c-1.4,0-2.8,0.5-4.3,1.5l-1-1.7c1-0.6,1.9-1.1,2.8-1.4c0.8-0.3,1.9-0.4,3.1-0.4c1.7,0,3.1,0.4,4,1.3c1,0.8,1.5,2.1,1.5,3.6v9.2h-2.4
	V86.6z M373.7,83.8c0.8-0.6,1.3-1.3,1.5-2.2v-1.4h-4.1c-1.1,0-1.9,0.1-2.5,0.5c-0.6,0.3-0.8,0.8-0.8,1.6c0,0.7,0.3,1.3,0.8,1.7
	c0.6,0.4,1.3,0.6,2.2,0.6C371.9,84.7,372.9,84.4,373.7,83.8z"/>
</svg>
