<svg width="21" height="15" viewBox="0 0 21 15" fill="none" xmlns="http://www.w3.org/2000/svg">
<path d="M10.5 14C8.85987 14.0204 7.2367 13.6664 5.754 12.965C4.60469 12.4042 3.57265 11.6298 2.713 10.683C1.80243 9.70412 1.08547 8.56166 0.6 7.316L0.5 7L0.605 6.684C1.09082 5.43943 1.80624 4.29727 2.714 3.317C3.57334 2.37031 4.60504 1.59586 5.754 1.035C7.23671 0.333588 8.85988 -0.0203891 10.5 -1.4063e-07C12.1401 -0.0203539 13.7633 0.333622 15.246 1.035C16.3953 1.59573 17.4274 2.37019 18.287 3.317C19.1993 4.29456 19.9165 5.43736 20.4 6.684L20.5 7L20.395 7.316C18.8262 11.3998 14.8742 14.0693 10.5 14ZM10.5 2C7.09587 1.89333 3.97142 3.8751 2.617 7C3.9712 10.1251 7.09579 12.107 10.5 12C13.9041 12.1064 17.0284 10.1247 18.383 7C17.0304 3.87358 13.9047 1.89108 10.5 2ZM10.5 10C9.05733 10.0096 7.80937 8.99736 7.52097 7.58377C7.23256 6.17019 7.98427 4.75002 9.31538 4.19366C10.6465 3.6373 12.1852 4.10013 12.9885 5.29851C13.7919 6.49688 13.6354 8.09608 12.615 9.116C12.0563 9.68126 11.2948 9.99957 10.5 10Z" fill="#506883"/>
</svg>
