<svg width="22" height="22" viewBox="0 0 22 22" fill="none" xmlns="http://www.w3.org/2000/svg">
<path d="M16.7689 9.70837H4.41289C3.43802 9.70837 2.64774 10.4987 2.64774 11.4735V17.6516C2.64774 18.6264 3.43802 19.4167 4.41289 19.4167H16.7689C17.7438 19.4167 18.5341 18.6264 18.5341 17.6516V11.4735C18.5341 10.4987 17.7438 9.70837 16.7689 9.70837Z" stroke="#506883" stroke-width="2" stroke-linecap="round" stroke-linejoin="round"/>
<path d="M6.17804 9.70832V6.17802C6.17804 5.00765 6.64297 3.88521 7.47054 3.05764C8.29812 2.23006 9.42055 1.76514 10.5909 1.76514C11.7613 1.76514 12.8837 2.23006 13.7113 3.05764C14.5389 3.88521 15.0038 5.00765 15.0038 6.17802V9.70832" stroke="#506883" stroke-width="2" stroke-linecap="round" stroke-linejoin="round"/>
</svg>
