<?xml version="1.0" encoding="utf-8"?>
<!-- Generator: Adobe Illustrator 24.0.2, SVG Export Plug-In . SVG Version: 6.00 Build 0)  -->
<svg version="1.1" id="Capa_1" xmlns="http://www.w3.org/2000/svg" xmlns:xlink="http://www.w3.org/1999/xlink" x="0px" y="0px"
	 viewBox="0 0 141.7 141.7" style="enable-background:new 0 0 141.7 141.7;" xml:space="preserve">
<style type="text/css">
	.st0{fill-rule:evenodd;clip-rule:evenodd;fill:#FFFFFF;}
</style>
<path class="st0" d="M48.2,22.7c3.1-3,7.3-4.6,11.7-4.6h22c4.4,0,8.6,1.7,11.7,4.6s4.8,7,4.8,11.2v5.3h16.5
	c9.1,0,16.5,7.1,16.5,15.8v52.8c0,8.7-7.4,15.8-16.5,15.8h-88c-9.1,0-16.5-7.1-16.5-15.8V55c0-8.7,7.4-15.8,16.5-15.8h16.5v-5.3
	C43.4,29.7,45.1,25.7,48.2,22.7z M43.4,49.7H26.9c-3,0-5.5,2.4-5.5,5.3v52.8c0,2.9,2.5,5.3,5.5,5.3h16.5V49.7z M54.4,113.1V49.7h33
	v63.4H54.4z M98.4,113.1h16.5c3,0,5.5-2.4,5.5-5.3V55c0-2.9-2.5-5.3-5.5-5.3H98.4V113.1z M87.4,39.2h-33v-5.3c0-1.4,0.6-2.7,1.6-3.7
	c1-1,2.4-1.5,3.9-1.5h22c1.5,0,2.9,0.6,3.9,1.5c1,1,1.6,2.3,1.6,3.7V39.2z"/>
</svg>
