<svg width="807" height="867" viewBox="0 0 807 867" fill="none" xmlns="http://www.w3.org/2000/svg">
<path d="M238.645 48.5538C241.907 60.7146 246.5 72.7549 251.971 84.0742C254.69 89.8689 257.735 95.1531 261.039 100.467C264.344 105.781 267.974 110.585 272.449 114.938C276.664 119.261 281.205 123.073 286.463 125.324C291.46 127.544 297.596 129.074 303.538 130.033C309.479 130.992 315.519 131.14 321.106 130.688C326.985 129.996 332.703 128.463 337.74 126.029C339.138 125.368 340.275 124.677 341.413 123.986C342.551 123.295 343.721 122.333 344.859 121.642C346.908 119.96 348.762 117.707 349.804 115.635C350.847 113.563 351.37 111.43 350.788 109.719C350.627 108.878 350.206 108.007 349.525 107.107C349.298 106.806 348.844 106.206 348.358 105.876C347.871 105.546 347.644 105.245 347.158 104.915C345.471 103.625 343.685 103.145 341.282 103.416C339.138 103.717 336.669 104.528 334.393 105.91C332.118 107.292 330.069 108.974 328.475 111.257C326.913 113.27 325.578 115.582 324.795 117.685C323.358 123 322.862 129.246 323.47 135.072C323.785 141.138 324.913 147.023 326.886 152.458C327.856 155.31 329.119 157.922 330.414 160.264C331.71 162.606 333.524 165.008 335.599 167.439C339.489 172.273 343.639 177.136 347.43 182.781C349.179 185.723 351.188 188.695 352.644 191.878C354.068 195.331 355.199 199.024 355.745 203.198C356.031 207.342 355.505 211.666 353.972 215.6C353.581 216.652 353.223 217.432 352.831 218.484C352.473 219.264 351.822 220.286 351.204 221.037L349.316 223.56C348.698 224.311 347.82 225.031 347.202 225.782C346.91 226.023 346.584 226.533 346.032 226.744L344.861 227.705C343.983 228.426 343.398 228.907 342.52 229.628C340.83 230.529 339.107 231.701 337.45 232.332C334.102 233.864 330.821 234.856 327.572 235.578C321.042 237.292 314.87 238.224 309.672 239.817C306.943 240.599 304.44 241.681 302.458 242.823C301.58 243.544 300.475 243.964 299.564 244.956C298.394 245.917 297.516 246.638 296.605 247.629C292.962 251.594 289.999 256.46 288.043 261.715C286.086 266.971 285.136 272.617 285.224 278.382C285.122 281.385 285.28 284.418 285.471 287.181C285.566 288.562 285.629 290.214 285.984 291.625L286.757 296.099C286.852 297.48 287.467 298.921 287.822 300.333C288.177 301.744 288.532 303.155 288.887 304.567C289.857 307.419 290.567 310.241 291.797 313.124L293.415 317.147L295.292 321.201L296.361 323.242L297.429 325.284L299.566 329.367C305.656 339.936 313.176 349.573 321.314 358.459C329.451 367.345 338.467 375.51 348.101 382.924C357.768 390.068 368.053 396.461 378.73 401.803C382.948 403.934 384.694 409.069 382.576 413.483C380.459 417.898 375.487 419.792 371.269 417.661C371.269 417.661 371.269 417.661 371.009 417.631C359.359 411.629 348.361 404.605 338.013 396.561C327.666 388.516 318.229 379.48 309.411 369.693C300.885 359.666 292.944 349.158 286.467 337.449L284.103 333.066L283.067 330.754L282.031 328.442L279.96 323.818L278.181 318.954C276.984 315.801 276.08 312.408 274.883 309.255C274.301 307.544 273.979 305.862 273.657 304.181C273.334 302.499 272.752 300.788 272.69 299.136L272.082 293.311C271.76 291.629 271.73 289.707 271.668 288.056C271.316 284.452 271.484 280.909 271.359 277.606C271.434 270.489 272.842 263.251 275.548 256.164C278.221 249.346 282.193 242.679 287.3 237.512C289.999 234.809 292.633 232.646 296.339 230.332C299.719 228.53 303.326 227.027 306.575 226.305C313.138 224.321 319.536 223.689 325.254 222.156C327.983 221.374 330.939 220.893 333.182 219.781C334.546 219.39 335.424 218.669 336.562 217.978C337.114 217.768 337.44 217.257 337.992 217.047L338.578 216.566C338.87 216.326 338.903 216.055 339.163 216.085L340.366 214.854C340.692 214.343 341.017 213.833 341.31 213.592C341.636 213.082 341.961 212.571 342.287 212.061C342.612 211.55 342.678 211.009 343.003 210.499C343.786 208.397 344.082 205.964 344.085 203.772C343.865 199.088 341.34 193.863 338.262 188.849C334.925 183.805 331.035 178.972 327.178 173.868C325.137 171.166 323.354 168.494 321.378 165.252C319.662 162.039 318.205 158.856 317.041 155.433C314.94 148.888 313.684 141.891 313.208 134.985C312.991 128.108 313.326 121.021 315.513 113.874C316.786 109.909 319.031 106.606 321.244 103.572C323.684 100.839 326.61 98.4353 329.764 96.3323C332.884 94.4996 336.491 92.997 340.486 92.6355C344.481 92.2739 348.831 93.3236 352.205 95.905C352.918 96.5354 353.892 97.1958 354.572 98.0964C355.253 98.9971 355.966 99.6275 356.387 100.498C357.489 102.27 358.557 104.311 359.074 106.563C359.462 107.704 359.33 108.785 359.458 109.896C359.327 110.977 359.455 112.089 359.064 113.14C358.541 115.272 357.758 117.374 356.782 118.906C354.763 122.51 352.323 125.243 349.429 127.376C347.966 128.578 346.536 129.509 345.106 130.441C343.675 131.372 342.245 132.303 340.588 132.934C334.413 136.059 327.656 137.473 320.997 138.075C314.339 138.678 307.812 138.2 301.384 136.91C298.3 136.281 294.956 135.621 291.904 134.721C290.379 134.271 288.853 133.821 287.068 133.341C286.321 132.981 285.542 132.891 284.795 132.531L282.556 131.451C276.325 128.54 271.331 124.127 266.662 119.204C261.993 114.28 258.136 109.177 254.864 103.592C251.333 97.9778 248.354 92.1531 245.635 86.3583C240.976 74.8586 236.642 62.8483 233.479 49.8767C233.124 48.4654 233.841 46.9037 235.498 46.2726C236.83 46.152 238.323 46.8723 238.645 48.5538Z" fill="#E9C32E"/>
<path d="M235.815 50.1595L236.745 53.3279L231.479 55.2563L230.617 51.5379L235.815 50.1595Z" fill="#CDA527"/>
<path d="M238.978 59.9719L241.353 66.339L235.775 68.7781L233.468 61.8634L238.978 59.9719Z" fill="#CDA527"/>
<path d="M243.93 72.7303L246.566 79.126L240.954 81.8388L238.352 75.1693L243.93 72.7303Z" fill="#CDA527"/>
<path d="M249.454 85.2895L252.644 91.4688L246.964 94.7295L244.102 88.0311L249.454 85.2895Z" fill="#CDA527"/>
<path d="M256.137 97.1733L259.917 102.866L254.393 106.978L250.681 100.738L256.137 97.1733Z" fill="#CDA527"/>
<path d="M263.979 108.393L268.121 113.292L263.016 118.284L258.681 112.808L263.979 108.393Z" fill="#CDA527"/>
<path d="M273.089 118.143L278.15 122.035L273.948 128.24L268.208 123.441L273.089 118.143Z" fill="#CDA527"/>
<path d="M283.859 125.411C285.578 126.433 287.592 127.209 289.64 127.712L287.127 135.207C284.853 134.401 282.613 133.322 280.373 132.243L283.859 125.411Z" fill="#CDA527"/>
<path d="M296.083 129.615L302.513 130.877L301.009 138.749L294.319 137.459L296.083 129.615Z" fill="#CDA527"/>
<path d="M309.354 131.775L315.658 131.914L315.679 140.227L308.597 140.002L309.354 131.775Z" fill="#CDA527"/>
<path d="M322.343 131.739C324.491 131.421 326.639 131.103 328.561 130.483L330.437 138.729C327.995 139.292 325.553 139.856 323.145 140.145L322.343 131.739Z" fill="#CDA527"/>
<path d="M334.88 128.688C336.837 127.794 338.794 126.899 340.524 125.702L344.584 133.362C342.333 134.502 340.082 135.641 337.831 136.781L334.88 128.688Z" fill="#CDA527"/>
<path d="M345.62 122.459C347.127 120.957 348.373 119.426 349.359 117.867L356.404 122.812C354.795 125.136 352.96 127.158 350.898 128.877L345.62 122.459Z" fill="#CDA527"/>
<path d="M351.469 113.834C351.639 112.462 351.548 111.061 350.937 109.603L359.142 105.221C360.627 108.166 360.966 111.82 360.297 115.085L351.469 113.834Z" fill="#CDA527"/>
<path d="M347.451 106.013C346.254 105.05 344.989 104.634 343.43 104.463L344.357 94.8702C347.475 95.2131 350.491 96.3757 352.885 98.3009L347.451 106.013Z" fill="#CDA527"/>
<path d="M338.251 105.057C336.589 105.706 334.893 106.629 333.163 107.825L328.132 99.5066C330.416 98.094 332.701 96.6813 335.437 95.8731L338.251 105.057Z" fill="#CDA527"/>
<path d="M328.849 111.432C327.601 112.965 326.354 114.498 325.628 116.088L316.944 111.513C318.327 108.882 319.938 106.554 321.775 104.529L328.849 111.432Z" fill="#CDA527"/>
<path d="M323.927 121.271C323.392 123.447 323.119 125.653 323.107 127.888L313.139 127.068C313.446 124.587 313.788 121.83 314.357 119.377L323.927 121.271Z" fill="#CDA527"/>
<path d="M323.239 133.848L323.76 140.331L313.487 141.992L312.84 134.378L323.239 133.848Z" fill="#CDA527"/>
<path d="M324.976 146.483L326.836 152.817L316.829 156.73L314.845 149.267L324.976 146.483Z" fill="#CDA527"/>
<path d="M329.512 158.38C329.931 159.26 330.35 160.14 331.029 161.049L332.808 163.748L324.038 170.567L321.807 167.263C321.161 166.08 320.515 164.897 319.87 163.714L329.512 158.38Z" fill="#CDA527"/>
<path d="M337.198 168.776L341.272 174.223L332.703 181.611L328.369 176.135L337.198 168.776Z" fill="#CDA527"/>
<path d="M345.867 179.816L350.102 186.119L340.328 192.547L336.772 187.153L345.867 179.816Z" fill="#CDA527"/>
<path d="M353.977 192.947C354.976 195.567 355.975 198.188 356.383 201.301L344.745 203.367C344.428 201.658 344.144 199.674 343.304 197.908L353.977 192.947Z" fill="#CDA527"/>
<path d="M356.488 209.743C356.112 212.78 354.951 215.73 353.563 218.376L343.121 212.746C343.85 211.148 344.578 209.549 344.783 207.892L356.488 209.743Z" fill="#CDA527"/>
<path d="M348.032 225.657C345.904 227.921 343.324 229.58 341.038 230.994L335.563 219.843C337.26 218.92 338.697 217.968 339.908 216.713L348.032 225.657Z" fill="#CDA527"/>
<path d="M333.544 233.736L326.464 235.722L324.098 223.023L330.074 221.469L333.544 233.736Z" fill="#CDA527"/>
<path d="M319.117 236.876L312.887 238.4L310.265 225.684L317.013 224.217L319.117 236.876Z" fill="#CDA527"/>
<path d="M306.573 239.95C304.652 240.57 302.958 241.491 301.523 242.441L295.052 230.927C297.628 229.272 300.136 228.162 302.61 227.326L306.573 239.95Z" fill="#CDA527"/>
<path d="M296.967 245.754C295.458 247.258 294.211 248.791 292.964 250.323L282.637 241.95C284.213 239.897 286.084 237.598 288.147 235.877L296.967 245.754Z" fill="#CDA527"/>
<path d="M289.921 255.114C288.897 256.959 288.135 258.832 287.373 260.706L274.742 255.678C275.606 252.977 276.96 250.609 278.313 248.242L289.921 255.114Z" fill="#CDA527"/>
<path d="M285.931 266.159C285.394 268.352 285.154 270.296 284.88 272.518L271.202 271.288C271.546 268.511 272.117 266.041 272.722 263.293L285.931 266.159Z" fill="#CDA527"/>
<path d="M284.739 278.38L284.999 284.869L270.731 286.383L270.642 278.509L284.739 278.38Z" fill="#CDA527"/>
<path d="M285.668 290.914L286.974 297.492L272.986 301.264L271.817 293.583L285.668 290.914Z" fill="#CDA527"/>
<path d="M289.026 303.474L291.149 309.848L277.463 315.596L275.181 308.367L289.026 303.474Z" fill="#CDA527"/>
<path d="M293.785 315.669L296.757 321.57L283.401 329.017L280.27 322.262L293.785 315.669Z" fill="#CDA527"/>
<path d="M299.971 327.23L303.495 332.904L290.767 341.795L287.084 335.269L299.971 327.23Z" fill="#CDA527"/>
<path d="M307.288 338.39L311.398 343.566L299.065 353.602L295.022 347.877L307.288 338.39Z" fill="#CDA527"/>
<path d="M315.755 348.871L319.896 353.767L308.219 364.971L303.626 359.47L315.755 348.871Z" fill="#CDA527"/>
<path d="M324.861 358.626L329.256 363.545L318.303 375.367L313.388 370.391L324.861 358.626Z" fill="#CDA527"/>
<path d="M334.568 367.912C336.217 369.478 337.899 370.771 339.548 372.337L328.987 385.299C327.338 383.733 325.43 382.138 323.815 380.299L334.568 367.912Z" fill="#CDA527"/>
<path d="M344.634 376.432L349.902 380.607L340.029 394.458L334.535 389.982L344.634 376.432Z" fill="#CDA527"/>
<path d="M355.561 384.518L360.89 388.143L351.963 402.908L346.183 398.682L355.561 384.518Z" fill="#CDA527"/>
<path d="M366.887 391.569L372.504 394.946L364.294 410.329L358.159 406.895L366.887 391.569Z" fill="#CDA527"/>
<path d="M378.746 398.173L381.444 399.568L373.98 415.51L370.8 413.787L378.746 398.173Z" fill="#CDA527"/>
<path d="M363.121 489.416C363.121 489.416 363.675 469.607 361.136 459.744C358.597 449.881 346.049 458.88 345.581 466.255C345.581 466.255 341.561 453.561 336.233 448.242C316.838 429.368 283.137 458.595 304.076 486.989C320.692 508.091 328.341 516.241 328.341 516.241L363.121 489.416Z" fill="#A7CCED"/>
<path opacity="0.5" d="M353.884 497.081C356.408 490.151 358.371 484.76 358.371 484.76C358.371 484.76 329.815 499.687 326.372 496.752C309.505 484.223 302.849 462.235 301.059 455.537C296.286 463.998 296.05 475.486 304.6 486.853C321.415 508.042 329.148 516.232 329.148 516.232L353.884 497.081Z" fill="#A7CCED"/>
<path d="M559.293 665.192C559.293 665.192 553.026 685.301 552.36 695.485C551.6 705.926 566.12 701.397 568.76 694.209C568.76 694.209 567.682 706.276 571.1 712.953C583.444 737.179 623.79 720.166 613.103 686.098C604.335 660.505 599.817 649.976 599.817 649.976L559.293 665.192Z" fill="#A7CCED"/>
<path opacity="0.5" d="M552.138 694.884C551.654 703.897 562.765 701.749 567.061 696.075C564.586 697.507 561.458 696.128 560.339 692.294C559.312 688.206 570.09 667.004 570.09 667.004C570.057 665.558 565.412 664.51 560.582 663.972L558.632 664.727C558.88 664.813 552.837 684.511 552.138 694.884Z" fill="#A7CCED"/>
<path d="M403.187 401.517C403.187 401.517 387.172 390.786 376.926 399.874C366.68 408.962 353.108 468.045 364.37 475.114C372.166 479.544 384.716 479.302 384.716 479.302L403.187 401.517Z" fill="#A7CCED"/>
<path d="M605.597 447.356C605.597 447.356 624.828 443.976 630.224 456.48C635.374 468.898 620.825 527.631 607.38 529.572C598.214 530.413 587.039 525.384 587.039 525.384L605.597 447.356Z" fill="#A7CCED"/>
<path opacity="0.5" d="M606.091 512.108C617.036 490.415 616.379 459.221 615.715 447.235C610.151 446.438 605.361 447.345 605.361 447.345L587.1 525.257C587.1 525.257 598.356 530.336 607.565 529.539C610.748 529.217 614.051 525.497 617.166 519.991C610.457 518.507 604.365 516.093 606.091 512.108Z" fill="#A7CCED"/>
<path opacity="0.5" d="M373.224 459.715C373.071 435.604 387.618 407.757 393.648 397.265C398.922 398.823 402.994 401.394 402.994 401.394L384.778 479.222C384.778 479.222 372.539 479.237 364.364 474.945C361.68 473.147 360.256 468.639 360.063 462.271C366.508 463.666 373.075 463.959 373.224 459.715Z" fill="#A7CCED"/>
<path d="M495.873 452.407C438.777 440.488 380.998 478.367 366.958 537.143L343.843 633.564C338.277 657.092 352.176 680.116 375.186 685.174L498.928 711.157C521.785 715.874 544.947 700.739 550.855 677.04L573.97 580.619C587.762 521.757 552.968 464.327 495.873 452.407Z" fill="#E4E4E5"/>
<path d="M574.794 583.955C533.316 594.043 500.179 628.009 489.856 670.447L481.102 707.102L501.031 711.411C523.594 716.057 546.496 700.978 552.377 677.42L574.794 583.955Z" fill="#E91F5C"/>
<path d="M366.295 537.805L343.757 631.537C338.184 654.992 351.94 677.909 374.779 682.908L394.817 687.23L403.618 650.47C413.845 607.57 399.236 563.595 366.295 537.805Z" fill="#E91F5C"/>
<path opacity="0.5" d="M561.068 497.911C566.3 515.629 567.176 535.312 562.432 555.079L539.313 651.516C533.746 675.048 510.486 690.442 487.376 685.639L363.704 659.395C355.391 657.68 348.268 653.483 342.798 647.832C344.334 665.719 356.872 681.043 375.081 684.732L498.847 710.719C521.708 715.436 544.874 700.299 550.784 676.596L573.903 580.159C581.143 550.552 575.714 521.196 561.068 497.911Z" fill="#E4E4E5"/>
<path d="M557.275 662.773L598.12 647.839C582.468 597.988 557.032 575.546 536.312 565.481C536.725 563.59 536.76 562.731 536.76 562.731C536.76 562.731 530.566 539.095 481.912 528.673C435.5 519.026 418.499 535.518 416.746 537.236C402.381 528.205 384.705 513.673 367.318 489.946L332.718 516.914C357.357 550.7 383.68 569.963 403.618 580.628C398.651 597.212 393.614 615.515 390.186 629.435C387.326 641.809 386.931 653.582 390.034 664.24C376.624 679.359 356.783 703.584 342.824 730.132L385.131 751.723C395.538 731.79 412.714 711.002 425.058 697.257C429.789 698.892 434.616 700.27 440.284 701.647C446.545 702.94 452.403 703.802 457.702 703.89C462.802 721.338 468.832 746.951 469.015 769.381L517.101 766.825C516.829 736.231 509.42 705.204 504.047 686.209C510.941 678.134 515.569 667.824 518.394 656.309C521.254 643.935 524.597 627.952 527.502 612.399C537.752 621.17 548.849 636.042 557.275 662.773Z" fill="white"/>
<path d="M609.449 468.184C619.536 369.005 521.609 352.575 521.609 352.575C521.609 352.575 425.772 328.166 389.435 421.756C353.004 515.603 433.198 550.558 472.294 558.555C510.858 567.237 599.267 567.62 609.449 468.184Z" fill="white"/>
<path d="M610.12 468.684C612.43 443.788 608.066 424.075 600.179 408.622C605.254 422.518 607.96 439.054 606.08 458.903C596.527 557.802 507.859 556.952 468.698 548.51C443.933 543.061 402.671 527.246 384.675 492.389C399.401 533.904 445.881 552.403 472.988 558.379C511.806 566.99 600.473 567.84 610.12 468.684Z" fill="#E4E4E5"/>
<path d="M447.784 672.272C405.429 663.426 383.959 646.214 382.799 645.515C378.191 641.845 377.623 634.861 381.385 629.975C385.148 625.089 391.976 624.221 396.583 627.891C396.99 628.327 416.018 642.919 452.811 650.714C489.855 658.596 512.679 652.676 512.93 652.763C518.849 651.284 524.401 654.692 525.853 660.804C527.15 666.566 523.508 672.674 517.841 674.241C516.489 674.066 490.138 681.118 447.784 672.272Z" fill="#A7CCED"/>
<path opacity="0.5" d="M519.187 668.04C517.992 668.207 491.67 675.088 449.254 666.073C406.838 657.057 385.268 639.827 384.103 639.125C381.71 637.114 380.196 634.24 380.13 631.287C377.587 635.962 378.57 641.872 382.695 645.369C383.608 645.982 405.43 663.301 447.846 672.316C490.262 681.332 516.742 674.799 517.779 674.284C522.842 672.837 526.328 667.908 526.165 662.871C524.721 665.294 522.269 667.364 519.187 668.04Z" fill="#A7CCED"/>
<path d="M470.231 572.507C433.427 564.702 411.17 545.729 409.853 544.68C406.812 542.144 406.579 537.34 409.172 534.11C411.764 530.88 416.453 530.448 419.243 532.896C419.901 533.42 466.331 572.329 534.464 557.101C538.494 556.144 542.038 558.854 542.903 562.698C543.673 566.804 540.89 570.558 537.111 571.603C511.482 577.433 488.932 576.366 470.231 572.507Z" fill="#A7CCED"/>
<path opacity="0.5" d="M413.224 538.709C413.886 539.235 464.763 579.099 537.321 565.257C539.461 564.835 541.318 565.194 542.893 566.333C542.924 565.464 543.048 564.334 543.079 563.465C542.287 559.373 538.633 556.916 534.606 557.85C466.769 572.762 419.859 533.703 419.197 533.178C416.141 530.638 411.704 531.134 409.128 534.337C408.499 535.29 407.871 536.243 407.495 537.284C409.382 536.774 411.743 537.309 413.224 538.709Z" fill="#A7CCED"/>
<path d="M492.268 580.244L477.667 578.709C472.206 578.285 466.782 576.998 461.702 575.538L446.902 570.726C443.164 569.437 439.184 571.857 438.253 575.913L432.611 599.641C431.87 603.178 433.505 606.368 436.745 607.485L452.292 612.554C457.526 614.359 462.796 615.301 468.162 615.985L484.699 617.603C487.975 617.857 491.361 615.524 492.006 612.245L497.554 588.776C498.58 584.462 496.043 580.67 492.268 580.244Z" fill="#1098F7"/>
<path d="M451.84 584.289C451.045 587.206 448.361 589.182 445.539 588.5C442.717 587.818 440.902 585.162 441.697 582.245C442.492 579.328 445.176 577.352 447.998 578.034C450.82 578.716 452.54 581.629 451.84 584.289Z" fill="#E91F5C"/>
<path d="M448.748 598.572C447.953 601.489 445.269 603.465 442.448 602.783C439.626 602.101 437.81 599.445 438.606 596.528C439.401 593.611 442.085 591.635 444.906 592.317C447.48 592.913 449.296 595.569 448.748 598.572Z" fill="#E91F5C"/>
<path d="M470.145 593.93C462.828 592.272 457.807 590.526 457.556 590.439C455.799 589.828 455.117 587.821 455.942 586.338C456.611 584.505 458.595 583.72 460.006 584.505C460.257 584.592 473.873 589.916 488.493 589.394C490.191 589.394 491.661 590.79 491.59 592.535C491.519 594.281 490.096 595.851 488.399 595.851C481.609 595.851 475.357 595.152 470.145 593.93Z" fill="#A7CCED"/>
<path d="M467.071 607.365C459.754 605.706 454.733 603.961 454.482 603.873C452.725 603.262 452.043 601.255 452.868 599.772C453.537 597.939 455.521 597.154 456.932 597.94C457.183 598.027 470.799 603.351 485.419 602.828C487.117 602.828 488.587 604.224 488.516 605.97C488.444 607.715 487.022 609.286 485.325 609.285C478.786 609.372 472.378 608.325 467.071 607.365Z" fill="#A7CCED"/>
<path d="M496.544 635.444L493.261 628.244C492.635 626.872 491.324 625.839 489.89 625.916L482 625.187C480.409 624.921 478.945 625.853 477.979 626.959L473.279 633.686C472.314 634.792 472.254 636.502 472.879 637.873L476.162 645.073C476.788 646.445 478.099 647.478 479.533 647.401L487.423 648.13C489.014 648.396 490.478 647.464 491.444 646.358L496.144 639.631C496.86 638.438 497.169 636.815 496.544 635.444Z" fill="#A7CCED"/>
<path d="M420.076 618.397L426.248 613.043C427.463 612.023 428.992 611.69 430.491 612.212L437.983 614.821C439.482 615.343 440.451 616.546 440.733 618.088L442.054 626.052C442.337 627.594 441.777 629.13 440.561 630.15L434.389 635.505C433.174 636.524 431.645 636.858 430.146 636.336L422.654 633.727C421.155 633.205 420.187 632.001 419.904 630.46L418.583 622.496C418.3 620.954 418.86 619.417 420.076 618.397Z" fill="#A7CCED"/>
<path d="M588.028 478.063C594.072 405.346 512.313 391.437 512.313 391.437C512.313 391.437 431.902 371.59 404.016 439.692C375.882 507.709 443.44 535.061 475.954 541.898C508.564 548.477 582.233 550.867 588.028 478.063Z" fill="#233B4A"/>
<path opacity="0.5" d="M588.415 478.155C589.872 458.887 585.352 443.66 577.571 431.958C580.247 440.733 581.453 450.454 580.655 461.808C574.753 534.489 501.129 532.304 468.554 525.406C448.76 521.182 415.707 509.468 399.588 485.289C409.7 520.475 452.343 536.667 476.314 541.753C508.984 548.393 582.762 550.923 588.415 478.155Z" fill="#233B4A"/>
<path opacity="0.5" d="M511.328 391.455C511.328 391.455 507.29 390.351 500.562 389.763C485.028 413.86 452.265 456.849 400.133 486.805C403.886 498.495 411.483 508.045 420.573 515.8C484.212 477.973 521.371 423.794 535.672 399.273C522.34 393.231 511.328 391.455 511.328 391.455Z" fill="white"/>
<path opacity="0.5" d="M560.16 413.662C545.289 438.251 505.85 494.182 439.137 527.72C446.052 531.548 453.343 534.352 459.99 536.646C520.324 502.35 556.669 452.565 572.938 426.438C568.898 421.582 564.67 417.238 560.16 413.662Z" fill="white"/>
<path d="M494.565 694.944C485.518 692.973 478.047 685.189 474.703 676.808C469.209 663.639 471.826 646.626 481.404 633.464C483.183 630.899 486.473 630.302 488.916 632.014C491.359 633.725 491.809 637.06 490.03 639.624C483.009 649.624 480.813 662.448 484.771 672.196C487.441 678.61 494.051 684.94 500.348 684.516C502.954 684.261 504.699 682.551 505.759 681.184C507.444 678.876 508.42 675.457 507.781 672.635C507.449 670.497 506.528 668.445 505.205 665.965C503.055 661.176 500.35 655.617 502.397 648.522C503.75 644.076 506.743 640.487 510.692 638.095C515.137 635.874 520.349 635.363 524.808 636.904C527.533 637.846 528.916 640.925 527.88 643.746C526.844 646.567 523.767 648.104 521.042 647.163C519.06 646.478 517.043 646.648 515.334 647.502C514.308 648.014 513.094 649.04 512.341 651.091C511.647 653.741 512.628 656.392 514.719 660.583C516.101 663.662 517.577 666.484 517.934 670.075C518.87 675.889 517.353 682.301 513.642 687.087C510.366 691.446 505.733 694.18 500.769 694.776C498.564 695.459 496.394 695.287 494.565 694.944Z" fill="#233B4A"/>
<path d="M395.335 672.824C393.258 672.395 391.274 671.709 389.479 670.511C385.145 667.856 382.215 663.663 381.337 658.443C380.4 652.624 381.671 646.122 385.385 641.332C387.602 638.339 390.032 636.286 392.805 634.063C396.45 630.985 398.88 628.932 399.327 626.194C399.738 624.312 398.97 622.601 398.415 621.83C397.304 620.29 395.415 619.348 393.49 619.261C390.48 619.089 388.413 616.35 388.953 613.355C389.246 610.275 392.019 608.052 394.935 608.481C399.869 608.74 404.203 611.395 407.227 615.332C409.85 618.841 410.916 623.547 410.058 628.167C408.599 635.183 403.739 639.287 399.41 642.708C397.416 644.333 395.422 645.957 394.172 647.839C392.392 650.405 391.757 653.656 392.148 656.394C392.421 657.935 393.249 660.245 395.54 661.615C400.771 664.869 409.787 661.622 415.178 656.833C423.093 649.735 427.121 637.245 425.342 625.351C424.797 622.27 426.92 619.533 429.622 619.021C432.667 618.338 435.266 620.393 435.657 623.131C438.041 638.704 432.599 655.044 421.723 664.878C414.869 670.608 404.39 674.796 395.335 672.824Z" fill="#233B4A"/>
<path d="M570.62 652.564C570.62 652.564 558.53 610.855 531.035 595.222L528.159 614.7C538.212 623.393 549.302 638.505 557.724 664.802L564.551 662.276L570.62 652.564Z" fill="#E4E4E5"/>
<path d="M556.847 672.302C554.517 671.79 552.566 670.246 551.836 667.668C550.74 663.803 552.758 659.846 556.441 658.208L597.245 643.193C601.082 641.899 604.866 643.784 606.305 647.477C607.401 651.343 605.383 655.299 601.7 656.938L560.895 671.952C559.273 672.556 558.089 672.73 556.847 672.302Z" fill="#E91F5C"/>
<path opacity="0.5" d="M611.31 712.885C577.408 728.363 569.308 693.871 569.308 693.871C569.308 693.871 568.289 706.007 571.777 712.744C580.075 729.583 601.923 727.039 611.31 712.885Z" fill="#A7CCED"/>
<path d="M584.239 617.283C575.12 600.512 564.569 588.449 554.305 580.245C551.311 586.144 547.075 598.551 554.34 608.024C562.262 618.015 574.803 621.516 584.239 617.283Z" fill="#A7CCED"/>
<path d="M348.549 538.841C361.339 552.573 374.157 563.127 385.719 570.924C387.403 566.295 391.673 550.685 381.174 541.519C371.269 532.27 357.087 531.674 348.549 538.841Z" fill="#A7CCED"/>
<path d="M408.188 564.118C408.188 564.118 365.738 537.13 345.81 509.582C344.838 508.373 344.116 507.251 343.05 506.299L329.999 516.543C354.946 550.483 381.505 569.899 401.599 580.678C401.348 580.59 402.563 574.922 408.188 564.118Z" fill="#E4E4E5"/>
<path d="M327.498 523.6C325.922 523.345 324.629 522.322 323.431 521.041C321.223 517.968 321.841 513.267 324.949 510.87L359.327 483.991C362.435 481.594 367.01 482.015 369.218 485.089C371.425 488.162 370.808 492.863 367.7 495.26L333.322 522.139C331.673 523.594 329.567 524.024 327.498 523.6Z" fill="#E91F5C"/>
<path d="M477.834 740.278C475.669 736.915 465.665 699.224 465.693 696.046C465.72 692.867 462.84 693.022 457.801 694.454C452.855 695.628 432.219 693.362 428.768 688.101C425.318 682.84 424.161 684.466 423.286 685.32C422.41 686.174 390.052 723.88 390.052 723.88C390.052 723.88 394.125 725.879 400.109 728.835C408.922 716.255 418.801 704.627 426.712 696.08C431.473 697.74 436.328 699.142 442.028 700.55C448.323 701.874 454.21 702.767 459.533 702.884C463.086 714.847 467.019 730.421 469.262 745.986C474.582 743.783 478.555 741.4 477.834 740.278Z" fill="#E4E4E5"/>
<path d="M360.198 698.654C358.406 701.238 347.362 719.84 347.362 719.84C347.362 719.84 331.943 694.416 307.163 696.038C282.383 697.66 272.262 726.774 272.262 726.774L364.254 787.996L401.859 723.835L360.198 698.654Z" fill="#A7CCED"/>
<path d="M519.102 734.67C519.402 737.685 521.154 758.962 521.154 758.962C521.154 758.962 546.714 742.18 568.343 753.735C590.066 765.031 585.97 795.349 585.97 795.349L474.661 813.631L469.943 740.671L519.102 734.67Z" fill="#A7CCED"/>
<path d="M474.87 813.843L586.27 795.547C586.27 795.547 587.108 789.425 586.234 781.836L474.05 800.735L474.87 813.843Z" fill="#233B4A"/>
<path d="M272.036 726.018L364.745 787.841L372.102 775.439L280.344 711.014C274.448 718.644 272.036 726.018 272.036 726.018Z" fill="#233B4A"/>
<path d="M467.01 748.011C464.167 747.319 461.894 745.075 461.689 741.797C461.423 737.915 464.19 734.208 468.352 733.607L517.656 727.343C521.473 726.914 524.995 729.591 525.415 733.818C525.68 737.699 522.913 741.407 518.752 742.008L469.447 748.272C468.603 748.271 467.759 748.271 467.01 748.011Z" fill="#E91F5C"/>
<path opacity="0.5" d="M523.355 738.377L473.942 744.382C473.095 744.377 472.5 744.46 471.747 744.197C468.892 743.492 466.6 741.238 466.377 737.963C466.343 736.499 466.561 735.121 467.281 733.919C464.115 734.849 461.798 738.109 462.179 741.73C462.403 745.005 464.695 747.258 467.549 747.964C468.302 748.226 469.149 748.231 469.745 748.149L519.158 742.143C521.792 741.9 523.796 740.275 524.891 738.041C524.296 738.124 523.7 738.207 523.355 738.377Z" fill="#E91F5C"/>
<path d="M399.949 732.476C399.196 732.215 398.444 731.954 397.692 731.693L355.917 706.038C352.691 704.038 351.515 699.523 353.693 695.881C355.777 692.498 360.238 691.115 363.715 693.203L405.835 718.684C409.061 720.684 410.237 725.199 408.059 728.841C406.165 731.703 402.802 733.174 399.949 732.476Z" fill="#E91F5C"/>
<path opacity="0.5" d="M407.8 720.761C407.833 722.238 407.363 723.538 406.641 724.75C405.008 727.693 401.738 728.89 398.874 728.179C398.119 727.914 397.364 727.649 396.608 727.384L354.264 701.693C353.602 701.168 352.941 700.643 352.374 699.858C352.377 702.203 353.481 704.641 355.811 706.044L398.155 731.735C398.816 732.26 399.572 732.525 400.421 732.53C403.285 733.241 406.649 731.784 408.187 729.101C409.726 726.418 409.501 723.116 407.8 720.761Z" fill="#E91F5C"/>
<path d="M504.77 796.89L499.178 782.762C496.382 775.698 489.769 771.362 482.159 771.318L471.668 771.43L472.048 775.042L482.289 774.843C488.301 774.62 493.755 778.261 496.173 784.034L501.765 798.162L505.223 808.066L508.792 807.571L504.77 796.89Z" fill="#233B4A"/>
<path d="M378.671 747.672C371.957 744.467 363.906 745.705 358.326 750.978L346.823 761.694L338.345 770.287L341.312 772.187L349.011 764.188L360.421 753.728C365.034 749.562 371.306 748.571 376.865 751.084L384.578 754.637L386.291 751.48L378.671 747.672Z" fill="#233B4A"/>
</svg>
