<svg width="628" height="978" viewBox="0 0 628 978" fill="none" xmlns="http://www.w3.org/2000/svg">
<path d="M324.894 655.138C350.598 882.336 222.079 920.997 234.799 1027.45C257.588 1221.28 507.206 1219.96 539.27 1261L1300.05 1261L1300.05 -63.0001C1210.48 105.677 1068.45 188.56 940.462 190.678C716.017 194.121 325.159 -2.09598 212.274 233.841C141.788 381.334 308.73 509.762 324.894 655.138Z" fill="white"/>
<path d="M329.988 206.894C355.989 228.206 375.385 274.345 357.106 296.647C338.826 318.948 289.693 309.087 263.692 287.775C237.691 266.463 231.346 231.022 249.626 208.721C267.906 186.419 303.987 185.582 329.988 206.894Z" fill="white"/>
<path d="M319.78 202.788L257.746 278.469L477.97 458.98L540.004 383.299L319.78 202.788Z" fill="white"/>
<path d="M317.159 208.921C335.143 223.662 366.653 273.889 351.912 291.874C337.17 309.859 281.736 288.819 263.751 274.078C245.766 259.336 243.135 232.781 257.877 214.796C272.618 196.811 299.174 194.179 317.159 208.921Z" fill="#F05A28"/>
<path d="M309.857 219.087C322.498 229.448 344.597 264.744 334.319 277.282C323.958 289.923 285.095 275.078 272.455 264.717C259.814 254.356 258.064 235.739 268.341 223.201C278.515 210.579 297.216 208.725 309.857 219.087Z" fill="#F2B31B"/>
<path d="M298.035 223.658C305.948 230.144 319.859 252.371 313.373 260.284C306.886 268.198 282.361 258.92 274.448 252.434C266.534 245.947 265.367 234.166 271.853 226.252C278.424 218.236 290.121 217.171 298.035 223.658Z" fill="#F2C365"/>
<path d="M292.757 156.102L210.034 257.023L222.367 267.132L305.089 166.21L292.757 156.102Z" fill="#3C2A34"/>
<path d="M204.909 258.664C204.909 258.664 178.231 294.356 217.892 325.834C217.892 325.834 168.664 337.889 136.677 287.615C122.458 265.136 123.624 226.401 136.978 202.983L204.909 258.664Z" fill="#C80640"/>
<path d="M290.58 154.146C290.58 154.146 320.341 120.981 358.992 153.692C358.992 153.692 361.15 103.056 305.576 81.5588C280.743 72.0281 242.991 80.7739 222.649 98.4641L290.58 154.146Z" fill="#E91F5C"/>
<path d="M15.4241 14.0022L251.077 207.16L202.555 266.357C202.555 266.357 25.1613 186.587 15.4241 14.0022Z" fill="#F5EFDB"/>
<path d="M15.4241 14.0022L251.077 207.16L299.599 147.964C299.683 147.861 186.563 -10.3232 15.4241 14.0022Z" fill="#FFFAEF"/>
<path d="M34.8895 97.9981C34.8895 97.9981 85.3164 82.8029 101.607 16.6031C101.607 16.6031 55.589 4.82843 13.7797 12.6543C13.7797 12.6543 15.0078 50.774 34.8895 97.9981Z" fill="#E91F5C"/>
<path d="M91.9815 21.4283C94.0369 23.1131 94.3335 26.1052 92.6487 28.1607C90.9639 30.2161 87.9717 30.5126 85.9163 28.8279C83.8609 27.1431 83.5644 24.1509 85.2492 22.0955C86.8312 19.9558 89.9261 19.7436 91.9815 21.4283Z" fill="#FFFAEF"/>
<path d="M78.3196 65.556L13.7797 12.6543C13.7797 12.6543 15.6884 52.8783 34.8895 97.9981C34.8895 97.9981 56.3333 92.3793 78.3196 65.556Z" fill="#C80640"/>
<path opacity="0.05" d="M202.555 266.357C202.555 266.357 31.624 194.633 13.7797 12.6543C13.7797 12.6543 52.4832 173.587 164.111 191.89C236.775 203.857 270.383 114.223 270.383 114.223C270.383 114.223 287.103 132.395 299.701 148.048L202.658 266.441L202.555 266.357Z" fill="#3C2A34"/>
<path d="M78.7107 25.6706C77.6998 26.9039 76.0538 27.4447 74.3994 26.9477C56.1449 20.9197 34.4518 23.0695 34.162 23.0038C31.9179 23.2262 30.0681 21.7099 29.8457 19.4658C29.6233 17.2217 31.1396 15.3718 33.3837 15.1494C34.3188 15.0567 57.1339 12.7957 76.8558 19.3393C78.9028 19.9862 79.976 22.2404 79.329 24.2874C79.3004 24.9512 78.9634 25.3623 78.7107 25.6706Z" fill="#FFFDF2"/>
<path d="M330.196 110.845C330.112 110.948 330.027 111.051 329.943 111.153C328.492 112.713 325.94 112.683 324.38 111.233C290.302 77.9736 258.844 94.9714 258.573 95.0927C256.693 96.1288 254.272 95.519 253.236 93.6387C252.199 91.7585 252.809 89.3375 254.69 88.3014C255.045 88.0773 264.175 83.0179 278.125 82.7685C290.747 82.4618 310.107 86.303 329.967 105.674C331.321 106.957 331.544 109.201 330.196 110.845Z" fill="#FFFDF2"/>
<path d="M160.558 87.4324C175.357 99.5627 177.507 121.256 165.376 136.055C153.246 150.854 131.553 153.004 116.754 140.874C101.955 128.743 99.8053 107.05 111.936 92.2511C124.066 77.452 145.862 75.3864 160.558 87.4324Z" fill="#1F7A8C"/>
<path d="M159.736 86.7585C172.685 97.3725 174.575 116.447 163.961 129.397C153.347 142.346 134.272 144.236 121.323 133.622C108.374 123.008 106.484 103.933 117.098 90.9841C127.712 78.0349 146.787 76.1445 159.736 86.7585Z" fill="#7AC8A9"/>
<path d="M158.503 96.2286C157.155 97.8729 154.639 98.2166 152.892 96.7846C144.362 89.7928 131.646 91.0531 124.654 99.5831C123.306 101.227 120.791 101.571 119.044 100.139C117.399 98.7913 117.056 96.2759 118.488 94.5288C128.259 82.6073 145.838 80.8652 157.76 90.6368C159.61 92.1531 159.85 94.5842 158.503 96.2286Z" fill="#FFFDF2"/>
<path d="M166.362 100.265C168.418 101.95 168.714 104.942 167.029 106.998C165.344 109.053 162.352 109.35 160.297 107.665C158.242 105.98 157.945 102.988 159.63 100.932C161.315 98.877 164.307 98.5805 166.362 100.265Z" fill="#FFFAEF"/>
<path d="M341.993 113.642C344.048 115.326 344.345 118.319 342.66 120.374C340.975 122.43 337.983 122.726 335.927 121.041C333.872 119.357 333.575 116.364 335.26 114.309C336.861 112.356 339.937 111.957 341.993 113.642Z" fill="#FFFAEF"/>
<path d="M187.45 147.275C185.085 147.227 182.625 148.131 181.024 150.084L180.014 151.317C178.413 153.27 177.822 155.878 178.521 158.169C178.521 158.169 184.547 194.208 244.877 229.398C278.247 248.847 295.828 245.216 295.828 245.216C295.828 245.216 296.021 227.162 270.317 198.361C223.887 146.214 187.45 147.275 187.45 147.275Z" fill="#E91F5C"/>
<path d="M179.508 151.934C177.908 153.886 177.316 156.494 178.015 158.786C178.015 158.786 184.042 194.825 244.371 230.014C277.742 249.463 295.322 245.832 295.322 245.832L180.014 151.317L179.508 151.934Z" fill="#C80640"/>
</svg>
