<svg width="398" height="669" viewBox="0 0 398 669" fill="none" xmlns="http://www.w3.org/2000/svg">
<path d="M202.437 408.238C192.107 440.231 156.253 475.153 128.813 466.293C101.372 457.432 92.5867 408.095 102.917 376.103C113.248 344.11 143.915 325.247 171.356 334.108C198.797 342.968 212.768 376.245 202.437 408.238Z" fill="white"/>
<path d="M202.527 397.235L109.406 367.166L21.907 638.14L115.029 668.209L202.527 397.235Z" fill="white"/>
<path d="M195.86 397.038C188.715 419.167 153.486 466.859 131.356 459.713C109.227 452.567 108.542 393.279 115.688 371.15C122.834 349.02 146.588 336.862 168.718 344.008C190.848 351.154 203.006 374.908 195.86 397.038Z" fill="#F05A28"/>
<path d="M183.729 393.958C178.706 409.512 153.933 442.986 138.506 438.004C122.952 432.982 122.56 391.382 127.583 375.829C132.605 360.275 149.293 351.839 164.72 356.821C180.189 361.676 188.751 378.404 183.729 393.958Z" fill="#F2B31B"/>
<path d="M175.152 384.626C172.008 394.363 156.405 415.437 146.668 412.293C136.931 409.149 136.6 382.93 139.745 373.193C142.889 363.456 153.428 358.061 163.165 361.206C173.028 364.391 178.296 374.889 175.152 384.626Z" fill="#F2C365"/>
<path d="M236.101 355.014L111.922 314.916L107.023 330.091L231.201 370.188L236.101 355.014Z" fill="#3C2A34"/>
<path d="M108.521 310.746C108.521 310.746 65.5465 298.964 50.7481 347.388C50.7481 347.388 21.53 305.976 56.6283 257.823C72.3531 236.369 108.832 223.293 135.512 227.16L108.521 310.746Z" fill="#C80640"/>
<path d="M237.126 352.273C237.126 352.273 278.876 367.849 262.56 415.782C262.56 415.782 310.479 399.278 310.17 339.693C309.962 313.094 288.019 281.153 264.116 268.687L237.126 352.273Z" fill="#E91F5C"/>
<path d="M266.967 44.9287L173.339 334.887L100.501 311.368C100.501 311.368 109.891 117.09 266.967 44.9287Z" fill="#F5EFDB"/>
<path d="M266.967 44.9287L173.339 334.887L246.177 358.407C246.303 358.448 352.179 195.326 266.967 44.9287Z" fill="#FFFAEF"/>
<path d="M195.903 93.7561C195.903 93.7561 228.483 135.136 296.056 126.096C296.056 126.096 290.191 78.9589 267.621 42.9054C267.621 42.9054 232.589 57.9853 195.903 93.7561Z" fill="#E91F5C"/>
<path d="M288.046 118.901C287.229 121.43 284.552 122.8 282.023 121.984C279.494 121.167 278.124 118.49 278.941 115.961C279.757 113.432 282.434 112.062 284.963 112.879C287.533 113.569 288.862 116.372 288.046 118.901Z" fill="#FFFAEF"/>
<path d="M241.978 122.318L267.621 42.9054C267.621 42.9054 230.879 59.3881 195.903 93.7561C195.903 93.7561 208.973 111.661 241.978 122.318Z" fill="#C80640"/>
<path opacity="0.05" d="M100.501 311.368C100.501 311.368 104.765 126.048 267.621 42.9056C267.621 42.9056 131.98 137.768 155.756 248.359C171.185 320.368 266.9 318.878 266.9 318.878C266.9 318.878 256.099 341.084 246.136 358.534L100.46 311.494L100.501 311.368Z" fill="#3C2A34"/>
<path d="M279.245 108.1C277.728 107.61 276.622 106.276 276.48 104.554C275.417 85.3594 265.485 65.9541 265.44 65.6604C264.412 63.6529 265.147 61.3768 267.155 60.3493C269.162 59.3219 271.438 60.0569 272.466 62.0643C272.894 62.9007 283.34 83.3097 284.46 104.059C284.606 106.2 282.9 108.023 280.759 108.17C280.13 108.386 279.624 108.222 279.245 108.1Z" fill="#FFFDF2"/>
<path d="M291.913 373.315C291.786 373.274 291.66 373.233 291.533 373.193C289.551 372.413 288.646 370.026 289.426 368.044C307.923 324.165 280.6 301.1 280.388 300.892C278.737 299.52 278.419 297.044 279.79 295.392C281.161 293.74 283.638 293.423 285.29 294.794C285.628 295.043 293.675 301.691 299.008 314.584C303.908 326.22 307.411 345.644 296.641 371.211C295.943 372.941 293.936 373.968 291.913 373.315Z" fill="#FFFDF2"/>
<path d="M251.683 206.862C245.803 225.071 226.398 235.003 208.188 229.123C189.979 223.243 180.047 203.838 185.927 185.629C191.807 167.419 211.212 157.487 229.421 163.367C247.631 169.247 257.522 188.779 251.683 206.862Z" fill="#1F7A8C"/>
<path d="M252.01 205.85C246.865 221.783 229.802 230.517 213.868 225.372C197.935 220.227 189.202 203.164 194.346 187.23C199.491 171.297 216.555 162.564 232.488 167.709C248.421 172.854 257.155 189.917 252.01 205.85Z" fill="#7AC8A9"/>
<path d="M242.745 208.165C240.721 207.511 239.482 205.296 240.176 203.146C243.565 192.65 237.743 181.275 227.247 177.886C225.224 177.232 223.984 175.017 224.678 172.867C225.332 170.844 227.547 169.604 229.697 170.298C244.366 175.035 252.414 190.76 247.678 205.429C246.943 207.705 244.768 208.818 242.745 208.165Z" fill="#FFFDF2"/>
<path d="M241.861 216.956C241.044 219.485 238.368 220.855 235.839 220.038C233.309 219.221 231.939 216.545 232.756 214.016C233.573 211.487 236.249 210.117 238.778 210.933C241.308 211.75 242.678 214.427 241.861 216.956Z" fill="#FFFAEF"/>
<path d="M293.623 385.317C292.806 387.847 290.129 389.217 287.6 388.4C285.071 387.583 283.701 384.907 284.518 382.378C285.334 379.848 288.011 378.479 290.54 379.295C292.943 380.071 294.439 382.788 293.623 385.317Z" fill="#FFFAEF"/>
<path d="M205.815 253.771C204.996 251.552 203.254 249.593 200.852 248.817L199.334 248.327C196.932 247.551 194.288 247.954 192.411 249.443C192.411 249.443 161.07 268.228 150.374 337.247C144.472 375.417 154.279 390.453 154.279 390.453C154.279 390.453 171.154 384.033 188.563 349.578C220.125 287.297 205.815 253.771 205.815 253.771Z" fill="#E91F5C"/>
<path d="M198.576 248.082C196.173 247.306 193.529 247.709 191.652 249.198C191.652 249.198 160.312 267.983 149.615 337.002C143.713 375.172 153.52 390.208 153.52 390.208L199.334 248.327L198.576 248.082Z" fill="#C80640"/>
</svg>
