<svg width="865" height="475" viewBox="0 0 865 475" fill="none" xmlns="http://www.w3.org/2000/svg">
<path d="M789.884 184.151C796.296 180.562 816.812 205.94 835.79 240.546C854.768 275.152 865.026 306.169 858.614 309.501L808.862 348.209L757.571 285.662L730.643 200.556L789.884 184.151Z" fill="#C55DBE"/>
<path d="M864.256 474.841C864.256 236.444 670.889 42.9067 432.128 42.9067C193.368 42.9067 -0.00012207 236.188 -0.00012207 474.841H864.256Z" fill="#ED66DA"/>
<path d="M277.632 354.917C274.307 324.233 330.514 292.981 403.175 285.113C475.835 277.246 537.434 295.742 540.76 326.426C544.085 357.11 487.878 388.362 415.217 396.23C342.556 404.098 280.958 385.601 277.632 354.917Z" fill="#B549B2"/>
<path d="M282.185 366.96C279.607 343.173 334.937 317.672 405.767 310.003C476.597 302.334 536.106 315.4 538.684 339.187C541.262 362.974 485.932 388.474 415.102 396.144C344.272 403.813 284.763 390.747 282.185 366.96Z" fill="#C55DBE"/>
<path d="M414.176 100.584C412.894 117.758 444.694 134.421 485.727 137.753C526.504 141.085 560.869 129.806 562.151 112.375C563.434 95.2004 531.633 78.5382 490.6 75.2057C449.824 72.1296 415.715 83.4087 414.176 100.584Z" fill="#B549B2"/>
<path d="M489.831 89.3044C524.965 92.1241 553.688 104.941 560.1 119.296C551.38 132.626 521.118 140.573 485.984 137.753C450.849 134.933 422.126 122.116 415.715 107.761C424.178 94.4312 454.44 86.4846 489.831 89.3044Z" fill="#C55DBE"/>
<path d="M103.865 323.344C112.585 343.082 157.721 342.313 204.396 321.549C251.071 300.786 281.846 267.974 273.126 248.236C264.407 228.498 219.271 229.267 172.596 250.03C125.921 270.794 95.1459 303.606 103.865 323.344Z" fill="#B549B2"/>
<path d="M179.776 265.923C220.039 247.98 259.02 244.903 274.664 256.952C273.126 276.69 244.659 303.606 204.395 321.293C164.132 339.237 125.151 342.313 109.507 330.265C111.045 310.783 139.512 283.867 179.776 265.923Z" fill="#C55DBE"/>
<path d="M699.006 289.483C668.612 251.054 657.124 209.51 673.347 196.691C689.57 183.871 727.36 204.631 757.753 243.06C788.147 281.488 799.635 323.032 783.412 335.852C767.19 348.671 729.4 327.911 699.006 289.483Z" fill="#B549B2"/>
<path d="M698.87 289.497C669.179 251.957 655.289 213.482 667.845 203.56C680.4 193.639 714.648 216.027 744.339 253.567C774.03 291.107 787.921 329.582 775.365 339.504C762.809 349.426 728.561 327.037 698.87 289.497Z" fill="#C55DBE"/>
<path d="M346.215 218.244C348.78 232.855 370.322 241.315 394.429 237.213C418.536 233.112 436.231 217.988 433.667 203.376C431.102 188.765 409.56 180.306 385.453 184.407C361.346 188.508 343.651 203.633 346.215 218.244Z" fill="#B549B2"/>
<path d="M387.504 196.199C408.277 192.61 427.255 198.506 433.667 209.528C431.102 222.089 415.202 233.881 394.429 237.213C373.656 240.802 354.678 234.906 348.267 223.884C350.831 211.323 366.732 199.788 387.504 196.199Z" fill="#C55DBE"/>
<path d="M357.243 146.469C358.269 151.852 366.219 155.184 375.195 153.646C384.171 152.108 390.839 146.469 389.813 141.086C388.787 135.702 380.837 132.37 371.861 133.908C362.885 135.19 356.474 140.829 357.243 146.469Z" fill="#B549B2"/>
<path d="M372.63 138.266C380.324 136.984 387.505 139.035 389.813 143.136C388.787 147.75 382.889 152.108 375.195 153.39C367.501 154.671 360.321 152.621 358.012 148.519C359.038 143.905 364.937 139.547 372.63 138.266Z" fill="#C55DBE"/>
<path d="M274.664 193.379C275.69 198.762 283.64 202.095 292.616 200.557C301.592 199.019 308.26 193.379 307.234 187.996C306.208 182.613 298.258 179.28 289.282 180.818C280.306 182.356 273.638 187.996 274.664 193.379Z" fill="#B549B2"/>
<path d="M290.051 185.176C297.745 183.894 304.926 185.945 307.234 190.046C306.208 194.661 300.309 199.018 292.616 200.3C284.922 201.582 277.741 199.531 275.433 195.43C276.202 190.816 282.101 186.458 290.051 185.176Z" fill="#C55DBE"/>
<path d="M525.478 266.18C522.657 271.05 527.017 278.484 534.711 283.098C542.661 287.712 551.38 287.456 554.201 282.586C557.022 277.715 552.663 270.281 544.969 265.667C537.019 261.053 528.299 261.309 525.478 266.18Z" fill="#B549B2"/>
<path d="M542.661 269.512C549.585 273.357 553.432 279.766 552.662 284.38C549.072 287.456 541.635 286.943 534.711 283.098C527.786 279.253 523.939 272.845 524.709 268.231C528.299 265.154 535.736 265.667 542.661 269.512Z" fill="#C55DBE"/>
<path d="M327.494 79.5636C328.52 84.9468 340.06 87.5102 353.396 85.2031C366.732 82.8961 376.734 76.7439 375.964 71.3607C375.195 65.9775 363.398 63.4141 350.062 65.7212C336.727 67.7719 326.725 73.9241 327.494 79.5636Z" fill="#B549B2"/>
<path d="M350.832 70.0789C362.372 68.0282 372.374 69.8226 375.708 73.6677C373.913 78.5382 364.937 83.1523 353.396 85.203C341.856 87.2538 331.854 85.4594 328.52 81.6143C330.315 76.7438 339.291 71.8733 350.832 70.0789Z" fill="#C55DBE"/>
<path d="M527.786 205.683C525.735 217.475 539.583 229.779 559.074 233.368C578.565 236.957 596.004 230.292 598.055 218.5C600.107 206.709 586.258 194.404 566.768 190.816C547.277 187.227 529.838 193.892 527.786 205.683Z" fill="#B549B2"/>
<path d="M564.972 200.3C581.642 203.376 594.465 212.861 596.26 223.115C590.874 231.83 575.744 236.444 559.074 233.368C542.404 230.292 529.582 220.807 527.786 210.554C532.915 201.838 548.303 197.224 564.972 200.3Z" fill="#C55DBE"/>
<path d="M608.794 336.85C588.53 323.08 578.88 301.952 587.241 289.658C595.602 277.365 618.807 278.561 639.071 292.331C659.335 306.1 668.985 327.229 660.624 339.522C652.263 351.816 629.058 350.619 608.794 336.85Z" fill="#B549B2"/>
<path d="M608.971 336.679C589.175 323.228 578.357 304.635 584.807 295.152C591.256 285.668 612.533 288.885 632.328 302.336C652.124 315.787 662.942 334.379 656.493 343.863C650.043 353.346 628.767 350.13 608.971 336.679Z" fill="#C55DBE"/>
<path d="M161.054 88.2792L172.595 135.446L240.299 116.22L290.821 77.5129L261.585 37.2673L161.054 88.2792Z" fill="#D96DC4"/>
<path d="M161.054 88.2792C163.619 93.406 188.238 85.9721 215.936 71.8734C243.633 57.7746 264.149 42.3942 261.585 37.2673C259.02 32.1405 234.4 39.5744 206.703 53.6732C178.75 67.5156 158.489 83.1524 161.054 88.2792Z" fill="#A13AA4"/>
<path d="M208.755 57.7744C232.606 45.7264 254.148 38.5489 261.329 40.0869C258.251 46.7518 239.786 60.0815 215.936 72.1295C192.085 84.1776 170.543 91.3551 163.362 89.8171C166.44 82.8959 184.905 69.8225 208.755 57.7744Z" fill="#BA51B8"/>
<path d="M384.171 11.6332L376.99 58.2873L427.255 69.8226L472.392 56.7493L465.724 8.81348L384.171 11.6332Z" fill="#D96DC4"/>
<path d="M384.171 11.6332C384.171 17.2727 402.636 21.1178 425.204 20.3488C447.772 19.5797 465.98 14.4529 465.98 8.81342C465.98 3.17392 447.515 -0.671198 424.947 0.0978254C402.123 0.610508 383.914 5.99367 384.171 11.6332Z" fill="#A13AA4"/>
<path d="M424.947 4.45558C444.438 3.68656 460.595 6.50631 464.955 10.8641C460.851 15.4782 444.695 19.5797 425.204 20.0924C405.713 20.8614 389.557 18.0417 385.197 13.6839C389.3 9.06972 405.457 5.22461 424.947 4.45558Z" fill="#BA51B8"/>
<path d="M197.668 164.427C193.011 151.658 219.44 130.301 256.699 116.724C293.958 103.147 327.938 102.492 332.595 115.261C337.252 128.03 310.823 149.387 273.564 162.964C236.305 176.541 202.325 177.196 197.668 164.427Z" fill="#B549B2"/>
<path d="M260.559 126.987C292.616 115.195 322.109 113.144 332.88 121.091C329.802 133.908 305.696 151.339 273.639 163.131C241.582 174.922 212.089 176.973 201.318 169.027C204.395 156.209 228.502 138.778 260.559 126.987Z" fill="#C55DBE"/>
</svg>
