<svg width="323" height="400" viewBox="0 0 323 400" fill="none" xmlns="http://www.w3.org/2000/svg">
<path d="M235.811 195.77L98.3418 110.212C86.1979 102.92 70.6537 106.323 63.3673 118.476L39.5652 157.366C32.2788 169.52 35.6791 185.076 47.8231 192.368L184.807 277.44L235.811 195.77Z" fill="#F3F2ED"/>
<path opacity="0.1" d="M56.081 131.602C63.3673 119.448 79.3973 116.045 91.0555 123.337L228.039 208.41L235.811 195.77L98.3418 110.212C86.1979 102.92 70.6537 106.323 63.3673 118.476L39.5652 157.366C38.5937 158.825 38.1079 160.283 37.6222 161.741L56.081 131.602Z" fill="#231052"/>
<path d="M209.58 237.578L184.807 277.44L233.382 286.676L248.927 261.884L264.471 237.578L235.811 195.771L209.58 237.578Z" fill="#DCDCDC"/>
<path d="M263.92 237.649L233.434 286.798L246.228 294.746L276.714 245.597L263.92 237.649Z" fill="#E91F5C"/>
<path d="M311.589 252.162L276.615 245.356L262.042 268.69L261.556 270.148L246.012 294.455L267.871 322.65L289.73 287.649L289.244 287.163L289.73 287.649L311.589 252.162Z" fill="#DCDCDC"/>
<g opacity="0.1">
<g opacity="0.1">
<path opacity="0.1" d="M201.808 250.217L228.039 208.41L256.213 249.731L268.843 257.995L303.817 265.287L311.589 252.161L276.615 245.356L263.985 237.091L235.811 195.771L209.58 237.578L184.807 277.44L201.808 250.217Z" fill="#231052"/>
<path opacity="0.1" d="M280.987 299.802L281.958 300.288L280.987 299.802Z" fill="#231052"/>
</g>
</g>
<path d="M120.687 113.129C123.601 115.073 124.573 118.962 122.63 121.879L68.7108 208.896C66.7678 211.813 62.8818 212.785 59.9672 210.84C57.0527 208.896 56.0812 205.007 58.0242 202.09L111.457 115.073C113.4 112.156 117.772 111.184 120.687 113.129Z" fill="#E91F5C"/>
<path opacity="0.1" d="M120.687 113.129C118.744 111.67 116.315 112.156 113.886 113.129C114.372 113.129 114.858 113.615 115.829 113.615C118.744 115.559 119.715 119.448 117.772 122.365L63.8531 209.868C63.3673 210.84 62.3958 211.327 61.4243 211.813C64.3389 212.785 67.2534 211.813 68.7107 208.896L122.63 121.879C124.573 118.962 123.601 115.073 120.687 113.129Z" fill="#231052"/>
<path d="M157.119 285.704C158.09 286.19 158.576 287.648 158.09 288.621L90.5699 398.486C90.0841 399.458 88.6268 399.458 87.6553 398.972L2.16208 345.498C1.19056 345.012 0.704808 343.553 1.19056 342.581L69.1966 233.202C69.6823 232.23 71.1396 232.23 72.1111 232.716L157.119 285.704Z" stroke="#F8F8F8" stroke-width="1.0121" stroke-miterlimit="10"/>
<path d="M15.7635 354.248L85.7126 241.467" stroke="#F8F8F8" stroke-width="1.0121" stroke-miterlimit="10"/>
<path d="M33.7363 365.429L103.685 252.648" stroke="#F8F8F8" stroke-width="1.0121" stroke-miterlimit="10"/>
<path d="M51.7097 376.61L121.659 263.828" stroke="#F8F8F8" stroke-width="1.0121" stroke-miterlimit="10"/>
<path d="M69.1969 387.305L139.146 274.523" stroke="#F8F8F8" stroke-width="1.0121" stroke-miterlimit="10"/>
<path d="M11.8773 325.081L101.257 380.986" stroke="#F8F8F8" stroke-width="1.0121" stroke-miterlimit="10"/>
<path d="M23.5356 306.608L112.915 362.026" stroke="#F8F8F8" stroke-width="1.0121" stroke-miterlimit="10"/>
<path d="M35.1938 287.649L124.573 343.067" stroke="#F8F8F8" stroke-width="1.0121" stroke-miterlimit="10"/>
<path d="M46.8517 268.69L136.231 324.595" stroke="#F8F8F8" stroke-width="1.0121" stroke-miterlimit="10"/>
<path d="M58.5099 250.217L147.889 305.636" stroke="#F8F8F8" stroke-width="1.0121" stroke-miterlimit="10"/>
<path d="M110.486 257.022L122.144 238.549" stroke="#F8F8F8" stroke-width="1.0121" stroke-miterlimit="10"/>
<path d="M230.954 167.089C231.925 167.575 233.382 167.575 233.868 166.603L301.874 57.224C302.36 56.2518 301.874 54.7934 300.903 54.3073L215.409 1.31932C214.438 0.833187 212.981 0.833187 212.495 1.80544L144.489 111.184C144.003 112.156 144.489 113.615 145.46 114.101L230.954 167.089Z" stroke="#F8F8F8" stroke-width="1.0121" stroke-miterlimit="10"/>
<path d="M229.497 10.0697L159.548 122.851" stroke="#F8F8F8" stroke-width="1.0121" stroke-miterlimit="10"/>
<path d="M247.469 21.2509L177.52 134.033" stroke="#F8F8F8" stroke-width="1.0121" stroke-miterlimit="10"/>
<path d="M264.957 31.9456L195.008 144.727" stroke="#F8F8F8" stroke-width="1.0121" stroke-miterlimit="10"/>
<path d="M282.93 43.1266L212.981 155.908" stroke="#F8F8F8" stroke-width="1.0121" stroke-miterlimit="10"/>
<path d="M201.808 19.3063L291.188 74.7249" stroke="#F8F8F8" stroke-width="1.0121" stroke-miterlimit="10"/>
<path d="M190.15 37.7793L279.529 93.684" stroke="#F8F8F8" stroke-width="1.0121" stroke-miterlimit="10"/>
<path d="M178.492 56.7379L267.872 112.156" stroke="#F8F8F8" stroke-width="1.0121" stroke-miterlimit="10"/>
<path d="M166.834 75.697L256.213 131.116" stroke="#F8F8F8" stroke-width="1.0121" stroke-miterlimit="10"/>
<path d="M155.176 94.17L244.555 150.075" stroke="#F8F8F8" stroke-width="1.0121" stroke-miterlimit="10"/>
<path d="M184.321 137.921L173.148 156.394" stroke="#F8F8F8" stroke-width="1.0121" stroke-miterlimit="10"/>
<path d="M289.73 287.649L316.447 304.177" stroke="#71717B" stroke-width="1.0121" stroke-miterlimit="10"/>
<path d="M318.39 295.427C322.276 297.857 323.247 302.719 320.819 306.608C318.39 310.497 313.532 311.469 309.646 309.038C305.76 306.608 304.789 301.746 307.217 297.857C309.646 294.454 314.504 292.996 318.39 295.427Z" fill="#E91F5C"/>
<path opacity="0.1" d="M318.39 295.427C316.447 293.968 314.018 293.968 312.075 294.455C312.561 294.455 313.047 294.941 313.532 294.941C317.418 297.371 318.39 302.233 315.961 306.122C314.99 308.066 313.047 309.038 311.104 309.525C314.504 310.983 318.876 309.525 320.819 306.122C323.248 302.719 322.276 297.857 318.39 295.427Z" fill="#231052"/>
<path d="M139.145 230.285C140.603 231.258 141.088 232.716 140.117 234.174C139.145 235.633 137.688 235.633 136.231 235.147L89.5982 205.979C88.1409 205.007 88.1409 203.548 88.6267 202.09C89.5982 200.632 91.0555 200.632 92.5128 201.118L139.145 230.285Z" fill="#71717B"/>
</svg>
