<?xml version="1.0" encoding="utf-8"?>
<!-- Generator: Adobe Illustrator 24.0.2, SVG Export Plug-In . SVG Version: 6.00 Build 0)  -->
<svg version="1.1" id="Capa_1" xmlns="http://www.w3.org/2000/svg" xmlns:xlink="http://www.w3.org/1999/xlink" x="0px" y="0px"
	 viewBox="0 0 23 23" style="enable-background:new 0 0 23 23;" xml:space="preserve">
<style type="text/css">
	.st0{fill-rule:evenodd;clip-rule:evenodd;fill:#E91F5C;}
</style>
<path class="st0" d="M2.6,5.1l8.9,6.2l8.9-6.2c-0.2-0.3-0.5-0.6-0.9-0.6h-16C3.1,4.5,2.8,4.7,2.6,5.1z M20.5,7.4l-8.4,5.9
	c-0.3,0.2-0.8,0.2-1.1,0L2.5,7.4v10.1c0,0.5,0.5,1,1,1h16c0.5,0,1-0.5,1-1V7.4z M0.5,5.5c0-1.7,1.3-3,3-3h16c1.7,0,3,1.3,3,3v12
	c0,1.7-1.3,3-3,3h-16c-1.7,0-3-1.3-3-3V5.5z"/>
</svg>
