<?xml version="1.0" encoding="utf-8"?>
<!-- Generator: Adobe Illustrator 24.0.2, SVG Export Plug-In . SVG Version: 6.00 Build 0)  -->
<svg version="1.1" id="Capa_1" xmlns="http://www.w3.org/2000/svg" xmlns:xlink="http://www.w3.org/1999/xlink" x="0px" y="0px"
	 viewBox="0 0 23 23" style="enable-background:new 0 0 23 23;" xml:space="preserve">
<style type="text/css">
	.st0{fill:#E91F5C;}
</style>
<g>
	<path class="st0" d="M18.9,22.9c-0.1,0-0.2,0-0.3,0c-3.2-0.4-6.4-1.5-9.1-3.2c-2.5-1.6-4.7-3.8-6.3-6.3C1.5,10.7,0.4,7.5,0,4.3
		C0,3.9,0,3.4,0.2,3C0.3,2.6,0.5,2.3,0.8,2c0.3-0.3,0.6-0.6,1-0.7C2.2,1.1,2.6,1,3,1h3c0.7,0,1.4,0.2,2,0.7c0.6,0.5,0.9,1.1,1,1.9
		c0.1,0.9,0.3,1.8,0.6,2.6c0.2,0.5,0.2,1.1,0.1,1.7C9.6,8.4,9.4,8.9,9,9.3l-0.7,0.7c1.2,1.8,2.7,3.4,4.6,4.6l0.7-0.7
		c0.4-0.4,0.9-0.7,1.5-0.8c0.6-0.1,1.1-0.1,1.7,0.1c0.8,0.3,1.7,0.5,2.6,0.6c0.7,0.1,1.4,0.5,1.9,1c0.5,0.6,0.7,1.3,0.7,2v3
		c0,0.4-0.1,0.8-0.3,1.2c-0.2,0.4-0.4,0.7-0.7,1c-0.3,0.3-0.7,0.5-1.1,0.6C19.5,22.9,19.2,22.9,18.9,22.9z M6,3C6,3,6,3,6,3H3
		C2.9,3,2.7,3,2.6,3.1C2.5,3.1,2.4,3.2,2.3,3.3C2.2,3.4,2.1,3.5,2.1,3.7C2,3.8,2,4,2,4.1C2.3,7,3.3,9.8,4.9,12.3
		c1.5,2.3,3.4,4.3,5.7,5.7c2.5,1.6,5.3,2.6,8.2,2.9c0.1,0,0.3,0,0.4-0.1c0.1,0,0.3-0.1,0.4-0.2c0.1-0.1,0.2-0.2,0.2-0.3
		c0.1-0.1,0.1-0.3,0.1-0.4v-3c0,0,0,0,0,0c0-0.2-0.1-0.5-0.2-0.7c-0.2-0.2-0.4-0.3-0.6-0.3c-1-0.1-2-0.4-3-0.8
		c-0.2-0.1-0.4-0.1-0.6,0c-0.2,0-0.4,0.1-0.5,0.3l-1.3,1.3c-0.3,0.3-0.8,0.4-1.2,0.2c-2.7-1.5-4.9-3.7-6.4-6.4C5.9,10,6,9.5,6.3,9.2
		l1.3-1.3c0.1-0.1,0.2-0.3,0.3-0.5c0-0.2,0-0.4,0-0.6c-0.4-1-0.6-2-0.8-3c0-0.2-0.2-0.5-0.3-0.6C6.5,3.1,6.3,3,6,3z"/>
</g>
<g>
	<path class="st0" d="M17.9,10c-0.3,0-0.5-0.1-0.7-0.3l-3.9-4c-0.3-0.3-0.4-0.8-0.2-1.2c0.2-0.4,0.6-0.6,1.1-0.5
		c1.2,0.2,2.2,0.8,3.1,1.6c0.8,0.8,1.4,1.9,1.6,3.1c0.1,0.4-0.1,0.9-0.5,1.1C18.2,9.9,18,10,17.9,10z"/>
</g>
<g>
	<path class="st0" d="M21.9,9.9c-0.3,0-0.5-0.1-0.7-0.3l-7.9-7.9C12.9,1.4,12.9,1,13,0.6C13.2,0.2,13.6,0,14,0
		c2.2,0.2,4.4,1.3,6,2.9c1.6,1.6,2.6,3.7,2.9,6c0,0.4-0.2,0.8-0.6,1C22.2,9.9,22,9.9,21.9,9.9z"/>
</g>
</svg>
