<?xml version="1.0" encoding="utf-8"?>
<!-- Generator: Adobe Illustrator 24.0.2, SVG Export Plug-In . SVG Version: 6.00 Build 0)  -->
<svg version="1.1" id="Capa_1" xmlns="http://www.w3.org/2000/svg" xmlns:xlink="http://www.w3.org/1999/xlink" x="0px" y="0px"
	 viewBox="0 0 566 304" style="enable-background:new 0 0 566 304;" xml:space="preserve">
<style type="text/css">
	.st0{fill:#FFFFFF;}
	.st1{fill:#F05A28;}
	.st2{fill:#F2B31B;}
	.st3{fill:#F2C365;}
	.st4{fill:#3C2A34;}
	.st5{fill:#C80640;}
	.st6{fill:#E91F5C;}
	.st7{fill:#F5EFDB;}
	.st8{fill:#FFFAEF;}
	.st9{opacity:5.000000e-02;fill:#3C2A34;enable-background:new    ;}
	.st10{fill:#FFFDF2;}
	.st11{fill:#1F7A8C;}
	.st12{fill:#7AC8A9;}
</style>
<path class="st0" d="M185.1,204.4c-33.6,0.4-78.2-22.4-78.6-51.2c-0.4-28.8,43.6-52.9,77.2-53.4c33.6-0.4,61.3,22.6,61.7,51.4
	C245.7,180,218.7,203.9,185.1,204.4z"/>
<path class="st0" d="M195.5,200.9l-1.3-97.8l-284.7,3.8l1.3,97.8L195.5,200.9z"/>
<path class="st1" d="M193.6,194.6c-23.3,0.3-79.7-17.8-80-41.1c-0.3-23.3,55.6-42.9,78.9-43.2c23.3-0.3,42.4,18.3,42.7,41.6
	C235.4,175.1,216.8,194.2,193.6,194.6z"/>
<path class="st2" d="M192.6,182.1c-16.3,0.2-56-12.6-56.2-28.8c-0.2-16.3,39.1-30,55.4-30.2c16.3-0.2,29.7,12.9,29.9,29.1
	C222.1,168.4,208.9,181.9,192.6,182.1z"/>
<path class="st3" d="M198.7,171c-10.2,0.1-35.2-7.9-35.3-18.1c-0.1-10.2,24.6-18.9,34.8-19.1c10.2-0.1,18.7,8.1,18.8,18.4
	C217.2,162.5,208.9,170.8,198.7,171z"/>
<path class="st4" d="M246.3,219.2l-1.7-130.5L228.6,89l1.7,130.5L246.3,219.2z"/>
<path class="st5" d="M247.4,84.2c0,0-2.6-44.5-53.2-43c0,0,29.9-40.9,86.7-23.1c25.4,8,49.4,38.4,54.3,64.9L247.4,84.2z"/>
<path class="st6" d="M249.2,219.3c0,0-1.4,44.5-52,44.4c0,0,31,40.1,87.3,20.8c25.1-8.7,48.4-39.7,52.5-66.3L249.2,219.3z"/>
<path class="st7" d="M549.9,149.3l-304.7,4l-1-76.5C244.2,76.8,431.3,23.6,549.9,149.3z"/>
<path class="st8" d="M549.9,149.3l-304.7,4l1,76.5C246.3,230,434.7,278.1,549.9,149.3z"/>
<path class="st6" d="M480.9,97.6c0,0-28.8,44.1,1.4,105.2c0,0,42.8-20.6,69.7-53.5C552.1,149.3,526.6,120.9,480.9,97.6z"/>
<path class="st8" d="M486.6,192.9c-2.7,0-4.8-2.1-4.8-4.7c0-2.7,2.1-4.8,4.7-4.8c2.7,0,4.8,2.1,4.8,4.7
	C491.5,190.8,489.2,192.9,486.6,192.9z"/>
<path class="st5" d="M468.6,150.4l83.4-1.1c0,0-27.4-29.5-71.1-51.7C480.9,97.6,468.2,115.7,468.6,150.4z"/>
<path class="st9" d="M244.2,76.8c0,0,177-55.2,307.8,72.5c0,0-133.3-98.2-230.4-40.3c-63.3,37.6-31.3,127.9-31.3,127.9
	s-24.5-3.1-44.2-7l-2-153.1L244.2,76.8z"/>
<path class="st10" d="M494,181.2c0-1.6,0.9-3.1,2.5-3.8c17.8-7.1,33.1-22.8,33.3-22.9c1.6-1.6,4-1.6,5.6-0.1c1.6,1.6,1.6,4,0.1,5.6
	c-0.7,0.7-16.7,17.1-36,24.8c-2,0.8-4.3-0.2-5.1-2.2C494,182.1,494,181.5,494,181.2z"/>
<path class="st10" d="M246.8,278c0-0.1,0-0.3,0-0.4c0.1-2.1,2.1-3.7,4.2-3.6c47.5,3.5,60.6-29.8,60.7-30c0.8-2,3-3.1,5-2.3
	c2,0.8,3.1,3,2.3,5c-0.1,0.4-3.9,10.2-14.4,19.3c-9.5,8.4-26.7,17.9-54.4,15.9C248.4,281.7,246.8,280.1,246.8,278z"/>
<path class="st11" d="M391.6,186.6c-19.1,0.3-34.8-15-35-34.1c-0.3-19.1,15-34.8,34.1-35c19.1-0.3,34.8,15,35,34.1
	C426,170.8,410.6,186.4,391.6,186.6z"/>
<path class="st12" d="M392.7,186.6c-16.7,0.2-30.5-13.2-30.7-29.9c-0.2-16.7,13.2-30.5,29.9-30.7c16.7-0.2,30.5,13.2,30.7,29.9
	C422.8,172.7,409.4,186.4,392.7,186.6z"/>
<path class="st10" d="M387.5,178.6c0-2.1,1.7-4,3.9-4c11-0.1,19.9-9.3,19.8-20.3c0-2.1,1.7-4,3.9-4c2.1,0,4,1.7,4,3.9
	c0.2,15.4-12.1,28.1-27.5,28.3C389.3,182.4,387.5,180.7,387.5,178.6z"/>
<path class="st8" d="M378.9,180.5c-2.7,0-4.8-2.1-4.8-4.7c0-2.7,2.1-4.8,4.7-4.8c2.7,0,4.8,2.1,4.8,4.7
	C383.7,178.4,381.6,180.5,378.9,180.5z"/>
<path class="st8" d="M235.9,283.4c-2.7,0-4.8-2.1-4.8-4.7c0-2.7,2.1-4.8,4.7-4.8c2.7,0,4.8,2.1,4.8,4.7
	C240.7,281.1,238.6,283.4,235.9,283.4z"/>
<path class="st6" d="M332.5,158.2c1.8-1.5,3.1-3.8,3.1-6.3l0-1.6c0-2.5-1.3-4.9-3.3-6.2c0,0-27.8-23.7-96.6-11.7
	c-38.1,6.6-49.2,20.7-49.2,20.7s11.5,13.9,49.7,19.4C305.3,182.4,332.5,158.2,332.5,158.2z"/>
<path class="st5" d="M335.6,149.5c0-2.5-1.3-4.9-3.3-6.2c0,0-27.8-23.7-96.6-11.7c-38.1,6.6-49.2,20.7-49.2,20.7l149.1-2
	L335.6,149.5z"/>
</svg>
