<svg width="307" height="469" viewBox="0 0 307 469" fill="none" xmlns="http://www.w3.org/2000/svg">
<path d="M291.326 248.461C290.623 248.461 289.92 247.935 289.92 247.057V237.404C289.92 236.702 290.447 236 291.326 236C292.204 236 292.732 236.527 292.732 237.404V247.057C292.732 247.759 292.029 248.461 291.326 248.461Z" fill="#BDD0FF"/>
<path d="M296.07 243.547H286.406C285.703 243.547 285 243.02 285 242.143C285 241.265 285.527 240.739 286.406 240.739H296.07C296.773 240.739 297.476 241.265 297.476 242.143C297.476 243.02 296.773 243.547 296.07 243.547Z" fill="#BDD0FF"/>
<path d="M7.02863 70.5102C7.02863 72.4408 5.44718 74.0203 3.51431 74.0203C1.58144 74.0203 0 72.4408 0 70.5102C0 68.5796 1.58144 67 3.51431 67C5.44718 67 7.02863 68.5796 7.02863 70.5102Z" fill="#BDD0FF"/>
<path d="M11.3258 160.286C10.6229 160.286 9.92004 159.759 9.92004 158.882V149.404C9.92004 148.702 10.4472 148 11.3258 148C12.2043 148 12.7315 148.527 12.7315 149.404V159.057C12.7315 159.759 12.0286 160.286 11.3258 160.286Z" fill="#BDD0FF"/>
<path d="M16.07 155.547H6.40569C5.70284 155.547 5 155.02 5 154.143C5 153.265 5.52712 152.739 6.40569 152.739H16.07C16.7728 152.739 17.4757 153.265 17.4757 154.143C17.4757 155.02 16.7728 155.547 16.07 155.547Z" fill="#BDD0FF"/>
<path d="M101.514 39.0203C103.455 39.0203 105.029 37.4488 105.029 35.5102C105.029 33.5716 103.455 32 101.514 32C99.5734 32 98 33.5716 98 35.5102C98 37.4488 99.5734 39.0203 101.514 39.0203Z" fill="#BDD0FF"/>
<path d="M177.029 464.51C177.029 466.441 175.447 468.02 173.514 468.02C171.581 468.02 170 466.441 170 464.51C170 462.58 171.581 461 173.514 461C175.447 461.176 177.029 462.58 177.029 464.51Z" fill="#BDD0FF"/>
<path d="M196.227 192.818C196.227 194.748 194.646 196.328 192.713 196.328C190.78 196.328 189.199 194.748 189.199 192.818C189.199 190.887 190.78 189.307 192.713 189.307C194.646 189.307 196.227 190.887 196.227 192.818Z" fill="#BDD0FF"/>
<path d="M160.557 233.711C160.557 235.642 158.976 237.221 157.043 237.221C155.11 237.221 153.529 235.642 153.529 233.711C153.529 231.78 155.11 230.201 157.043 230.201C158.976 230.201 160.557 231.78 160.557 233.711Z" fill="#BDD0FF"/>
<path d="M196.227 98.2187C196.227 100.149 194.646 101.729 192.713 101.729C190.78 101.729 189.199 100.149 189.199 98.2187C189.199 96.2881 190.78 94.7085 192.713 94.7085C194.646 94.884 196.227 96.2881 196.227 98.2187Z" fill="#BDD0FF"/>
<path d="M306.928 4.49723C306.928 6.42782 305.346 8.0074 303.413 8.0074C301.48 8.0074 299.899 6.42782 299.899 4.49723C299.899 2.56664 301.48 0.987061 303.413 0.987061C305.346 0.987061 306.928 2.56664 306.928 4.49723Z" fill="#BDD0FF"/>
<path d="M169.87 348.669C169.167 348.669 168.464 348.142 168.464 347.265V337.612C168.464 336.91 168.992 336.208 169.87 336.208C170.749 336.208 171.276 336.734 171.276 337.612V347.265C171.1 347.967 170.573 348.669 169.87 348.669Z" fill="#BDD0FF"/>
<path d="M174.614 343.755H164.95C164.247 343.755 163.544 343.228 163.544 342.351C163.544 341.473 164.072 340.947 164.95 340.947H174.614C175.317 340.947 176.02 341.473 176.02 342.351C176.02 343.228 175.317 343.755 174.614 343.755Z" fill="#BDD0FF"/>
</svg>
