<svg width="523" height="606" viewBox="0 0 523 606" fill="none" xmlns="http://www.w3.org/2000/svg">
<path opacity="0.5" d="M630.853 439.213C933.477 347.218 1160.24 211.609 1137.35 136.321C1114.46 61.0329 850.572 74.5764 547.949 166.571C245.325 258.566 18.5588 394.175 41.4522 469.463C64.3456 544.751 328.229 531.208 630.853 439.213Z" stroke="#4C4C4F" stroke-width="4" stroke-miterlimit="10"/>
<path d="M421.716 227.168C426.387 213.007 418.692 197.74 404.531 193.07C390.369 188.4 375.103 196.094 370.432 210.256C365.762 224.417 373.456 239.684 387.618 244.354C401.78 249.024 417.046 241.33 421.716 227.168Z" fill="#FFDE75"/>
<path d="M401 235.004C402.924 234.211 404.905 233.419 407 233.136C408.018 233.023 409.264 233.136 409.717 234.042C410.056 234.778 409.773 235.627 409.151 236.193C408.584 236.759 407.792 237.042 407.056 237.268C404 238.344 400.943 239.419 397.886 240.438C396.018 241.117 392.396 241.57 394.49 238.74C396.018 236.872 398.905 235.91 401 235.004Z" fill="#DE912F"/>
<path d="M377.622 235.174C385.773 229.287 394.094 222.834 403.943 220.853C410.283 219.608 417.415 220.004 423.019 217.457C422.905 215.249 422.509 212.985 421.83 210.721C421.547 209.872 421.264 209.079 420.924 208.287C418.603 209.193 416.283 210.098 413.962 211.004C412.264 211.683 410.452 212.362 408.585 212.136C406.773 211.91 404.905 210.551 404.849 208.683C404.849 207.777 405.245 206.928 405.641 206.136C407.396 202.853 409.83 199.91 412.717 197.589C410.792 196.061 408.641 194.815 406.377 193.853C405.132 194.759 403.943 195.777 402.924 196.966C398.226 202.4 396.528 210.381 390.868 215.023C386.566 218.589 380.679 219.551 375.924 222.494C373.886 223.74 372.019 225.381 370.547 227.249C371.735 230.759 373.547 233.872 375.811 236.476C376.377 236.079 377 235.627 377.622 235.174Z" fill="#E6AC4A"/>
<path d="M377.396 218.815C378.868 218.136 380.396 217.57 381.868 216.891C386.566 214.796 390.698 211.513 393.868 207.494C394.264 207.042 394.603 206.532 394.717 205.91C395 204.494 393.698 203.136 392.283 202.91C390.868 202.627 389.452 203.136 388.094 203.702C381.868 206.306 375.018 210.211 369.301 214.74C368.905 217.74 368.962 220.853 369.584 224.023C372.358 222.381 375.245 219.834 377.396 218.815Z" fill="#DE912F"/>
<path d="M393.868 197.306C393.924 197.815 394.32 198.211 394.773 198.438C395.792 198.947 397.037 198.664 397.943 197.985C398.849 197.306 399.471 196.344 400.037 195.325C400.434 194.645 401.622 193.513 402.528 192.494C401 192.098 399.415 191.872 397.83 191.759C396.358 193.061 395.056 194.702 394.32 195.891C394.037 196.287 393.811 196.796 393.868 197.306Z" fill="#DE912F"/>
<g style="mix-blend-mode:multiply">
<path d="M413.962 222.834C407.226 223.74 400.151 224.023 394.094 227.193C390.471 229.117 387.471 231.947 384.471 234.777C382.943 236.249 381.358 237.721 379.83 239.193C379.66 239.306 379.434 239.532 379.094 239.815C381.075 241.4 383.226 242.645 385.49 243.664C388.49 241.796 390.415 238.4 393.132 236.079C395.509 234.042 398.452 232.796 401.396 231.664C405.585 230.079 409.83 228.608 414.132 227.362C416.849 226.57 419.735 225.777 422.339 224.645C422.566 223.57 422.736 222.438 422.849 221.306C420.019 221.872 417.019 222.381 413.962 222.834Z" fill="#E6AC4A"/>
</g>
<path d="M371.283 208.061C372.981 208.004 374.905 206.419 376.094 205.796C381.075 203.136 385.717 199.796 390.019 195.947C391.207 194.872 392.452 193.627 392.792 191.872C391.207 192.042 389.679 192.381 388.094 192.891C380.226 195.325 374.283 201.042 371.283 208.061Z" fill="#DE912F"/>
<path opacity="0.5" d="M617.035 393.207C870.479 316.163 1062.01 207.889 1044.82 151.372C1027.63 94.8555 808.245 111.497 554.8 188.541C301.356 265.586 109.83 373.859 127.015 430.376C144.201 486.893 363.59 470.252 617.035 393.207Z" stroke="#4C4C4F" stroke-width="3" stroke-miterlimit="10"/>
<path opacity="0.5" d="M596.123 324.576C790.594 265.458 940.348 191.566 930.607 159.533C920.867 127.5 755.321 149.456 560.85 208.574C366.379 267.691 216.625 341.583 226.366 373.616C236.106 405.649 401.652 383.693 596.123 324.576Z" stroke="#4C4C4F" stroke-width="2" stroke-miterlimit="10"/>
<path opacity="0.5" d="M584.867 287.923C692.408 255.232 775.211 214.34 769.813 196.589C764.416 178.839 672.861 190.95 565.321 223.642C457.78 256.333 374.977 297.224 380.374 314.975C385.772 332.726 477.327 320.614 584.867 287.923Z" stroke="#4C4C4F" stroke-width="2" stroke-miterlimit="10"/>
<path d="M143.678 535.702C156.475 535.702 166.848 525.33 166.848 512.535C166.848 499.741 156.475 489.368 143.678 489.368C130.882 489.368 120.508 499.741 120.508 512.535C120.508 525.33 130.882 535.702 143.678 535.702Z" fill="#E91F5C"/>
</svg>
