<?xml version="1.0" encoding="utf-8"?>
<!-- Generator: Adobe Illustrator 24.0.2, SVG Export Plug-In . SVG Version: 6.00 Build 0)  -->
<svg version="1.1" id="Capa_1" xmlns="http://www.w3.org/2000/svg" xmlns:xlink="http://www.w3.org/1999/xlink" x="0px" y="0px"
	 viewBox="0 0 175 186" style="enable-background:new 0 0 175 186;" xml:space="preserve">
<style type="text/css">
	.st0{fill:url(#SVGID_1_);}
	.st1{fill:url(#SVGID_2_);}
	.st2{opacity:0.5;fill:url(#SVGID_3_);enable-background:new    ;}
	.st3{opacity:0.5;fill:url(#SVGID_4_);enable-background:new    ;}
	.st4{opacity:0.5;fill:url(#SVGID_5_);enable-background:new    ;}
	.st5{opacity:0.5;fill:url(#SVGID_6_);enable-background:new    ;}
	.st6{fill:url(#SVGID_7_);}
	.st7{fill:url(#SVGID_8_);}
	.st8{fill:url(#SVGID_9_);}
	.st9{fill:url(#SVGID_10_);}
	.st10{fill:url(#SVGID_11_);}
	.st11{fill:url(#SVGID_12_);}
	.st12{fill:url(#SVGID_13_);}
	.st13{fill:url(#SVGID_14_);}
	.st14{fill:url(#SVGID_15_);}
	.st15{fill:url(#SVGID_16_);}
	.st16{fill:url(#SVGID_17_);}
	.st17{fill:url(#SVGID_18_);}
	.st18{fill:url(#SVGID_19_);}
	.st19{fill:url(#SVGID_20_);}
	.st20{opacity:0.5;fill:url(#SVGID_21_);enable-background:new    ;}
	.st21{opacity:0.5;fill:url(#SVGID_22_);enable-background:new    ;}
	.st22{opacity:0.5;fill:url(#SVGID_23_);enable-background:new    ;}
	.st23{opacity:0.5;fill:url(#SVGID_24_);enable-background:new    ;}
	.st24{opacity:0.5;fill:url(#SVGID_25_);enable-background:new    ;}
	.st25{opacity:0.5;fill:url(#SVGID_26_);enable-background:new    ;}
	.st26{opacity:0.5;fill:url(#SVGID_27_);enable-background:new    ;}
	.st27{opacity:0.5;fill:url(#SVGID_28_);enable-background:new    ;}
	.st28{opacity:0.5;fill:url(#SVGID_29_);enable-background:new    ;}
	.st29{opacity:0.5;fill:url(#SVGID_30_);enable-background:new    ;}
	.st30{opacity:0.5;fill:url(#SVGID_31_);enable-background:new    ;}
	.st31{opacity:0.5;fill:url(#SVGID_32_);enable-background:new    ;}
	.st32{opacity:0.5;fill:url(#SVGID_33_);enable-background:new    ;}
	.st33{opacity:0.5;fill:url(#SVGID_34_);enable-background:new    ;}
	.st34{opacity:0.5;fill:url(#SVGID_35_);enable-background:new    ;}
	.st35{opacity:0.5;fill:url(#SVGID_36_);enable-background:new    ;}
	.st36{fill:url(#SVGID_37_);}
	.st37{fill:url(#SVGID_38_);}
	.st38{opacity:0.5;fill:url(#SVGID_39_);enable-background:new    ;}
	.st39{opacity:0.5;fill:url(#SVGID_40_);enable-background:new    ;}
	.st40{opacity:0.5;fill:url(#SVGID_41_);enable-background:new    ;}
	.st41{opacity:0.5;fill:url(#SVGID_42_);enable-background:new    ;}
	.st42{fill:url(#SVGID_43_);}
	.st43{fill:url(#SVGID_44_);}
	.st44{fill:url(#SVGID_45_);}
	.st45{fill:url(#SVGID_46_);}
	.st46{fill:url(#SVGID_47_);}
	.st47{fill:url(#SVGID_48_);}
	.st48{fill:url(#SVGID_49_);}
	.st49{fill:url(#SVGID_50_);}
	.st50{fill:url(#SVGID_51_);}
	.st51{fill:url(#SVGID_52_);}
	.st52{fill:url(#SVGID_53_);}
	.st53{fill:url(#SVGID_54_);}
	.st54{fill:url(#SVGID_55_);}
	.st55{fill:url(#SVGID_56_);}
	.st56{opacity:0.5;fill:url(#SVGID_57_);enable-background:new    ;}
	.st57{opacity:0.5;fill:url(#SVGID_58_);enable-background:new    ;}
	.st58{opacity:0.5;fill:url(#SVGID_59_);enable-background:new    ;}
	.st59{opacity:0.5;fill:url(#SVGID_60_);enable-background:new    ;}
	.st60{opacity:0.5;fill:url(#SVGID_61_);enable-background:new    ;}
	.st61{opacity:0.5;fill:url(#SVGID_62_);enable-background:new    ;}
	.st62{opacity:0.5;fill:url(#SVGID_63_);enable-background:new    ;}
	.st63{opacity:0.5;fill:url(#SVGID_64_);enable-background:new    ;}
	.st64{opacity:0.5;fill:url(#SVGID_65_);enable-background:new    ;}
	.st65{opacity:0.5;fill:url(#SVGID_66_);enable-background:new    ;}
	.st66{opacity:0.5;fill:url(#SVGID_67_);enable-background:new    ;}
	.st67{opacity:0.5;fill:url(#SVGID_68_);enable-background:new    ;}
	.st68{opacity:0.5;fill:url(#SVGID_69_);enable-background:new    ;}
	.st69{opacity:0.5;fill:url(#SVGID_70_);enable-background:new    ;}
	.st70{opacity:0.5;fill:url(#SVGID_71_);enable-background:new    ;}
	.st71{opacity:0.5;fill:url(#SVGID_72_);enable-background:new    ;}
</style>
<radialGradient id="SVGID_1_" cx="-500.9927" cy="693.1641" r="1" gradientTransform="matrix(70.1603 55.8508 55.9787 -70.3209 -3605.0933 76732.6875)" gradientUnits="userSpaceOnUse">
	<stop  offset="8.148150e-02" style="stop-color:#DFAB45"/>
	<stop  offset="1" style="stop-color:#E64A24"/>
</radialGradient>
<path class="st0" d="M70.9,11.2c-13-6-30.2-15.2-44.7-9.3c-5.9,2.4-14.8,13.4-15.7,19.7c-0.6,2.7,0,5.4,0.3,8.1
	c0,6.6-4.1,12.6-4.7,19.1C5,58.7,11.8,68.3,20.6,73.1c8.9,4.8,19.2,5.4,29,4.8c9.8-0.3,20.1-2.1,26.6-9.6c3-3.6,4.7-8.4,4.7-13.1
	c0-3.3-0.9-6.6-0.6-9.9c0.6-8.1,6.5-15.8,3.8-23.3C82.2,16.6,76.3,13.6,70.9,11.2z"/>
<radialGradient id="SVGID_2_" cx="-500.9927" cy="693.1641" r="1" gradientTransform="matrix(70.1603 55.8508 55.9787 -70.3209 -3605.0933 76732.6875)" gradientUnits="userSpaceOnUse">
	<stop  offset="8.148150e-02" style="stop-color:#DFAB45"/>
	<stop  offset="1" style="stop-color:#E64A24"/>
</radialGradient>
<path class="st1" d="M70.9,11.2c-13-6-30.2-15.2-44.7-9.3c-5.9,2.4-14.8,13.4-15.7,19.7c-0.6,2.7,0,5.4,0.3,8.1
	c0,6.6-4.1,12.6-4.7,19.1C5,58.7,11.8,68.3,20.6,73.1c8.9,4.8,19.2,5.4,29,4.8c9.8-0.3,20.1-2.1,26.6-9.6c3-3.6,4.7-8.4,4.7-13.1
	c0-3.3-0.9-6.6-0.6-9.9c0.6-8.1,6.5-15.8,3.8-23.3C82.2,16.6,76.3,13.6,70.9,11.2z"/>
<radialGradient id="SVGID_3_" cx="-499.205" cy="692.9774" r="1" gradientTransform="matrix(57.355 45.6572 45.7617 -57.4863 -3028.9697 62633.8125)" gradientUnits="userSpaceOnUse">
	<stop  offset="8.148150e-02" style="stop-color:#DFAB45"/>
	<stop  offset="0.8556" style="stop-color:#DFAB45;stop-opacity:0"/>
</radialGradient>
<path class="st2" d="M66.2,13.9c5.3,2.4,11.2,5.4,13.3,11.1c2.7,7.5-3.3,15.2-3.8,23.3c-0.3,3.3,0.6,6.6,0.6,9.9
	c0,4.8-1.8,9.6-4.7,13.1c-1.5,1.5-3,3-4.7,3.9c3.6-1.5,6.8-3.6,9.5-6.6c3-3.6,4.7-8.4,4.7-13.1c0-3.3-0.9-6.6-0.6-9.9
	c0.6-8.1,6.5-15.8,3.8-23.3c-2.1-5.7-7.7-8.7-13.3-11.1c-13-6-30.2-15.2-44.7-9.3C25.4,2.5,24.2,3.1,23,4
	C37.2-0.8,53.5,8.2,66.2,13.9z"/>
<radialGradient id="SVGID_4_" cx="-499.4157" cy="692.9994" r="1" gradientTransform="matrix(58.6161 46.6611 46.768 -58.7504 -3072.8137 64036.4766)" gradientUnits="userSpaceOnUse">
	<stop  offset="8.148150e-02" style="stop-color:#DFAB45"/>
	<stop  offset="0.8556" style="stop-color:#DFAB45;stop-opacity:0"/>
</radialGradient>
<path class="st3" d="M80.1,38.7c0-2.4-0.6-4.5-0.3-6.9c0.3-4.2,2.7-8.1,3-12c-2.7-4.2-7.4-6.6-11.8-8.4c-7.7-3.6-16.9-8.1-26-10.2
	c-0.9,0.3-1.5,0.3-2.4,0.6c-3.8,1.8-10.1,9.3-10.7,13.4c-0.3,1.8,0.3,3.9,0.3,5.7c0,4.5-2.7,8.7-3.3,13.1C28,41.1,32.8,47.7,39,50.9
	c5.9,3.3,13,3.6,19.8,3.3c6.5-0.3,13.9-1.5,18.3-6.6C78.9,45,80.1,42,80.1,38.7z"/>
<radialGradient id="SVGID_5_" cx="-499.9243" cy="693.0525" r="1" gradientTransform="matrix(61.9011 49.2761 49.389 -62.0429 -3245.011 67653.0078)" gradientUnits="userSpaceOnUse">
	<stop  offset="8.148150e-02" style="stop-color:#DFAB45"/>
	<stop  offset="1" style="stop-color:#E64A24"/>
</radialGradient>
<path class="st4" d="M80.7,55.4c-5.6,4.8-13.9,6.3-21.6,6.6c-8.9,0.3-18-0.3-25.7-4.2C25.7,53.6,19.4,45,20.6,36.3
	c0.6-6,4.1-11.1,4.1-17c0-2.4-0.6-4.8-0.3-7.2c0.6-3.3,3.3-7.8,6.5-11.4c-1.5,0.3-3.3,0.6-4.7,1.5C20.3,4.6,11.5,15.7,10.6,22
	c-0.6,2.4,0,5.1,0.3,7.8c0,6.6-4.1,12.6-4.7,19.1C5,58.7,11.8,68.3,20.6,73.1c8.9,4.8,19.2,5.4,29,4.8c9.8-0.3,20.1-2.1,26.6-9.6
	C78.9,65,80.7,60.2,80.7,55.4z"/>
<radialGradient id="SVGID_6_" cx="-499.4248" cy="693.0004" r="1" gradientTransform="matrix(58.6721 46.7057 46.8127 -58.8065 -3104.5901 64103.7734)" gradientUnits="userSpaceOnUse">
	<stop  offset="8.148150e-02" style="stop-color:#DFAB45"/>
	<stop  offset="1" style="stop-color:#E64A24"/>
</radialGradient>
<path class="st5" d="M54.7,73.1c-9.8,0.3-20.1-0.3-29-4.8C16.8,63.5,10,53.9,11.2,44.1c0.9-6.6,4.7-12.6,4.7-19.1
	c0-2.7-0.6-5.4-0.3-8.1c0.6-3.6,3.6-8.4,7.1-12.6c-5,3.9-11.2,12.3-12.1,17.3c-0.6,2.7,0,5.4,0.3,8.1c0,6.6-4.1,12.6-4.7,19.1
	C5,58.7,11.8,68.3,20.6,73.1c8.9,4.8,19.2,5.4,29,4.8c9.8-0.3,20.1-2.1,26.6-9.6c0.3-0.3,0.6-0.9,0.9-1.2
	C70.6,71.6,62.4,72.8,54.7,73.1z"/>
<radialGradient id="SVGID_7_" cx="-499.314" cy="692.9888" r="1" gradientTransform="matrix(58.0006 46.1711 46.2768 -58.1333 -3061.3582 63355.6133)" gradientUnits="userSpaceOnUse">
	<stop  offset="8.148150e-02" style="stop-color:#DFAB45"/>
	<stop  offset="1" style="stop-color:#E64A24"/>
</radialGradient>
<path class="st6" d="M37.8,19.6c-2.4,3-6.8,3.6-9.8,1.2c-3-2.4-3.6-6.9-1.2-9.9c2.4-3,6.8-3.6,9.8-1.2
	C39.6,12.1,40.2,16.6,37.8,19.6z M21.5,34.2c-1.8-1.2-4.1-0.9-5.3,0.6c-1.2,1.8-0.9,4.2,0.6,5.4c1.8,1.2,4.1,0.9,5.3-0.6
	C23.6,37.8,23.3,35.4,21.5,34.2z M59.1,24.6c-4.4-3.6-10.7-2.7-14.2,1.8c-3.6,4.5-2.7,10.8,1.8,14.3c4.4,3.6,10.7,2.7,14.2-1.8
	C64.1,34.5,63.5,27.9,59.1,24.6z M38.4,50.9c-1.8-1.5-4.4-1.2-5.9,0.6c-1.5,1.8-1.2,4.5,0.6,6c1.8,1.5,4.4,1.2,5.9-0.6
	C40.5,55.1,40.2,52.4,38.4,50.9z M34.2,34.8c-0.9-0.6-2.1-0.6-3,0.3c-0.6,0.9-0.6,2.1,0.3,3c0.9,0.6,2.1,0.6,3-0.3
	C35.4,36.9,35.1,35.7,34.2,34.8z M23.6,53c-2.7-2.1-6.5-1.8-8.6,0.9c-2.1,2.7-1.5,6.6,0.9,8.7c2.7,2.1,6.5,1.5,8.6-0.9
	C26.5,58.7,26.3,55.1,23.6,53z M56.1,52.4c-0.9-0.6-1.8-0.6-2.4,0.3c-0.6,0.9-0.6,1.8,0.3,2.4c0.9,0.6,1.8,0.6,2.4-0.3
	C57,53.9,56.7,53,56.1,52.4z M68.3,63.2c-2.1-1.5-5-1.2-6.5,0.9c-1.5,2.1-1.2,5.1,0.9,6.6c2.1,1.5,5,1.2,6.5-0.9
	C70.6,67.7,70.3,64.7,68.3,63.2z M71.5,21.1c-1.8-1.2-4.1-0.9-5.3,0.6c-1.2,1.8-0.9,4.2,0.6,5.4c1.8,1.2,4.1,0.9,5.3-0.6
	C73.6,24.9,73.3,22.6,71.5,21.1z M69.7,43.2c-1.8-1.2-4.1-0.9-5.3,0.6c-1.2,1.8-0.9,4.2,0.6,5.4c1.5,1.2,4.1,0.9,5.3-0.6
	C71.5,47.1,71.2,44.7,69.7,43.2z M51.7,13.6c-1.5-1.5-3.8-1.2-5.3,0.6c-1.2,1.5-0.9,3.9,0.9,5.1c1.5,1.2,3.8,0.9,5.3-0.6
	C53.8,17.2,53.5,14.8,51.7,13.6z M77.4,32.7c-0.6-0.6-1.8-0.3-2.1,0.3c-0.6,0.6-0.3,1.8,0.3,2.1c0.6,0.6,1.8,0.3,2.1-0.3
	C78,34.2,78,33.3,77.4,32.7z M48.7,63.2c-1.5-1.2-3.6-0.9-4.7,0.6c-1.2,1.5-0.9,3.6,0.6,4.8s3.6,0.9,4.7-0.6
	C50.5,66.5,50.2,64.4,48.7,63.2z"/>
<radialGradient id="SVGID_8_" cx="-425.8949" cy="685.3239" r="1" gradientTransform="matrix(6.7601 5.3813 5.3936 -6.7755 -781.4205 6986.1401)" gradientUnits="userSpaceOnUse">
	<stop  offset="8.148150e-02" style="stop-color:#DFAB45"/>
	<stop  offset="1" style="stop-color:#E64A24"/>
</radialGradient>
<path class="st7" d="M38.4,50.9c-1.8-1.5-4.4-1.2-5.9,0.6c-1.2,1.5-1.2,3.3-0.3,4.8c0-0.6,0.3-1.5,0.9-2.1c1.5-1.8,4.1-2.1,5.9-0.6
	c0.3,0.3,0.9,0.9,0.9,1.2C39.9,53.3,39.6,52.1,38.4,50.9z"/>
<radialGradient id="SVGID_9_" cx="-301.2913" cy="672.3151" r="1" gradientTransform="matrix(2.7047 2.1531 2.158 -2.7109 -559.4617 2504.0435)" gradientUnits="userSpaceOnUse">
	<stop  offset="8.148150e-02" style="stop-color:#DFAB45"/>
	<stop  offset="1" style="stop-color:#E64A24"/>
</radialGradient>
<path class="st8" d="M75.4,35.4l0.3,0.3c0.3-0.3,1.2-0.6,1.5-0.3c0,0,0,0,0.3-0.3c0.6-0.6,0.3-1.8-0.3-2.1c-0.6-0.6-1.8-0.3-2.1,0.3
	C74.5,33.6,74.8,34.8,75.4,35.4z"/>
<radialGradient id="SVGID_10_" cx="-472.7025" cy="690.2106" r="1" gradientTransform="matrix(15.4775 12.3208 12.349 -15.5129 -1153.964 16554.9707)" gradientUnits="userSpaceOnUse">
	<stop  offset="8.148150e-02" style="stop-color:#DFAB45"/>
	<stop  offset="1" style="stop-color:#E64A24"/>
</radialGradient>
<path class="st9" d="M51.4,22.6c-0.3,0.3-0.9,0.3-1.2,0.3c-1.8,0.6-3.6,1.8-5,3.3c-2.1,2.7-2.7,6.3-1.5,9.6
	c-0.3-2.4,0.6-4.8,2.1-6.9c3.6-4.5,9.8-5.1,14.2-1.8c1.5,1.2,2.7,3,3.3,4.8c-0.3-2.7-1.5-5.4-3.8-7.2C56.7,22.9,54.1,22,51.4,22.6z"
	/>
<radialGradient id="SVGID_11_" cx="-420.1823" cy="684.7275" r="1" gradientTransform="matrix(6.3253 5.0352 5.0467 -6.3397 -728.5942 6477.6187)" gradientUnits="userSpaceOnUse">
	<stop  offset="8.148150e-02" style="stop-color:#DFAB45"/>
	<stop  offset="1" style="stop-color:#E64A24"/>
</radialGradient>
<path class="st10" d="M65.9,26.1c0-0.6,0.3-1.2,0.9-1.8c1.2-1.8,3.8-2.1,5.3-0.6c0.3,0.3,0.6,0.6,0.9,0.9c0.3-1.5-0.3-2.7-1.5-3.6
	c-1.8-1.2-4.1-0.9-5.3,0.6C65,23.1,65,24.9,65.9,26.1z"/>
<radialGradient id="SVGID_12_" cx="-420.1824" cy="684.7275" r="1" gradientTransform="matrix(6.3253 5.0352 5.0467 -6.3398 -730.4946 6499.6963)" gradientUnits="userSpaceOnUse">
	<stop  offset="8.148150e-02" style="stop-color:#DFAB45"/>
	<stop  offset="1" style="stop-color:#E64A24"/>
</radialGradient>
<path class="st11" d="M63.8,48.3c0-0.6,0.3-1.2,0.9-1.8c1.2-1.8,3.8-2.1,5.3-0.6c0.3,0.3,0.6,0.6,0.9,0.9c0.3-1.5-0.3-2.7-1.5-3.6
	c-1.8-1.2-4.1-0.9-5.3,0.6C63.2,45.3,63.2,47.1,63.8,48.3z"/>
<radialGradient id="SVGID_13_" cx="-318.5983" cy="674.1224" r="1" gradientTransform="matrix(2.9506 2.3488 2.3542 -2.9573 -591.8154 2794.2202)" gradientUnits="userSpaceOnUse">
	<stop  offset="8.148150e-02" style="stop-color:#DFAB45"/>
	<stop  offset="1" style="stop-color:#E64A24"/>
</radialGradient>
<path class="st12" d="M53.8,52.7c-0.6,0.9-0.6,1.8,0.3,2.4h0.3c0.6-0.6,1.5-0.9,2.1-0.3c0.6-0.9,0.6-1.8-0.3-2.4
	C55.3,51.8,54.4,51.8,53.8,52.7z"/>
<radialGradient id="SVGID_14_" cx="-420.1856" cy="684.7279" r="1" gradientTransform="matrix(6.3255 5.0354 5.0469 -6.34 -778.4951 6490.8564)" gradientUnits="userSpaceOnUse">
	<stop  offset="8.148150e-02" style="stop-color:#DFAB45"/>
	<stop  offset="1" style="stop-color:#E64A24"/>
</radialGradient>
<path class="st13" d="M16.8,37.5c1.2-1.8,3.8-2.1,5.3-0.6c0.3,0.3,0.6,0.6,0.9,0.9c0.3-1.5-0.3-2.7-1.5-3.6
	c-1.8-1.2-4.1-0.9-5.3,0.6c-0.9,1.2-1.2,3-0.3,4.5C15.9,38.4,16.2,37.8,16.8,37.5z"/>
<radialGradient id="SVGID_15_" cx="-409.9737" cy="683.6618" r="1" gradientTransform="matrix(5.6732 4.5161 4.5265 -5.6862 -721.8961 5801.8506)" gradientUnits="userSpaceOnUse">
	<stop  offset="8.148150e-02" style="stop-color:#DFAB45"/>
	<stop  offset="1" style="stop-color:#E64A24"/>
</radialGradient>
<path class="st14" d="M44.6,66.2c1.2-1.5,3.3-1.8,4.7-0.6c0.3,0.3,0.6,0.6,0.6,0.9c0.3-1.2-0.3-2.7-1.2-3.3
	c-1.5-1.2-3.6-0.9-4.7,0.6c-0.9,1.2-0.9,3,0,4.2C44,67.1,44,66.8,44.6,66.2z"/>
<radialGradient id="SVGID_16_" cx="-345.2884" cy="676.9088" r="1" gradientTransform="matrix(3.4316 2.7317 2.738 -3.4395 -635.3198 3306.3484)" gradientUnits="userSpaceOnUse">
	<stop  offset="8.148150e-02" style="stop-color:#DFAB45"/>
	<stop  offset="1" style="stop-color:#E64A24"/>
</radialGradient>
<path class="st15" d="M31.6,35.4c-0.6,0.9-0.6,2.1,0.3,3c0,0,0-0.3,0.3-0.3c0.6-0.9,2.1-0.9,2.7-0.3c0.6-0.9,0.3-2.1-0.6-2.7
	C33.4,34.2,32.2,34.5,31.6,35.4z"/>
<radialGradient id="SVGID_17_" cx="-435.2746" cy="686.3032" r="1" gradientTransform="matrix(7.6201 6.066 6.0798 -7.6376 -790.2486 7944.8809)" gradientUnits="userSpaceOnUse">
	<stop  offset="8.148150e-02" style="stop-color:#DFAB45"/>
	<stop  offset="1" style="stop-color:#E64A24"/>
</radialGradient>
<path class="st16" d="M62.1,66.5c1.5-2.1,4.7-2.4,6.5-0.9c0.6,0.3,0.9,0.9,1.2,1.5c0-1.5-0.6-3.3-1.8-4.2c-2.1-1.5-5-1.2-6.5,0.9
	c-1.2,1.5-1.2,3.6-0.6,5.1C61.2,68.3,61.5,67.4,62.1,66.5z"/>
<radialGradient id="SVGID_18_" cx="-450.0573" cy="687.8465" r="1" gradientTransform="matrix(9.5312 7.5873 7.6047 -9.553 -921.2452 10038.2402)" gradientUnits="userSpaceOnUse">
	<stop  offset="8.148150e-02" style="stop-color:#DFAB45"/>
	<stop  offset="1" style="stop-color:#E64A24"/>
</radialGradient>
<path class="st17" d="M15.6,56.6c2.1-2.7,5.9-3,8.6-0.9c0.9,0.6,1.5,1.5,1.8,2.4c0-1.8-0.6-3.6-2.4-5.1c-2.7-2.1-6.5-1.8-8.6,0.9
	c-1.5,1.8-1.5,4.2-0.9,6.3C14.4,59,14.7,57.5,15.6,56.6z"/>
<radialGradient id="SVGID_19_" cx="-456.9977" cy="688.571" r="1" gradientTransform="matrix(10.8033 8.5999 8.6196 -10.8281 -965.5753 11395.4629)" gradientUnits="userSpaceOnUse">
	<stop  offset="8.148150e-02" style="stop-color:#DFAB45"/>
	<stop  offset="1" style="stop-color:#E64A24"/>
</radialGradient>
<path class="st18" d="M27.4,13.6c2.4-3,6.8-3.6,9.8-1.2c0.9,0.9,1.8,1.8,2.1,2.7c0-2.1-0.9-4.2-2.7-5.4c-3-2.4-7.4-1.8-9.8,1.2
	c-1.5,2.1-1.8,4.8-0.9,7.2C26,16.6,26.5,15.1,27.4,13.6z"/>
<radialGradient id="SVGID_20_" cx="-417.0229" cy="684.3977" r="1" gradientTransform="matrix(6.108 4.8622 4.8734 -6.122 -738.5536 6230.8325)" gradientUnits="userSpaceOnUse">
	<stop  offset="8.148150e-02" style="stop-color:#DFAB45"/>
	<stop  offset="1" style="stop-color:#E64A24"/>
</radialGradient>
<path class="st19" d="M46.4,18.4c0-0.6,0.3-1.2,0.6-1.8c1.2-1.5,3.6-1.8,5.3-0.6c0.3,0.3,0.6,0.6,0.9,0.9c0.3-1.2-0.3-2.7-1.5-3.6
	c-1.5-1.2-3.8-0.9-5.3,0.9C45.5,15.4,45.5,17.2,46.4,18.4z"/>
<radialGradient id="SVGID_21_" cx="-336.5042" cy="675.9917" r="1" gradientTransform="matrix(3.2569 2.5926 2.5985 -3.2643 -615.0858 3124.2344)" gradientUnits="userSpaceOnUse">
	<stop  offset="8.148150e-02" style="stop-color:#DFAB45"/>
	<stop  offset="1" style="stop-color:#E64A24"/>
</radialGradient>
<path class="st20" d="M47,48c-0.6,0.9-1.8,0.9-2.7,0.3s-0.9-1.8-0.3-2.7c0.6-0.9,1.8-0.9,2.7-0.3C47.6,45.9,47.6,47.1,47,48z"/>
<radialGradient id="SVGID_22_" cx="-142.4857" cy="655.7365" r="1" gradientTransform="matrix(1.5328 1.2202 1.223 -1.5363 -537.3073 1236.3132)" gradientUnits="userSpaceOnUse">
	<stop  offset="8.148150e-02" style="stop-color:#DFAB45"/>
	<stop  offset="1" style="stop-color:#E64A24"/>
</radialGradient>
<path class="st21" d="M47,56.3c-0.3,0.3-0.9,0.6-1.2,0.3c-0.3-0.3-0.6-0.9-0.3-1.2c0.3-0.3,0.9-0.6,1.2-0.3
	C47.3,55.4,47.3,56,47,56.3z"/>
<radialGradient id="SVGID_23_" cx="-369.3633" cy="679.4221" r="1" gradientTransform="matrix(4.0233 3.2027 3.21 -4.0325 -657.5634 3986.7979)" gradientUnits="userSpaceOnUse">
	<stop  offset="8.148150e-02" style="stop-color:#DFAB45"/>
	<stop  offset="1" style="stop-color:#E64A24"/>
</radialGradient>
<path class="st22" d="M39,67.4c-0.9,0.9-2.4,1.2-3.3,0.3c-0.9-0.9-1.2-2.4-0.3-3.3c0.9-0.9,2.4-1.2,3.3-0.3
	C39.6,65,39.9,66.5,39,67.4z"/>
<radialGradient id="SVGID_24_" cx="-142.4857" cy="655.7365" r="1" gradientTransform="matrix(1.5328 1.2202 1.223 -1.5363 -555.2325 1250.1779)" gradientUnits="userSpaceOnUse">
	<stop  offset="8.148150e-02" style="stop-color:#DFAB45"/>
	<stop  offset="1" style="stop-color:#E64A24"/>
</radialGradient>
<path class="st23" d="M28.9,70.1c-0.3,0.3-0.9,0.6-1.2,0.3c-0.3-0.3-0.6-0.9-0.3-1.2c0.3-0.3,0.9-0.6,1.2-0.3
	C29.2,69.2,29.2,69.8,28.9,70.1z"/>
<radialGradient id="SVGID_25_" cx="-242.4295" cy="666.1699" r="1" gradientTransform="matrix(2.1075 1.6777 1.6815 -2.1123 -555.7184 1881.7354)" gradientUnits="userSpaceOnUse">
	<stop  offset="8.148150e-02" style="stop-color:#DFAB45"/>
	<stop  offset="1" style="stop-color:#E64A24"/>
</radialGradient>
<path class="st24" d="M54.4,69.8c-0.3,0.6-1.2,0.6-1.8,0.3c-0.6-0.3-0.6-1.2-0.3-1.8c0.3-0.6,1.2-0.6,1.8-0.3
	C54.7,68.3,55,69.2,54.4,69.8z"/>
<radialGradient id="SVGID_26_" cx="-325.7153" cy="674.8654" r="1" gradientTransform="matrix(3.0652 2.44 2.4456 -3.0722 -622.3522 2915.1865)" gradientUnits="userSpaceOnUse">
	<stop  offset="8.148150e-02" style="stop-color:#DFAB45"/>
	<stop  offset="1" style="stop-color:#E64A24"/>
</radialGradient>
<path class="st25" d="M29.5,50.3c1,0,1.8-0.8,1.8-1.8c0-1-0.8-1.8-1.8-1.8c-1,0-1.8,0.8-1.8,1.8C27.7,49.5,28.5,50.3,29.5,50.3z"/>
<radialGradient id="SVGID_27_" cx="-313.5021" cy="673.5903" r="1" gradientTransform="matrix(2.8737 2.2876 2.2928 -2.8802 -606.5368 2683.717)" gradientUnits="userSpaceOnUse">
	<stop  offset="8.148150e-02" style="stop-color:#DFAB45"/>
	<stop  offset="1" style="stop-color:#E64A24"/>
</radialGradient>
<path class="st26" d="M38.1,28.8c-0.6,0.6-1.5,0.9-2.4,0.3c-0.6-0.6-0.9-1.5-0.3-2.4c0.6-0.6,1.5-0.9,2.4-0.3
	C38.7,27,38.7,28.2,38.1,28.8z"/>
<radialGradient id="SVGID_28_" cx="-90.0181" cy="650.2588" r="1" gradientTransform="matrix(1.3409 1.0674 1.0698 -1.3439 -517.8192 987.9998)" gradientUnits="userSpaceOnUse">
	<stop  offset="8.148150e-02" style="stop-color:#DFAB45"/>
	<stop  offset="1" style="stop-color:#E64A24"/>
</radialGradient>
<path class="st27" d="M57.6,19.3c-0.3,0.3-0.9,0.3-1.2,0c-0.3-0.3-0.3-0.9,0-1.2c0.3-0.3,0.9-0.3,1.2,0
	C57.9,18.4,57.9,18.7,57.6,19.3z"/>
<radialGradient id="SVGID_29_" cx="-299.5451" cy="672.1332" r="1" gradientTransform="matrix(2.6822 2.1351 2.14 -2.6883 -573.2408 2458.9866)" gradientUnits="userSpaceOnUse">
	<stop  offset="8.148150e-02" style="stop-color:#DFAB45"/>
	<stop  offset="1" style="stop-color:#E64A24"/>
</radialGradient>
<path class="st28" d="M62.9,14.8c-0.6,0.6-1.5,0.9-2.1,0.3c-0.6-0.6-0.9-1.5-0.3-2.1c0.3-0.9,1.2-0.9,2.1-0.6
	C63.2,13,63.2,14.2,62.9,14.8z"/>
<radialGradient id="SVGID_30_" cx="-242.4295" cy="666.1705" r="1" gradientTransform="matrix(2.1075 1.6777 1.6815 -2.1123 -542.5478 1847.7328)" gradientUnits="userSpaceOnUse">
	<stop  offset="8.148150e-02" style="stop-color:#DFAB45"/>
	<stop  offset="1" style="stop-color:#E64A24"/>
</radialGradient>
<path class="st29" d="M67.7,35.7c-0.3,0.6-1.2,0.6-1.8,0.3c-0.6-0.3-0.6-1.2-0.3-1.8c0.3-0.6,1.2-0.6,1.8-0.3
	C68,34.2,68,35.1,67.7,35.7z"/>
<radialGradient id="SVGID_31_" cx="-215.7524" cy="663.3854" r="1" gradientTransform="matrix(1.9158 1.525 1.5285 -1.9202 -522.6276 1627.8771)" gradientUnits="userSpaceOnUse">
	<stop  offset="8.148150e-02" style="stop-color:#DFAB45"/>
	<stop  offset="1" style="stop-color:#E64A24"/>
</radialGradient>
<path class="st30" d="M78.9,26.7c-0.3,0.6-1.2,0.6-1.5,0.3c-0.6-0.6-0.6-1.2-0.3-1.8s1.2-0.6,1.5-0.3C79.2,25.5,79.2,26.1,78.9,26.7
	z"/>
<radialGradient id="SVGID_32_" cx="-264.6576" cy="668.491" r="1" gradientTransform="matrix(2.2992 1.8303 1.8345 -2.3045 -547.28 2056.1377)" gradientUnits="userSpaceOnUse">
	<stop  offset="8.148150e-02" style="stop-color:#DFAB45"/>
	<stop  offset="1" style="stop-color:#E64A24"/>
</radialGradient>
<path class="st31" d="M71.5,33c-0.6,0.6-1.2,0.6-1.8,0.3c-0.6-0.6-0.6-1.2-0.3-1.8c0.6-0.6,1.2-0.6,1.8-0.3
	C71.8,31.8,71.8,32.4,71.5,33z"/>
<radialGradient id="SVGID_33_" cx="-313.5021" cy="673.5903" r="1" gradientTransform="matrix(2.8737 2.2876 2.2928 -2.8802 -569.2432 2696.7549)" gradientUnits="userSpaceOnUse">
	<stop  offset="8.148150e-02" style="stop-color:#DFAB45"/>
	<stop  offset="1" style="stop-color:#E64A24"/>
</radialGradient>
<path class="st32" d="M75.4,42c-0.6,0.6-1.5,0.9-2.4,0.3c-0.6-0.6-0.9-1.5-0.3-2.4c0.6-0.6,1.5-0.9,2.4-0.3C76,40.2,76,41.1,75.4,42
	z"/>
<radialGradient id="SVGID_34_" cx="-375.7073" cy="680.0845" r="1" gradientTransform="matrix(4.2148 3.3551 3.3628 -4.2244 -630.3178 4189.6743)" gradientUnits="userSpaceOnUse">
	<stop  offset="8.148150e-02" style="stop-color:#DFAB45"/>
	<stop  offset="1" style="stop-color:#E64A24"/>
</radialGradient>
<path class="st33" d="M75.1,59.6c-0.9,1.2-2.4,1.2-3.6,0.3c-1.2-0.9-1.2-2.4-0.3-3.6c0.9-1.2,2.4-1.2,3.6-0.3
	C75.7,56.9,75.7,58.7,75.1,59.6z"/>
<radialGradient id="SVGID_35_" cx="-264.6318" cy="668.4883" r="1" gradientTransform="matrix(2.299 1.8301 1.8343 -2.3042 -558.3779 2072.2917)" gradientUnits="userSpaceOnUse">
	<stop  offset="8.148150e-02" style="stop-color:#DFAB45"/>
	<stop  offset="1" style="stop-color:#E64A24"/>
</radialGradient>
<path class="st34" d="M60.3,49.4c-0.6,0.6-1.2,0.6-1.8,0.3c-0.6-0.6-0.6-1.2-0.3-1.8c0.6-0.6,1.2-0.6,1.8-0.3
	C60.9,48.3,60.9,48.9,60.3,49.4z"/>
<radialGradient id="SVGID_36_" cx="-283.4215" cy="670.45" r="1" gradientTransform="matrix(2.4905 1.9825 1.9871 -2.4962 -561.7262 2292.1636)" gradientUnits="userSpaceOnUse">
	<stop  offset="8.148150e-02" style="stop-color:#DFAB45"/>
	<stop  offset="1" style="stop-color:#E64A24"/>
</radialGradient>
<path class="st35" d="M65.6,58.7c-0.6,0.6-1.5,0.6-2.1,0.3c-0.6-0.6-0.6-1.5-0.3-2.1c0.6-0.6,1.5-0.6,2.1-0.3
	C66.2,57.2,66.2,58.1,65.6,58.7z"/>
<radialGradient id="SVGID_37_" cx="-510.9669" cy="683.3961" r="1" gradientTransform="matrix(37.388 -55.4297 -55.5019 -37.4367 57153.7969 -2584.8203)" gradientUnits="userSpaceOnUse">
	<stop  offset="8.148150e-02" style="stop-color:#DFAB45"/>
	<stop  offset="1" style="stop-color:#E64A24"/>
</radialGradient>
<path class="st36" d="M121.1,136.2c-3.7,10-9.6,23.3-4.3,33.8c2.1,4.3,10.8,10.2,15.5,10.6c2,0.3,4-0.3,6-0.7
	c4.9-0.4,9.5,2.4,14.5,2.4c7.4,0.3,14.1-5.3,17.1-12.2c3-6.9,2.9-14.6,1.9-21.9c-0.8-7.3-2.7-14.9-8.6-19.3c-2.8-2-6.5-3-10-2.8
	c-2.4,0.2-4.8,1-7.3,1c-6,0-12.1-3.9-17.5-1.5C124.4,127.6,122.6,132.1,121.1,136.2z"/>
<radialGradient id="SVGID_38_" cx="-510.9669" cy="683.3961" r="1" gradientTransform="matrix(37.388 -55.4297 -55.5019 -37.4367 57153.7969 -2584.8203)" gradientUnits="userSpaceOnUse">
	<stop  offset="8.148150e-02" style="stop-color:#DFAB45"/>
	<stop  offset="1" style="stop-color:#E64A24"/>
</radialGradient>
<path class="st37" d="M121.1,136.2c-3.7,10-9.6,23.3-4.3,33.8c2.1,4.3,10.8,10.2,15.5,10.6c2,0.3,4-0.3,6-0.7
	c4.9-0.4,9.5,2.4,14.5,2.4c7.4,0.3,14.1-5.3,17.1-12.2c3-6.9,2.9-14.6,1.9-21.9c-0.8-7.3-2.7-14.9-8.6-19.3c-2.8-2-6.5-3-10-2.8
	c-2.4,0.2-4.8,1-7.3,1c-6,0-12.1-3.9-17.5-1.5C124.4,127.6,122.6,132.1,121.1,136.2z"/>
<radialGradient id="SVGID_39_" cx="-511.406" cy="681.0286" r="1" gradientTransform="matrix(30.5641 -45.313 -45.372 -30.6039 46647.8086 -2179.7214)" gradientUnits="userSpaceOnUse">
	<stop  offset="8.148150e-02" style="stop-color:#DFAB45"/>
	<stop  offset="0.8556" style="stop-color:#DFAB45;stop-opacity:0"/>
</radialGradient>
<path class="st38" d="M123.4,139.6c1.5-4.1,3.3-8.7,7.4-10.5c5.4-2.4,11.5,1.6,17.5,1.5c2.5,0,4.8-0.8,7.3-1c3.5-0.3,7.2,0.8,10,2.8
	c1.2,1,2.4,2,3.2,3.3c-1.3-2.6-3-4.9-5.4-6.7c-2.8-2-6.5-3-10-2.8c-2.4,0.2-4.8,1-7.3,1c-6,0-12.1-3.9-17.5-1.5
	c-4.1,1.9-6,6.2-7.4,10.5c-3.7,10-9.6,23.3-4.3,33.8c0.5,0.6,1,1.5,1.7,2.3C114.2,162,119.9,149.4,123.4,139.6z"/>
<radialGradient id="SVGID_40_" cx="-511.3542" cy="681.3077" r="1" gradientTransform="matrix(31.2362 -46.3094 -46.3697 -31.2769 47692.2383 -2230.085)" gradientUnits="userSpaceOnUse">
	<stop  offset="8.148150e-02" style="stop-color:#DFAB45"/>
	<stop  offset="0.8556" style="stop-color:#DFAB45;stop-opacity:0"/>
</radialGradient>
<path class="st39" d="M141,127.8c-1.8,0.1-3.3,0.7-5.1,0.6c-3.1,0-6.1-1.5-9-1.5c-2.9,2.2-4.5,5.9-5.5,9.3c-2.2,5.9-5,13-6,20
	c0.3,0.6,0.3,1.1,0.6,1.7c1.6,2.8,7.4,7,10.6,7.2c1.3,0.1,2.9-0.4,4.2-0.5c3.3-0.3,6.6,1.5,9.9,1.7c5.1,0.3,9.8-3.6,11.8-8.4
	c2.1-4.6,1.9-9.9,1.3-14.9c-0.6-4.8-1.9-10.3-5.9-13.3C145.7,128.4,143.4,127.7,141,127.8z"/>
<radialGradient id="SVGID_41_" cx="-511.2293" cy="681.9813" r="1" gradientTransform="matrix(32.9867 -48.9046 -48.9684 -33.0297 50388.5859 -2315.7673)" gradientUnits="userSpaceOnUse">
	<stop  offset="8.148150e-02" style="stop-color:#DFAB45"/>
	<stop  offset="1" style="stop-color:#E64A24"/>
</radialGradient>
<path class="st40" d="M153.3,126.4c3.9,3.9,5.4,10,6.1,15.7c0.7,6.6,0.8,13.5-1.6,19.4c-2.7,6-8.7,11.1-15.2,10.7
	c-4.5-0.1-8.4-2.5-12.9-2.1c-1.8,0.1-3.5,0.7-5.3,0.6c-2.5-0.3-5.9-2-8.8-4.2c0.3,1.1,0.6,2.4,1.4,3.4c2.1,4.3,10.8,10.2,15.5,10.6
	c1.8,0.3,3.8-0.3,5.7-0.7c4.9-0.4,9.5,2.4,14.5,2.4c7.4,0.3,14.1-5.3,17.1-12.2c3-6.9,2.9-14.6,1.9-21.9c-0.8-7.3-2.7-14.9-8.6-19.3
	C160.5,127.2,156.9,126.2,153.3,126.4z"/>
<radialGradient id="SVGID_42_" cx="-511.352" cy="681.3198" r="1" gradientTransform="matrix(31.266 -46.3536 -46.4139 -31.3067 47744.0156 -2210.3613)" gradientUnits="userSpaceOnUse">
	<stop  offset="8.148150e-02" style="stop-color:#DFAB45"/>
	<stop  offset="1" style="stop-color:#E64A24"/>
</radialGradient>
<path class="st41" d="M167.9,144.8c0.8,7.3,0.9,15-1.9,21.9c-3,6.9-9.7,12.5-17.1,12.2c-4.9-0.3-9.6-2.8-14.5-2.4
	c-2,0.2-4,0.7-6,0.7c-2.7-0.2-6.4-2.2-9.7-4.6c3.2,3.5,9.7,7.7,13.5,8c2,0.3,4-0.3,6-0.7c4.9-0.4,9.5,2.4,14.5,2.4
	c7.4,0.3,14.1-5.3,17.1-12.2c3-6.9,2.9-14.6,1.9-21.9c-0.8-7.3-2.7-14.9-8.6-19.3c-0.2-0.2-0.7-0.4-0.9-0.6
	C165.9,133,167.2,139.1,167.9,144.8z"/>
<radialGradient id="SVGID_43_" cx="-511.3792" cy="681.173" r="1" gradientTransform="matrix(30.9081 -45.823 -45.8827 -30.9484 47185.832 -2198.2832)" gradientUnits="userSpaceOnUse">
	<stop  offset="8.148150e-02" style="stop-color:#DFAB45"/>
	<stop  offset="1" style="stop-color:#E64A24"/>
</radialGradient>
<path class="st42" d="M129.2,160.4c2.4,1.6,3,4.9,1.4,7.2c-1.6,2.3-4.9,3-7.2,1.4c-2.4-1.6-3-4.9-1.4-7.2
	C123.6,159.5,126.9,158.8,129.2,160.4z M141,171.7c-0.8,1.4-0.4,3.1,0.7,3.9c1.4,0.8,3.2,0.4,4-0.7c0.8-1.4,0.4-3.1-0.7-3.9
	C143.5,170,141.8,170.3,141,171.7z M131.8,144.3c-2.4,3.5-1.4,8.1,2.1,10.5s8.1,1.4,10.5-2.1c2.4-3.5,1.4-8.1-2.1-10.5
	C138.8,140,133.9,140.8,131.8,144.3z M152.4,158.2c-1,1.4-0.6,3.4,0.8,4.4c1.4,1,3.4,0.6,4.4-0.8c1-1.4,0.6-3.4-0.8-4.4
	C155.4,156.4,153.4,156.8,152.4,158.2z M140.7,162.2c-0.4,0.7-0.3,1.6,0.4,2.2c0.7,0.4,1.6,0.3,2.2-0.4c0.4-0.7,0.3-1.6-0.4-2.2
	C142.2,161.2,141.3,161.5,140.7,162.2z M154.8,169.1c-1.4,2.1-1,4.9,1.2,6.3c2.1,1.4,5,0.7,6.4-1.2c1.4-2.1,0.7-4.9-1.2-6.3
	C158.9,166.6,156.2,167,154.8,169.1z M152.5,144.9c-0.4,0.7-0.3,1.4,0.4,1.7c0.7,0.4,1.4,0.3,1.8-0.4c0.4-0.7,0.3-1.4-0.4-1.7
	C153.6,144.2,152.9,144.4,152.5,144.9z M159.8,135.3c-1,1.6-0.6,3.8,1,4.8c1.6,1,3.8,0.6,4.8-1c1-1.6,0.6-3.8-1-4.8
	C163,133.2,160.8,133.6,159.8,135.3z M128.4,135.2c-0.8,1.4-0.4,3.1,0.7,3.9c1.4,0.8,3.2,0.4,4-0.7c0.8-1.4,0.4-3.1-0.7-3.9
	C131.1,133.5,129.4,133.8,128.4,135.2z M144.9,135.3c-0.8,1.4-0.4,3.1,0.7,3.9c1.4,0.8,3.2,0.4,4-0.7c0.8-1.2,0.4-3.1-0.7-3.9
	C147.7,133.8,145.9,134.1,144.9,135.3z M124,150.4c-1,1.2-0.7,2.9,0.7,3.9c1.2,0.8,2.9,0.4,3.7-1c0.8-1.2,0.4-2.9-0.7-3.9
	C126.5,148.7,124.8,149,124,150.4z M136.7,130.2c-0.4,0.5-0.1,1.3,0.3,1.5c0.5,0.4,1.3,0.1,1.5-0.3c0.4-0.5,0.1-1.3-0.3-1.5
	C137.8,129.6,137.1,129.7,136.7,130.2z M160.9,149.8c-0.8,1.2-0.5,2.7,0.7,3.5c1.2,0.8,2.7,0.5,3.5-0.7c0.8-1.2,0.5-2.7-0.7-3.5
	C163.3,148.3,161.7,148.6,160.9,149.8z"/>
<radialGradient id="SVGID_44_" cx="-529.4137" cy="583.9456" r="1" gradientTransform="matrix(3.6024 -5.3407 -5.3477 -3.6071 5182.4136 -561.0565)" gradientUnits="userSpaceOnUse">
	<stop  offset="8.148150e-02" style="stop-color:#DFAB45"/>
	<stop  offset="1" style="stop-color:#E64A24"/>
</radialGradient>
<path class="st43" d="M152.4,158.2c-1,1.4-0.6,3.4,0.8,4.4c1.2,0.8,2.5,0.7,3.6-0.1c-0.4,0-1.1-0.1-1.6-0.5c-1.4-1-1.8-3-0.8-4.4
	c0.2-0.2,0.6-0.7,0.8-0.7C154.1,157,153.3,157.3,152.4,158.2z"/>
<radialGradient id="SVGID_45_" cx="-560.0216" cy="418.9354" r="1" gradientTransform="matrix(1.4413 -2.1369 -2.1396 -1.4432 1840.3053 -461.2043)" gradientUnits="userSpaceOnUse">
	<stop  offset="8.148150e-02" style="stop-color:#DFAB45"/>
	<stop  offset="1" style="stop-color:#E64A24"/>
</radialGradient>
<path class="st44" d="M138.8,131.6l0.2-0.2c-0.2-0.2-0.5-0.8-0.3-1.1c0,0,0,0-0.2-0.2c-0.5-0.4-1.3-0.1-1.5,0.3
	c-0.4,0.5-0.1,1.3,0.3,1.5C137.5,132.3,138.4,132,138.8,131.6z"/>
<radialGradient id="SVGID_46_" cx="-517.9161" cy="645.9317" r="1" gradientTransform="matrix(8.2478 -12.2279 -12.2438 -8.2586 12311.7314 -849.8154)" gradientUnits="userSpaceOnUse">
	<stop  offset="8.148150e-02" style="stop-color:#DFAB45"/>
	<stop  offset="1" style="stop-color:#E64A24"/>
</radialGradient>
<path class="st45" d="M130.6,150.1c0.2,0.2,0.3,0.6,0.3,0.9c0.5,1.3,1.5,2.5,2.7,3.6c2.1,1.4,4.8,1.6,7.2,0.6
	c-1.8,0.4-3.6-0.2-5.2-1.1c-3.5-2.4-4.3-7-2.1-10.5c0.8-1.2,2.1-2.2,3.4-2.7c-2,0.4-3.9,1.4-5.1,3.3
	C130.6,146.1,130,148.2,130.6,150.1z"/>
<radialGradient id="SVGID_47_" cx="-530.817" cy="576.3806" r="1" gradientTransform="matrix(3.3707 -4.9972 -5.0037 -3.3751 4801.6919 -570.3724)" gradientUnits="userSpaceOnUse">
	<stop  offset="8.148150e-02" style="stop-color:#DFAB45"/>
	<stop  offset="1" style="stop-color:#E64A24"/>
</radialGradient>
<path class="st46" d="M132.5,139.1c-0.4,0-0.9-0.2-1.4-0.6c-1.4-0.8-1.8-2.7-0.7-3.9c0.2-0.2,0.4-0.5,0.6-0.7
	c-1.1-0.1-2,0.4-2.6,1.3c-0.8,1.4-0.4,3.1,0.7,3.9C130.3,140,131.6,139.9,132.5,139.1z"/>
<radialGradient id="SVGID_48_" cx="-530.8169" cy="576.3808" r="1" gradientTransform="matrix(3.3707 -4.9973 -5.0038 -3.3751 4818.1709 -570.2167)" gradientUnits="userSpaceOnUse">
	<stop  offset="8.148150e-02" style="stop-color:#DFAB45"/>
	<stop  offset="1" style="stop-color:#E64A24"/>
</radialGradient>
<path class="st47" d="M149,139.4c-0.4,0-0.9-0.2-1.4-0.6c-1.4-0.8-1.8-2.7-0.7-3.9c0.2-0.2,0.4-0.5,0.6-0.7c-1.1-0.1-2,0.4-2.6,1.3
	c-0.8,1.4-0.4,3.1,0.7,3.9C146.8,140,148.1,139.9,149,139.4z"/>
<radialGradient id="SVGID_49_" cx="-555.7697" cy="441.8552" r="1" gradientTransform="matrix(1.5723 -2.3311 -2.3341 -1.5744 2057.6829 -454.2435)" gradientUnits="userSpaceOnUse">
	<stop  offset="8.148150e-02" style="stop-color:#DFAB45"/>
	<stop  offset="1" style="stop-color:#E64A24"/>
</radialGradient>
<path class="st48" d="M152.9,146.6c0.7,0.4,1.4,0.3,1.8-0.4l0-0.2c-0.5-0.4-0.7-1.1-0.3-1.5c-0.7-0.4-1.4-0.3-1.8,0.4
	C152.1,145.6,152.2,146.3,152.9,146.6z"/>
<radialGradient id="SVGID_50_" cx="-530.8162" cy="576.3849" r="1" gradientTransform="matrix(3.3708 -4.9974 -5.0039 -3.3752 4814.3584 -533.9729)" gradientUnits="userSpaceOnUse">
	<stop  offset="8.148150e-02" style="stop-color:#DFAB45"/>
	<stop  offset="1" style="stop-color:#E64A24"/>
</radialGradient>
<path class="st49" d="M143.7,175.1c-1.4-0.8-1.8-2.7-0.7-3.9c0.2-0.2,0.4-0.5,0.6-0.7c-1.1-0.1-2,0.4-2.6,1.3
	c-0.8,1.4-0.4,3.1,0.7,3.9c0.9,0.6,2.3,0.7,3.3,0C144.4,175.7,144,175.5,143.7,175.1z"/>
<radialGradient id="SVGID_51_" cx="-533.3245" cy="562.8616" r="1" gradientTransform="matrix(3.0232 -4.4821 -4.4879 -3.0271 4299.2676 -535.2941)" gradientUnits="userSpaceOnUse">
	<stop  offset="8.148150e-02" style="stop-color:#DFAB45"/>
	<stop  offset="1" style="stop-color:#E64A24"/>
</radialGradient>
<path class="st50" d="M163.4,152.7c-1.2-0.8-1.5-2.3-0.7-3.5c0.2-0.2,0.4-0.5,0.6-0.5c-0.9-0.2-2,0.4-2.4,1.1
	c-0.8,1.2-0.5,2.7,0.7,3.5c0.9,0.6,2.3,0.5,3.1-0.2C164.1,153.1,163.9,153.1,163.4,152.7z"/>
<radialGradient id="SVGID_52_" cx="-549.2136" cy="477.2003" r="1" gradientTransform="matrix(1.8287 -2.7111 -2.7147 -1.8311 2440.6221 -452.1832)" gradientUnits="userSpaceOnUse">
	<stop  offset="8.148150e-02" style="stop-color:#DFAB45"/>
	<stop  offset="1" style="stop-color:#E64A24"/>
</radialGradient>
<path class="st51" d="M141.3,164.2c0.7,0.4,1.6,0.3,2.2-0.4c0,0-0.2,0-0.2-0.2c-0.7-0.4-0.8-1.5-0.4-2c-0.7-0.4-1.6-0.1-2,0.6
	C140.3,162.9,140.6,163.8,141.3,164.2z"/>
<radialGradient id="SVGID_53_" cx="-527.1097" cy="596.367" r="1" gradientTransform="matrix(4.0607 -6.0202 -6.0281 -4.066 5895.0811 -611.1778)" gradientUnits="userSpaceOnUse">
	<stop  offset="8.148150e-02" style="stop-color:#DFAB45"/>
	<stop  offset="1" style="stop-color:#E64A24"/>
</radialGradient>
<path class="st52" d="M162.6,139.7c-1.6-1-2-3.4-1-4.8c0.2-0.5,0.6-0.7,1-1c-1.1,0.1-2.4,0.6-3,1.6c-1,1.6-0.6,3.8,1,4.8
	c1.2,0.8,2.7,0.7,3.8,0.2C164,140.3,163.3,140.1,162.6,139.7z"/>
<radialGradient id="SVGID_54_" cx="-523.4785" cy="615.9437" r="1" gradientTransform="matrix(5.0791 -7.5301 -7.5399 -5.0858 7457.6284 -637.505)" gradientUnits="userSpaceOnUse">
	<stop  offset="8.148150e-02" style="stop-color:#DFAB45"/>
	<stop  offset="1" style="stop-color:#E64A24"/>
</radialGradient>
<path class="st53" d="M158,174.8c-2.1-1.4-2.6-4.2-1.2-6.3c0.4-0.7,1-1.2,1.7-1.5c-1.3,0.1-2.6,0.6-3.6,2.1c-1.4,2.1-1,4.9,1.2,6.3
	c1.4,1,3.2,0.9,4.7,0.3C159.8,175.6,158.7,175.5,158,174.8z"/>
<radialGradient id="SVGID_55_" cx="-521.7737" cy="625.1346" r="1" gradientTransform="matrix(5.757 -8.5351 -8.5462 -5.7645 8468.376 -684.9072)" gradientUnits="userSpaceOnUse">
	<stop  offset="8.148150e-02" style="stop-color:#DFAB45"/>
	<stop  offset="1" style="stop-color:#E64A24"/>
</radialGradient>
<path class="st54" d="M125.4,168.5c-2.4-1.6-3-4.9-1.4-7.2c0.6-0.7,1.2-1.4,1.9-1.7c-1.6,0.1-3.1,0.9-3.8,2.3
	c-1.6,2.3-0.9,5.6,1.4,7.2c1.6,1,3.6,1.1,5.4,0.3C127.7,169.4,126.5,169.1,125.4,168.5z"/>
<radialGradient id="SVGID_56_" cx="-531.593" cy="572.1965" r="1" gradientTransform="matrix(3.2549 -4.8256 -4.8319 -3.2591 4618.9512 -548.3702)" gradientUnits="userSpaceOnUse">
	<stop  offset="8.148150e-02" style="stop-color:#DFAB45"/>
	<stop  offset="1" style="stop-color:#E64A24"/>
</radialGradient>
<path class="st55" d="M127.8,154.1c-0.4,0-0.9-0.2-1.4-0.3c-1.2-0.8-1.5-2.5-0.7-3.9c0.2-0.2,0.4-0.5,0.6-0.7
	c-0.9-0.2-2,0.4-2.6,1.3c-0.8,1.2-0.4,2.9,1,3.9C125.7,154.9,127,154.8,127.8,154.1z"/>
<radialGradient id="SVGID_57_" cx="-551.3715" cy="465.5676" r="1" gradientTransform="matrix(1.7356 -2.5731 -2.5764 -1.7378 2304.1699 -456.4491)" gradientUnits="userSpaceOnUse">
	<stop  offset="8.148150e-02" style="stop-color:#DFAB45"/>
	<stop  offset="1" style="stop-color:#E64A24"/>
</radialGradient>
<path class="st56" d="M149.7,152c0.7,0.4,0.8,1.3,0.4,2c-0.4,0.7-1.3,0.8-2,0.4c-0.7-0.4-0.8-1.3-0.4-2
	C148.1,151.7,149,151.6,149.7,152z"/>
<radialGradient id="SVGID_58_" cx="-599.0292" cy="208.6339" r="1" gradientTransform="matrix(0.8168 -1.211 -1.2126 -0.8179 897.303 -402.6582)" gradientUnits="userSpaceOnUse">
	<stop  offset="8.148150e-02" style="stop-color:#DFAB45"/>
	<stop  offset="1" style="stop-color:#E64A24"/>
</radialGradient>
<path class="st57" d="M155.9,151.5c0.2,0.2,0.5,0.6,0.3,0.9c-0.2,0.2-0.6,0.5-0.9,0.3c-0.2-0.2-0.5-0.6-0.3-0.9
	C155.2,151.3,155.7,151.3,155.9,151.5z"/>
<radialGradient id="SVGID_59_" cx="-543.3" cy="509.0824" r="1" gradientTransform="matrix(2.144 -3.1786 -3.1827 -2.1468 2947.3135 -475.8116)" gradientUnits="userSpaceOnUse">
	<stop  offset="8.148150e-02" style="stop-color:#DFAB45"/>
	<stop  offset="1" style="stop-color:#E64A24"/>
</radialGradient>
<path class="st58" d="M164.6,156.8c0.7,0.6,1,1.7,0.4,2.4c-0.6,0.7-1.7,1-2.4,0.4c-0.7-0.6-1-1.7-0.4-2.4
	C162.8,156.5,163.9,156.2,164.6,156.8z"/>
<radialGradient id="SVGID_60_" cx="-599.0292" cy="208.6339" r="1" gradientTransform="matrix(0.8168 -1.211 -1.2126 -0.8179 908.61 -390.1013)" gradientUnits="userSpaceOnUse">
	<stop  offset="8.148150e-02" style="stop-color:#DFAB45"/>
	<stop  offset="1" style="stop-color:#E64A24"/>
</radialGradient>
<path class="st59" d="M167.2,164.2c0.2,0.2,0.5,0.6,0.3,0.9c-0.2,0.2-0.6,0.5-0.9,0.3c-0.2-0.2-0.5-0.6-0.3-0.9
	C166.5,164,166.9,164,167.2,164.2z"/>
<radialGradient id="SVGID_61_" cx="-574.4803" cy="340.9868" r="1" gradientTransform="matrix(1.1231 -1.665 -1.6672 -1.1245 1377.7788 -427.0994)" gradientUnits="userSpaceOnUse">
	<stop  offset="8.148150e-02" style="stop-color:#DFAB45"/>
	<stop  offset="1" style="stop-color:#E64A24"/>
</radialGradient>
<path class="st60" d="M165.5,145.2c0.5,0.2,0.5,0.8,0.3,1.3c-0.2,0.5-0.9,0.5-1.3,0.3c-0.5-0.2-0.5-0.8-0.3-1.3
	C164.4,145.1,165,144.8,165.5,145.2z"/>
<radialGradient id="SVGID_62_" cx="-554.0215" cy="451.2796" r="1" gradientTransform="matrix(1.6334 -2.4216 -2.4248 -1.6355 2149.2961 -438.6712)" gradientUnits="userSpaceOnUse">
	<stop  offset="8.148150e-02" style="stop-color:#DFAB45"/>
	<stop  offset="1" style="stop-color:#E64A24"/>
</radialGradient>
<path class="st61" d="M152.5,164.8c-0.1-0.7-0.7-1.3-1.4-1.2c-0.7,0.1-1.3,0.7-1.2,1.4s0.7,1.3,1.4,1.2
	C152,166.2,152.6,165.6,152.5,164.8z"/>
<radialGradient id="SVGID_63_" cx="-557.0217" cy="435.1057" r="1" gradientTransform="matrix(1.5314 -2.2703 -2.2733 -1.5333 1976.4728 -436.7944)" gradientUnits="userSpaceOnUse">
	<stop  offset="8.148150e-02" style="stop-color:#DFAB45"/>
	<stop  offset="1" style="stop-color:#E64A24"/>
</radialGradient>
<path class="st62" d="M136.1,159.7c0.5,0.4,0.8,1.1,0.4,1.7c-0.4,0.5-1.1,0.7-1.8,0.4c-0.5-0.4-0.7-1.1-0.4-1.7
	C134.7,159.3,135.6,159.3,136.1,159.7z"/>
<radialGradient id="SVGID_64_" cx="-611.9169" cy="139.1515" r="1" gradientTransform="matrix(0.7145 -1.0593 -1.0607 -0.7155 711.7854 -402.5495)" gradientUnits="userSpaceOnUse">
	<stop  offset="8.148150e-02" style="stop-color:#DFAB45"/>
	<stop  offset="1" style="stop-color:#E64A24"/>
</radialGradient>
<path class="st63" d="M127.8,145.7c0.2,0.2,0.3,0.6,0.1,0.9c-0.2,0.2-0.6,0.3-0.9,0.1c-0.2-0.2-0.3-0.6-0.1-0.9
	C127.2,145.5,127.4,145.5,127.8,145.7z"/>
<radialGradient id="SVGID_65_" cx="-560.4499" cy="416.6235" r="1" gradientTransform="matrix(1.4293 -2.119 -2.1218 -1.4312 1807.6569 -448.3239)" gradientUnits="userSpaceOnUse">
	<stop  offset="8.148150e-02" style="stop-color:#DFAB45"/>
	<stop  offset="1" style="stop-color:#E64A24"/>
</radialGradient>
<path class="st64" d="M124.2,142c0.5,0.4,0.7,1.1,0.3,1.5c-0.4,0.5-1.1,0.7-1.5,0.3c-0.7-0.2-0.7-0.8-0.6-1.5
	C122.9,141.9,123.8,141.8,124.2,142z"/>
<radialGradient id="SVGID_66_" cx="-574.4797" cy="340.9867" r="1" gradientTransform="matrix(1.1231 -1.665 -1.6672 -1.1245 1351.811 -434.9705)" gradientUnits="userSpaceOnUse">
	<stop  offset="8.148150e-02" style="stop-color:#DFAB45"/>
	<stop  offset="1" style="stop-color:#E64A24"/>
</radialGradient>
<path class="st65" d="M139.5,137.3c0.5,0.2,0.5,0.8,0.3,1.3c-0.2,0.5-0.9,0.5-1.3,0.3c-0.5-0.2-0.5-0.8-0.3-1.3
	C138.3,137.1,139,137.1,139.5,137.3z"/>
<radialGradient id="SVGID_67_" cx="-581.0324" cy="305.6593" r="1" gradientTransform="matrix(1.0209 -1.5135 -1.5155 -1.0222 1187.3694 -436.8163)" gradientUnits="userSpaceOnUse">
	<stop  offset="8.148150e-02" style="stop-color:#DFAB45"/>
	<stop  offset="1" style="stop-color:#E64A24"/>
</radialGradient>
<path class="st66" d="M132.2,129.4c0.5,0.2,0.5,0.8,0.3,1.1c-0.4,0.5-0.9,0.5-1.3,0.3c-0.5-0.2-0.5-0.8-0.3-1.1
	C131.3,129.2,131.7,129.2,132.2,129.4z"/>
<radialGradient id="SVGID_68_" cx="-569.0197" cy="370.4226" r="1" gradientTransform="matrix(1.2252 -1.8165 -1.8188 -1.2268 1506.8927 -443.7808)" gradientUnits="userSpaceOnUse">
	<stop  offset="8.148150e-02" style="stop-color:#DFAB45"/>
	<stop  offset="1" style="stop-color:#E64A24"/>
</radialGradient>
<path class="st67" d="M137.2,134.6c0.5,0.4,0.5,0.8,0.3,1.3c-0.4,0.5-0.9,0.5-1.3,0.3c-0.5-0.4-0.5-0.8-0.3-1.3
	C136.3,134.4,136.8,134.4,137.2,134.6z"/>
<radialGradient id="SVGID_69_" cx="-557.022" cy="435.1068" r="1" gradientTransform="matrix(1.5314 -2.2703 -2.2733 -1.5334 1984.0112 -465.3127)" gradientUnits="userSpaceOnUse">
	<stop  offset="8.148150e-02" style="stop-color:#DFAB45"/>
	<stop  offset="1" style="stop-color:#E64A24"/>
</radialGradient>
<path class="st68" d="M143.7,131.2c0.5,0.4,0.8,1.1,0.4,1.7c-0.4,0.5-1.1,0.7-1.8,0.4c-0.5-0.4-0.7-1.1-0.4-1.7
	C142.3,130.8,143,130.8,143.7,131.2z"/>
<radialGradient id="SVGID_70_" cx="-541.7416" cy="517.4833" r="1" gradientTransform="matrix(2.246 -3.3298 -3.3342 -2.2489 3096.4614 -508.1214)" gradientUnits="userSpaceOnUse">
	<stop  offset="8.148150e-02" style="stop-color:#DFAB45"/>
	<stop  offset="1" style="stop-color:#E64A24"/>
</radialGradient>
<path class="st69" d="M156.8,130.4c0.9,0.6,1,1.7,0.4,2.6c-0.6,0.9-1.7,1-2.6,0.4c-0.9-0.6-1-1.7-0.4-2.6
	C154.7,130.1,156.1,130,156.8,130.4z"/>
<radialGradient id="SVGID_71_" cx="-569.0255" cy="370.3886" r="1" gradientTransform="matrix(1.2251 -1.8163 -1.8187 -1.2267 1519.5061 -436.4345)" gradientUnits="userSpaceOnUse">
	<stop  offset="8.148150e-02" style="stop-color:#DFAB45"/>
	<stop  offset="1" style="stop-color:#E64A24"/>
</radialGradient>
<path class="st70" d="M150.1,142c0.5,0.4,0.5,0.8,0.3,1.3c-0.4,0.5-0.9,0.5-1.3,0.3c-0.5-0.4-0.5-0.8-0.3-1.3
	C149.2,141.6,149.6,141.6,150.1,142z"/>
<radialGradient id="SVGID_72_" cx="-564.41" cy="395.2719" r="1" gradientTransform="matrix(1.3272 -1.9676 -1.9701 -1.3289 1683.0153 -446.9284)" gradientUnits="userSpaceOnUse">
	<stop  offset="8.148150e-02" style="stop-color:#DFAB45"/>
	<stop  offset="1" style="stop-color:#E64A24"/>
</radialGradient>
<path class="st71" d="M156.6,137.5c0.5,0.4,0.5,1.1,0.3,1.5c-0.4,0.5-1.1,0.5-1.5,0.3c-0.5-0.4-0.5-1.1-0.3-1.5
	C155.5,137.1,156.2,137.1,156.6,137.5z"/>
</svg>
