<?xml version="1.0" encoding="utf-8"?>
<!-- Generator: Adobe Illustrator 24.0.2, SVG Export Plug-In . SVG Version: 6.00 Build 0)  -->
<svg version="1.1" id="Capa_1" xmlns="http://www.w3.org/2000/svg" xmlns:xlink="http://www.w3.org/1999/xlink" x="0px" y="0px"
	 viewBox="0 0 284 614" style="enable-background:new 0 0 284 614;" xml:space="preserve">
<style type="text/css">
	.st0{fill:#C55DBE;}
	.st1{fill:#ED66DA;}
	.st2{fill:#B549B2;}
	.st3{fill:#D96DC4;}
	.st4{fill:#A13AA4;}
	.st5{fill:#BA51B8;}
</style>
<path class="st0" d="M153.3,560.6c2.5,4.6-15.5,19.1-40,32.6c-24.6,13.5-46.6,20.7-48.9,16.2l-27.5-35.3l44.4-36.4l60.4-19.1
	L153.3,560.6z"/>
<path class="st1" d="M-53,613.4c169.2,0,306.5-137.2,306.5-306.7S116.4,0-53,0V613.4z"/>
<path class="st2" d="M32.1,197c21.8-2.4,44,37.5,49.5,89.1s-7.5,95.3-29.3,97.6c-21.8,2.4-44-37.5-49.5-89.1
	C-2.8,243.1,10.3,199.4,32.1,197z"/>
<path class="st0" d="M23.6,200.3c16.9-1.8,35,37.4,40.4,87.7s-3.8,92.5-20.7,94.3c-16.9,1.8-35-37.4-40.4-87.7
	C-2.6,244.3,6.7,202.1,23.6,200.3z"/>
<path class="st2" d="M212.6,293.9c-12.2-0.9-24,21.7-26.4,50.8c-2.4,28.9,5.6,53.3,18,54.2c12.2,0.9,24-21.7,26.4-50.8
	C232.8,319.2,224.8,295,212.6,293.9z"/>
<path class="st0" d="M220.6,347.6c-2,24.9-11.1,45.3-21.3,49.9c-9.5-6.2-15.1-27.7-13.1-52.6c2-24.9,11.1-45.3,21.3-49.9
	C217,301,222.6,322.5,220.6,347.6z"/>
<path class="st2" d="M54.5,73.7c-14,6.2-13.5,38.2,1.3,71.3c14.7,33.1,38,55,52,48.8c14-6.2,13.5-38.2-1.3-71.3
	C91.8,89.4,68.5,67.5,54.5,73.7z"/>
<path class="st0" d="M95.3,127.6c12.7,28.6,14.9,56.2,6.4,67.3c-14-1.1-33.1-21.3-45.7-49.9c-12.7-28.6-14.9-56.2-6.4-67.3
	C63.4,78.8,82.5,99,95.3,127.6z"/>
<path class="st2" d="M78.6,496.1c27.3-21.6,56.8-29.7,65.9-18.2c9.1,11.5-5.6,38.3-32.9,59.9c-27.3,21.6-56.8,29.7-65.9,18.2
	C36.5,544.5,51.3,517.7,78.6,496.1z"/>
<path class="st0" d="M78.5,496c26.6-21.1,53.9-30.9,61-22c7,8.9-8.8,33.2-35.5,54.3c-26.6,21.1-53.9,30.9-61,22
	C36,541.4,51.9,517.1,78.5,496z"/>
<path class="st2" d="M129.1,245.7c-10.4,1.8-16.4,17.1-13.5,34.2c2.9,17.1,13.6,29.7,24,27.8c10.4-1.8,16.4-17.1,13.5-34.2
	C150.2,256.5,139.5,243.9,129.1,245.7z"/>
<path class="st0" d="M144.8,275c2.5,14.7-1.6,28.2-9.5,32.8c-8.9-1.8-17.3-13.1-19.6-27.8c-2.5-14.7,1.6-28.2,9.5-32.8
	C134,249,142.2,260.3,144.8,275z"/>
<path class="st2" d="M180.1,253.5c-3.8,0.7-6.2,6.4-5.1,12.7c1.1,6.4,5.1,11.1,8.9,10.4c3.8-0.7,6.2-6.4,5.1-12.7
	C188.1,257.5,184.1,253,180.1,253.5z"/>
<path class="st0" d="M185.9,264.5c0.9,5.5-0.5,10.6-3.5,12.2c-3.3-0.7-6.4-4.9-7.3-10.4c-0.9-5.5,0.5-10.6,3.5-12.2
	C181.9,254.8,185,259,185.9,264.5z"/>
<path class="st2" d="M146.8,194.9c-3.8,0.7-6.2,6.4-5.1,12.7c1.1,6.4,5.1,11.1,8.9,10.4c3.8-0.7,6.2-6.4,5.1-12.7
	C154.6,198.9,150.6,194.2,146.8,194.9z"/>
<path class="st0" d="M152.6,205.9c0.9,5.5-0.5,10.6-3.5,12.2c-3.3-0.7-6.4-4.9-7.3-10.4c-0.9-5.5,0.5-10.6,3.5-12.2
	C148.6,196,151.7,200.2,152.6,205.9z"/>
<path class="st2" d="M95.1,372.9c-3.5-2-8.7,1.1-12,6.6c-3.3,5.6-3.1,11.8,0.4,13.8c3.5,2,8.7-1.1,12-6.6
	C98.7,381.1,98.5,374.9,95.1,372.9z"/>
<path class="st0" d="M92.7,385.1c-2.7,4.9-7.3,7.6-10.6,7.1c-2.2-2.5-1.8-7.8,0.9-12.7s7.3-7.6,10.6-7.1
	C95.8,374.9,95.5,380.2,92.7,385.1z"/>
<path class="st2" d="M227.5,232.4c-3.8,0.7-5.6,8.9-4,18.4c1.6,9.5,6,16.6,9.8,16c3.8-0.5,5.6-8.9,4-18.4
	C235.9,239,231.5,231.9,227.5,232.4z"/>
<path class="st0" d="M234.3,249c1.5,8.2,0.2,15.3-2.5,17.7c-3.5-1.3-6.7-7.6-8.2-15.8c-1.5-8.2-0.2-15.3,2.5-17.7
	C229.5,234.4,233,240.8,234.3,249z"/>
<path class="st2" d="M138,374.6c-8.4-1.5-17.1,8.4-19.6,22.2s2.2,26.2,10.6,27.7c8.4,1.5,17.1-8.4,19.6-22.2S146.4,376,138,374.6z"
	/>
<path class="st0" d="M141.8,401c-2.2,11.8-8.9,20.9-16.2,22.2c-6.2-3.8-9.5-14.6-7.3-26.4c2.2-11.8,8.9-20.9,16.2-22.2
	C140.8,378.2,144,389.1,141.8,401z"/>
<path class="st2" d="M44.9,432.1c9.8-14.4,24.8-21.2,33.5-15.3c8.7,5.9,7.9,22.4-1.9,36.8c-9.8,14.4-24.8,21.2-33.5,15.3
	C34.3,462.9,35.2,446.4,44.9,432.1z"/>
<path class="st0" d="M45.1,432.2c9.5-14,22.7-21.7,29.5-17.1c6.7,4.6,4.4,19.7-5.1,33.7c-9.5,14-22.7,21.7-29.5,17.2
	C33.2,461.3,35.5,446.2,45.1,432.2z"/>
<path class="st3" d="M221.3,114.3l-33.5,8.2l13.6,48.1l27.5,35.9l28.6-20.7L221.3,114.3z"/>
<path class="st4" d="M221.3,114.3c-3.6,1.8,1.6,19.3,11.6,38.9s20.9,34.2,24.6,32.4c3.6-1.8-1.6-19.3-11.6-38.9
	C236.1,126.9,225,112.5,221.3,114.3z"/>
<path class="st5" d="M243,148.2c8.6,16.9,13.6,32.2,12.6,37.3c-4.7-2.2-14.2-15.3-22.7-32.2c-8.6-16.9-13.6-32.2-12.6-37.3
	C225.2,118.1,234.4,131.2,243,148.2z"/>
<path class="st3" d="M275.7,272.6l-33.1-5.1l-8.2,35.7l9.3,32l34-4.7L275.7,272.6z"/>
<path class="st4" d="M275.7,272.6c-4,0-6.7,13.1-6.2,29.1c0.5,16,4.2,28.9,8.2,28.9c4,0,6.7-13.1,6.2-29.1
	C283.6,285.4,279.7,272.5,275.7,272.6z"/>
<path class="st5" d="M280.8,301.6c0.5,13.8-1.5,25.3-4.5,28.4c-3.3-2.9-6.2-14.4-6.6-28.2c-0.5-13.8,1.5-25.3,4.5-28.4
	C277.6,276.3,280.3,287.8,280.8,301.6z"/>
<path class="st2" d="M167.3,140.3c9.1-3.3,24.2,15.5,33.9,41.9c9.6,26.4,10.1,50.6,1,53.9c-9.1,3.3-24.2-15.5-33.9-41.9
	S158.2,143.6,167.3,140.3z"/>
<path class="st0" d="M193.9,184.9c8.4,22.8,9.8,43.7,4.2,51.3c-9.1-2.2-21.5-19.3-29.8-42c-8.4-22.8-9.8-43.7-4.2-51.3
	C173.1,145.1,185.5,162.2,193.9,184.9z"/>
</svg>
