<?xml version="1.0" encoding="utf-8"?>
<!-- Generator: Adobe Illustrator 24.0.2, SVG Export Plug-In . SVG Version: 6.00 Build 0)  -->
<svg version="1.1" id="Capa_1" xmlns="http://www.w3.org/2000/svg" xmlns:xlink="http://www.w3.org/1999/xlink" x="0px" y="0px"
	 viewBox="0 0 339 259" style="enable-background:new 0 0 339 259;" xml:space="preserve">
<style type="text/css">
	.st0{fill:#F3F2ED;}
	.st1{opacity:0.1;fill:#231052;enable-background:new    ;}
	.st2{fill:#DCDCDC;}
	.st3{fill:#E91F5C;}
	.st4{opacity:0.1;}
	.st5{fill:none;stroke:#F8F8F8;stroke-width:1.0121;stroke-miterlimit:10;}
	.st6{fill:none;stroke:#71717B;stroke-width:1.0121;stroke-miterlimit:10;}
	.st7{fill:#71717B;}
</style>
<path class="st0" d="M182.6,167.4l45.2-113.5c3.8-10-0.8-21.1-10.8-24.9l-32.1-12.5c-10-3.8-21.1,0.8-24.9,10.8l-44.9,113.1
	L182.6,167.4z"/>
<path class="st1" d="M206.2,25.4c10,3.8,14.7,15.2,10.8,24.9l-44.9,113.1l10.4,4.1l45.2-113.5c3.8-10-0.8-21.1-10.8-24.9l-32.1-12.5
	c-1.2-0.5-2.4-0.7-3.5-0.9L206.2,25.4z"/>
<path class="st2" d="M148,153.5l-32.9-13.1l-0.4,37.3l20.5,8.2l20.1,8.3l27.2-26.9L148,153.5z"/>
<path class="st3" d="M155.2,193.9l-40.6-16.1l-4.2,10.6l40.6,16.1L155.2,193.9z"/>
<path class="st2" d="M150.8,231.3l0.4-26.9l-19.3-7.7l-1.1-0.2l-20.1-8.3l-18,20l28.9,11.6l0.3-0.4l-0.3,0.4L150.8,231.3z"/>
<g class="st4">
	<g class="st4">
		<path class="st1" d="M137.6,149.5l34.6,13.9l-26.9,26.4l-4.5,10.5l-0.7,27l10.8,4l0.4-26.9l4.4-10.5l26.9-26.4L148,153.5
			l-32.9-13.1L137.6,149.5z"/>
		<path class="st1" d="M111.3,214.9l-0.2,0.8L111.3,214.9z"/>
	</g>
</g>
<path class="st3" d="M228.5,70.9c-1.1,2.4-3.8,3.7-6.2,2.6l-71.8-28.4c-2.4-1.1-3.7-3.8-2.6-6.2c1.1-2.4,3.8-3.7,6.2-2.6l71.8,28.1
	C228.3,65.3,229.6,68.5,228.5,70.9z"/>
<path class="st1" d="M228.5,70.9c0.8-1.6,0.1-3.4-0.9-5.1c0.1,0.4-0.2,0.8-0.1,1.5c-1.1,2.4-3.8,3.7-6.2,2.6l-72.2-28.4
	c-0.8-0.2-1.3-0.9-1.8-1.5c-0.3,2.3,0.8,4.3,3.1,5l71.8,28.4C224.7,74.6,227.5,73.3,228.5,70.9z"/>
<path class="st5" d="M105.2,121c-0.2,0.8-1.2,1.3-2,1.1L12.6,86.7c-0.8-0.2-1-1.3-0.8-2.1l28.3-70.6c0.2-0.8,1.2-1.3,2-1.1
	l90.3,35.9c0.8,0.2,1,1.3,0.8,2.1L105.2,121z"/>
<path class="st5" d="M35.4,25.2l93.1,36.9"/>
<path class="st5" d="M29.5,40l93.1,36.9"/>
<path class="st5" d="M23.6,54.9l93.1,36.9"/>
<path class="st5" d="M18,69.3l93.1,36.9"/>
<path class="st5" d="M56.6,18.4L27,92.3"/>
<path class="st5" d="M71.9,24.6L42.6,98.4"/>
<path class="st5" d="M87.5,30.7l-29.2,73.8"/>
<path class="st5" d="M103.1,36.8l-29.6,73.9"/>
<path class="st5" d="M118.4,43l-29.2,73.8"/>
<path class="st5" d="M120.3,82.5l15.3,6.2"/>
<path class="st5" d="M203.2,160c-0.2,0.8,0,1.9,0.8,2.1l90.3,35.9c0.8,0.2,1.8-0.3,2-1.1l27.9-70.6c0.2-0.8,0-1.9-0.8-2.1
	l-90.3-35.9c-0.8-0.2-1.8,0.3-2,1.1L203.2,160z"/>
<path class="st5" d="M319.6,137.9L226.5,101"/>
<path class="st5" d="M313.7,152.8l-93.1-36.9"/>
<path class="st5" d="M308.1,167.2L215,130.3"/>
<path class="st5" d="M302.2,182l-93.1-36.9"/>
<path class="st5" d="M309.1,118.6l-29.2,73.8"/>
<path class="st5" d="M293.8,112.4l-29.6,73.9"/>
<path class="st5" d="M278.2,106.3l-29.2,73.8"/>
<path class="st5" d="M262.5,100.2L233.3,174"/>
<path class="st5" d="M247.2,94l-29.6,73.9"/>
<path class="st5" d="M218.6,121.5l-15.2-5.8"/>
<path class="st6" d="M121.5,219.8l-8.7,22.1"/>
<path class="st3" d="M119.6,242.1c-1.3,3.2-4.8,4.6-8,3.3c-3.2-1.3-4.6-4.8-3.3-8c1.3-3.2,4.8-4.6,8-3.3
	C119.1,235.5,120.9,238.9,119.6,242.1z"/>
<path class="st1" d="M119.6,242.1c0.8-1.6,0.5-3.4-0.1-4.8c0.1,0.4-0.2,0.8-0.2,1.1c-1.3,3.2-4.8,4.6-8,3.3
	c-1.6-0.5-2.6-1.8-3.2-3.2c-0.6,2.7,1,5.8,3.8,6.8C114.8,246.7,118.3,245.3,119.6,242.1z"/>
<path class="st7" d="M144,100.3c-0.5,1.2-1.5,1.8-2.8,1.2c-1.2-0.5-1.4-1.6-1.2-2.8l15.4-38.5c0.5-1.2,1.6-1.4,2.8-1.2
	c1.2,0.5,1.4,1.6,1.2,2.8L144,100.3z"/>
</svg>
