<?xml version="1.0" encoding="utf-8"?>
<!-- Generator: Adobe Illustrator 24.0.2, SVG Export Plug-In . SVG Version: 6.00 Build 0)  -->
<svg version="1.1" id="Capa_1" xmlns="http://www.w3.org/2000/svg" xmlns:xlink="http://www.w3.org/1999/xlink" x="0px" y="0px"
	 viewBox="0 0 141.7 141.7" style="enable-background:new 0 0 141.7 141.7;" xml:space="preserve">
<style type="text/css">
	.st0{fill:#DD6C0F;}
</style>
<g>
	<g>
		<g>
			<path class="st0" d="M75.7,70.9v3.4c-4.7,0.5-8.1,3.1-8.1,6.4c0,3.7,4.3,6.5,9.8,6.5c3.7,0,6.5,1.7,6.5,3.3
				c0,1.5-2.8,3.3-6.5,3.3c-3.7,0-6.5-1.7-6.5-3.3h-3.3c0,3.3,3.5,5.9,8.1,6.4v3.4H79v-3.4c4.7-0.5,8.1-3.1,8.1-6.4
				c0-3.7-4.3-6.5-9.8-6.5c-3.7,0-6.5-1.7-6.5-3.3c0-1.5,2.8-3.3,6.5-3.3s6.5,1.7,6.5,3.3h3.3c0-3.3-3.5-5.9-8.1-6.4v-3.4H75.7z"/>
		</g>
		<g>
			<g>
				<path class="st0" d="M117.8,105.5l-3.6-4.3c-1.7-2.1-2.6-4.7-2.6-7.3v-8.8c0-9.5-4-18.5-10.9-25L89.3,49.3
					c2.1-0.7,3.7-2.4,4.2-4.5s0-4.4-1.4-6l7-9c1.1-1.5,1.4-3.5,0.5-5.1c-0.8-1.7-2.5-2.7-4.4-2.7h-6.5c-1.3,0-2.5,0.5-3.4,1.4
					l-3,2.9l-2.8-2.8c-0.9-0.9-2.2-1.4-3.5-1.4H61.2c-1.9,0-3.6,1.1-4.4,2.7s-0.6,3.7,0.5,5.1l6.3,8.1c-1.9,1.4-2.9,3.8-2.5,6.2
					c0.4,2.4,2.1,4.3,4.3,5.1l-4.4,4.1V53c0-2.7-2.2-4.9-4.9-4.9H26.9c-2.7,0-4.9,2.2-4.9,4.9v3.3c0,2.7,2.2,4.9,4.9,4.9h1.9
					c-0.2,0.5-0.3,1.1-0.3,1.6V66c0,0.6,0.1,1.1,0.3,1.6h-1.9c-2.7,0-4.9,2.2-4.9,4.9v3.3c0,2.7,2.2,4.9,4.9,4.9h0.3
					c-0.2,0.5-0.3,1.1-0.3,1.6v3.3c0,0.6,0.1,1.1,0.3,1.6h-0.3c-2.7,0-4.9,2.2-4.9,4.9v3.3c0,2.7,2.2,4.9,4.9,4.9h0.3
					c-0.2,0.5-0.3,1.1-0.3,1.6v3.3c0,0.6,0.1,1.1,0.3,1.6h-0.3c-2.7,0-4.9,2.2-4.9,4.9v3.3c0,2.7,2.2,4.9,4.9,4.9h84.7
					c4.5,0,8.1-3.7,8.1-8.1v-0.9C119.7,108.9,119,107,117.8,105.5z M59.9,27.9c-0.4-0.5-0.4-1.1-0.2-1.7c0.3-0.6,0.8-0.9,1.5-0.9H76
					c0.4,0,0.8,0.2,1.1,0.5l2.8,2.8c1.3,1.2,3.3,1.3,4.6,0l3-2.9c0.3-0.3,0.7-0.4,1.1-0.4h6.5c0.6,0,1.2,0.4,1.5,0.9
					c0.3,0.6,0.2,1.2-0.2,1.7l-6.8,8.8H66.7L59.9,27.9z M64.3,43.2c0-1.8,1.5-3.3,3.3-3.3h19.5c1.8,0,3.3,1.5,3.3,3.3
					s-1.5,3.3-3.3,3.3H67.6C65.8,46.5,64.3,45,64.3,43.2z M79,64.5c-0.5,0-1.1-0.1-1.6-0.1c-0.6,0-1.1,0-1.6,0.1V49.7H79L79,64.5
					L79,64.5z M95.3,85.6c0,9.9-8,17.9-17.9,17.9s-17.9-8-17.9-17.9s8-17.9,17.9-17.9S95.3,75.7,95.3,85.6z M25.2,56.3V53
					c0-0.9,0.7-1.6,1.6-1.6h29.3c0.9,0,1.6,0.7,1.6,1.6v3.3c0,0.1,0,0.2-0.1,0.3l-1.4,1.3c-0.1,0-0.1,0-0.2,0v-3.3H53v3.3h-3.3v-3.3
					h-3.3v3.3h-3.3v-3.3h-3.3v3.3h-3.3v-3.3h-3.3v3.3h-3.3v-3.3h-3.3v3.3C26,57.9,25.2,57.2,25.2,56.3z M31.8,66v-3.3
					c0-0.9,0.7-1.6,1.6-1.6H53c-1.9,2-3.6,4.1-5,6.5h-4.8v-3.3h-3.3v3.3h-3.3v-3.3h-3.3v3.3C32.5,67.7,31.8,66.9,31.8,66z
					 M25.2,75.8v-3.3c0-0.9,0.7-1.6,1.6-1.6h19.4c-0.9,2.1-1.7,4.3-2.2,6.5h-0.9v-3.3h-3.3v3.3h-3.3v-3.3h-3.3v3.3h-3.3v-3.3h-3.3
					v3.3C26,77.5,25.2,76.7,25.2,75.8z M30.1,85.6v-3.3c0-0.9,0.7-1.6,1.6-1.6h11.7c-0.2,1.4-0.3,2.9-0.3,4.4v2.1h-1.6V84h-3.3v3.3
					H35V84h-3.3v3.3C30.9,87.2,30.1,86.5,30.1,85.6z M25.2,95.4v-3.3c0-0.9,0.7-1.6,1.6-1.6h16.3v3.4c0,1-0.1,2.1-0.4,3.1h-6.1v-3.3
					h-3.3V97h-3.3v-3.3h-3.3V97C26,97,25.2,96.3,25.2,95.4z M30.1,105.1v-3.3c0-0.9,0.7-1.6,1.6-1.6h9.5c-0.2,0.3-0.4,0.7-0.7,1
					l-3.6,4.3c-0.3,0.4-0.6,0.8-0.8,1.2H35v-3.3h-3.3v3.3C30.9,106.8,30.1,106,30.1,105.1z M30.1,116.5v-3.3h-3.3v3.3
					c-0.9,0-1.6-0.7-1.6-1.6v-3.3c0-0.9,0.7-1.6,1.6-1.6h8.2c0,0.2-0.1,0.5-0.1,0.7v0.9c0,1.8,0.6,3.5,1.7,4.9H30.1z M116.5,111.7
					c0,2.7-2.2,4.9-4.9,4.9H43.2c-2.7,0-4.9-2.2-4.9-4.9v-0.9c0-0.6,0.1-1.2,0.4-1.8c0.2-0.5,0.4-0.9,0.8-1.3l3.6-4.3
					c1-1.2,1.8-2.6,2.4-4.1c0.7-1.7,1-3.5,1-5.3v-8.8c0-1.9,0.2-3.8,0.6-5.7c1.2-6.5,4.5-12.4,9.3-16.9l13.6-12.7h2.6V65
					C62,67.5,55.1,77.4,56.3,88.1s10.3,18.7,21,18.7s19.8-8.1,21-18.7c1.3-10.7-5.7-20.6-16.1-23.1V49.8h2.6l13.6,12.7
					c6.3,5.9,9.8,14,9.8,22.6v8.8c0,3.4,1.2,6.8,3.4,9.4l3.6,4.3c0.7,0.9,1.1,2,1.1,3.1V111.7z"/>
			</g>
		</g>
	</g>
</g>
</svg>
