<?xml version="1.0" encoding="utf-8"?>
<!-- Generator: Adobe Illustrator 24.0.2, SVG Export Plug-In . SVG Version: 6.00 Build 0)  -->
<svg version="1.1" id="Capa_1" xmlns="http://www.w3.org/2000/svg" xmlns:xlink="http://www.w3.org/1999/xlink" x="0px" y="0px"
	 viewBox="0 0 141.7 141.7" style="enable-background:new 0 0 141.7 141.7;" xml:space="preserve">
<style type="text/css">
	.st0{fill:#DD6C0F;}
</style>
<g>
	<g>
		<path class="st0" d="M73.3,76.4c-0.2,0-0.4,0-0.7,0c-2.2-0.3-3.9-2.2-3.9-4.4c0-1.1-0.9-2-2-2s-2,0.9-2,2c0,3.8,2.5,7,6.1,8v2
			c0,1.1,0.9,2,2,2s2-0.9,2-2v-1.8c4.2-0.9,7-4.8,6.6-9c-0.4-4.3-4-7.5-8.3-7.5c-2.4,0-4.4-2-4.4-4.4s2-4.4,4.4-4.4
			c2.4,0,4.4,2,4.4,4.4c0,1.1,0.9,2,2,2c1.1,0,2-0.9,2-2c0-3.9-2.8-7.4-6.6-8.2v-1.8c0-1.1-0.9-2-2-2s-2,0.9-2,2v1.9
			c-4,1.1-6.6,5-6.1,9.1c0.6,4.1,4.1,7.2,8.3,7.2c2.4,0,4.4,1.9,4.4,4.4C77.6,74.3,75.7,76.3,73.3,76.4z"/>
		<path class="st0" d="M44.8,65.7C44.8,81.4,57.5,94,73.1,94s28.3-12.7,28.3-28.3S88.7,37.4,73.1,37.4
			C57.5,37.4,44.8,50.1,44.8,65.7z M73.1,41.3c13.5,0,24.4,10.9,24.4,24.4S86.6,90.2,73.1,90.2S48.7,79.2,48.7,65.7
			C48.7,52.2,59.6,41.3,73.1,41.3z"/>
		<path class="st0" d="M111,98.9l-15.3,7.2c-2.1-3.9-6.2-6.4-10.6-6.6L71,99.1c-2.2-0.1-4.4-0.6-6.4-1.7l-1.4-0.7
			c-7.4-3.8-16.1-3.8-23.5,0l0.1-3.3c0-1.1-0.8-2-1.9-2l-15.5-0.4c-1.1,0-2,0.8-2,1.9l-0.9,34c0,1.1,0.8,2,1.9,2l15.5,0.4h0
			c1.1,0,1.9-0.8,2-1.9l0-1.6l4-2.2c1.6-0.9,3.4-1.1,5.2-0.6l24,6.7c0,0,0.1,0,0.1,0c1.7,0.4,3.5,0.5,5.3,0.5
			c3.8,0,7.5-0.8,10.9-2.4c0.1,0,0.2-0.1,0.2-0.1l34.8-22.5c0.9-0.6,1.1-1.7,0.6-2.6C121.4,98.2,115.7,96.5,111,98.9z M23.4,125.1
			L24.2,95l11.6,0.3L35,125.4L23.4,125.1z M86.6,124.6c-4.3,1.9-9,2.4-13.5,1.5l-24-6.7c-2.7-0.8-5.6-0.4-8,0.9l-2.1,1.1l0.6-20
			c6.5-4.3,14.9-4.8,21.8-1.2l1.4,0.7c2.5,1.3,5.3,2,8.1,2.1l14.1,0.4c4,0.1,7.3,2.9,8.1,6.8l-21-0.6c-1.1,0-2,0.8-2,1.9
			c0,1.1,0.8,2,1.9,2l23.2,0.6h0c1.1,0,1.9-0.8,2-1.9c0-0.9,0-1.7-0.2-2.5l15.7-7.4c0,0,0,0,0,0c2.2-1.1,4.9-0.8,6.7,1L86.6,124.6z"
			/>
		<path class="st0" d="M75,31.9V13.4c0-1.1-0.9-2-2-2s-2,0.9-2,2v18.6c0,1.1,0.9,2,2,2S75,33,75,31.9z"/>
		<path class="st0" d="M89.7,31.9v-8.8c0-1.1-0.9-2-2-2c-1.1,0-2,0.9-2,2v8.8c0,1.1,0.9,2,2,2C88.8,33.9,89.7,33,89.7,31.9z"/>
		<path class="st0" d="M60.4,31.9v-8.8c0-1.1-0.9-2-2-2c-1.1,0-2,0.9-2,2v8.8c0,1.1,0.9,2,2,2C59.5,33.9,60.4,33,60.4,31.9z"/>
	</g>
</g>
</svg>
