<?xml version="1.0" encoding="utf-8"?>
<!-- Generator: Adobe Illustrator 24.0.2, SVG Export Plug-In . SVG Version: 6.00 Build 0)  -->
<svg version="1.1" id="Capa_1" xmlns="http://www.w3.org/2000/svg" xmlns:xlink="http://www.w3.org/1999/xlink" x="0px" y="0px"
	 viewBox="0 0 141.7 141.7" style="enable-background:new 0 0 141.7 141.7;" xml:space="preserve">
<style type="text/css">
	.st0{fill:#DD6C0F;}
</style>
<g>
	<g>
		<path class="st0" d="M131.4,55.5l-3.2-5.6c-0.6-1.2-2.1-1.6-3.3-0.8c-1.2,0.6-1.6,2.1-0.8,3.3l3.2,5.6c0.2,0.3,0.1,0.5,0.1,0.7
			c0,0.1-0.1,0.4-0.4,0.5l-8.5,4.9c-0.4,0.2-1.1,0.1-1.3-0.3l-17-29.7c-0.2-0.4-0.1-1.1,0.3-1.3L109,28c0.4-0.2,1.1-0.1,1.3,0.3
			l3.1,5.3c0.6,1.2,2.1,1.6,3.3,0.8c1.2-0.6,1.6-2.1,0.8-3.3l-3.1-5.3c-1.6-2.8-5.1-3.7-7.8-2.1l-8.5,4.9c-1.3,0.7-2.2,1.9-2.5,3.3
			H71.6c-3.4,0-6.6,1.3-8.9,3.7L60.3,38c-2.1-0.5-4.3-0.7-6.6-0.7h-7.4c-0.4-1.5-1.3-2.8-2.6-3.6l-8.5-4.9c-1.4-0.7-2.9-1-4.3-0.5
			c-1.5,0.4-2.8,1.4-3.5,2.6l-17,29.7c-1,1.4-1.1,3-0.7,4.4c0.4,1.5,1.4,2.8,2.6,3.5l8.5,4.9c0.8,0.5,1.9,0.7,2.9,0.7
			c0.3,0,0.7,0,1.1-0.1l6.9,7c-0.1,0.5-0.2,1.1-0.2,1.7c0,2.3,0.8,4.6,2.5,6.1c1.6,1.6,3.6,2.4,5.6,2.5c0,0.3,0,0.6,0,1
			c0,2.3,0.8,4.6,2.5,6.1c1.6,1.6,3.8,2.5,6.1,2.5c0.1,0,0.1,0,0.2,0c0,0.1,0,0.1,0,0.2c0,2.3,0.8,4.6,2.5,6.1
			c1.6,1.6,3.8,2.5,6.1,2.5c0.1,0,0.1,0,0.2,0c0,0.1,0,0.1,0,0.2c0,2.3,0.8,4.6,2.5,6.1c1.6,1.6,3.8,2.5,6.1,2.5
			c2.3,0,4.4-1,6.1-2.5l3.4-3.4c1-1.1,1.7-2.2,2.1-3.5c1.5,1.2,3.3,1.7,5.1,1.7c2.2,0,4.4-0.8,6.1-2.5c1-1.1,1.7-2.2,2.1-3.6
			c1.4,1,3,1.4,4.7,1.4c2.3,0,4.4-1,6.1-2.5c1.2-1.3,2-2.8,2.3-4.3c0.8,0.3,1.8,0.4,2.8,0.4c2.3,0,4.4-1,6.1-2.5
			c3.4-3.4,3.4-8.9,0-12.3l-5.6-5.6l10.2-10.3c0.2,0,0.4,0,0.6,0c1,0,1.9-0.2,2.9-0.7l8.5-4.9c1.4-0.7,2.2-2,2.6-3.5
			C132.3,58.5,132.1,56.9,131.4,55.5z M14.7,64.4c-0.3-0.2-0.4-0.4-0.4-0.5s-0.1-0.4,0.1-0.7l17-29.7c0.2-0.3,0.4-0.4,0.5-0.4
			c0.1,0,0.1,0,0.2,0c0.1,0,0.3,0,0.4,0.1L41,38c0.4,0.2,0.6,0.8,0.3,1.3L24.4,69c-0.2,0.4-0.8,0.6-1.3,0.3L14.7,64.4z M36.2,82.9
			c0-1.1,0.4-2,1.2-2.8l2.1-2.1c0.7-0.7,1.7-1.2,2.8-1.2c1,0,2,0.4,2.8,1.2c0.7,0.7,1.2,1.7,1.2,2.8s-0.4,2-1.2,2.8l-2.1,2.1
			c-1.5,1.5-3.9,1.5-5.4,0C36.6,84.8,36.2,83.8,36.2,82.9z M48.2,96.2c-1.1,0-2-0.4-2.8-1.2s-1.2-1.7-1.2-2.8s0.4-2,1.2-2.8l3.4-3.4
			c0.7-0.7,1.7-1.2,2.8-1.2c1,0,2,0.4,2.8,1.2c0.7,0.7,1.2,1.7,1.2,2.8s-0.4,2-1.2,2.8L50.9,95C50.1,95.9,49.1,96.2,48.2,96.2z
			 M57,105.1c-1.1,0-2-0.4-2.8-1.2c-0.7-0.7-1.2-1.7-1.2-2.8s0.4-2,1.2-2.8l3.4-3.4c0.7-0.7,1.7-1.2,2.8-1.2c1,0,2,0.4,2.8,1.2
			s1.2,1.7,1.2,2.8s-0.4,2-1.2,2.8l-3.4,3.4C58.9,104.7,57.9,105.1,57,105.1z M71.9,109.5l-3.4,3.4c-0.7,0.7-1.7,1.2-2.8,1.2
			c-1.1,0-2-0.4-2.8-1.2c-0.7-0.7-1.2-1.7-1.2-2.8s0.4-2,1.2-2.8l3.4-3.4c0.7-0.7,1.7-1.2,2.8-1.2c1,0,2,0.4,2.8,1.2
			C73.4,105.5,73.4,108,71.9,109.5z M109.3,93.9c-0.7,0.7-1.7,1.2-2.8,1.2s-2-0.4-2.8-1.2L81,70.9c-1-1-2.4-1-3.4,0
			c-1,1-1,2.4,0,3.4l20.6,20.7c0.7,0.7,1.2,1.7,1.2,2.8s-0.4,2-1.2,2.8c-0.7,0.7-1.7,1.2-2.8,1.2s-2-0.4-2.8-1.2L68.1,75.6
			c-1-1-2.4-1-3.4,0c-1,1-1,2.4,0,3.4l20.6,20.7c0.7,0.7,1.2,1.7,1.2,2.8s-0.4,2-1.2,2.8c-1.5,1.5-3.9,1.5-5.4,0l-4.6-4.6l0,0
			c-1.7-1.7-4-2.5-6.3-2.5c0-0.1,0-0.1,0-0.2c0-2.3-0.8-4.6-2.5-6.1c-1.7-1.7-4-2.5-6.3-2.5c0-0.1,0-0.1,0-0.2
			c0-2.3-0.8-4.6-2.5-6.1c-1.9-1.9-4.4-2.8-6.9-2.5c-0.1-2.1-1-4.2-2.5-5.7c-3.4-3.4-8.8-3.4-12.2,0L34,76.6l0,0l-5.3-5.4l16.6-29.1
			h8.3c0.8,0,1.6,0,2.4,0.1l-2.8,2.8c-1.6,1.6-2.5,3.8-2.5,6.1s0.8,4.6,2.5,6.1c1.7,1.7,3.9,2.5,6.1,2.5s4.4-0.8,6.1-2.5l6.5-6.6
			l37.3,37.6C110.8,90,110.8,92.4,109.3,93.9z M86.2,58.4c3.5-2.5,5.6-6.7,5.6-11.1c0-1.4-1.1-2.4-2.4-2.4c-1.3,0-2.4,1.1-2.4,2.4
			c0,3.2-1.7,6-4.3,7.6l-9.1-9.2c-1-1-2.4-1-3.4,0L62,53.9c-1.5,1.5-3.9,1.5-5.4,0c-0.7-0.7-1.2-1.7-1.2-2.8s0.4-2,1.2-2.8l9.3-9.4
			c1.5-1.5,3.4-2.3,5.5-2.3H96l16.8,29.5c0,0.1,0.1,0.1,0.1,0.2l-9.4,9.5L86.2,58.4z"/>
		<path class="st0" d="M120.8,44.2c0.6,0,1.3-0.2,1.7-0.7c0.4-0.4,0.7-1.1,0.7-1.7s-0.2-1.3-0.7-1.7c-0.4-0.4-1.1-0.7-1.7-0.7
			c-0.6,0-1.3,0.2-1.7,0.7c-0.4,0.4-0.7,1.1-0.7,1.7s0.2,1.3,0.7,1.7C119.5,44,120.1,44.2,120.8,44.2z"/>
	</g>
</g>
</svg>
