<?xml version="1.0" encoding="utf-8"?>
<!-- Generator: Adobe Illustrator 24.0.2, SVG Export Plug-In . SVG Version: 6.00 Build 0)  -->
<svg version="1.1" id="Capa_1" xmlns="http://www.w3.org/2000/svg" xmlns:xlink="http://www.w3.org/1999/xlink" x="0px" y="0px"
	 viewBox="0 0 141.7 141.7" style="enable-background:new 0 0 141.7 141.7;" xml:space="preserve">
<style type="text/css">
	.st0{fill:#DD6C0F;}
</style>
<g>
	<g>
		<g>
			<g>
				<path class="st0" d="M48.4,54.8c-0.8-0.8-2-0.8-2.8,0c-0.8,0.8-0.8,2,0,2.8c0.8,0.8,2,0.8,2.8,0C49.1,56.9,49.1,55.6,48.4,54.8z
					"/>
			</g>
		</g>
		<g>
			<g>
				<path class="st0" d="M75.1,108.7c0.9-1.2,1.3-2.6,1.3-4.1c0-3.8-3.1-6.9-6.9-6.9H36c-1.8,0-3.6,0.7-4.9,2c-1.3,1.3-2,3-2,4.9
					c0,1.5,0.5,2.9,1.3,4.1c-3.1,1.7-5.3,4.9-5.3,8.7v2c0,1.1,0.9,2,2,2h51.3c1.1,0,2-0.9,2-2v-2C80.3,113.7,78.2,110.4,75.1,108.7z
					 M33.9,102.5c0.6-0.6,1.3-0.9,2.1-0.9h33.5c1.6,0,3,1.3,3,3c0,0.8-0.3,1.5-0.9,2.1c-0.6,0.6-1.3,0.9-2.1,0.9H36
					c-1.6,0-3-1.3-3-3C33,103.8,33.3,103.1,33.9,102.5z M29.1,117.4c0-3.3,2.7-5.9,5.9-5.9h1h33.5h1c3.3,0,5.9,2.7,5.9,5.9H29.1z"/>
			</g>
		</g>
		<g>
			<g>
				<path class="st0" d="M124.2,103.3c-0.7-1-1.5-2-2.4-2.7l-9.2-8c-0.1-0.1-0.2-0.2-0.3-0.3c-0.2-0.2-0.3-0.3-0.5-0.4l-5.6-4.9
					L80.5,64.5c1.1-1.1,1.6-2.5,1.6-4.1c0-1.6-0.6-3.1-1.7-4.2c-0.5-0.5-1-0.9-1.6-1.2l2.4-2.4c0.7,0.2,1.4,0.3,2,0.3
					c2,0,4-0.8,5.6-2.3c1.5-1.5,2.3-3.5,2.3-5.6c0-2.1-0.8-4.1-2.3-5.6L72.1,22.8c-1.5-1.5-3.5-2.3-5.6-2.3c-2.1,0-4.1,0.8-5.6,2.3
					c-2.1,2.1-2.7,5-2,7.6L35.1,54.2c-0.7-0.2-1.3-0.3-2-0.3c-2.1,0-4.1,0.8-5.6,2.3c-3.1,3.1-3.1,8.1,0,11.2l16.7,16.7
					c1.5,1.5,3.6,2.3,5.6,2.3c2,0,4-0.8,5.6-2.3c2.1-2.1,2.7-5,2-7.6l2.4-2.4c0.3,0.6,0.7,1.1,1.2,1.6c1.1,1.1,2.6,1.7,4.2,1.7
					c1.5,0,3-0.6,4.1-1.6l27.5,31.6c0.1,0.1,0.2,0.2,0.3,0.3c0,0,0.1,0.1,0.1,0.1l8.2,9.4c0.2,0.2,0.4,0.5,0.6,0.7
					c2.2,2.2,5.2,3.5,8.3,3.5c0.5,0,1.1,0,1.7-0.1c3.7-0.5,6.9-2.7,8.8-6.1C126.7,111.5,126.5,106.8,124.2,103.3z M63.7,25.6
					c0.7-0.7,1.7-1.2,2.8-1.2c1.1,0,2,0.4,2.8,1.2L86,42.3c0.7,0.7,1.2,1.7,1.2,2.8c0,1.1-0.4,2-1.2,2.8c-1.5,1.5-4,1.5-5.6,0
					L63.7,31.1c0,0,0,0,0,0C62.2,29.6,62.2,27.1,63.7,25.6z M52.5,81.3c-1.5,1.5-4,1.5-5.6,0L30.2,64.6c-1.5-1.5-1.5-4,0-5.6
					c0.7-0.7,1.7-1.2,2.8-1.2c1.1,0,2,0.4,2.8,1.2l16.7,16.7C54.1,77.3,54.1,79.8,52.5,81.3z M60.8,67.4L55.3,73L38.6,56.2
					l22.3-22.3l16.7,16.7l-5.5,5.5c0,0,0,0-0.1,0.1L60.8,67.4C60.9,67.4,60.9,67.4,60.8,67.4z M67.9,71.6
					C67.9,71.6,67.9,71.6,67.9,71.6L66.5,73c-0.4,0.4-0.9,0.6-1.4,0.6c-0.5,0-1-0.2-1.4-0.6c-0.4-0.4-0.6-0.9-0.6-1.4
					c0-0.5,0.2-1,0.6-1.4L74.9,59c0.8-0.7,2-0.7,2.8,0c0.4,0.4,0.6,0.9,0.6,1.4c0,0.5-0.2,1-0.6,1.4l-1.4,1.4c0,0,0,0,0,0L67.9,71.6
					z M72,73l5.8-5.8l24.4,21.3l-8.9,8.9L72,73z M95.8,100.4l9.3-9.3l3,2.6l-9.7,9.7L95.8,100.4z M121.2,113.3
					c-1.3,2.3-3.4,3.8-5.9,4.1c-2.5,0.3-4.9-0.5-6.7-2.2c-0.2-0.2-0.3-0.3-0.4-0.5c0,0,0,0,0,0l-7.2-8.2l10.1-10.1l8.2,7.2
					c0,0,0,0,0,0c0.6,0.5,1.2,1.2,1.6,1.9C122.4,107.7,122.5,110.9,121.2,113.3z"/>
			</g>
		</g>
		<g>
			<g>
				<path class="st0" d="M62.3,40.9c-0.8-0.8-2-0.8-2.8,0l-8.4,8.4c-0.8,0.8-0.8,2,0,2.8c0.4,0.4,0.9,0.6,1.4,0.6
					c0.5,0,1-0.2,1.4-0.6l8.4-8.4C63.1,42.9,63.1,41.7,62.3,40.9z"/>
			</g>
		</g>
	</g>
</g>
</svg>
