<?xml version="1.0" encoding="utf-8"?>
<!-- Generator: Adobe Illustrator 24.0.2, SVG Export Plug-In . SVG Version: 6.00 Build 0)  -->
<svg version="1.1" id="Capa_1" xmlns="http://www.w3.org/2000/svg" xmlns:xlink="http://www.w3.org/1999/xlink" x="0px" y="0px"
	 viewBox="0 0 141.7 141.7" style="enable-background:new 0 0 141.7 141.7;" xml:space="preserve">
<style type="text/css">
	.st0{fill:#DD6C0F;}
</style>
<g>
	<g>
		<path class="st0" d="M33.6,72.4v3.8h3.5v-3.8c2-0.6,3.5-2.5,3.5-4.8c0-1.9-1.1-3.7-2.8-4.5l-3.5-1.7c-0.5-0.3-0.8-0.8-0.8-1.4
			c0-0.8,0.7-1.5,1.5-1.5h0.5c0.8,0,1.5,0.7,1.5,1.5v0.3h3.5V60c0-2.3-1.5-4.2-3.5-4.8v-3.8h-3.5v3.8c-2,0.6-3.5,2.5-3.5,4.8
			c0,1.9,1.1,3.7,2.8,4.5l3.5,1.7c0.5,0.3,0.8,0.8,0.8,1.4c0,0.8-0.7,1.5-1.5,1.5h-0.5c-0.8,0-1.5-0.7-1.5-1.5v-2h-3.5v2
			C30.1,69.9,31.6,71.8,33.6,72.4z"/>
		<path class="st0" d="M35.4,83.3c10.8,0,19.5-8.8,19.5-19.5c0-0.5,0-1-0.1-1.4l6-1c1.1,2.5,3.6,4.2,6.5,4.2c3.9,0,7.1-3.2,7.1-7.1
			c0-0.6-0.1-1.3-0.3-1.9l12.9-7.4c1.3,1.3,3.1,2.2,5.1,2.2c3.9,0,7.1-3.2,7.1-7.1c0-1.3-0.4-2.5-1-3.6L117,22v9.9h3.5V16h-16v3.5
			h9.9L95.7,38.2c-1.1-0.6-2.3-1-3.6-1c-3.9,0-7.1,3.2-7.1,7.1c0,0.6,0.1,1.3,0.3,1.9l-12.9,7.4c-1.3-1.3-3.1-2.2-5.1-2.2
			c-3.7,0-6.7,2.9-7,6.5l-6,1c-2.2-8.4-9.8-14.6-18.8-14.6c-10.8,0-19.5,8.8-19.5,19.5S24.6,83.3,35.4,83.3L35.4,83.3z M92.1,40.8
			c2,0,3.5,1.6,3.5,3.5s-1.6,3.5-3.5,3.5s-3.5-1.6-3.5-3.5S90.2,40.8,92.1,40.8z M67.3,55c2,0,3.5,1.6,3.5,3.5s-1.6,3.5-3.5,3.5
			s-3.5-1.6-3.5-3.5S65.3,55,67.3,55z M35.4,47.9c8.8,0,16,7.2,16,16s-7.2,16-16,16s-16-7.2-16-16S26.6,47.9,35.4,47.9z"/>
		<path class="st0" d="M19.4,125.9h17.7v-39H19.4V125.9z M23,90.4h10.6v31.9H23V90.4z"/>
		<path class="st0" d="M40.7,125.9h17.7V90.4H40.7V125.9z M44.2,94h10.6v28.4H44.2V94z"/>
		<path class="st0" d="M62,125.9h17.7V69.2H62V125.9z M65.5,72.7h10.6v49.7H65.5V72.7z"/>
		<path class="st0" d="M109.9,97.8V94h-3.5v3.8c-2,0.6-3.5,2.5-3.5,4.8c0,1.9,1.1,3.7,2.8,4.5l3.5,1.7c0.5,0.3,0.8,0.8,0.8,1.4
			c0,0.8-0.7,1.5-1.5,1.5h-0.5c-0.8,0-1.5-0.7-1.5-1.5v-2h-3.5v2c0,2.3,1.5,4.2,3.5,4.8v3.8h3.5V115c2-0.6,3.5-2.5,3.5-4.8
			c0-1.9-1.1-3.7-2.8-4.5l-3.5-1.7c-0.5-0.3-0.8-0.8-0.8-1.4c0-0.8,0.7-1.5,1.5-1.5h0.5c0.8,0,1.5,0.7,1.5,1.5v0.3h3.5v-0.3
			C113.4,100.3,111.9,98.4,109.9,97.8z"/>
		<path class="st0" d="M123.1,98l-6-9.6l3.2-11c0.2-0.6,0.2-1.2,0.2-1.8c0-3.6-2.9-6.4-6.4-6.4h-4.9c-2.5,0-4.7,1.5-5.7,3.5H101V55
			H83.3v70.9h24.8c9.8,0,17.7-8,17.7-17.7v-0.7C125.8,104.1,124.9,100.9,123.1,98L123.1,98z M106.3,75.6c0-1.6,1.3-2.9,2.9-2.9h4.9
			c1.6,0,2.9,1.3,2.9,2.9c0,0.3,0,0.5-0.1,0.8l-3,10.5h-12.1l-5.1-5.1c-0.6-0.6-0.9-1.4-0.9-2.3c0-1.8,1.5-3.2,3.2-3.2h3.9v3.5h3.5
			V75.6z M86.8,122.4V58.5h10.6v14.4c-3,0.7-5.3,3.4-5.3,6.6c0,1.8,0.7,3.5,2,4.8l4.6,4.6L93.1,98c-1.8,2.8-2.7,6.1-2.7,9.4v0.7
			c0,5.8,2.8,11,7.1,14.2H86.8z M122.3,108.2c0,7.8-6.4,14.2-14.2,14.2s-14.2-6.4-14.2-14.2v-0.7c0-2.7,0.7-5.3,2.2-7.5l5.9-9.5
			h12.2l5.9,9.5c1.4,2.3,2.2,4.9,2.2,7.5V108.2z"/>
	</g>
</g>
</svg>
