<?xml version="1.0" encoding="utf-8"?>
<!-- Generator: Adobe Illustrator 24.0.2, SVG Export Plug-In . SVG Version: 6.00 Build 0)  -->
<svg version="1.1" id="Capa_1" xmlns="http://www.w3.org/2000/svg" xmlns:xlink="http://www.w3.org/1999/xlink" x="0px" y="0px"
	 viewBox="0 0 141.7 141.7" style="enable-background:new 0 0 141.7 141.7;" xml:space="preserve">
<style type="text/css">
	.st0{fill:#DD6C0F;}
</style>
<g id="clean_路_hygiene_路_gel_路_wash_路_handwash_2_">
	<path class="st0" d="M72.7,72.7c0-3.5-4.9-9.2-5.9-10.3c-0.7-0.7-1.9-0.8-2.6-0.1c0,0,0,0-0.1,0.1c-1,1.1-5.9,6.7-5.9,10.3
		c0,4,3.2,7.2,7.2,7.2C69.4,80,72.7,76.7,72.7,72.7z M61.8,72.7c0-1.2,1.7-3.8,3.6-6.2c1.9,2.4,3.6,5.1,3.6,6.2c0,2-1.6,3.6-3.6,3.6
		C63.4,76.4,61.8,74.7,61.8,72.7z"/>
	<path class="st0" d="M119.7,67.3h-1.8v-5.4c0-1-0.8-1.8-1.8-1.8h-3.6V47.4c0-1-0.8-1.8-1.8-1.8v-1.8c0-1.7-0.8-3.3-2.2-4.3
		c1.4-1,2.4-2.4,2.9-4c0.2-0.6,0.2-1.2,0.2-1.9c0-3.3-2.2-6.2-5.4-7l-36.7-9.8c-0.2,0-0.3-0.1-0.5-0.1h-25c-1.8,0-3.5,0.5-5,1.5
		L36.4,20c-0.3,0.2-0.7,0.3-1,0.3h-0.7v-1.8c0-1-0.8-1.8-1.8-1.8H22c-1,0-1.8,0.8-1.8,1.8v25.3c0,1,0.8,1.8,1.8,1.8h10.9
		c1,0,1.8-0.8,1.8-1.8V42h1c0.3,0,0.6,0.1,0.8,0.2l4.1,2c2.8,1.4,5.8,2.1,8.9,2.1c1.6,0,3.2-0.2,4.8-0.6l23.5-6.3
		c1.8-0.5,3.4-1.7,4.4-3.4c0.2-0.3,0.3-0.6,0.4-0.9l15.8,4.2c-1.4,1-2.2,2.6-2.2,4.4v1.8H78.1c-0.4,0-0.8,0.1-1.1,0.4l-7.2,5.4
		c-0.8,0.6-1,1.6-0.4,2.4l3.6,5.4c0.3,0.5,0.9,0.8,1.5,0.8c0.4,0,0.7-0.1,1-0.3l5-3.3h13.9v3.6h-3.6c-1,0-1.8,0.8-1.8,1.8v5.4h-1.8
		c-3,0-5.4,2.4-5.4,5.4v18.7L79,92.2c-0.9-2.1-2.6-3.7-4.8-4.3l-22.8-6.1l-0.7-0.2c-4.6-1.1-9.5-0.6-13.7,1.5l-4.1,2.1
		c-0.2,0.1-0.5,0.2-0.8,0.2h-1v-1.8c0-1-0.8-1.8-1.8-1.8H18.4c-1,0-1.8,0.8-1.8,1.8v25.3c0,1,0.8,1.8,1.8,1.8h10.9
		c1,0,1.8-0.8,1.8-1.8v-1.8h0.7c0.4,0,0.7,0.1,1,0.3l2.7,1.8c1.5,1,3.2,1.5,5,1.5h25c0.2,0,0.3,0,0.5-0.1l15.8-4.3v13.4
		c0,3,2.4,5.4,5.4,5.4h32.6c3,0,5.4-2.4,5.4-5.4v-47C125.1,69.7,122.7,67.3,119.7,67.3z M31,42h-7.2V20.3H31V42z M27.4,107.1h-7.2
		V85.4h7.2V107.1z M83.1,31.6c0-0.3-0.1-0.7-0.2-1c-1-3.9-5-6.1-8.8-5.1l-12.7,3.4c-1,0.2-1.6,1.2-1.4,2.2c0.2,1,1.2,1.6,2.2,1.4
		c0,0,0.1,0,0.1,0L74.9,29c1.9-0.5,3.9,0.8,4.3,2.7c0.4,1.9-0.6,3.7-2.5,4.3L54.1,42l-0.7,0.2c-3.8,0.9-7.8,0.5-11.2-1.2l-4.1-2
		c-0.8-0.4-1.6-0.6-2.4-0.6h-1V23.9h0.7c1.1,0,2.1-0.3,3-0.9l2.7-1.8c0.9-0.6,1.9-0.9,3-0.9h24.7l36.5,9.8c1.6,0.4,2.7,1.9,2.7,3.5
		c0,0.3,0,0.6-0.1,0.9c-0.2,0.9-0.8,1.7-1.7,2.2c-0.8,0.5-1.8,0.6-2.8,0.4L83.1,31.6z M107,43.8v1.8h-7.2v-1.8c0-1,0.8-1.8,1.8-1.8
		h3.6C106.2,42,107,42.8,107,43.8z M98,49.2h10.9v10.9H98V49.2z M79.9,52.8c-0.4,0-0.7,0.1-1,0.3L75,55.7l-1.7-2.5l5.4-4h15.7v3.6
		H79.9z M92.6,63.7h21.7v3.6H92.6V63.7z M65.2,107.1H40.5c-1.1,0-2.1-0.3-3-0.9l-2.7-1.8c-0.9-0.6-2-0.9-3-0.9H31V89h1
		c0.8,0,1.7-0.2,2.4-0.6l4.1-2c3.5-1.7,7.5-2.2,11.3-1.2l23.4,6.3c1.5,0.4,2.5,1.6,2.7,3.1c0,0.4,0,0.9-0.1,1.3
		c-0.4,1.6-1.9,2.7-3.5,2.7c-0.3,0-0.6,0-0.9-0.1L58.7,95c-1-0.3-2,0.3-2.2,1.3s0.3,2,1.3,2.2l0,0l12.7,3.4c0.6,0.2,1.2,0.2,1.9,0.2
		c3.3,0,6.1-2.2,7-5.3c0.1-0.3,0.2-0.7,0.2-1l20.4-5.4c0.9-0.3,1.9-0.1,2.8,0.4c0.8,0.5,1.4,1.3,1.7,2.2c0.1,0.3,0.1,0.6,0.1,0.9
		c0,1.6-1.1,3.1-2.7,3.5L65.2,107.1z M121.5,119.8c0,1-0.8,1.8-1.8,1.8H87.1c-1,0-1.8-0.8-1.8-1.8v-5.4h36.2V119.8z M121.5,110.7
		H85.3v-5.3l17.2-4.6c3.2-0.8,5.4-3.7,5.4-7c0-0.6-0.1-1.3-0.2-1.9c-1-3.9-5-6.2-8.9-5.1l-13.5,3.6v-8.7h36.2V110.7z M121.5,78.2
		H85.3v-5.4c0-1,0.8-1.8,1.8-1.8h32.6c1,0,1.8,0.8,1.8,1.8V78.2z"/>
</g>
</svg>
