<?xml version="1.0" encoding="utf-8"?>
<!-- Generator: Adobe Illustrator 24.0.2, SVG Export Plug-In . SVG Version: 6.00 Build 0)  -->
<svg version="1.1" id="Capa_1" xmlns="http://www.w3.org/2000/svg" xmlns:xlink="http://www.w3.org/1999/xlink" x="0px" y="0px"
	 viewBox="0 0 141.7 141.7" style="enable-background:new 0 0 141.7 141.7;" xml:space="preserve">
<style type="text/css">
	.st0{fill:#DD6C0F;}
</style>
<g>
	<path class="st0" d="M128.3,95.2c-1,3-3.1,4.1-6.3,4.1c-14.1-0.1-28.3,0-42.4,0c-0.4,0-0.9,0-1.4,0c0,3.6,0,7.1,0,10.8
		c0.9,0,1.8,0,2.6,0c1.6,0,2.4,0.6,2.4,1.7c0,1.1-0.8,1.6-2.3,1.6c-10.6,0-21.2,0-31.7,0c-0.4,0-0.9,0-1.4,0c0,1.1,0,2.2,0,3.3
		c15.4,0,30.8,0,46.3,0c0-1.1,0-2.1,0-3.3c-1.5,0-2.9,0-4.3,0c-1.2,0-2-0.7-2-1.7c0-1,0.8-1.7,2-1.7c1.6,0,3.2,0,4.8,0
		c1.7,0,2.8,1,2.9,2.7c0.1,1.6,0.1,3.1,0,4.7c-0.1,1.7-1.2,2.7-3.1,2.7c-6.1,0-12.3,0-18.4,0c-9.4,0-18.8,0-28.1,0
		c-2.5,0-3.5-1-3.5-3.5c0-1.2,0-2.3,0-3.5c0.1-2,1.1-3.1,3.2-3.1c4.9,0,9.9,0,14.8,0c0.4,0,0.8,0,1.3,0c0-3.6,0-7.1,0-10.8
		c-0.5,0-0.9,0-1.3,0c-14.3,0-28.6,0-42.9,0c-3.8,0-5.8-2-5.8-5.8c0-4.3,0-8.5,0-12.8c0-0.8,0.2-1.6,1-1.8c0.5-0.1,1.3-0.1,1.6,0.2
		c0.4,0.3,0.7,1.1,0.7,1.6c0.1,2.4,0,4.8,0,7.2c0,0.4,0,0.7,0,1.2c36,0,72,0,108.1,0c0-0.4,0-0.8,0-1.2c0-20,0-40.1,0-60.1
		c0-2.1-0.4-2.5-2.6-2.5c-14.8,0-29.6,0-44.4,0c-0.4,0-0.8,0-1.2,0c-0.9-0.2-1.4-0.7-1.4-1.6c0-0.9,0.5-1.5,1.4-1.6
		c0.4-0.1,0.8,0,1.2,0c14.7,0,29.4,0,44.1,0c3.1,0,5.3,1.1,6.3,4.1C128.3,49,128.3,72.1,128.3,95.2z M124.9,92.5
		c-36.1,0-72.1,0-108,0c-0.3,2.9,0.1,3.3,2.9,3.3c34.1,0,68.2,0,102.3,0c0.4,0,0.7,0,1.1,0c1-0.1,1.6-0.7,1.6-1.7
		C124.9,93.7,124.9,93.1,124.9,92.5z M74.7,99.3c-2.6,0-5.2,0-7.7,0c0,3.6,0,7.1,0,10.6c2.6,0,5.2,0,7.7,0
		C74.7,106.3,74.7,102.8,74.7,99.3z"/>
	<path class="st0" d="M72.8,56.6c0,13.1-10.6,23.8-23.7,23.8c-13.2,0-23.8-10.6-23.8-23.8c0-13.1,10.6-23.8,23.7-23.8
		C62.1,32.8,72.7,43.4,72.8,56.6z M69.4,56.6c0-11.2-9-20.4-20.2-20.5c-11.4-0.1-20.5,8.9-20.6,20.3C28.5,67.7,37.6,77,48.9,77
		C60.2,77.1,69.4,68,69.4,56.6z"/>
	<path class="st0" d="M43.5,21.8c8.2,0,16.4,0,24.7,0c0.4,0,0.8,0,1.1,0c0.9,0.2,1.4,0.7,1.4,1.6c0,0.9-0.5,1.5-1.5,1.7
		c-0.4,0.1-0.7,0-1.1,0c-16.3,0-32.5,0-48.8,0c-2.2,0-2.6,0.4-2.6,2.6c0,14.5,0,29.1,0,43.6c0,0.3,0,0.7,0,1c-0.1,1-0.7,1.6-1.6,1.6
		c-0.9,0-1.6-0.7-1.7-1.7c0-0.3,0-0.5,0-0.8c0-14.7,0-29.4,0-44.1c0-3.7,2-5.7,5.8-5.7C27.3,21.8,35.4,21.8,43.5,21.8z"/>
	<path class="st0" d="M99.1,80.3c-4.3,0-8.5,0-12.8,0c-3.1,0-4.6-1.5-4.6-4.6c0-1.2,0-2.4,0-3.6c0.1-2.5,1.6-4.1,4.2-4.1
		c4.6,0,9.1,0,13.7,0c1.4,0,2.1,0.6,2.1,1.6c0,1.1-0.7,1.7-2.2,1.7c-4.4,0-8.7,0-13.1,0c-1,0-1.4,0.3-1.3,1.4c0.1,1,0,2.1,0,3.1
		c0,0.8,0.3,1.1,1.1,1.1c8.6,0,17.3,0,25.9,0c0.7,0,1.1-0.2,1.1-1c0-1.2,0-2.4,0-3.6c0-0.8-0.4-1-1.1-1c-1.3,0-2.5,0-3.8,0
		c-1.3,0-2-0.7-2-1.7c0-1,0.7-1.6,2-1.6c1.5,0,3,0,4.5,0c2,0.1,3.6,1.5,3.7,3.5c0.1,1.7,0.1,3.5,0,5.3c-0.1,2.2-1.8,3.6-4.1,3.6
		C107.9,80.3,103.5,80.3,99.1,80.3z"/>
	<path class="st0" d="M99.1,52.1c-5.1,0-10.2,0-15.2,0c-0.6,0-1.4-0.2-1.8-0.7c-0.8-0.8-0.4-2.2,0.7-2.5c0.4-0.1,1-0.2,1.4-0.2
		c9.9,0,19.8,0,29.7,0c0.3,0,0.5,0,0.8,0c1.1,0.1,1.8,0.8,1.7,1.8c0,1-0.7,1.6-1.8,1.6c-4.1,0-8.1,0-12.2,0
		C101.3,52.1,100.2,52.1,99.1,52.1z"/>
	<path class="st0" d="M100.7,45.4c-4.6,0-9.3,0-13.9,0c-1,0-1.8-0.4-2-1.4c-0.2-0.8,0.4-1.7,1.3-1.9c0.4-0.1,0.8-0.1,1.2-0.1
		c8.8,0,17.7,0,26.5,0c0.2,0,0.4,0,0.7,0c1.2,0.1,1.9,0.7,1.9,1.8c0,1-0.7,1.6-1.9,1.6C109.9,45.4,105.3,45.4,100.7,45.4z"/>
	<path class="st0" d="M93.7,58.9c-3.3,0-6.6,0-9.9,0c-1.3,0-2.1-0.6-2.1-1.6c0-1.1,0.8-1.7,2.2-1.7c6.6,0,13.1,0,19.7,0
		c1.4,0,2.2,0.6,2.2,1.7c0,1.1-0.8,1.7-2.3,1.7C100.2,58.9,97,58.9,93.7,58.9z"/>
	<path class="st0" d="M99.1,32.8c2.1,0,4.3,0,6.4,0c1.3,0,2,0.7,2,1.7c0,1-0.8,1.6-2,1.6c-4.3,0-8.5,0-12.8,0c-1.3,0-2-0.7-2-1.7
		c0-1,0.8-1.6,2-1.6C94.8,32.8,97,32.8,99.1,32.8z"/>
	<path class="st0" d="M61,46.6c-0.2,0.3-0.5,0.9-1,1.3C53.5,54.5,46.9,61,40.4,67.6c-0.2,0.2-0.5,0.5-0.8,0.7
		c-0.8,0.5-1.6,0.5-2.2-0.2c-0.6-0.7-0.6-1.4,0-2.1c0.1-0.1,0.2-0.3,0.4-0.4c6.7-6.7,13.4-13.4,20-20c0.2-0.2,0.4-0.4,0.7-0.6
		C59.6,44.2,61,45,61,46.6z"/>
	<path class="st0" d="M62.1,64.4c0,3-2.3,5.4-5.3,5.4c-3,0-5.4-2.3-5.4-5.3c0-3,2.4-5.4,5.4-5.4C59.8,59.1,62.1,61.4,62.1,64.4z
		 M56.8,62.4c-1.1,0-2,0.9-2,2c0,1.1,0.9,2,2,2c1.1,0,2-0.9,2-2C58.8,63.3,57.9,62.4,56.8,62.4z"/>
	<path class="st0" d="M35.8,48.7c0-2.9,2.4-5.3,5.4-5.3c2.9,0,5.3,2.4,5.3,5.4c0,3-2.4,5.4-5.4,5.4C38.1,54.1,35.8,51.7,35.8,48.7z
		 M43.2,48.7c0-1.1-1-2-2-2c-1.1,0-1.9,1-1.9,2c0,1.1,0.9,2,2,1.9C42.3,50.7,43.2,49.8,43.2,48.7z"/>
</g>
</svg>
