<?xml version="1.0" encoding="utf-8"?>
<!-- Generator: Adobe Illustrator 24.0.2, SVG Export Plug-In . SVG Version: 6.00 Build 0)  -->
<svg version="1.1" id="Capa_1" xmlns="http://www.w3.org/2000/svg" xmlns:xlink="http://www.w3.org/1999/xlink" x="0px" y="0px"
	 viewBox="0 0 141.7 141.7" style="enable-background:new 0 0 141.7 141.7;" xml:space="preserve">
<style type="text/css">
	.st0{fill:#DD6C0F;}
</style>
<g>
	<path class="st0" d="M129.7,61.4h-4.3l-6.4,3.3c-0.7-0.4-1.5-0.7-2.3-0.9l-8-2v-0.9c3.5-2.5,5.7-6.6,5.7-10.9v-3.3
		c0-7.4-5.8-13.6-12.9-13.8c-0.4,0-0.7,0-1.1,0l2.1-4.9L92.6,18.1l-5.9,3.9c-2.3-1.3-4.6-2.3-7.1-2.9l-1.5-6.9H63.6L62.2,19
		c-2.5,0.7-4.9,1.7-7.1,2.9l-5.9-3.9l-10,10l2,4.9c-0.1,0-0.2,0-0.2,0c-3.6-0.1-7.1,1.2-9.7,3.7c-2.6,2.5-4,5.9-4,9.5V50
		c0,4.3,2.2,8.4,5.7,10.9v0.9l-5.2,1.3l-9.5-5.5H12V97l18.7,6.2h3.6l0.5-1.6l5.7,3.4c0.1,3.1,2.6,5.6,5.7,5.7
		c0.1,3.1,2.6,5.6,5.7,5.7c0.1,3.1,2.6,5.6,5.7,5.7c0.1,3.2,2.7,5.7,5.9,5.7c1.2,0,2.4-0.4,3.3-1l1.7,1.5c1.1,0.9,2.4,1.4,3.8,1.4
		h0.4c3.2,0,5.7-2.6,5.8-5.7c3.1,0,5.7-2.6,5.7-5.7c3.1,0,5.7-2.6,5.7-5.7c3.2-0.1,5.7-2.7,5.7-5.8c0-0.2,0-0.4,0-0.6l34.2-17.1
		V61.4z M110.7,46.7V50c0,3.4-1.8,6.5-4.8,8.2l-0.9,0.5l0,6l9.5,2.4l-20.9,11v-5.1c0-2.6-1-4.9-2.7-6.6l6.5-1.6v-6l-0.9-0.5
		c-2.9-1.7-4.7-4.8-4.7-8.2v-3.8c0-2.6,1-5,2.9-6.8c1.9-1.8,4.3-2.8,6.9-2.7C106.6,36.9,110.7,41.4,110.7,46.7z M73.7,76.7l-8.6-2.7
		c-3.9-1.3-8.2-1.4-12.2-0.6l-1.1,0.2v-0.6c0-2.6,1.8-4.9,4.3-5.5l10.9-2.7v-6l-0.9-0.5c-2.9-1.7-4.7-4.8-4.7-8.2v-3.8
		c0-2.6,1-5,2.9-6.8c1.9-1.8,4.3-2.8,6.9-2.7c5.1,0.2,9.2,4.6,9.2,10V50c0,3.4-1.8,6.5-4.8,8.2l-0.9,0.5l0,6l10.9,2.7
		c2.5,0.6,4.3,2.9,4.3,5.5v7.1l-0.5,0.2h-1.2l-11.7-3.3C75.6,76.8,74.7,76.7,73.7,76.7z M52.3,40.5c3.6-6.9,10.7-11.3,18.6-11.3
		c7.7,0,14.9,4.4,18.5,11.2c-0.9,1.8-1.4,3.8-1.4,5.9V50c0,4.3,2.2,8.4,5.7,10.9v0.9L86,63.7l-7.6-1.9v-0.9
		c3.5-2.5,5.7-6.6,5.7-10.9v-3.3c0-7.4-5.8-13.6-12.9-13.8c-3.6-0.1-7.1,1.2-9.7,3.7c-2.6,2.5-4,5.9-4,9.5V50
		c0,4.3,2.2,8.4,5.7,10.9v0.9l-7.6,1.9l-7.6-1.9v-0.9c3.5-2.5,5.7-6.6,5.7-10.9v-3.3C53.8,44.5,53.2,42.4,52.3,40.5z M43.6,29
		l6.1-6.1l5.3,3.5l1-0.6c2.6-1.6,5.3-2.7,8.2-3.4l1.2-0.3l1.3-6.2H75l1.3,6.2l1.2,0.3c2.9,0.7,5.7,1.8,8.2,3.4l1,0.6l5.3-3.5
		l6.1,6.1L96,34c-1.5,0.6-2.8,1.5-4,2.7c-0.1,0.1-0.1,0.2-0.2,0.2c-4.5-7.1-12.4-11.6-20.9-11.6c-8.6,0-16.5,4.5-21,11.7
		c-1.2-1.2-2.6-2.3-4.2-3L43.6,29z M36.7,64.8v-6l-0.9-0.5C32.8,56.6,31,53.4,31,50v-3.8c0-2.6,1-5,2.9-6.8c1.9-1.8,4.3-2.8,6.9-2.7
		c5.1,0.2,9.2,4.6,9.2,10V50c0,3.4-1.8,6.5-4.8,8.2l-0.9,0.5l0,6l6.5,1.6c-1.7,1.7-2.7,4.1-2.7,6.6v1.4l-5.9,1.3l0.2-0.5l0.1-3.5
		l-10-5.8L36.7,64.8z M15.8,61.4h1.4l13.7,8L23.9,97l-8.2-2.7V61.4z M31.3,99.4l-3.7-1.2l6.7-26.8l4.3,2.5v0.5l-7.1,25H31.3z
		 M44.3,104.9c0-0.6,0.2-1.1,0.6-1.5l3.3-3.3c0.4-0.4,0.9-0.6,1.5-0.6c1.2,0,2.1,1,2.1,2.1c0,0.6-0.2,1.1-0.6,1.5l-3.3,3.3
		c-0.4,0.4-0.9,0.6-1.5,0.6C45.2,107,44.3,106.1,44.3,104.9z M50,110.6c0-0.6,0.2-1.1,0.6-1.5l3.3-3.3c0.4-0.4,0.9-0.6,1.5-0.6
		c1.2,0,2.1,1,2.1,2.1c0,0.6-0.2,1.1-0.6,1.5l-3.3,3.3c-0.4,0.4-0.9,0.6-1.5,0.6C50.9,112.7,50,111.8,50,110.6z M55.7,116.3
		c0-0.6,0.2-1.1,0.6-1.5l3.3-3.3c0.4-0.4,0.9-0.6,1.5-0.6c1.2,0,2.1,1,2.1,2.1c0,0.6-0.2,1.1-0.6,1.5l-3.3,3.3
		c-0.4,0.4-0.9,0.6-1.5,0.6C56.6,118.4,55.7,117.4,55.7,116.3z M63.5,124.1c-1.2,0-2.1-1-2.1-2.1c0-0.6,0.2-1.1,0.6-1.5l3.3-3.3
		c0.4-0.4,0.9-0.6,1.5-0.6c1.2,0,2.1,1,2.1,2.1c0,0.6-0.2,1.1-0.6,1.5l-3.3,3.3C64.6,123.9,64,124.1,63.5,124.1z M72.7,126h-0.4
		c-0.5,0-0.9-0.2-1.3-0.5l-1.4-1.3l1.4-1.4c0.5-0.5,0.9-1.1,1.2-1.8l1.7,1.4c0.5,0.4,0.7,0.9,0.7,1.5C74.6,125.1,73.8,126,72.7,126z
		 M89.7,108.9h-0.3c-0.5,0-0.9-0.2-1.3-0.5l-10.3-8.6l-2.4,2.9l10,8.3c0.4,0.4,0.7,0.9,0.7,1.5c0,1.1-0.9,2-2,2h-0.4
		c-0.5,0-0.9-0.2-1.3-0.5l-10.3-8.6l-2.4,2.9l10,8.3c0.5,0.4,0.7,0.9,0.7,1.5c0,1.1-0.9,2-2,2c-0.7,0-1.4-0.3-2-0.7l-4.2-3.5
		c-0.9-1.9-2.9-3.2-5.1-3.3c-0.1-3.1-2.6-5.6-5.7-5.7c-0.1-3.1-2.6-5.6-5.7-5.7c-0.1-3.2-2.7-5.7-5.9-5.7c-1.6,0-3.1,0.6-4.2,1.7
		l-3.3,3.3c-0.2,0.2-0.4,0.4-0.5,0.7l-5.8-3.5l5.1-17.9l12.8-2.9c3.4-0.8,6.9-0.6,10.2,0.5l2.8,0.9l-9.5,4.7
		c-2.2,1.1-3.5,3.3-3.5,5.7v0.4c0,3.5,2.9,6.4,6.4,6.4c1.2,0,2.3-0.3,3.3-0.9l7.1-4.2c1.4-0.9,3.3-0.7,4.6,0.4l16,14.4
		c0.4,0.4,0.7,0.9,0.7,1.5C91.7,108,90.8,108.9,89.7,108.9z M125.9,86.8l-32,16c-0.1-0.1-0.2-0.2-0.3-0.3l-16-14.4
		c-1.4-1.3-3.2-2-5.1-2c-1.4,0-2.7,0.4-3.9,1.1l-7.1,4.2c-0.4,0.2-0.9,0.4-1.3,0.4c-1.4,0-2.6-1.1-2.6-2.6v-0.4c0-1,0.5-1.9,1.4-2.3
		l10.6-5.3c1.8-0.9,4-1.1,5.9-0.5l11.9,3.4l2.9,0.1l35.6-18.7V86.8z"/>
</g>
</svg>
