<?xml version="1.0" encoding="utf-8"?>
<!-- Generator: Adobe Illustrator 24.0.2, SVG Export Plug-In . SVG Version: 6.00 Build 0)  -->
<svg version="1.1" id="Capa_1" xmlns="http://www.w3.org/2000/svg" xmlns:xlink="http://www.w3.org/1999/xlink" x="0px" y="0px"
	 viewBox="0 0 141.7 141.7" style="enable-background:new 0 0 141.7 141.7;" xml:space="preserve">
<style type="text/css">
	.st0{fill:#072B60;}
</style>
<path class="st0" d="M21,120.8c0,1.8,1.4,3.3,3.1,3.3h18.5c4.7,0,9.9,2.8,14.1,5l0.6,0.3c3.6,1.9,8.1,4.2,14.6,4.2h32.3
	c5.4,0,9.6-4.2,9.6-9.6v-2.1c0-1.6-0.4-3.2-1.3-4.7l-0.2-0.4l0.3-0.3c2.3-1.8,3.6-4.5,3.6-7.4v-2.1c0-1.6-0.4-3.2-1.3-4.7l-0.2-0.4
	l0.3-0.3c2.3-1.8,3.6-4.5,3.6-7.4v-2.1c0-1.6-0.4-3.2-1.3-4.7l-0.2-0.4l0.4-0.3c2.4-1.7,3.8-4.4,3.8-7.3v-2.1c0-5.4-4.2-9.6-9.6-9.6
	H94.1L94,67.4c-0.3-2-1.3-3.9-2.7-5.3c-0.6-0.6-1.2-1.1-1.8-1.4l-0.3-0.1v-10l0.3-0.1c7.6-4.1,12.1-11.7,12.1-20.3
	c0-10-6.4-18.7-15.8-21.8c-1-0.3-2.1-0.2-3,0.4c-0.8,0.6-1.3,1.5-1.3,2.5v19h-5.9v-19c0-1-0.5-1.9-1.3-2.5c-0.9-0.6-1.9-0.8-3-0.4
	C62,11.2,55.6,20.1,55.6,29.9c0,8.4,4.6,16.2,12.1,20.3l0.3,0.1v8.8l-0.5,0c-4.9,0.3-8.6,2.6-9.3,3.2l-9.7,8.7H24.1
	c-1.7,0-3.1,1.4-3.1,3.1V120.8z M107.5,124.1c0,1.8-1.4,3.1-3.1,3.1H91c-2.2,0-4.1-1.9-4.1-4.1c0-2.2,1.9-4.1,4.1-4.1h13.4
	c1.8,0,3.1,1.4,3.1,3.1V124.1z M94.2,74.3h17.6c1.7,0,3.1,1.5,3.1,3.1v2.1c0,1.8-1.4,3.1-3.1,3.1H94.2V74.3z M94,96.9
	c0.2-0.6,0.2-1.2,0.2-1.7v-6.1h15.2c1.7,0,3.1,1.5,3.1,3.1v2.1c0,1.8-1.4,3.1-3.1,3.1H93.9L94,96.9z M91,104.1h15.8
	c0.7-0.1,1.5,0.2,2.1,0.7c0.7,0.6,1,1.4,1,2.3v2.1c0,1.8-1.4,3.1-3.1,3.1H91c-2.2,0-4.1-1.9-4.1-4.1S88.8,104.1,91,104.1z M62,29.9
	c0-5.2,2.3-10,6.3-13.1l0.8-0.6v13.7c0,3.7,2.9,6.6,6.6,6.6h5.6c3.7,0,6.6-2.9,6.6-6.6V16.4l0.8,0.6c4,3.1,6.3,7.9,6.3,13.1
	c0,6.7-4.1,12.7-10.4,15.3c-1.4,0.5-2,1.8-2,3v10.9h-8.3V48.4c0-1.2-0.8-2.4-2-3C66,42.8,61.8,36.6,62,29.9z M27.4,77.6h22.1
	c0.9,0,1.6-0.3,2.1-0.8l10.6-9.4c2-1.3,4.2-1.9,6.4-1.9h16c1.8,0,3.1,1.4,3.1,3.1v26.4c0,2.2-1.9,4.1-4.1,4.1s-4.1-1.9-4.1-4.1v-13
	c0-1.7-1.3-3.2-3-3.3c-1.7-0.1-3.1,1-3.4,2.6c0,0.1-1.4,6.5-11.7,6.5c-1.7,0-3.1,1.4-3.1,3.1s1.4,3.1,3.1,3.1c4.2,0,7.9-0.9,11-2.6
	l0.7-0.4v3.8c0,4.6,3,8.8,7.4,10.1l0.5,0.1l-0.1,0.5c-0.8,3.3,0.2,6.9,2.5,9.4l0.3,0.3l-0.3,0.3c-2.7,2.8-3.5,6.9-2,10.5l0.3,0.7
	h-9.1c-0.6,0.1-1.2,0.1-1.8,0.1c-4.1,0-7-1.4-10.2-3l-1.1-0.6c-5-2.6-10.7-5.6-16.8-5.6H27.4V77.6z"/>
</svg>
