<?xml version="1.0" encoding="utf-8"?>
<!-- Generator: Adobe Illustrator 24.0.2, SVG Export Plug-In . SVG Version: 6.00 Build 0)  -->
<svg version="1.1" id="Capa_1" xmlns="http://www.w3.org/2000/svg" xmlns:xlink="http://www.w3.org/1999/xlink" x="0px" y="0px"
	 viewBox="0 0 141.7 141.7" style="enable-background:new 0 0 141.7 141.7;" xml:space="preserve">
<style type="text/css">
	.st0{fill:#072B60;}
	.st1{fill:none;stroke:#072B60;}
</style>
<path class="st0" d="M132.6,85.6c-2.3-3.4-7-4.3-10.4-2L106.6,94l0-32.4l5.4,5.1c1.2,1.1,2.6,1.7,4.2,1.7c0,0,0,0,0,0
	c1.7,0,3.3-0.7,4.5-2c1.1-1.2,1.7-2.8,1.7-4.4c-0.1-1.7-0.7-3.2-2-4.3L110.1,48c-0.7-0.7-1.8-0.6-2.5,0.1c-0.7,0.7-0.6,1.8,0.1,2.5
	l10.3,9.6c0.5,0.5,0.8,1.2,0.9,1.9c0,0.7-0.2,1.4-0.7,1.9c-0.5,0.5-1.2,0.9-2,0.9c0,0,0,0,0,0c-0.7,0-1.3-0.3-1.8-0.7L73.6,26
	c-0.7-0.6-1.7-0.6-2.4,0L30.6,64.2c-0.5,0.5-1.2,0.8-1.9,0.7c-0.7,0-1.4-0.3-1.9-0.8c-0.5-0.5-0.8-1.2-0.7-1.9
	c0-0.7,0.3-1.4,0.8-1.9l43.6-41.1c1-1,2.7-1,3.7,0l25.5,23.9c0.7,0.7,1.8,0.6,2.5-0.1c0.7-0.7,0.6-1.8-0.1-2.5L76.6,16.6
	c-2.4-2.2-6.1-2.2-8.5,0l-14,13.2l0-2.3c0-0.7-0.3-1.4-0.8-2c-0.5-0.5-1.2-0.8-2-0.8c0,0,0,0,0,0l-10,0c-0.7,0-1.4,0.3-2,0.8
	c-0.5,0.5-0.8,1.2-0.8,2l0,16.9L24.5,57.8c-1.2,1.1-1.9,2.7-1.9,4.3c0,1.7,0.5,3.2,1.7,4.4c1.1,1.2,2.7,1.9,4.3,1.9
	c0.1,0,0.1,0,0.2,0c1.6,0,3.1-0.6,4.2-1.7l5.4-5.1l0,15.3c-1.7-0.3-3.5-0.4-5.3-0.4h-3v-1c0-3.5-2.9-6.4-6.4-6.4h-5.6
	c-3.5,0-6.4,2.9-6.4,6.4v27.3c0,1,0.8,1.7,1.7,1.7s1.7-0.8,1.7-1.7V75.6c0-1.6,1.3-2.9,2.9-2.9h5.6c1.6,0,2.9,1.3,2.9,2.9v41.2
	c0,1.6-1.3,2.9-2.9,2.9h-5.6c-1.6,0-2.9-1.3-2.9-2.9v-3c0-1-0.8-1.7-1.7-1.7s-1.7,0.8-1.7,1.7v3c0,3.5,2.9,6.4,6.4,6.4h5.6
	c3.5,0,6.4-2.9,6.4-6.4v-0.2l25.5,9.7c0,0,0.1,0,0.1,0c1.1,0.3,2.2,0.5,3.3,0.5c0.6,0,1.2,0,1.8-0.1l37.5-5.4c0,0,0,0,0,0
	c3.2-0.5,6.2-1.9,8.7-3.9c0,0,0,0,0.1-0.1l24.2-21.8C134.2,93,134.7,88.7,132.6,85.6z M50.7,28.2l0,4.9l-8.6,8.1l0-13L50.7,28.2z
	 M72.4,29.6l30.6,28.7l0.1,38l-4.9,3.3L93,99.4L92.8,98c-0.5-4.9-4.1-8.8-8.9-9.8l0-22.6c0-1.7-1.4-3.1-3.2-3.1c0,0,0,0,0,0l-16.6,0
	c-0.8,0-1.6,0.3-2.2,0.9C61.3,64,61,64.8,61,65.6l0,19.7c-3.3-0.8-6.4-2-9.4-3.7c-0.4-0.2-0.7-0.4-1.1-0.6c-0.1-0.1-0.3-0.2-0.4-0.2
	c-0.2-0.1-0.5-0.2-0.7-0.4c-0.2-0.1-0.4-0.2-0.6-0.3c-0.2-0.1-0.4-0.2-0.6-0.3c-0.2-0.1-0.4-0.2-0.6-0.3c-0.2-0.1-0.4-0.2-0.6-0.2
	c-0.2-0.1-0.4-0.2-0.6-0.2c-0.2-0.1-0.4-0.1-0.6-0.2c-0.2-0.1-0.4-0.2-0.6-0.2c-0.2-0.1-0.4-0.1-0.6-0.2c-0.2-0.1-0.4-0.1-0.6-0.2
	c-0.2-0.1-0.4-0.1-0.6-0.2C43.3,78.1,43.2,78,43,78c-0.2-0.1-0.5-0.1-0.7-0.2c-0.1,0-0.2-0.1-0.3-0.1l0-19.3L72.4,29.6z M80.5,87.8
	L64.5,86l0-20l15.9,0L80.5,87.8z M129,92.9l-24.2,21.8c-2,1.6-4.4,2.7-7,3.1l-37.5,5.4c0,0,0,0,0,0l0,0c-1.1,0.2-2.3,0.1-3.5-0.2
	l-26.7-10.1V80.1h3c2.5,0,5.1,0.3,7.5,0.9c0.1,0,0.2,0,0.3,0.1c0.3,0.1,0.6,0.1,0.9,0.2c0,0,0.1,0,0.1,0c0.3,0.1,0.6,0.2,0.9,0.3
	c0.1,0,0.1,0,0.2,0c0.3,0.1,0.6,0.2,0.9,0.3c0,0,0.1,0,0.1,0c0.7,0.2,1.3,0.5,1.9,0.7c0,0,0.1,0,0.1,0c0.3,0.1,0.6,0.3,0.9,0.4
	c0,0,0,0,0,0c0.3,0.1,0.6,0.3,0.9,0.4c0,0,0.1,0,0.1,0.1c0.3,0.1,0.6,0.3,0.9,0.5c0.1,0,0.1,0.1,0.2,0.1c0.3,0.2,0.6,0.3,0.9,0.5
	c4.1,2.4,8.7,4,13.4,4.7c0,0,0,0,0,0l19.5,2.2c0.1,0,0.2,0,0.3,0.1c2.9,0.5,5.1,2.7,5.9,5.4c0.1,0.4,0.2,0.8,0.2,1.3l0.1,0.8
	l-36.6-3.2c-1-0.1-1.8,0.6-1.9,1.6c-0.1,1,0.6,1.8,1.6,1.9l38.7,3.4c0,0,0,0,0,0c0,0,0,0,0,0l7.3,0.4c0,0,0.1,0,0.1,0
	c0,0,0.1,0,0.1,0c0,0,0.1,0,0.1,0c0.1,0,0.1,0,0.2,0c0,0,0.1,0,0.1,0c0.1,0,0.1,0,0.2-0.1c0,0,0.1,0,0.1,0c0.1,0,0.2-0.1,0.2-0.1
	l6.2-4.1c0,0,0,0,0,0l18.3-12.2c1.8-1.2,4.3-0.8,5.6,1.1C130.8,89.3,130.5,91.5,129,92.9z"/>
<path class="st1" d="M105.8,98.7l-6.2,4.1c-0.1,0.1-0.2,0.1-0.2,0.1c0,0-0.1,0-0.1,0c-0.1,0-0.1,0-0.2,0.1c0,0-0.1,0-0.1,0
	c-0.1,0-0.1,0-0.2,0c0,0-0.1,0-0.1,0c0,0-0.1,0-0.1,0c0,0-0.1,0-0.1,0l-7.3-0.4c0,0,0,0,0,0c0,0,0,0,0,0l-38.7-3.4
	c-1-0.1-1.7-0.9-1.6-1.9c0.1-1,0.9-1.7,1.9-1.6l36.6,3.2l-0.1-0.8c0-0.4-0.1-0.9-0.2-1.3c-0.8-2.8-3-4.9-5.9-5.4
	c-0.1,0-0.2,0-0.3-0.1l-19.5-2.2c0,0,0,0,0,0c-4.8-0.7-9.3-2.2-13.4-4.7c-0.3-0.2-0.6-0.3-0.9-0.5c-0.1,0-0.1-0.1-0.2-0.1
	c-0.3-0.2-0.6-0.3-0.9-0.5c0,0-0.1,0-0.1-0.1c-0.3-0.1-0.6-0.3-0.9-0.4c0,0,0,0,0,0c-0.3-0.1-0.6-0.3-0.9-0.4c0,0-0.1,0-0.1,0
	c-0.6-0.3-1.3-0.5-1.9-0.7c0,0-0.1,0-0.1,0c-0.3-0.1-0.6-0.2-0.9-0.3c-0.1,0-0.1,0-0.2,0c-0.3-0.1-0.6-0.2-0.9-0.3c0,0-0.1,0-0.1,0
	c-0.3-0.1-0.6-0.2-0.9-0.2c-0.1,0-0.2,0-0.3-0.1c-2.5-0.6-5-0.9-7.5-0.9h-3v32.7L56.8,123c1.2,0.3,2.4,0.4,3.5,0.2l0,0c0,0,0,0,0,0
	l37.5-5.4c2.6-0.4,5-1.5,7-3.1L129,92.9c1.5-1.4,1.8-3.6,0.7-5.3c-1.2-1.8-3.8-2.3-5.6-1.1L105.8,98.7z M105.8,98.7
	C105.8,98.7,105.8,98.7,105.8,98.7z M132.6,85.6c-2.3-3.4-7-4.3-10.4-2L106.6,94l0-32.4l5.4,5.1c1.2,1.1,2.6,1.7,4.2,1.7
	c0,0,0,0,0,0c1.7,0,3.3-0.7,4.5-2c1.1-1.2,1.7-2.8,1.7-4.4c-0.1-1.7-0.7-3.2-2-4.3L110.1,48c-0.7-0.7-1.8-0.6-2.5,0.1
	c-0.7,0.7-0.6,1.8,0.1,2.5l10.3,9.6c0.5,0.5,0.8,1.2,0.9,1.9c0,0.7-0.2,1.4-0.7,1.9c-0.5,0.5-1.2,0.9-2,0.9c0,0,0,0,0,0
	c-0.7,0-1.3-0.3-1.8-0.7L73.6,26c-0.7-0.6-1.7-0.6-2.4,0L30.6,64.2c-0.5,0.5-1.2,0.8-1.9,0.7c-0.7,0-1.4-0.3-1.9-0.8
	c-0.5-0.5-0.8-1.2-0.7-1.9c0-0.7,0.3-1.4,0.8-1.9l43.6-41.1c1-1,2.7-1,3.7,0l25.5,23.9c0.7,0.7,1.8,0.6,2.5-0.1
	c0.7-0.7,0.6-1.8-0.1-2.5L76.6,16.6c-2.4-2.2-6.1-2.2-8.5,0l-14,13.2l0-2.3c0-0.7-0.3-1.4-0.8-2c-0.5-0.5-1.2-0.8-2-0.8c0,0,0,0,0,0
	l-10,0c-0.7,0-1.4,0.3-2,0.8c-0.5,0.5-0.8,1.2-0.8,2l0,16.9L24.5,57.8c-1.2,1.1-1.9,2.7-1.9,4.3c0,1.7,0.5,3.2,1.7,4.4
	c1.1,1.2,2.7,1.9,4.3,1.9c0.1,0,0.1,0,0.2,0c1.6,0,3.1-0.6,4.2-1.7l5.4-5.1l0,15.3c-1.7-0.3-3.5-0.4-5.3-0.4h-3v-1
	c0-3.5-2.9-6.4-6.4-6.4h-5.6c-3.5,0-6.4,2.9-6.4,6.4v27.3c0,1,0.8,1.7,1.7,1.7s1.7-0.8,1.7-1.7V75.6c0-1.6,1.3-2.9,2.9-2.9h5.6
	c1.6,0,2.9,1.3,2.9,2.9v41.2c0,1.6-1.3,2.9-2.9,2.9h-5.6c-1.6,0-2.9-1.3-2.9-2.9v-3c0-1-0.8-1.7-1.7-1.7s-1.7,0.8-1.7,1.7v3
	c0,3.5,2.9,6.4,6.4,6.4h5.6c3.5,0,6.4-2.9,6.4-6.4v-0.2l25.5,9.7c0,0,0.1,0,0.1,0c1.1,0.3,2.2,0.5,3.3,0.5c0.6,0,1.2,0,1.8-0.1
	l37.5-5.4c0,0,0,0,0,0c3.2-0.5,6.2-1.9,8.7-3.9c0,0,0,0,0.1-0.1l24.2-21.8C134.2,93,134.7,88.7,132.6,85.6z M50.7,28.2l0,4.9
	l-8.6,8.1l0-13L50.7,28.2z M72.4,29.6l30.6,28.7l0.1,38l-4.9,3.3L93,99.4L92.8,98c-0.5-4.9-4.1-8.8-8.9-9.8l0-22.6
	c0-1.7-1.4-3.1-3.2-3.1c0,0,0,0,0,0l-16.6,0c-0.8,0-1.6,0.3-2.2,0.9C61.3,64,61,64.8,61,65.6l0,19.7c-3.3-0.8-6.4-2-9.4-3.7
	c-0.4-0.2-0.7-0.4-1.1-0.6c-0.1-0.1-0.3-0.2-0.4-0.2c-0.2-0.1-0.5-0.2-0.7-0.4c-0.2-0.1-0.4-0.2-0.6-0.3c-0.2-0.1-0.4-0.2-0.6-0.3
	c-0.2-0.1-0.4-0.2-0.6-0.3c-0.2-0.1-0.4-0.2-0.6-0.2c-0.2-0.1-0.4-0.2-0.6-0.2c-0.2-0.1-0.4-0.1-0.6-0.2c-0.2-0.1-0.4-0.2-0.6-0.2
	c-0.2-0.1-0.4-0.1-0.6-0.2c-0.2-0.1-0.4-0.1-0.6-0.2c-0.2-0.1-0.4-0.1-0.6-0.2C43.3,78.1,43.2,78,43,78c-0.2-0.1-0.5-0.1-0.7-0.2
	c-0.1,0-0.2-0.1-0.3-0.1l0-19.3L72.4,29.6z M80.5,87.8l0-21.9l-15.9,0l0,20L80.5,87.8z"/>
</svg>
