<?xml version="1.0" encoding="utf-8"?>
<!-- Generator: Adobe Illustrator 24.0.2, SVG Export Plug-In . SVG Version: 6.00 Build 0)  -->
<svg version="1.1" id="Capa_1" xmlns="http://www.w3.org/2000/svg" xmlns:xlink="http://www.w3.org/1999/xlink" x="0px" y="0px"
	 viewBox="0 0 141.7 141.7" style="enable-background:new 0 0 141.7 141.7;" xml:space="preserve">
<style type="text/css">
	.st0{fill:#072B60;}
</style>
<path class="st0" d="M135,66.6l-20.9-35.2c-1.5-2.6-4.8-3.4-7.4-1.9l-5.1,3c-3.9,2.3-5.6,7.1-4.3,11.2c-1.7,0.6-3.6,0.6-5.3-0.1
	c-4-1.3-7.1-3.8-12.1-2.5c-8.5,2.2-8.3,2.1-9.1,2.3c-5-2.8-8-3.7-13.3-1.6l-4.7,1.8c-2.2,0.8-4.6,0.6-6.6-0.6L45,42.3
	c0.6-3.8-1-7.8-4.6-9.9c0,0,0,0,0,0l-5.1-3c-2.6-1.5-5.9-0.7-7.4,1.9L7.1,66.6c-1.5,2.6-0.7,5.9,1.9,7.4l5.1,3
	c1.5,0.9,3.2,1.3,4.9,1.3c1.9,0,3.7-0.5,5.3-1.6l1.1,0.6L23,80.5c-2.7,3.7-1.8,8.9,1.9,11.5c1.7,1.2,3.9,1.8,6.1,1.4
	c0.4,2.1,1.5,4,3.3,5.3c1.7,1.2,3.9,1.8,6.1,1.4c0.4,2.1,1.5,4,3.3,5.3c2.5,1.8,5.5,2,8.1,0.9c0.6,1.5,1.5,2.8,2.9,3.7
	c3.5,2.5,8.4,1.9,11.1-1.4l5.9,3.5c3.9,2.3,9,1,11.3-2.9c0.6-1,1-2.1,1.1-3.2l0,0c3.9,2.3,9,1,11.3-2.9c0.7-1.1,1-2.4,1.1-3.6
	c3.5,0.9,7.2-0.6,9.1-3.8c0.6-1.1,1-2.2,1.1-3.3c3.7,1.5,8,0,10.1-3.5c1.1-1.9,1.4-4.1,0.9-6.3c-0.3-1.2-0.9-2.3-1.7-3.3l3.3-1.9
	c2.8,1.1,5.9,1,8.6-0.6l5.1-3C135.7,72.5,136.6,69.2,135,66.6z M16.5,72.8l-5.1-3c-0.2-0.1-0.3-0.4-0.2-0.7l20.9-35.2
	c0.1-0.2,0.4-0.3,0.7-0.2l5.1,3c2.3,1.3,3,4.2,1.6,6.4L23,71.1C21.7,73.3,18.8,74.1,16.5,72.8z M27.8,88.1c-1.5-1.1-1.8-3.2-0.8-4.7
	l3.3-4.6c1-1.5,3.1-1.9,4.7-0.8c1.5,1.1,1.8,3.2,0.8,4.7l-3.3,4.6C31.3,88.8,29.3,89.1,27.8,88.1z M37.2,94.8
	c-1.5-1.1-1.8-3.2-0.8-4.7l3.3-4.6c0,0,0,0,0,0c0,0,0,0,0,0l3.6-5c0.5-0.7,1.3-1.2,2.2-1.3c0.2,0,0.4,0,0.5,0c0.7,0,1.4,0.2,1.9,0.6
	c0.7,0.5,1.2,1.3,1.3,2.2c0.1,0.9-0.1,1.8-0.6,2.5L41.8,94C40.8,95.5,38.7,95.9,37.2,94.8z M46.6,101.6c-1.5-1.1-1.8-3.2-0.8-4.6
	c0,0,0,0,0,0l6.9-9.6c1.1-1.5,3.2-1.8,4.7-0.8c1.5,1.1,1.8,3.2,0.8,4.7l-3.1,4.3c0,0,0,0,0,0l-3.8,5.3
	C50.2,102.3,48.1,102.6,46.6,101.6z M57.6,106.2c-1.5-1.1-1.8-3.2-0.8-4.6l2.3-3.2c1.1-1.5,3.2-1.8,4.7-0.8c1.5,1.1,1.8,3.2,0.8,4.7
	l-2.3,3.2C61.1,106.9,59.1,107.3,57.6,106.2z M112.8,86.5c-0.9,1.6-3,2.1-4.6,1.2c-2.7-1.6-20-11.8-21.8-12.9
	c-1.2-0.7-2.7-0.3-3.4,0.9c-0.7,1.2-0.3,2.7,0.9,3.4l16.5,9.8l0,0c1.6,0.9,2.1,3,1.2,4.6c-0.9,1.6-3,2.1-4.6,1.2
	c-6.1-3.6-11-6.5-16.5-9.8c-1.2-0.7-2.7-0.3-3.4,0.9c-0.7,1.2-0.3,2.7,0.9,3.4l12.1,7.2l0,0c1.6,0.9,2.1,3,1.2,4.6
	c-0.9,1.6-3,2.1-4.6,1.2l-6.5-3.9c0,0,0,0,0,0c0,0,0,0,0,0l-4.8-2.8c-1.2-0.7-2.7-0.3-3.4,0.9c-0.7,1.2-0.3,2.7,0.9,3.4l4.8,2.8
	c0,0,0,0,0,0c1.6,0.9,2.1,3,1.2,4.6c-0.9,1.6-3,2.1-4.6,1.2l-5.5-3.3c2.4-3.7,1.5-8.6-2.1-11.2c-1.1-0.8-2.2-1.2-3.4-1.4
	c1.3-3.4,0.2-7.4-2.9-9.6c-1.8-1.3-4-1.8-6.1-1.4c-0.4-2.2-1.5-4-3.3-5.3c-3.3-2.4-7.9-1.9-10.7,0.9c-0.6-1-1.4-1.9-2.4-2.6
	c-2.8-2-6.4-2-9.1-0.3l-1.1-0.7L43,46.9l0.7,0.4c3.3,1.9,7.2,2.3,10.9,0.9l4.7-1.8c2.7-1,4.2-1.1,6.9,0.1c-1.8,2-2.8,4.6-2.8,7.3
	v10.9c0,2.9,2.4,5.3,5.3,5.3h0c2.9,0,5.6-1.1,7.7-3.2c1.2-1.2,2.1-2.6,2.6-4.2c3.2,1.9,29.5,17.4,32.5,19.2c0.8,0.5,1.3,1.2,1.5,2
	C113.3,84.9,113.2,85.8,112.8,86.5z M130.6,69.8l-5.1,3c-2.2,1.3-5.1,0.6-6.4-1.6L111.3,58c-0.7-1.2-2.2-1.6-3.4-0.9
	c-1.2,0.7-1.6,2.2-0.9,3.4l7.8,13.1c0.1,0.2,0.3,0.5,0.5,0.7l-2.2,1.3c-0.4,0.3-0.9,0.5-1.3,0.9L78.5,56.6c-1.6-1-3.7,0.2-3.7,2.1
	c0,0.1,0.3,2.7-1.7,4.7c-1.1,1.1-2.6,1.7-4.2,1.7c0,0,0,0,0,0c-0.2,0-0.3-0.2-0.3-0.3V53.9c0-2.9,2-5.3,4.6-5.9l8.2-2.1
	c3-0.8,4.6,0.8,9.1,2.3c3.1,1.2,6.4,1.1,9.4-0.2l1.5,2.5c0.7,1.2,2.2,1.6,3.4,0.9c1.2-0.7,1.6-2.2,0.9-3.4l-2.9-4.9
	c-1.3-2.2-0.6-5.1,1.6-6.4l5.1-3c0.2-0.1,0.5-0.1,0.7,0.2l20.9,35.2C130.9,69.3,130.9,69.6,130.6,69.8z"/>
</svg>
