<?xml version="1.0" encoding="utf-8"?>
<!-- Generator: Adobe Illustrator 24.0.2, SVG Export Plug-In . SVG Version: 6.00 Build 0)  -->
<svg version="1.1" id="Capa_1" xmlns="http://www.w3.org/2000/svg" xmlns:xlink="http://www.w3.org/1999/xlink" x="0px" y="0px"
	 viewBox="0 0 141.7 141.7" style="enable-background:new 0 0 141.7 141.7;" xml:space="preserve">
<style type="text/css">
	.st0{fill:#072B60;}
	.st1{fill:none;stroke:#072B60;}
</style>
<path class="st0" d="M121.4,73.5c-5.4-5.4-11.6-0.3-11.6-0.3V45c0-0.9-0.8-1.7-1.7-1.7c-0.9,0-1.7,0.8-1.7,1.7v30.6
	c0,0-8.2,6.4-11.7,8V32.8c0-2.4,1.9-4.3,4.3-4.3h3.1c2.4,0,4.3,1.9,4.3,4.3v5.1c0,0.9,0.8,1.7,1.7,1.7c0.9,0,1.7-0.8,1.7-1.7v-5.1
	c0-4.2-3.5-7.7-7.7-7.7H99c-4.2,0-7.7,3.5-7.7,7.7v52.1c-1,0.3-2.1,0.5-3.1,0.6V49.4c0-4.3-3.5-7.7-7.7-7.7h-3.1
	c-4.3,0-7.7,3.5-7.7,7.7v17.5l-3.1,1.7v-5.8c0-3.8-3.1-7-7-7h-4.6c-3.8,0-7,3.1-7,7v15.7l-5.6,3l-15.7,4.5c-2.7,0.8-5,2.6-6.4,5
	c-1.4,2.5-1.8,5.3-1.1,8.1l1.8,6.8c0.2,0.9,1.2,1.5,2.1,1.2c0.9-0.2,1.5-1.2,1.2-2.1l-1.8-6.8c-1-3.9,1.2-7.9,5.1-9L41.9,85
	l10.8,28.8c0.7,1.9,0.6,7.4-5.1,9.5l-10.9,2.5c-3.8,0.9-7.5-1.4-8.5-5.2l-2.2-8.5c-0.2-0.9-1.2-1.5-2.1-1.2
	c-0.9,0.2-1.5,1.2-1.2,2.1l2.2,8.5c1.2,4.8,5.5,7.9,10.2,7.9c3.5,0,13.2-2.7,13.2-2.7c3-0.7,5.5-2.6,7-5.3c1.2-2.2,1.5-4.8,1-7.2
	l37.6-9.2c3.1-0.8,6.1-2.2,8.5-4.3l18.3-15C126.3,80.7,123.1,75.1,121.4,73.5z M77.3,45.1h3.1c2.4,0,4.3,1.9,4.3,4.3v36.2l-10.8,0
	c-1,0-0.3-0.7-0.3-0.7l3.1-2.5c2.9-2.4,4.8-5.6,5.6-9.7c0.5-2.6-0.5-5.2-2.6-6.8c-2-1.5-4.5-1.8-6.8-0.8V49.4
	C73,47,75,45.1,77.3,45.1z M51.3,62.7c0-2,1.6-3.5,3.5-3.5h4.6c2,0,3.5,1.6,3.5,3.5v7.6l-11.7,6.2L51.3,62.7z M118.6,83l-18.3,15
	c-2.1,1.7-4.6,2.9-7.2,3.6l-37.8,9.3L45.1,83.7l29.1-15.4c1.2-0.6,2.5-0.5,3.6,0.3c1.1,0.8,1.6,2.1,1.3,3.4
	c-0.7,3.3-2.2,5.9-4.4,7.8l-3.1,2.5c-1.3,1-1.7,2.7-1.2,4.3c0.5,1.5,2,2.5,3.6,2.5l12.5,0c4.4,0,8.7-1.4,12.4-3.9l14-9.8
	c2-1.4,4.6-1.1,6.3,0.6C119.9,76.9,121.8,79.8,118.6,83z"/>
<path class="st0" d="M46.1,114.9c0-3.7-3-6.8-6.8-6.8c-3.7,0-6.8,3-6.8,6.8c0,3.7,3,6.8,6.8,6.8C43.1,121.7,46.1,118.7,46.1,114.9z
	 M36.1,114.9c0-1.8,1.5-3.3,3.3-3.3c1.8,0,3.3,1.5,3.3,3.3c0,1.8-1.5,3.3-3.3,3.3C37.6,118.3,36.1,116.8,36.1,114.9z"/>
<path class="st0" d="M27.1,66.2L52,41.1l5.6,2.9c2,1,4.5,0.7,6.1-0.9L77.2,30c0,0-0.4,6.7,5.3,6.7c2.9,0,5.3-2.4,5.3-5.3V17.6
	c0,0,0,0,0,0c0-3.6-2.7-5.2-5.3-5.2H68.8c-2.9,0-5.3,2.4-5.3,5.3c0,5.8,5.9,5.3,5.9,5.3l-10.3,10l-5.7-2.9c-2.1-1.1-4.5-0.7-6.2,1
	L19.6,58.7c-2,2.1-2,5.4,0,7.5C20.6,67.2,24,69.2,27.1,66.2z M22,61.2l27.6-27.9c0.4-0.4,0.9-1,2.2-0.3l6.8,3.5
	c0.7,0.3,1.4,0.2,2-0.3l14.3-13.8c0.5-0.5,0.7-1.2,0.4-1.9c-0.3-0.6-0.9-1.1-1.6-1.1h-4.9c-1,0-1.8-0.8-1.8-1.8c0-1,0.8-1.8,1.8-1.8
	h13.7c0.5,0,1.8,0,1.8,1.8c0,0,0,0,0,0v13.8c0,1-0.8,1.8-1.8,1.8c-1,0-1.8-0.8-1.8-1.8V26c0-0.7-0.4-1.3-1-1.6
	c-0.6-0.3-1.4-0.1-1.9,0.3L61.3,40.6c-0.6,0.5-1.4,0.7-2.1,0.3l-6.7-3.5c-0.7-0.3-1.5-0.2-2,0.3l-25.8,26c-1.1,1.1-2.3,0.4-2.6,0
	C21.3,63.1,21.3,61.9,22,61.2z"/>
<path class="st1" d="M121.4,73.5c-5.4-5.4-11.6-0.3-11.6-0.3V45c0-0.9-0.8-1.7-1.7-1.7c-0.9,0-1.7,0.8-1.7,1.7v30.6
	c0,0-8.2,6.4-11.7,8V32.8c0-2.4,1.9-4.3,4.3-4.3h3.1c2.4,0,4.3,1.9,4.3,4.3v5.1c0,0.9,0.8,1.7,1.7,1.7c0.9,0,1.7-0.8,1.7-1.7v-5.1
	c0-4.2-3.5-7.7-7.7-7.7H99c-4.2,0-7.7,3.5-7.7,7.7v52.1c-1,0.3-2.1,0.5-3.1,0.6V49.4c0-4.3-3.5-7.7-7.7-7.7h-3.1
	c-4.3,0-7.7,3.5-7.7,7.7v17.5l-3.1,1.7v-5.8c0-3.8-3.1-7-7-7h-4.6c-3.8,0-7,3.1-7,7v15.7l-5.6,3l-15.7,4.5c-2.7,0.8-5,2.6-6.4,5
	c-1.4,2.5-1.8,5.3-1.1,8.1l1.8,6.8c0.2,0.9,1.2,1.5,2.1,1.2c0.9-0.2,1.5-1.2,1.2-2.1l-1.8-6.8c-1-3.9,1.2-7.9,5.1-9L41.9,85
	l10.8,28.8c0.7,1.9,0.6,7.4-5.1,9.5l-10.9,2.5c-3.8,0.9-7.5-1.4-8.5-5.2l-2.2-8.5c-0.2-0.9-1.2-1.5-2.1-1.2
	c-0.9,0.2-1.5,1.2-1.2,2.1l2.2,8.5c1.2,4.8,5.5,7.9,10.2,7.9c3.5,0,13.2-2.7,13.2-2.7c3-0.7,5.5-2.6,7-5.3c1.2-2.2,1.5-4.8,1-7.2
	l37.6-9.2c3.1-0.8,6.1-2.2,8.5-4.3l18.3-15C126.3,80.7,123.1,75.1,121.4,73.5z M77.3,45.1h3.1c2.4,0,4.3,1.9,4.3,4.3v36.2l-10.8,0
	c-1,0-0.3-0.7-0.3-0.7l3.1-2.5c2.9-2.4,4.8-5.6,5.6-9.7c0.5-2.6-0.5-5.2-2.6-6.8c-2-1.5-4.5-1.8-6.8-0.8V49.4
	C73,47,75,45.1,77.3,45.1z M51.3,62.7c0-2,1.6-3.5,3.5-3.5h4.6c2,0,3.5,1.6,3.5,3.5v7.6l-11.7,6.2L51.3,62.7z M118.6,83l-18.3,15
	c-2.1,1.7-4.6,2.9-7.2,3.6l-37.8,9.3L45.1,83.7l29.1-15.4c1.2-0.6,2.5-0.5,3.6,0.3c1.1,0.8,1.6,2.1,1.3,3.4
	c-0.7,3.3-2.2,5.9-4.4,7.8l-3.1,2.5c-1.3,1-1.7,2.7-1.2,4.3c0.5,1.5,2,2.5,3.6,2.5l12.5,0c4.4,0,8.7-1.4,12.4-3.9l14-9.8
	c2-1.4,4.6-1.1,6.3,0.6C119.9,76.9,121.8,79.8,118.6,83z"/>
<path class="st1" d="M46.1,114.9c0-3.7-3-6.8-6.8-6.8c-3.7,0-6.8,3-6.8,6.8c0,3.7,3,6.8,6.8,6.8C43.1,121.7,46.1,118.7,46.1,114.9z
	 M36.1,114.9c0-1.8,1.5-3.3,3.3-3.3c1.8,0,3.3,1.5,3.3,3.3c0,1.8-1.5,3.3-3.3,3.3C37.6,118.3,36.1,116.8,36.1,114.9z"/>
<path class="st1" d="M27.1,66.2L52,41.1l5.6,2.9c2,1,4.5,0.7,6.1-0.9L77.2,30c0,0-0.4,6.7,5.3,6.7c2.9,0,5.3-2.4,5.3-5.3V17.6
	c0,0,0,0,0,0c0-3.6-2.7-5.2-5.3-5.2H68.8c-2.9,0-5.3,2.4-5.3,5.3c0,5.8,5.9,5.3,5.9,5.3l-10.3,10l-5.7-2.9c-2.1-1.1-4.5-0.7-6.2,1
	L19.6,58.7c-2,2.1-2,5.4,0,7.5C20.6,67.2,24,69.2,27.1,66.2z M22,61.2l27.6-27.9c0.4-0.4,0.9-1,2.2-0.3l6.8,3.5
	c0.7,0.3,1.4,0.2,2-0.3l14.3-13.8c0.5-0.5,0.7-1.2,0.4-1.9c-0.3-0.6-0.9-1.1-1.6-1.1h-4.9c-1,0-1.8-0.8-1.8-1.8c0-1,0.8-1.8,1.8-1.8
	h13.7c0.5,0,1.8,0,1.8,1.8c0,0,0,0,0,0v13.8c0,1-0.8,1.8-1.8,1.8c-1,0-1.8-0.8-1.8-1.8V26c0-0.7-0.4-1.3-1-1.6
	c-0.6-0.3-1.4-0.1-1.9,0.3L61.3,40.6c-0.6,0.5-1.4,0.7-2.1,0.3l-6.7-3.5c-0.7-0.3-1.5-0.2-2,0.3l-25.8,26c-1.1,1.1-2.3,0.4-2.6,0
	C21.3,63.1,21.3,61.9,22,61.2z"/>
</svg>
