<?xml version="1.0" encoding="utf-8"?>
<!-- Generator: Adobe Illustrator 24.0.2, SVG Export Plug-In . SVG Version: 6.00 Build 0)  -->
<svg version="1.1" id="Capa_1" xmlns="http://www.w3.org/2000/svg" xmlns:xlink="http://www.w3.org/1999/xlink" x="0px" y="0px"
	 viewBox="0 0 141.7 141.7" style="enable-background:new 0 0 141.7 141.7;" xml:space="preserve">
<style type="text/css">
	.st0{fill:#072B60;}
	.st1{fill:none;stroke:#072B60;stroke-width:0.5;}
</style>
<path class="st0" d="M118.3,66.3c-4.2-2.1-12.1-2.1-12.5-2.1c-1,0-1.8,0.8-1.8,1.8c0,1,0.8,1.8,1.8,1.8c2,0,8,0.3,10.8,1.8
	c0.3,0.1,0.5,0.2,0.8,0.2c0.7,0,1.3-0.4,1.6-1C119.5,67.9,119.2,66.8,118.3,66.3z"/>
<path class="st0" d="M127.3,92.2l-7.5-2.1c-0.3-0.1-0.6-0.4-0.6-0.7v-2.5c0.6-0.4,1.2-0.9,1.7-1.4c2.6-2.6,4.1-6,4.1-9.7v-3.5
	l0.7-1.5c0.8-1.6,1.2-3.4,1.2-5.2v-9.4c0-1-0.8-1.8-1.8-1.8h-17.5c-6.4,0-11.5,5.2-11.5,11.5v0.1c0,1.5,0.3,3,1,4.3l0.9,1.9v3
	c0,4.7,2.3,8.9,5.8,11.5l0,2.6c0,0.4,0,0.6-1.5,1l-3.7,1l-10.6-3.9c0-0.5-0.1-1-0.5-1.4l-3.4-3.6v-6c0.4-0.3,0.7-0.6,1.1-0.9
	c4.3-4,6.7-9.6,6.7-15.5v-4.8c1.3-2.8,1.9-5.8,1.9-8.8V27.2c0-1-0.8-1.8-1.8-1.8H65.1c-9.6,0-17.4,7.8-17.4,17.4v3.9
	c0,3.1,0.7,6,1.9,8.8v4.1c0,6.8,3,12.9,7.8,16.9v6.1L54,86.1c-0.4,0.4-0.5,0.9-0.5,1.4l-11.2,4.1c-0.8,0.3-1.6,0.7-2.2,1.2l-1.8-0.9
	c5.2-2.3,6.9-5.5,7-5.6c0.3-0.5,0.3-1.1,0-1.6c-1.3-2.6-1.5-7.4-1.6-11.3c0-1.3-0.1-2.5-0.2-3.6c-0.6-8.7-7.2-15.3-15.4-15.3
	c-8.2,0-14.8,6.6-15.4,15.3c-0.1,1.1-0.1,2.3-0.2,3.6c-0.1,3.9-0.3,8.7-1.6,11.3c-0.3,0.5-0.3,1.1,0,1.6c0.1,0.2,1.7,3.4,7,5.6
	l-4.9,2.4c-2.6,1.3-4.2,3.9-4.2,6.8v13.4c0,1,0.8,1.8,1.8,1.8s1.8-0.8,1.8-1.8v-13.4c0-1.5,0.8-2.9,2.2-3.6l6.1-3l2.1,2
	c1.5,1.4,3.4,2.1,5.3,2.1c1.9,0,3.8-0.7,5.3-2.1l2.1-2l2,1c-0.9,1.5-1.5,3.2-1.5,5.1v14c0,1,0.8,1.8,1.8,1.8c1,0,1.8-0.8,1.8-1.8
	v-14c0-2.5,1.6-4.7,3.9-5.6l11.8-4.3l4.9,7.4c0.6,0.9,1.6,1.5,2.8,1.7c0.1,0,0.3,0,0.4,0c1,0,1.9-0.4,2.7-1.1l3-3v18.9
	c0,1,0.8,1.8,1.8,1.8c1,0,1.8-0.8,1.8-1.8V95.6l3,3c0.7,0.7,1.7,1.1,2.7,1.1c0.1,0,0.2,0,0.4,0c1.1-0.1,2.1-0.7,2.8-1.7l4.9-7.4
	L98.2,95c2.3,0.9,3.9,3.1,3.9,5.6v14c0,1,0.8,1.8,1.8,1.8c1,0,1.8-0.8,1.8-1.8v-14c0-2.5-1-4.9-2.7-6.6l0.4-0.1
	c0.5-0.1,1.1-0.3,1.7-0.6l4.6,4.6v16.7c0,1,0.8,1.8,1.8,1.8s1.8-0.8,1.8-1.8V97.8l4.6-4.6c0.2,0.1,0.5,0.2,0.8,0.3l7.5,2.1
	c1.7,0.5,2.9,2.1,2.9,3.9v15c0,1,0.8,1.8,1.8,1.8c1,0,1.8-0.8,1.8-1.8v-15C132.9,96.1,130.6,93.1,127.3,92.2z M20.5,89
	c-3.4-1.2-5.1-2.9-5.8-3.7c0.5-1.3,0.8-2.8,1-4.3c1,2.4,2.7,4.5,4.8,5.9V89z M30.9,93.9c-1.5,1.5-4,1.5-5.5,0l-1.7-1.6
	c0.3-0.5,0.4-1.1,0.4-1.8v-1.9c1.3,0.4,2.6,0.6,4,0.6c1.4,0,2.7-0.2,4-0.6l0,1.9c0,0.6,0.2,1.2,0.4,1.8L30.9,93.9z M28.2,85.6
	c-5.4,0-9.8-4.4-9.8-9.8c0-1-0.8-1.8-1.8-1.8c-0.1,0-0.2,0-0.3,0c0-0.2,0-0.3,0-0.5c0-1.2,0.1-2.4,0.2-3.4c0.2-3.3,1.5-6.3,3.7-8.5
	c2.2-2.2,5-3.4,8.1-3.4c3.1,0,6,1.2,8.1,3.4c2.1,2.2,3.4,5.2,3.7,8.5c0.1,1,0.1,2.2,0.2,3.4c0,0.1,0,0.2,0,0.3c-2-3-5-5.3-9-6.6
	c-3.6-1.2-6.8-1.1-6.9-1.1c-0.5,0-0.9,0.2-1.3,0.6l-3.3,3.4c-0.7,0.7-0.7,1.9,0,2.6c0.7,0.7,1.9,0.7,2.6,0l2.7-2.8
	c2.3,0.1,9.9,1,12.8,7.5C37.1,82,33,85.6,28.2,85.6z M35.8,89l0-2.2c2.1-1.5,3.8-3.5,4.8-5.9c0.2,1.6,0.5,3,1,4.3
	C40.9,86.1,39.2,87.8,35.8,89z M53.3,59.5V55c0-0.3-0.1-0.5-0.2-0.8c-1.2-2.4-1.8-5-1.8-7.6v-3.9c0-7.6,6.2-13.7,13.7-13.7h25.4
	v17.6c0,2.6-0.6,5.2-1.8,7.6c-0.1,0.2-0.2,0.5-0.2,0.8v5.2c0,4.9-2,9.5-5.6,12.8c-0.4,0.4-0.9,0.8-1.4,1.2c0,0,0,0,0,0
	c-3.4,2.6-7.5,3.8-11.8,3.5C60.5,77.2,53.3,69.1,53.3,59.5z M63.5,96.1c0,0,0,0-0.1,0c-0.1,0-0.1,0-0.1-0.1l-5.6-8.5l1.8-1.9
	l8.6,5.9L63.5,96.1z M70.9,89.1l-9.8-6.7v-3.4c2.5,1.4,5.4,2.2,8.4,2.4c0.5,0,1,0,1.4,0c3.5,0,6.8-0.8,9.8-2.4v3.3L70.9,89.1z
	 M78.5,96C78.5,96.1,78.4,96.1,78.5,96c-0.2,0.1-0.2,0-0.2,0l-4.5-4.5l8.6-5.9l1.8,1.9L78.5,96z M111.6,94.5l-4.1-4.1
	c0.1-0.3,0.1-0.7,0.1-1.1l0-0.8c1.1,0.4,2.3,0.6,3.6,0.6c0.1,0,0.3,0,0.4,0c1.4,0,2.7-0.2,4-0.6v0.7c0,0.4,0,0.7,0.1,1.1L111.6,94.5
	z M118.5,82.8c-1.9,1.9-4.5,2.9-7.2,2.8c-5.3-0.2-9.5-4.8-9.5-10.3v-3.4c0-0.3-0.1-0.6-0.2-0.8l-1.1-2.2c-0.4-0.8-0.6-1.7-0.6-2.7
	V66c0-4.4,3.5-7.9,7.9-7.9h15.7v7.5c0,1.2-0.3,2.4-0.8,3.5l-0.9,1.8c-0.1,0.3-0.2,0.5-0.2,0.8v3.9C121.5,78.4,120.4,80.9,118.5,82.8
	z"/>
<path class="st0" d="M123.3,101.1c-1,0-1.8,0.8-1.8,1.8v11.7c0,1,0.8,1.8,1.8,1.8s1.8-0.8,1.8-1.8v-11.7
	C125.1,101.9,124.3,101.1,123.3,101.1z"/>
<path class="st0" d="M18.5,103.5c-1,0-1.8,0.8-1.8,1.8v9.3c0,1,0.8,1.8,1.8,1.8c1,0,1.8-0.8,1.8-1.8v-9.3
	C20.3,104.3,19.5,103.5,18.5,103.5z"/>
<path class="st0" d="M85.8,47.2c-6.9-6.9-21.2-5.6-27.1-4.7c-1.8,0.3-3.2,1.8-3.2,3.7v4.2c0,1,0.8,1.8,1.8,1.8c1,0,1.8-0.8,1.8-1.8
	v-4.2c0-0.1,0-0.1,0.1-0.1c2.3-0.4,7-0.9,11.8-0.6c5.7,0.4,9.8,1.8,12.2,4.2c0.7,0.7,1.9,0.7,2.6,0C86.5,49.1,86.5,48,85.8,47.2z"/>
<path class="st0" d="M49.5,105c-1,0-1.8,0.8-1.8,1.8v7.8c0,1,0.8,1.8,1.8,1.8c1,0,1.8-0.8,1.8-1.8v-7.8
	C51.3,105.8,50.5,105,49.5,105z"/>
<path class="st0" d="M92.3,105c-1,0-1.8,0.8-1.8,1.8v7.8c0,1,0.8,1.8,1.8,1.8c1,0,1.8-0.8,1.8-1.8v-7.8
	C94.1,105.8,93.3,105,92.3,105z"/>
<path class="st1" d="M118.3,66.3c-4.2-2.1-12.1-2.1-12.5-2.1c-1,0-1.8,0.8-1.8,1.8c0,1,0.8,1.8,1.8,1.8c2,0,8,0.3,10.8,1.8
	c0.3,0.1,0.5,0.2,0.8,0.2c0.7,0,1.3-0.4,1.6-1C119.5,67.9,119.2,66.8,118.3,66.3z"/>
<path class="st1" d="M127.3,92.2l-7.5-2.1c-0.3-0.1-0.6-0.4-0.6-0.7v-2.5c0.6-0.4,1.2-0.9,1.7-1.4c2.6-2.6,4.1-6,4.1-9.7v-3.5
	l0.7-1.5c0.8-1.6,1.2-3.4,1.2-5.2v-9.4c0-1-0.8-1.8-1.8-1.8h-17.5c-6.4,0-11.5,5.2-11.5,11.5v0.1c0,1.5,0.3,3,1,4.3l0.9,1.9v3
	c0,4.7,2.3,8.9,5.8,11.5l0,2.6c0,0.4,0,0.6-1.5,1l-3.7,1l-10.6-3.9c0-0.5-0.1-1-0.5-1.4l-3.4-3.6v-6c0.4-0.3,0.7-0.6,1.1-0.9
	c4.3-4,6.7-9.6,6.7-15.5v-4.8c1.3-2.8,1.9-5.8,1.9-8.8V27.2c0-1-0.8-1.8-1.8-1.8H65.1c-9.6,0-17.4,7.8-17.4,17.4v3.9
	c0,3.1,0.7,6,1.9,8.8v4.1c0,6.8,3,12.9,7.8,16.9v6.1L54,86.1c-0.4,0.4-0.5,0.9-0.5,1.4l-11.2,4.1c-0.8,0.3-1.6,0.7-2.2,1.2l-1.8-0.9
	c5.2-2.3,6.9-5.5,7-5.6c0.3-0.5,0.3-1.1,0-1.6c-1.3-2.6-1.5-7.4-1.6-11.3c0-1.3-0.1-2.5-0.2-3.6c-0.6-8.7-7.2-15.3-15.4-15.3
	c-8.2,0-14.8,6.6-15.4,15.3c-0.1,1.1-0.1,2.3-0.2,3.6c-0.1,3.9-0.3,8.7-1.6,11.3c-0.3,0.5-0.3,1.1,0,1.6c0.1,0.2,1.7,3.4,7,5.6
	l-4.9,2.4c-2.6,1.3-4.2,3.9-4.2,6.8v13.4c0,1,0.8,1.8,1.8,1.8s1.8-0.8,1.8-1.8v-13.4c0-1.5,0.8-2.9,2.2-3.6l6.1-3l2.1,2
	c1.5,1.4,3.4,2.1,5.3,2.1c1.9,0,3.8-0.7,5.3-2.1l2.1-2l2,1c-0.9,1.5-1.5,3.2-1.5,5.1v14c0,1,0.8,1.8,1.8,1.8c1,0,1.8-0.8,1.8-1.8
	v-14c0-2.5,1.6-4.7,3.9-5.6l11.8-4.3l4.9,7.4c0.6,0.9,1.6,1.5,2.8,1.7c0.1,0,0.3,0,0.4,0c1,0,1.9-0.4,2.7-1.1l3-3v18.9
	c0,1,0.8,1.8,1.8,1.8c1,0,1.8-0.8,1.8-1.8V95.6l3,3c0.7,0.7,1.7,1.1,2.7,1.1c0.1,0,0.2,0,0.4,0c1.1-0.1,2.1-0.7,2.8-1.7l4.9-7.4
	L98.2,95c2.3,0.9,3.9,3.1,3.9,5.6v14c0,1,0.8,1.8,1.8,1.8c1,0,1.8-0.8,1.8-1.8v-14c0-2.5-1-4.9-2.7-6.6l0.4-0.1
	c0.5-0.1,1.1-0.3,1.7-0.6l4.6,4.6v16.7c0,1,0.8,1.8,1.8,1.8s1.8-0.8,1.8-1.8V97.8l4.6-4.6c0.2,0.1,0.5,0.2,0.8,0.3l7.5,2.1
	c1.7,0.5,2.9,2.1,2.9,3.9v15c0,1,0.8,1.8,1.8,1.8c1,0,1.8-0.8,1.8-1.8v-15C132.9,96.1,130.6,93.1,127.3,92.2z M20.5,89
	c-3.4-1.2-5.1-2.9-5.8-3.7c0.5-1.3,0.8-2.8,1-4.3c1,2.4,2.7,4.5,4.8,5.9V89z M30.9,93.9c-1.5,1.5-4,1.5-5.5,0l-1.7-1.6
	c0.3-0.5,0.4-1.1,0.4-1.8v-1.9c1.3,0.4,2.6,0.6,4,0.6c1.4,0,2.7-0.2,4-0.6l0,1.9c0,0.6,0.2,1.2,0.4,1.8L30.9,93.9z M28.2,85.6
	c-5.4,0-9.8-4.4-9.8-9.8c0-1-0.8-1.8-1.8-1.8c-0.1,0-0.2,0-0.3,0c0-0.2,0-0.3,0-0.5c0-1.2,0.1-2.4,0.2-3.4c0.2-3.3,1.5-6.3,3.7-8.5
	c2.2-2.2,5-3.4,8.1-3.4c3.1,0,6,1.2,8.1,3.4c2.1,2.2,3.4,5.2,3.7,8.5c0.1,1,0.1,2.2,0.2,3.4c0,0.1,0,0.2,0,0.3c-2-3-5-5.3-9-6.6
	c-3.6-1.2-6.8-1.1-6.9-1.1c-0.5,0-0.9,0.2-1.3,0.6l-3.3,3.4c-0.7,0.7-0.7,1.9,0,2.6c0.7,0.7,1.9,0.7,2.6,0l2.7-2.8
	c2.3,0.1,9.9,1,12.8,7.5C37.1,82,33,85.6,28.2,85.6z M35.8,89l0-2.2c2.1-1.5,3.8-3.5,4.8-5.9c0.2,1.6,0.5,3,1,4.3
	C40.9,86.1,39.2,87.8,35.8,89z M53.3,59.5V55c0-0.3-0.1-0.5-0.2-0.8c-1.2-2.4-1.8-5-1.8-7.6v-3.9c0-7.6,6.2-13.7,13.7-13.7h25.4
	v17.6c0,2.6-0.6,5.2-1.8,7.6c-0.1,0.2-0.2,0.5-0.2,0.8v5.2c0,4.9-2,9.5-5.6,12.8c-0.4,0.4-0.9,0.8-1.4,1.2c0,0,0,0,0,0
	c-3.4,2.6-7.5,3.8-11.8,3.5C60.5,77.2,53.3,69.1,53.3,59.5z M63.5,96.1c0,0,0,0-0.1,0c-0.1,0-0.1,0-0.1-0.1l-5.6-8.5l1.8-1.9
	l8.6,5.9L63.5,96.1z M70.9,89.1l-9.8-6.7v-3.4c2.5,1.4,5.4,2.2,8.4,2.4c0.5,0,1,0,1.4,0c3.5,0,6.8-0.8,9.8-2.4v3.3L70.9,89.1z
	 M78.5,96C78.5,96.1,78.4,96.1,78.5,96c-0.2,0.1-0.2,0-0.2,0l-4.5-4.5l8.6-5.9l1.8,1.9L78.5,96z M111.6,94.5l-4.1-4.1
	c0.1-0.3,0.1-0.7,0.1-1.1l0-0.8c1.1,0.4,2.3,0.6,3.6,0.6c0.1,0,0.3,0,0.4,0c1.4,0,2.7-0.2,4-0.6v0.7c0,0.4,0,0.7,0.1,1.1L111.6,94.5
	z M118.5,82.8c-1.9,1.9-4.5,2.9-7.2,2.8c-5.3-0.2-9.5-4.8-9.5-10.3v-3.4c0-0.3-0.1-0.6-0.2-0.8l-1.1-2.2c-0.4-0.8-0.6-1.7-0.6-2.7
	V66c0-4.4,3.5-7.9,7.9-7.9h15.7v7.5c0,1.2-0.3,2.4-0.8,3.5l-0.9,1.8c-0.1,0.3-0.2,0.5-0.2,0.8v3.9C121.5,78.4,120.4,80.9,118.5,82.8
	z"/>
<path class="st1" d="M123.3,101.1c-1,0-1.8,0.8-1.8,1.8v11.7c0,1,0.8,1.8,1.8,1.8s1.8-0.8,1.8-1.8v-11.7
	C125.1,101.9,124.3,101.1,123.3,101.1z"/>
<path class="st1" d="M18.5,103.5c-1,0-1.8,0.8-1.8,1.8v9.3c0,1,0.8,1.8,1.8,1.8c1,0,1.8-0.8,1.8-1.8v-9.3
	C20.3,104.3,19.5,103.5,18.5,103.5z"/>
<path class="st1" d="M85.8,47.2c-6.9-6.9-21.2-5.6-27.1-4.7c-1.8,0.3-3.2,1.8-3.2,3.7v4.2c0,1,0.8,1.8,1.8,1.8c1,0,1.8-0.8,1.8-1.8
	v-4.2c0-0.1,0-0.1,0.1-0.1c2.3-0.4,7-0.9,11.8-0.6c5.7,0.4,9.8,1.8,12.2,4.2c0.7,0.7,1.9,0.7,2.6,0C86.5,49.1,86.5,48,85.8,47.2z"/>
<path class="st1" d="M49.5,105c-1,0-1.8,0.8-1.8,1.8v7.8c0,1,0.8,1.8,1.8,1.8c1,0,1.8-0.8,1.8-1.8v-7.8
	C51.3,105.8,50.5,105,49.5,105z"/>
<path class="st1" d="M92.3,105c-1,0-1.8,0.8-1.8,1.8v7.8c0,1,0.8,1.8,1.8,1.8c1,0,1.8-0.8,1.8-1.8v-7.8
	C94.1,105.8,93.3,105,92.3,105z"/>
</svg>
