<?xml version="1.0" encoding="utf-8"?>
<!-- Generator: Adobe Illustrator 24.0.2, SVG Export Plug-In . SVG Version: 6.00 Build 0)  -->
<svg version="1.1" id="Capa_1" xmlns="http://www.w3.org/2000/svg" xmlns:xlink="http://www.w3.org/1999/xlink" x="0px" y="0px"
	 viewBox="0 0 141.7 141.7" style="enable-background:new 0 0 141.7 141.7;" xml:space="preserve">
<style type="text/css">
	.st0{fill-rule:evenodd;clip-rule:evenodd;fill:#FFFFFF;}
</style>
<path class="st0" d="M55.9,29.1c-8.3,0-15,7-15,15.7c0,8.7,6.7,15.7,15,15.7s15-7,15-15.7C70.9,36.1,64.2,29.1,55.9,29.1z
	 M30.9,44.7c0-14.4,11.2-26.1,25-26.1s25,11.7,25,26.1c0,14.4-11.2,26.1-25,26.1S30.9,59.2,30.9,44.7z M86,23.2
	c0.7-2.8,3.4-4.5,6.1-3.8c5.4,1.4,10.1,4.7,13.5,9.3c3.4,4.6,5.3,10.2,5.3,16s-1.8,11.4-5.3,16c-3.4,4.6-8.2,7.9-13.5,9.3
	c-2.7,0.7-5.4-1-6.1-3.8c-0.7-2.8,0.9-5.6,3.6-6.4c3.2-0.9,6.1-2.8,8.1-5.6c2-2.7,3.2-6.1,3.2-9.6c0-3.5-1.1-6.9-3.2-9.6
	c-2-2.7-4.9-4.7-8.1-5.6C87,28.9,85.3,26,86,23.2z M18.2,89c4.7-4.9,11-7.7,17.7-7.7h40c6.6,0,13,2.8,17.7,7.7
	c4.7,4.9,7.3,11.5,7.3,18.5v10.5c0,2.9-2.2,5.2-5,5.2c-2.8,0-5-2.3-5-5.2v-10.5c0-4.2-1.6-8.1-4.4-11.1c-2.8-2.9-6.6-4.6-10.6-4.6
	h-40c-4,0-7.8,1.7-10.6,4.6c-2.8,2.9-4.4,6.9-4.4,11.1v10.5c0,2.9-2.2,5.2-5,5.2c-2.8,0-5-2.3-5-5.2v-10.5
	C10.9,100.5,13.5,93.9,18.2,89z M106,85.9c0.7-2.8,3.4-4.5,6.1-3.8c5.4,1.4,10.1,4.7,13.5,9.3c3.4,4.6,5.2,10.2,5.2,16v10.5
	c0,2.9-2.2,5.2-5,5.2c-2.8,0-5-2.3-5-5.2v-10.4c0-3.5-1.1-6.8-3.1-9.6c-2-2.7-4.9-4.7-8.1-5.6C106.9,91.6,105.3,88.7,106,85.9z"/>
</svg>
