<?xml version="1.0" encoding="utf-8"?>
<!-- Generator: Adobe Illustrator 24.0.2, SVG Export Plug-In . SVG Version: 6.00 Build 0)  -->
<svg version="1.1" id="Capa_1" xmlns="http://www.w3.org/2000/svg" xmlns:xlink="http://www.w3.org/1999/xlink" x="0px" y="0px"
	 viewBox="0 0 141.7 141.7" style="enable-background:new 0 0 141.7 141.7;" xml:space="preserve">
<style type="text/css">
	.st0{fill:#072B60;stroke:#072B60;}
</style>
<path class="st0" d="M135.1,60.5h-4.7l-6.9,3.6c-0.8-0.4-1.6-0.8-2.5-1l-8.7-2.2v-1c3.9-2.7,6.2-7.1,6.2-11.9v-3.6
	c0-8-6.3-14.8-14.1-15c-0.4,0-0.8,0-1.2,0l2.3-5.3l-11-11l-6.5,4.2c-2.5-1.4-5.1-2.5-7.8-3.2l-1.6-7.5H63l-1.6,7.5
	c-2.7,0.8-5.3,1.8-7.8,3.2l-6.5-4.2l-11,11l2.2,5.3c-0.1,0-0.2,0-0.3,0c-4-0.1-7.7,1.3-10.5,4.1c-2.8,2.8-4.4,6.4-4.4,10.4v4.1
	c0,4.7,2.4,9.2,6.2,11.9v1l-5.7,1.4l-10.3-6H6.7v42.9l20.4,6.8h4l0.5-1.7l6.2,3.7c0.1,3.4,2.8,6.1,6.2,6.2c0.1,3.4,2.8,6.1,6.2,6.2
	c0.1,3.4,2.8,6.1,6.2,6.2c0.1,3.5,3,6.2,6.4,6.2c1.3,0,2.6-0.4,3.6-1.1l1.8,1.6c1.1,1,2.6,1.6,4.2,1.6h0.4c3.4,0,6.3-2.8,6.3-6.2
	c3.4,0,6.2-2.8,6.2-6.2c3.4,0,6.2-2.8,6.2-6.2c3.4-0.1,6.2-2.9,6.2-6.4c0-0.2,0-0.4,0-0.6l37.3-18.7V60.5z M114.4,44.5v3.6
	c0,3.7-2,7.1-5.2,9l-1,0.6l0,6.6l10.3,2.6l-22.8,12v-5.6c0-2.8-1.1-5.3-3-7.2l7.1-1.8v-6.6l-1-0.6c-3.2-1.8-5.2-5.3-5.2-9v-4.1
	c0-2.8,1.1-5.5,3.1-7.4c2-2,4.7-3,7.5-2.9C109.9,33.8,114.4,38.6,114.4,44.5z M74,77.1l-9.4-3c-4.3-1.4-8.9-1.6-13.3-0.6l-1.2,0.3
	v-0.6c0-2.9,1.9-5.3,4.7-6l11.9-3v-6.6l-1-0.6c-3.2-1.8-5.2-5.3-5.2-9v-4.1c0-2.8,1.1-5.5,3.1-7.4c2-2,4.7-3,7.5-2.9
	c5.5,0.2,10,5,10,10.9v3.6c0,3.7-2,7.1-5.2,9l-1,0.6l0,6.6l11.9,3c2.8,0.7,4.7,3.2,4.7,6V81l-0.5,0.3h-1.3l-12.7-3.6
	C76.1,77.3,75,77.2,74,77.1z M50.6,37.7c3.9-7.5,11.7-12.4,20.2-12.4c8.4,0,16.2,4.8,20.2,12.2c-1,2-1.5,4.2-1.5,6.4v4.1
	c0,4.7,2.4,9.2,6.2,11.9v1L87.4,63L79.1,61v-1c3.9-2.7,6.2-7.1,6.2-11.9v-3.6c0-8-6.3-14.8-14.1-15c-4-0.1-7.7,1.3-10.5,4.1
	c-2.8,2.8-4.4,6.4-4.4,10.4v4.1c0,4.7,2.4,9.2,6.2,11.9v1L54.3,63L46,61v-1c3.9-2.7,6.2-7.1,6.2-11.9v-3.6
	C52.2,42,51.6,39.7,50.6,37.7z M41.1,25.1l6.6-6.6l5.8,3.8l1.1-0.7c2.8-1.7,5.8-3,9-3.7l1.3-0.3l1.4-6.8h9.1l1.4,6.8l1.3,0.3
	c3.2,0.8,6.2,2,9,3.7l1.1,0.7l5.8-3.8l6.6,6.6l-2.3,5.5c-1.6,0.7-3.1,1.7-4.4,2.9c-0.1,0.1-0.2,0.2-0.2,0.3
	C88.8,26,80.2,21.2,70.9,21.2c-9.4,0-18,4.9-22.9,12.8c-1.3-1.4-2.9-2.5-4.6-3.2L41.1,25.1z M33.6,64.2v-6.6l-1-0.6
	c-3.2-1.8-5.2-5.3-5.2-9v-4.1c0-2.8,1.1-5.5,3.1-7.4c2-2,4.7-3,7.5-2.9c5.5,0.2,10,5,10,10.9v3.6c0,3.7-2,7.1-5.2,9l-1,0.6l0,6.6
	L49,66c-1.8,1.9-3,4.4-3,7.2v1.5l-6.5,1.4l0.2-0.6l0.1-3.8l-10.9-6.4L33.6,64.2z M10.8,60.5h1.5l14.9,8.7l-7.5,30.1l-8.9-3V60.5z
	 M27.7,101.9l-4.1-1.4l7.3-29.2l4.7,2.8v0.6l-7.8,27.2H27.7z M41.9,107.9c0-0.6,0.2-1.2,0.7-1.6l3.6-3.6c0.4-0.4,1-0.7,1.6-0.7
	c1.3,0,2.3,1,2.3,2.3c0,0.6-0.2,1.2-0.7,1.6l-3.6,3.6c-0.4,0.4-1,0.7-1.6,0.7C42.9,110.2,41.9,109.2,41.9,107.9z M48.1,114.1
	c0-0.6,0.2-1.2,0.7-1.6l3.6-3.6c0.4-0.4,1-0.7,1.6-0.7c1.3,0,2.3,1,2.3,2.3c0,0.6-0.2,1.2-0.7,1.6l-3.6,3.6c-0.4,0.4-1,0.7-1.6,0.7
	C49.1,116.4,48.1,115.4,48.1,114.1z M54.3,120.3c0-0.6,0.2-1.2,0.7-1.6l3.6-3.6c0.4-0.4,1-0.7,1.6-0.7c1.3,0,2.3,1,2.3,2.3
	c0,0.6-0.2,1.2-0.7,1.6l-3.6,3.6c-0.4,0.4-1,0.7-1.6,0.7C55.3,122.6,54.3,121.6,54.3,120.3z M62.8,128.9c-1.3,0-2.3-1-2.3-2.3
	c0-0.6,0.2-1.2,0.7-1.6l3.6-3.6c0.4-0.4,1-0.7,1.6-0.7c1.3,0,2.3,1,2.3,2.3c0,0.6-0.2,1.2-0.7,1.6l-3.6,3.6
	C64,128.6,63.4,128.9,62.8,128.9z M72.8,130.9h-0.4c-0.5,0-1-0.2-1.4-0.5l-1.5-1.4l1.6-1.6c0.6-0.6,1-1.2,1.3-1.9l1.9,1.6
	c0.5,0.4,0.8,1,0.8,1.7C75,130,74,130.9,72.8,130.9z M91.4,112.3h-0.4c-0.5,0-1-0.2-1.4-0.5l-11.2-9.4l-2.7,3.2l10.9,9.1
	c0.5,0.4,0.8,1,0.8,1.7c0,1.2-1,2.2-2.2,2.2h-0.5c-0.5,0-1-0.2-1.4-0.5l-11.3-9.4l-2.7,3.2l10.9,9.1c0.5,0.4,0.8,1,0.8,1.7
	c0,1.2-1,2.2-2.2,2.2c-0.8,0-1.6-0.3-2.2-0.8l-4.6-3.9c-1-2.1-3.1-3.5-5.6-3.6c-0.1-3.4-2.8-6.1-6.2-6.2c-0.1-3.4-2.8-6.1-6.2-6.2
	c-0.1-3.5-3-6.2-6.4-6.2c-1.7,0-3.4,0.7-4.6,1.9l-3.6,3.6c-0.2,0.2-0.4,0.5-0.6,0.7l-6.4-3.8l5.6-19.5l14-3.1
	c3.7-0.8,7.5-0.6,11.1,0.5l3.1,1l-10.3,5.2c-2.4,1.2-3.8,3.6-3.8,6.2v0.4c0,3.8,3.1,6.9,6.9,6.9c1.3,0,2.5-0.3,3.6-1l7.7-4.6
	c1.5-0.9,3.6-0.7,5,0.5l17.5,15.7c0.5,0.4,0.7,1,0.7,1.7C93.7,111.3,92.7,112.3,91.4,112.3z M130.9,88.2L96,105.7
	c-0.1-0.1-0.2-0.2-0.4-0.3L78.2,89.6c-1.5-1.4-3.5-2.1-5.6-2.1c-1.5,0-3,0.4-4.3,1.2l-7.7,4.6c-0.4,0.3-0.9,0.4-1.4,0.4
	c-1.5,0-2.8-1.3-2.8-2.8v-0.4c0-1.1,0.6-2,1.5-2.5l11.6-5.8c2-1,4.3-1.2,6.5-0.6l13,3.7l3.2,0.1l38.8-20.4V88.2z"/>
</svg>
