<?xml version="1.0" encoding="utf-8"?>
<!-- Generator: Adobe Illustrator 24.0.2, SVG Export Plug-In . SVG Version: 6.00 Build 0)  -->
<svg version="1.1" id="Capa_1" xmlns="http://www.w3.org/2000/svg" xmlns:xlink="http://www.w3.org/1999/xlink" x="0px" y="0px"
	 viewBox="0 0 141.7 141.7" style="enable-background:new 0 0 141.7 141.7;" xml:space="preserve">
<style type="text/css">
	.st0{fill:#DE6D0F;stroke:#DE6D0F;stroke-width:2;stroke-miterlimit:10;}
</style>
<path class="st0" d="M11.2,132.4H128c1,0,2.1-1,2.1-2.1V71.7c0-1-1-2.1-2.1-2.1H71.9V13.5c0-1-1-2.1-2.1-2.1H11.2
	c-1,0-2.1,1-2.1,2.1v116.9C9.1,131.4,10.2,132.4,11.2,132.4z M67.7,94.6c-11.1-1-19.8-9.7-20.8-20.8h20.8V94.6z M67.7,98.8v6.2
	c-16.6-1-30.2-14.6-31.2-31.2h6.2C43.8,87.3,54.2,97.8,67.7,98.8z M71.9,73.8h20.8c-1,11.1-9.7,19.8-20.8,20.8
	C71.9,94.6,71.9,73.8,71.9,73.8z M46.9,69.7c1-11.1,9.7-19.8,20.8-20.8v20.8H46.9z M67.7,44.7c-13.2,1-23.9,11.8-25,25h-6.2
	c1-16.6,14.6-30.2,31.2-31.2V44.7z M32.4,73.8c1,19.1,16.3,34.3,35.4,35.4v18.7H42.4c-1-15.6-13.5-28.1-29.1-29.1V73.5h19.1V73.8z
	 M13.3,111.6c8.7,1,15.6,8,16.6,16.6H13.3V111.6z M34.1,128.3c-1-11.1-9.7-19.8-20.8-20.8v-4.2c13.2,1,23.9,11.8,25,25H34.1z
	 M101,128.3c1-13.2,11.8-23.9,25-25v4.2c-11.1,1-19.8,9.7-20.8,20.8H101z M109.7,128.3c1-8.7,8-15.6,16.6-16.6v16.6H109.7z
	 M126,99.1c-15.6,1-28.1,13.5-29.1,29.1H71.5v-18.7c19.1-1,34.3-16.3,35.4-35.4h18.7v25H126z M103.1,73.8
	C102,90.5,88.5,104,71.9,105v-6.2c13.2-1,23.9-11.8,25-25H103.1z M67.7,34.3c-19.1,1-34.3,16.3-35.4,35.4H13.7V44.3
	c15.6-1,28.1-13.5,29.1-29.1h25.3v19.1H67.7z M38.3,15.6c-1,13.2-11.8,23.9-25,25v-4.2c11.1-1,19.8-9.7,20.8-20.8
	C34.1,15.6,38.3,15.6,38.3,15.6z M29.9,15.6c-1,8.7-8,15.6-16.6,16.6V15.6H29.9z"/>
<path class="st0" d="M77.4,45.7l1.7,3.8c0.3,0.3,0.3,1,0.7,1.4L76,63.1c-0.3,1,0.3,2.4,1.4,2.8c0.3,0,0.3,0,0.7,0c0.3,0,0.3,0,0.7,0
	L90.6,62l6.9,4.2c1.7,1,3.8,1.7,5.9,1.7h6.6c6.2,0,11.4-5.2,11.4-11.4c0-1.4-0.3-2.8-0.7-4.2l-0.7-3.5c2.4-5.5,2.1-12.1-0.3-17.7
	L131.8,19c0.7-0.7,0.7-2.1,0-3.1l-6.2-6.2c-0.7-0.7-2.1-0.7-3.1,0L111,21.1c-2.4-1.7-5.2-2.8-8.3-3.1l-1.7-0.3
	c-1.4-0.3-2.4-0.3-3.8-0.3h-2.8C83.7,17.3,75,26,75,36.7C75.3,40.2,76,43,77.4,45.7z M87.5,40.9c1.4-4.5,5.5-7.6,10.4-7.6
	c0.3,0,0.7,0,1,0c1.7,0.3,3.5,0.7,4.9,1.7l-4.2,4.2l3.1,3.1l4.2-4.2c1,1.4,1.7,3.1,1.7,4.9c0.3,5.2-2.8,9.7-7.6,11.4l-19.8,6.2
	L87.5,40.9z M116.2,47.5l-0.3,0.7c-0.3,0.3-0.3,1,0,1.4l1.4,3.8c1.4,3.8-0.3,8-4.2,9.7c-1,0.3-1.7,0.7-2.8,0.7h-6.6
	c-1.4,0-2.8-0.3-3.8-1l-3.8-2.4l6.2-2.1c6.6-2.1,11.1-8.7,10.4-15.6c-0.3-2.8-1.4-5.2-3.1-7.6l2.1-2.1l1.7,1.7
	c0.7,0.7,2.1,0.7,3.1,0l0.3-0.3C118,38.4,117.6,43.3,116.2,47.5z M123.9,14.2l3.1,3.1l-12.8,12.8L111,27L123.9,14.2z M83,27.3
	c2.8-3.5,7.3-5.5,11.4-5.5h2.8c1,0,2.1,0,3.1,0.3l1.7,0.3c2.1,0.3,4.2,1,5.9,2.1l-1,1c-0.7,0.7-0.7,2.1,0,3.1l1.7,1.7l-2.1,2.1
	c-6.6-4.9-15.9-3.8-20.8,2.8c-1,1.4-1.7,3.1-2.4,4.5l-1.7,5.5L80.9,44c-0.7-1.4-1-2.4-1.4-3.8C78.8,35.3,79.9,30.8,83,27.3z"/>
</svg>
