<?xml version="1.0" encoding="utf-8"?>
<!-- Generator: Adobe Illustrator 24.0.2, SVG Export Plug-In . SVG Version: 6.00 Build 0)  -->
<svg version="1.1" id="Capa_1" xmlns="http://www.w3.org/2000/svg" xmlns:xlink="http://www.w3.org/1999/xlink" x="0px" y="0px"
	 viewBox="0 0 141.7 141.7" style="enable-background:new 0 0 141.7 141.7;" xml:space="preserve">
<style type="text/css">
	.st0{fill:#DE6D0F;}
</style>
<path class="st0" d="M49.9,109.2h6.8v6.8h-6.8V109.2z"/>
<path class="st0" d="M67.4,109.2h6.8v6.8h-6.8V109.2z"/>
<path class="st0" d="M84.7,109.2h6.8v6.8h-6.8V109.2z"/>
<path class="st0" d="M102,109.2h6.8v6.8H102V109.2z"/>
<path class="st0" d="M32.6,109.2h6.8v6.8h-6.8V109.2z"/>
<path class="st0" d="M129.8,102.1v-6.8c-3.7,0-26.6,0-30.3,0l-20.7-13c3.7-2.6,6-6.5,6-11.3c0-6.5-4.5-11.9-10.5-13.3v-7.4h4.8
	l13-13l-8.5-25.2H57.8l-8.5,25.2l13,13h4.8v13.9h3.4c3.7,0,6.8,3.1,6.8,6.8s-3.1,6.8-6.8,6.8c-3.7,0-6.8-3.1-6.8-6.8h-6.8
	c0,4.5,2.3,8.8,6,11.3l-20.7,13c-3.4,0-26.6,0-30.3,0v6.8h6.8v20.7h-6.8v6.8h117.9v-6.8h-7.1v-20.7H129.8z M57.5,35.1l5.4-16.5h15.9
	l5.4,16.5l-7.9,7.9H65.2L57.5,35.1z M70.8,85.3L86.4,95H55.2L70.8,85.3z M115.9,122.8H25.8v-20.7h90.1V122.8z"/>
<path class="st0" d="M67.4,29.2h6.8V36h-6.8V29.2z"/>
</svg>
