<?xml version="1.0" encoding="utf-8"?>
<!-- Generator: Adobe Illustrator 24.0.2, SVG Export Plug-In . SVG Version: 6.00 Build 0)  -->
<svg version="1.1" id="Capa_1" xmlns="http://www.w3.org/2000/svg" xmlns:xlink="http://www.w3.org/1999/xlink" x="0px" y="0px"
	 viewBox="0 0 141.7 141.7" style="enable-background:new 0 0 141.7 141.7;" xml:space="preserve">
<style type="text/css">
	.st0{fill:#DE6D0F;}
</style>
<path class="st0" d="M113.2,23.4h-4.8v-6.2c0-3.7-3.1-6.8-6.8-6.8h-57c-3.7,0-6.8,3.1-6.8,6.8v6.2h-4.8c-5.1,0-9.1,4-9.1,9.1v15.9
	c0,5.1,4,9.1,9.1,9.1h34.3c1.1,0,2.3,1.1,2.3,2.3v10.2h-5.1c-2,0-3.4,1.4-3.4,3.4l-2,43.1c-0.3,7.9,6,14.8,14.2,14.8
	c7.9,0,14.5-6.5,14.2-14.8l-2-43.1c0-2-1.7-3.4-3.4-3.4h-5.1V59.7c0-5.1-4.3-9.4-9.4-9.4H32.9c-1.1,0-2-0.9-2-2V32.5
	c0-1.1,0.9-2,2-2H38v6.2c0,3.7,3.1,6.8,6.8,6.8h57.3c3.7,0,6.8-3.1,6.8-6.8v-6.2h4.8c2,0,3.4-1.7,3.4-3.4S115.1,23.4,113.2,23.4z
	 M80.3,117c0.3,4-3.1,7.4-7.1,7.4c-4,0-7.1-3.4-7.1-7.4l1.7-39.7h10.5L80.3,117z M101.5,36.5H44.8v-19h56.7V36.5z"/>
<path class="st0" d="M97.9,51.8c-0.9,0.9-7.7,9.1-7.4,17c0.3,6.2,5.1,9.4,9.9,9.4c4.8,0,9.6-3.1,9.9-9.4c0.3-7.9-6.5-16.2-7.4-17
	C101.8,50.1,99.3,50.1,97.9,51.8z M103.2,68.5c0,2.6-2.3,2.6-2.8,2.6c-0.6,0-2.8-0.3-2.8-2.6c0-2.6,1.4-6,2.8-8.2
	C102.1,62.8,103.5,66,103.2,68.5z"/>
</svg>
