<?xml version="1.0" encoding="utf-8"?>
<!-- Generator: Adobe Illustrator 24.0.2, SVG Export Plug-In . SVG Version: 6.00 Build 0)  -->
<svg version="1.1" id="Capa_1" xmlns="http://www.w3.org/2000/svg" xmlns:xlink="http://www.w3.org/1999/xlink" x="0px" y="0px"
	 viewBox="0 0 141.7 141.7" style="enable-background:new 0 0 141.7 141.7;" xml:space="preserve">
<style type="text/css">
	.st0{fill:#DE6D0F;}
</style>
<path class="st0" d="M41.3,94.7V13.8c0-2.6-2.3-4.5-4.5-4.5H13.8c-2.6,0-4.5,2.3-4.5,4.5v113.3c0,2.6,2.3,4.5,4.5,4.5H127
	c2.6,0,4.5-2.3,4.5-4.5v-23c0-2.6-2.3-4.5-4.5-4.5H46.2C43.2,99.3,41.3,97.4,41.3,94.7z M33.8,17.2v83.6c0,0.4,0,0.4-0.4,0.8
	l-16.2,16.2c-0.8,0.8-1.9,0-1.9-0.8v-13.2c0-0.4,0.4-1.1,1.1-1.1h5.3c0.4,0,1.1-0.4,1.1-1.1v-5.3c0-0.4-0.4-1.1-1.1-1.1h-5.3
	c-0.4,0-1.1-0.4-1.1-1.1v-5.3c0-0.4,0.4-1.1,1.1-1.1h8.7c0.4,0,1.1-0.4,1.1-1.1v-5.3c0-0.4-0.4-1.1-1.1-1.1h-8.7
	c-0.4,0-1.1-0.4-1.1-1.1v-3.8c0-0.4,0.4-1.1,1.1-1.1h5.3c0.4,0,1.1-0.4,1.1-1.1v-5.3c0-0.4-0.4-1.1-1.1-1.1h-5.3
	c-0.4,0-1.1-0.4-1.1-1.1v-5.3c0-0.4,0.4-1.1,1.1-1.1h8.7c0.4,0,1.1-0.4,1.1-1.1v-5.3c0-0.4-0.4-1.1-1.1-1.1h-8.7
	c-0.4,0-1.1-0.4-1.1-1.1v-5.3c0-0.4,0.4-1.1,1.1-1.1h5.3c0.4,0,1.1-0.4,1.1-1.1v-5.3c0-0.4-0.4-1.1-1.1-1.1h-5.3
	c-0.4,0-1.1-0.4-1.1-1.1V30c0-0.4,0.4-1.1,1.1-1.1h8.7c0.4,0,1.1-0.4,1.1-1.1v-5.3c0-0.4-0.4-1.1-1.1-1.1h-8.7
	c-0.4,0-1.1-0.4-1.1-1.1v-5.3c0-0.4,0.4-1.1,1.1-1.1h16.2C33.4,16.4,33.8,16.8,33.8,17.2z M123.3,124.5h-5.6c-0.4,0-0.8-0.4-0.8-0.8
	v-9c0-0.4-0.4-0.8-0.8-0.8h-5.6c-0.4,0-0.8,0.4-0.8,0.8v9c0,0.4-0.4,0.8-0.8,0.8h-5.6c-0.4,0-0.8-0.4-0.8-0.8v-5.6
	c0-0.4-0.4-0.8-0.8-0.8h-5.6c-0.4,0-0.8,0.4-0.8,0.8v5.6c0,0.4-0.4,0.8-0.8,0.8h-5.6c-0.4,0-0.8-0.4-0.8-0.8v-9
	c0-0.4-0.4-0.8-0.8-0.8h-5.6c-0.4,0-0.8,0.4-0.8,0.8v9c0,0.4-0.4,0.8-0.8,0.8h-5.6c-0.4,0-0.8-0.4-0.8-0.8v-5.6
	c0-0.4-0.4-0.8-0.8-0.8h-5.6c-0.4,0-0.8,0.4-0.8,0.8v5.6c0,0.4-0.4,0.8-0.8,0.8h-5.6c-0.4,0-0.8-0.4-0.8-0.8v-9
	c0-0.4-0.4-0.8-0.8-0.8h-5.6c-0.4,0-0.8,0.4-0.8,0.8v9c0,0.4-0.4,0.8-0.8,0.8h-5.6c-0.4,0-0.8-0.4-0.8-0.8v-5.6
	c0-0.4-0.4-0.8-0.8-0.8H39c-0.4,0-0.8,0.4-0.8,0.8v5.6c0,0.4-0.4,0.8-0.8,0.8H23.6c-0.8,0-1.1-0.8-0.8-1.5l16.6-16.6
	c0,0,0.4-0.4,0.8-0.4H124c0.4,0,0.8,0.4,0.8,0.8v16.6C124,124.1,123.7,124.5,123.3,124.5z"/>
<path class="st0" d="M62.3,92.1c3.4,0,7.1-1.5,9.8-4.1L124,36l6.8-24.1c0.4-1.1-0.8-2.6-2.3-2.3l-24.1,6.8L52.9,68
	c-2.3,2.3-3.8,4.9-4.1,7.9C47.3,84.6,53.7,92.1,62.3,92.1z M113.1,36.4L87.9,61.6l-9.4-9.4L103.7,27C106,31.1,109,34.5,113.1,36.4z
	 M83,66.9l-5.6,5.6L68,63.1l5.6-5.6L83,66.9z M117.6,30.4c-3.8-1.1-6.8-4.1-7.9-7.9l10.5-3L117.6,30.4
	C118,30.4,117.6,30.4,117.6,30.4z M57.8,73.3l4.9-4.9l9.4,9.4l-4.9,4.9c-2.6,2.6-6.8,3-9.4,0.4c-1.9-1.5-2.6-4.1-1.9-6.4
	C55.9,75.5,56.7,74.4,57.8,73.3z"/>
</svg>
