<?xml version="1.0" encoding="utf-8"?>
<!-- Generator: Adobe Illustrator 24.0.2, SVG Export Plug-In . SVG Version: 6.00 Build 0)  -->
<svg version="1.1" id="Capa_1" xmlns="http://www.w3.org/2000/svg" xmlns:xlink="http://www.w3.org/1999/xlink" x="0px" y="0px"
	 viewBox="0 0 141.7 141.7" style="enable-background:new 0 0 141.7 141.7;" xml:space="preserve">
<style type="text/css">
	.st0{fill:#DE6D0F;}
</style>
<path class="st0" d="M130.1,52.3H112v-5.4c0-1.9-1.6-3.8-3.8-3.8c-1.9,0-3.8,1.6-3.8,3.8v0.3H82.9v-7c0-4.5-3.5-8-8-8h-1v-7.3h11.2
	c1.9,0,3.8-1.6,3.8-3.8c0-2.2-1.6-3.8-3.8-3.8H74V14c0-1.9-1.6-3.8-3.8-3.8c-1.9,0-3.8,1.6-3.8,3.8v3.2H55.2c-1.9,0-3.8,1.6-3.8,3.8
	c0,2.2,1.6,3.8,3.8,3.8h11.2v7.3h-1c-4.5,0-8,3.5-8,8v7H37v-0.3c0-1.9-1.6-3.8-3.8-3.8c-2.2,0-3.8,1.6-3.8,3.8v5.4H11.1
	c-1.9,0-3.8,1.6-3.8,3.8v19.8c0,1.9,1.6,3.8,3.8,3.8h18.2v5.4c0,1.9,1.6,3.8,3.8,3.8c2.2,0,3.8-1.6,3.8-3.8v-0.3h15.3v15.3H52
	c-1.9,0-3.8,1.6-3.8,3.8c0,1.9,1.6,3.8,3.8,3.8h4.1V127c0,1.9,1.6,3.8,3.8,3.8h22c1.9,0,3.8-1.6,3.8-3.8v-19.2h4.1
	c1.9,0,3.8-1.6,3.8-3.8c0-1.9-1.6-3.8-3.8-3.8h-0.3V84.8h15v0.3c0,1.9,1.6,3.8,3.8,3.8c1.9,0,3.8-1.6,3.8-3.8v-5.4h17.9
	c1.9,0,3.8-1.6,3.8-3.8V56.1C134,53.9,132.4,52.3,130.1,52.3z M65.4,40.5c0-0.3,0.3-0.3,0.3-0.3h9.6c0.3,0,0.3,0.3,0.3,0.3v7H65.1
	L65.4,40.5z M15,72.1V59.6h14.7v12.5H15z M78.1,122.5H63.5v-15.3h14.7V122.5z M104.6,76.9H85.5c-1.9,0-3.8,1.6-3.8,3.8v19.2h-22
	V80.7c0-1.9-1.6-3.8-3.8-3.8H36.7c0-2.9,0-19.5,0-22h68V76.9z M126.6,72.1H112V59.6h14.7V72.1z"/>
</svg>
